<svg width="28" height="28" viewBox="0 0 28 28" fill="none" xmlns="http://www.w3.org/2000/svg">
<path d="M14 15.75C12.3113 15.75 10.9375 17.3206 10.9375 19.25C10.9375 21.1794 12.3113 22.75 14 22.75C15.6887 22.75 17.0625 21.1794 17.0625 19.25C17.0625 17.3206 15.6887 15.75 14 15.75ZM14 21.875C12.7925 21.875 11.8125 20.6981 11.8125 19.25C11.8125 17.8019 12.7925 16.625 14 16.625C15.2075 16.625 16.1875 17.8019 16.1875 19.25C16.1875 20.6981 15.2075 21.875 14 21.875Z" fill="#EEAD1E"/>
<path d="M24.8281 12.3985L21.3281 6.33037C21.038 5.82796 20.5603 5.46136 19.9999 5.31122C19.4395 5.16107 18.8424 5.23968 18.34 5.52975C18.1387 5.64787 18.8344 5.96725 12.4556 2.301C11.9537 2.01057 11.3571 1.93129 10.7967 2.0806C10.2364 2.22991 9.75832 2.59558 9.4675 3.09725C3.60062 13.2647 4.29188 12.2497 3.9375 12.2497C3.35734 12.2497 2.80094 12.4802 2.3907 12.8905C1.98047 13.3007 1.75 13.8571 1.75 14.4372V24.0622C1.75 24.6424 1.98047 25.1988 2.3907 25.609C2.80094 26.0193 3.35734 26.2497 3.9375 26.2497H24.0625C24.6427 26.2497 25.1991 26.0193 25.6093 25.609C26.0195 25.1988 26.25 24.6424 26.25 24.0622V14.4372C26.2479 13.9933 26.1107 13.5605 25.8568 13.1963C25.6028 12.8321 25.244 12.5539 24.8281 12.3985ZM20.5625 6.76787L23.73 12.2497H22.7237L20.6894 8.7235C20.6608 8.67337 20.6226 8.62938 20.5769 8.59408C20.5313 8.55878 20.4791 8.53287 20.4234 8.51782C20.3677 8.50277 20.3095 8.4989 20.2523 8.50642C20.1951 8.51393 20.1399 8.5327 20.09 8.56162C19.9406 8.6479 19.7758 8.70389 19.6047 8.7264C19.4337 8.7489 19.26 8.73748 19.0934 8.69279C18.9268 8.64809 18.7706 8.571 18.6339 8.46592C18.4971 8.36083 18.3824 8.22982 18.2962 8.08037C18.2677 8.03024 18.2295 7.98626 18.1838 7.95096C18.1381 7.91566 18.086 7.88974 18.0303 7.87469C17.9745 7.85965 17.9164 7.85577 17.8592 7.86329C17.802 7.87081 17.7468 7.88957 17.6969 7.9185L10.1981 12.2497H8.44812L18.7731 6.291C19.0738 6.11777 19.4309 6.0707 19.7663 6.16006C20.1016 6.24943 20.3879 6.46797 20.5625 6.76787ZM17.7887 8.87662C18.0735 9.19907 18.447 9.4304 18.8625 9.54167C19.2781 9.65295 19.7172 9.63924 20.125 9.50225L21.7131 12.2497H11.9481L17.7887 8.87662ZM7.4725 11.8122L10.6706 6.2735C11.0782 6.40904 11.5167 6.42157 11.9314 6.30954C12.3461 6.1975 12.7186 5.96586 13.0025 5.6435L15.575 7.131L7.4725 11.8122ZM10.2287 3.53912C10.4034 3.23922 10.6897 3.02068 11.025 2.93131C11.3603 2.84194 11.7174 2.88902 12.0181 3.06225L17.325 6.12475L16.45 6.63225L13.0988 4.69412C12.9983 4.63708 12.8794 4.62209 12.7679 4.65242C12.6564 4.68275 12.5615 4.75593 12.5037 4.856C12.4176 5.00603 12.3027 5.13756 12.1656 5.24302C12.0285 5.34848 11.8719 5.4258 11.7048 5.47052C11.5377 5.51525 11.3634 5.52649 11.1919 5.50362C11.0204 5.48075 10.8552 5.42421 10.7056 5.33725C10.6557 5.30832 10.6005 5.28956 10.5433 5.28204C10.4861 5.27452 10.428 5.2784 10.3722 5.29344C10.3165 5.30849 10.2644 5.33441 10.2187 5.36971C10.173 5.40501 10.1348 5.44899 10.1063 5.49912L6.20375 12.2497H5.19312L10.2287 3.53912ZM25.375 24.0622C25.375 24.4103 25.2367 24.7442 24.9906 24.9903C24.7444 25.2365 24.4106 25.3747 24.0625 25.3747H3.9375C3.5894 25.3747 3.25556 25.2365 3.00942 24.9903C2.76328 24.7442 2.625 24.4103 2.625 24.0622V14.4372C2.625 14.0892 2.76328 13.7553 3.00942 13.5092C3.25556 13.263 3.5894 13.1247 3.9375 13.1247H24.0625C24.4106 13.1247 24.7444 13.263 24.9906 13.5092C25.2367 13.7553 25.375 14.0892 25.375 14.4372V24.0622Z" fill="#EEAD1E"/>
<path d="M24.0625 15.75C23.7144 15.75 23.3806 15.6117 23.1344 15.3656C22.8883 15.1194 22.75 14.7856 22.75 14.4375C22.75 14.3215 22.7039 14.2102 22.6219 14.1281C22.5398 14.0461 22.4285 14 22.3125 14H5.6875C5.57147 14 5.46019 14.0461 5.37814 14.1281C5.29609 14.2102 5.25 14.3215 5.25 14.4375C5.25 14.7856 5.11172 15.1194 4.86558 15.3656C4.61944 15.6117 4.2856 15.75 3.9375 15.75C3.82147 15.75 3.71019 15.7961 3.62814 15.8781C3.54609 15.9602 3.5 16.0715 3.5 16.1875V22.3125C3.5 22.4285 3.54609 22.5398 3.62814 22.6219C3.71019 22.7039 3.82147 22.75 3.9375 22.75C4.2856 22.75 4.61944 22.8883 4.86558 23.1344C5.11172 23.3806 5.25 23.7144 5.25 24.0625C5.25 24.1785 5.29609 24.2898 5.37814 24.3719C5.46019 24.4539 5.57147 24.5 5.6875 24.5H22.3125C22.4285 24.5 22.5398 24.4539 22.6219 24.3719C22.7039 24.2898 22.75 24.1785 22.75 24.0625C22.75 23.7144 22.8883 23.3806 23.1344 23.1344C23.3806 22.8883 23.7144 22.75 24.0625 22.75C24.1785 22.75 24.2898 22.7039 24.3719 22.6219C24.4539 22.5398 24.5 22.4285 24.5 22.3125V16.1875C24.5 16.0715 24.4539 15.9602 24.3719 15.8781C24.2898 15.7961 24.1785 15.75 24.0625 15.75ZM23.625 21.9187C23.2046 22.0045 22.8187 22.212 22.5153 22.5153C22.212 22.8187 22.0045 23.2046 21.9187 23.625H6.08125C5.99551 23.2046 5.78805 22.8187 5.48467 22.5153C5.18129 22.212 4.79539 22.0045 4.375 21.9187V16.5813C4.79539 16.4955 5.18129 16.288 5.48467 15.9847C5.78805 15.6813 5.99551 15.2954 6.08125 14.875H21.9187C22.0045 15.2954 22.212 15.6813 22.5153 15.9847C22.8187 16.288 23.2046 16.4955 23.625 16.5813V21.9187Z" fill="#EEAD1E"/>
</svg>
