<svg width="26" height="28" viewBox="0 0 26 28" fill="none" xmlns="http://www.w3.org/2000/svg">
<path d="M25.6713 16.0027C25.0845 15.1184 23.8879 14.875 23.0042 15.4596L18.1862 18.6495C17.9511 18.0622 17.4321 17.6088 16.7829 17.4776L8.84285 15.8621C8.1341 15.7177 7.45597 15.8282 6.82707 16.1908L4.38965 17.5984L3.88871 16.7305C3.59996 16.2307 2.95847 16.0584 2.45918 16.3472L0.52324 17.465C0.282068 17.6045 0.109256 17.8303 0.0365212 18.1005C-0.0362132 18.3712 0.000427494 18.6534 0.139881 18.8945L5.09457 27.4766C5.23402 27.7178 5.45988 27.8906 5.73004 27.9634C5.82082 27.988 5.91269 28 6.00457 28C6.18558 28 6.36386 27.9524 6.5241 27.86L8.46168 26.7411C8.95879 26.4513 9.13051 25.8103 8.8434 25.311L8.34301 24.4448L8.91121 24.1166C9.46027 23.8 10.0607 23.7552 10.6492 23.9865L13.43 25.078C13.7844 25.2175 14.1448 25.2864 14.5008 25.2864C15.0581 25.2864 15.6044 25.1169 16.0999 24.7822L25.1288 18.6692C25.5564 18.3865 25.8485 17.9523 25.9513 17.447C26.053 16.9416 25.954 16.4292 25.6713 16.0027ZM8.02254 25.9853L6.08605 27.1031C6.03355 27.1338 5.98215 27.1261 5.9559 27.1195C5.92965 27.1124 5.88152 27.0927 5.8509 27.0402L0.896209 18.4581C0.849724 18.3772 0.878709 18.2695 0.959646 18.223L2.89558 17.1052C2.94808 17.0745 3.00004 17.0822 3.02574 17.0888C3.05199 17.0959 3.10011 17.1155 3.13074 17.168L3.84715 18.4084C3.84824 18.41 3.84879 18.4122 3.84988 18.4144C3.85097 18.416 3.85207 18.4182 3.85316 18.4198L7.36137 24.4956C7.36301 24.4984 7.3641 24.5011 7.36574 24.5038C7.36738 24.5066 7.36902 24.5087 7.37066 24.5115L8.08433 25.748C8.13301 25.8305 8.10402 25.9377 8.02254 25.9853ZM25.0938 17.2725C25.0375 17.5492 24.8783 17.786 24.6421 17.9424L15.6093 24.0581C15.0357 24.4459 14.3925 24.517 13.7489 24.2643L10.9686 23.1733C10.1242 22.8408 9.26176 22.9053 8.47371 23.3598L7.90551 23.6879L4.8266 18.3559L7.26402 16.9488C7.70863 16.6928 8.16801 16.6179 8.6684 16.7196L16.609 18.3351C17.099 18.4341 17.4523 18.8694 17.449 19.3703C17.449 19.3752 17.4496 19.3802 17.4501 19.3851C17.4496 19.3927 17.4485 19.4004 17.4479 19.4086C17.4457 19.4633 17.4392 19.5185 17.4282 19.5732C17.373 19.8466 17.2128 20.0823 16.9782 20.2377C16.7436 20.393 16.4636 20.4482 16.1907 20.393L10.8253 19.3014C10.589 19.2533 10.3577 19.4059 10.3096 19.6427C10.2614 19.8795 10.414 20.1102 10.6508 20.1584L16.0162 21.2499C16.1442 21.2756 16.2727 21.2887 16.4007 21.2887C16.7742 21.2887 17.1406 21.1788 17.4611 20.9672C17.8904 20.6828 18.1835 20.2497 18.2857 19.7449C18.2939 19.7028 18.3005 19.6612 18.306 19.6202L23.4865 16.1902C23.9689 15.8709 24.6224 16.0043 24.9429 16.4872C25.096 16.7174 25.1501 16.9969 25.0938 17.2725ZM8.82972 9.86727L10.2609 10.3327C10.2822 10.3868 10.3046 10.4404 10.3282 10.4945L9.64621 11.8333C9.41926 12.2752 9.50293 12.81 9.85621 13.1655L10.9226 14.2319C11.2737 14.583 11.808 14.6677 12.2537 14.4424L13.593 13.7583C13.6466 13.7818 13.7002 13.8042 13.7543 13.8255L14.2186 15.2573C14.3761 15.7374 14.8038 16.048 15.3086 16.048H16.8168C17.3211 16.048 17.7487 15.7374 17.9068 15.2556L18.3705 13.8255C18.4252 13.8037 18.4788 13.7818 18.5318 13.7588L19.8733 14.4424C20.3174 14.6672 20.8517 14.5819 21.2028 14.2313L22.2703 13.1638C22.6203 12.8111 22.705 12.2768 22.4797 11.8344L21.7967 10.4945C21.8196 10.4409 21.8421 10.3868 21.8639 10.3327L23.2951 9.86727C23.7682 9.71359 24.0859 9.27664 24.0859 8.77844V7.27016C24.0859 6.77141 23.7682 6.33336 23.2957 6.18023L21.8645 5.71484C21.8432 5.6607 21.8207 5.60711 21.7978 5.55406L22.4808 4.21258C22.7061 3.76906 22.6214 3.23531 22.2703 2.88367L21.205 1.81836C20.8533 1.46398 20.3179 1.37922 19.8733 1.60672L18.5335 2.28922C18.4793 2.2657 18.4252 2.24328 18.3716 2.22195L17.9073 0.789687C17.7487 0.310078 17.3211 0 16.8168 0H15.3086C14.8043 0 14.3767 0.310625 14.2186 0.792422L13.7549 2.22305C13.7013 2.24438 13.6471 2.2668 13.593 2.29031L12.2537 1.60781C11.8086 1.38031 11.2732 1.46508 10.9226 1.81836L9.85621 2.88477C9.50293 3.23805 9.41871 3.77234 9.64566 4.21367L10.3282 5.55461C10.3052 5.60766 10.2828 5.66125 10.2614 5.71539L8.83027 6.18078C8.35722 6.33445 8.04004 6.7725 8.04004 7.2707V8.77898C8.03949 9.27609 8.35722 9.71359 8.82972 9.86727ZM8.91394 7.27016C8.91394 7.14602 8.9834 7.04922 9.10043 7.01148L10.7312 6.48156C10.8603 6.43945 10.9625 6.34047 11.0079 6.2125C11.0659 6.04898 11.1332 5.88711 11.2075 5.7318C11.2661 5.6093 11.2644 5.46602 11.2026 5.34516L10.4239 3.815C10.3692 3.70836 10.3883 3.58859 10.4742 3.50219L11.5417 2.43469C11.6281 2.34773 11.7451 2.32914 11.8561 2.38602L13.383 3.16422C13.5039 3.22547 13.6461 3.22766 13.768 3.17023C13.9343 3.09148 14.0923 3.02641 14.2509 2.97008C14.3794 2.92469 14.4789 2.82188 14.5211 2.69281L15.0493 1.06367C15.0882 0.945547 15.185 0.874453 15.3086 0.874453H16.8168C16.9404 0.874453 17.0372 0.945 17.0755 1.06203L17.6043 2.69281C17.6464 2.82242 17.746 2.92469 17.8745 2.97008C18.0331 3.02586 18.1911 3.09148 18.3574 3.17023C18.4799 3.2282 18.6221 3.22602 18.7424 3.16422L20.2698 2.38602C20.3803 2.32969 20.4973 2.34828 20.5848 2.43633L21.6512 3.50273C21.7371 3.58859 21.7557 3.70891 21.701 3.81719L20.9228 5.3457C20.861 5.46656 20.8593 5.60984 20.9179 5.73234C20.9922 5.8882 21.0595 6.05008 21.1175 6.21305C21.1628 6.34047 21.2651 6.44 21.3942 6.48211L23.025 7.01258C23.1414 7.05031 23.2109 7.14711 23.2109 7.27125V8.77953C23.2109 8.90258 23.1414 8.99883 23.0244 9.03656L21.3936 9.56703C21.2646 9.60914 21.1623 9.70813 21.1169 9.83609C21.0595 9.99797 20.9917 10.1604 20.9162 10.3201C20.8582 10.4426 20.8604 10.5848 20.9217 10.7056L21.6999 12.232C21.7557 12.3419 21.7371 12.4605 21.6501 12.548L20.5837 13.6145C20.4968 13.7014 20.3781 13.72 20.2682 13.6642L18.7424 12.8844C18.6215 12.8231 18.4793 12.8209 18.3568 12.8789C18.2032 12.9516 18.0446 13.0173 17.8712 13.0802C17.7443 13.1261 17.6459 13.2278 17.6043 13.3563L17.0755 14.9844C17.0367 15.1025 16.9399 15.1736 16.8163 15.1736H15.308C15.185 15.1736 15.0882 15.103 15.0493 14.986L14.5205 13.3569C14.4789 13.2284 14.3805 13.1266 14.2536 13.0807C14.0896 13.0211 13.9304 12.9549 13.768 12.8778C13.7089 12.8499 13.645 12.8357 13.581 12.8357C13.5126 12.8357 13.4443 12.8516 13.3819 12.8838L11.8567 13.6626C11.7451 13.7189 11.627 13.7003 11.54 13.6134L10.4747 12.548C10.3867 12.4595 10.3675 12.3413 10.4239 12.2314L11.2021 10.7045C11.2633 10.5837 11.2655 10.4415 11.2075 10.319C11.1321 10.1593 11.0648 9.99687 11.0068 9.835C10.9614 9.70758 10.8592 9.60805 10.7301 9.56594L9.09879 9.03547C8.9823 8.99773 8.91285 8.90148 8.91285 8.77844V7.27016H8.91394ZM16.0616 11.9673C18.2371 11.9673 20.0068 10.1981 20.0068 8.02375C20.0068 5.84938 18.2371 4.08023 16.0616 4.08023C13.8872 4.08023 12.1181 5.84938 12.1181 8.02375C12.1181 10.1981 13.8872 11.9673 16.0616 11.9673ZM16.0616 4.95414C17.7547 4.95414 19.1323 6.33117 19.1323 8.02375C19.1323 9.71633 17.7547 11.0928 16.0616 11.0928C14.369 11.0928 12.992 9.71578 12.992 8.02375C12.9925 6.33117 14.369 4.95414 16.0616 4.95414ZM15.2457 9.57742L13.7713 8.10305C13.6007 7.93242 13.6007 7.6557 13.7713 7.48508C13.9419 7.31445 14.2186 7.31445 14.3893 7.48508L15.5546 8.64992L17.735 6.46953C17.9057 6.29891 18.1824 6.29891 18.353 6.46953C18.5236 6.64016 18.5236 6.91688 18.353 7.0875L15.8636 9.57687C15.7783 9.66219 15.6662 9.70484 15.5546 9.70484C15.4431 9.70484 15.331 9.66273 15.2457 9.57742Z" fill="#EEAD1E"/>
</svg>
