<svg width="28" height="28" viewBox="0 0 28 28" fill="none" xmlns="http://www.w3.org/2000/svg">
<g clip-path="url(#clip0_6193_1552)">
<path d="M18.126 9.46993C18.5939 7.31727 20.5102 5.70508 22.8031 5.70508C25.4466 5.70508 27.5895 7.84801 27.5895 10.4915C27.5895 13.135 25.4466 15.2779 22.8031 15.2779C22.45 15.2779 22.1058 15.2397 21.7743 15.1671" stroke="#EEAD1E" stroke-width="0.820312" stroke-miterlimit="10" stroke-linecap="round" stroke-linejoin="round"/>
<path d="M23.7507 7.36035C25.0955 7.76613 26.0744 9.01465 26.0744 10.4918C26.0744 12.2981 24.6104 13.7621 22.8041 13.7621C22.2982 13.7621 21.8197 13.6478 21.3926 13.4427" stroke="#EEAD1E" stroke-width="0.820312" stroke-miterlimit="10" stroke-linecap="round" stroke-linejoin="round"/>
<path d="M19.5332 10.4916C19.5332 9.02215 20.5028 7.77855 21.8366 7.36621" stroke="#EEAD1E" stroke-width="0.820312" stroke-miterlimit="10" stroke-linecap="round" stroke-linejoin="round"/>
<path d="M23.347 9.26994C23.347 9.26994 22.9691 9.02166 22.5729 9.16226C22.1929 9.29712 22.0292 9.77487 22.3288 10.1075C22.5018 10.2996 22.737 10.3161 23.0878 10.4669C23.8159 10.7801 23.5669 11.8075 22.7938 11.8127C22.492 11.8147 22.3049 11.748 22.0859 11.6222" stroke="#EEAD1E" stroke-width="0.820312" stroke-miterlimit="10" stroke-linecap="round" stroke-linejoin="round"/>
<path d="M22.793 11.835V12.3268" stroke="#EEAD1E" stroke-width="0.820312" stroke-miterlimit="10" stroke-linecap="round" stroke-linejoin="round"/>
<path d="M22.793 8.61328V9.1052" stroke="#EEAD1E" stroke-width="0.820312" stroke-miterlimit="10" stroke-linecap="round" stroke-linejoin="round"/>
<path d="M12.708 8.71452C13.2523 8.58507 13.8202 8.5166 14.4042 8.5166C18.4388 8.5166 21.7095 11.7873 21.7095 15.8219C21.7095 17.664 21.0277 19.3469 19.9027 20.6319" stroke="#EEAD1E" stroke-width="0.820312" stroke-miterlimit="10" stroke-linecap="round" stroke-linejoin="round"/>
<path d="M7.23738 17.2466C7.14638 16.786 7.09863 16.3097 7.09863 15.8224C7.09863 14.0696 7.71595 12.4611 8.745 11.2021" stroke="#EEAD1E" stroke-width="0.820312" stroke-miterlimit="10" stroke-linecap="round" stroke-linejoin="round"/>
<path d="M12.3535 17.6932L13.7504 14.0254C13.7674 13.9807 13.8103 13.9512 13.8581 13.9512C13.9061 13.9512 13.9491 13.9809 13.966 14.0258L15.3501 17.6932" stroke="#EEAD1E" stroke-width="0.820312" stroke-miterlimit="10" stroke-linecap="round" stroke-linejoin="round"/>
<path d="M12.7979 16.7617H14.9126" stroke="#EEAD1E" stroke-width="0.820312" stroke-miterlimit="10" stroke-linecap="round" stroke-linejoin="round"/>
<path d="M16.8252 13.9512L19.4576 17.6932" stroke="#EEAD1E" stroke-width="0.820312" stroke-miterlimit="10" stroke-linecap="round" stroke-linejoin="round"/>
<path d="M19.2729 13.9512L16.6367 17.6932" stroke="#EEAD1E" stroke-width="0.820312" stroke-miterlimit="10" stroke-linecap="round" stroke-linejoin="round"/>
<path d="M9.35059 13.9512H11.417" stroke="#EEAD1E" stroke-width="0.820312" stroke-miterlimit="10" stroke-linecap="round" stroke-linejoin="round"/>
<path d="M10.3799 14.0713V17.6938" stroke="#EEAD1E" stroke-width="0.820312" stroke-miterlimit="10" stroke-linecap="round" stroke-linejoin="round"/>
<path d="M15.8203 22.8309L17.3587 22.5318L19.9033 20.6319V20.6314L20.9183 19.8739C21.1316 19.7148 21.3809 19.6377 21.6292 19.6377C21.971 19.6377 22.3101 19.7848 22.5447 20.067C22.9816 20.5925 22.9149 21.3713 22.3948 21.8148L21.5991 22.4929" stroke="#EEAD1E" stroke-width="0.820312" stroke-miterlimit="10" stroke-linecap="round" stroke-linejoin="round"/>
<path d="M0.410156 24.1727L3.84234 23.1883C4.66594 22.952 5.55133 23.0833 6.27156 23.5481L10.0767 26.0047C10.6963 26.4045 11.4461 26.5494 12.1696 26.4088L17.8795 25.2981C18.2416 25.2281 18.579 25.0652 18.8595 24.8262L20.1414 23.7341" stroke="#EEAD1E" stroke-width="0.820312" stroke-miterlimit="10" stroke-linecap="round" stroke-linejoin="round"/>
<path d="M3.89156 17.9512L0.410156 18.6113" stroke="#EEAD1E" stroke-width="0.820312" stroke-miterlimit="10" stroke-linecap="round" stroke-linejoin="round"/>
<path d="M5.77246 17.5937L7.78824 17.2114C8.93941 16.9878 10.1239 17.3777 10.9169 18.2423L11.2614 18.6174C11.7383 19.1381 12.2896 19.5849 12.8977 19.9442C13.5769 20.3461 14.5055 20.8957 15.2263 21.3212C15.8371 21.6816 16.04 22.4691 15.6764 23.086L15.66 23.1133C15.3165 23.6968 14.57 23.8997 13.9783 23.5699L10.9629 21.891C10.4986 21.6324 9.96535 21.5235 9.43652 21.5788" stroke="#EEAD1E" stroke-width="0.820312" stroke-miterlimit="10" stroke-linecap="round" stroke-linejoin="round"/>
<path d="M12.9237 4.54809C13.1436 5.09715 13.2645 5.69707 13.2645 6.32488C13.2645 8.96793 11.1212 11.1111 8.47766 11.1111C5.83461 11.1111 3.69141 8.96793 3.69141 6.32488C3.69141 3.68129 5.83461 1.53809 8.47766 1.53809C9.80273 1.53809 11.002 2.07676 11.8688 2.94684" stroke="#EEAD1E" stroke-width="0.820312" stroke-miterlimit="10" stroke-linecap="round" stroke-linejoin="round"/>
<path d="M8.47773 9.59608C10.2841 9.59608 11.7484 8.13174 11.7484 6.32538C11.7484 4.51903 10.2841 3.05469 8.47773 3.05469C6.67137 3.05469 5.20703 4.51903 5.20703 6.32538C5.20703 8.13174 6.67137 9.59608 8.47773 9.59608Z" stroke="#EEAD1E" stroke-width="0.820312" stroke-miterlimit="10" stroke-linecap="round" stroke-linejoin="round"/>
<path d="M9.02086 5.10392C9.02086 5.10392 8.64291 4.85564 8.2467 4.99624C7.86668 5.1311 7.703 5.60885 8.00258 5.94151C8.17561 6.13363 8.41082 6.15004 8.76164 6.30092C9.48975 6.61406 9.24076 7.64148 8.46759 7.64667C8.16588 7.64869 7.97873 7.58203 7.75977 7.45614" stroke="#EEAD1E" stroke-width="0.820312" stroke-miterlimit="10" stroke-linecap="round" stroke-linejoin="round"/>
<path d="M8.46777 7.66895V8.16086" stroke="#EEAD1E" stroke-width="0.820312" stroke-miterlimit="10" stroke-linecap="round" stroke-linejoin="round"/>
<path d="M8.46777 4.44727V4.93913" stroke="#EEAD1E" stroke-width="0.820312" stroke-miterlimit="10" stroke-linecap="round" stroke-linejoin="round"/>
</g>
<defs>
<clipPath id="clip0_6193_1552">
<rect width="28" height="28" fill="white"/>
</clipPath>
</defs>
</svg>
