<svg width="70" height="68" viewBox="0 0 70 68" fill="none" xmlns="http://www.w3.org/2000/svg">
<rect x="1.16602" y="0.5" width="67" height="67" rx="33.5" stroke="#D9D9D9"/>
<path d="M38.7 20C35.9275 20.145 33.6158 22.4824 33.4724 25.2877C33.4682 25.3562 33.4784 25.4249 33.5025 25.4891C33.5266 25.5534 33.564 25.6116 33.6121 25.6601C33.6602 25.7086 33.718 25.7462 33.7816 25.7703C33.8452 25.7944 33.9132 25.8045 33.981 25.8C36.7535 25.655 39.0652 23.3195 39.2086 20.5152C39.2128 20.4467 39.2025 20.378 39.1784 20.3138C39.1543 20.2495 39.117 20.1912 39.0689 20.1428C39.0207 20.0943 38.9629 20.0567 38.8993 20.0326C38.8357 20.0085 38.7678 19.9984 38.7 20.0029V20ZM38.0728 21.1484C37.6875 22.8826 36.3233 24.2611 34.6082 24.6516C34.9925 22.9174 36.3577 21.537 38.0728 21.1484ZM29.2773 26.7667C27.7381 26.7667 25.9025 27.1881 24.457 28.6401C23.0096 30.0901 22 32.5222 22 36.4333C22 40.3735 23.3767 43.4803 24.9417 45.6167C25.7237 46.6848 26.5574 47.5268 27.3069 48.0942C28.0584 48.6607 28.6645 49 29.2792 49C30.8051 49 31.6378 48.7313 32.3127 48.4877C32.9867 48.2412 33.4762 48.0333 34.6168 48.0333C35.7583 48.0333 36.2478 48.2412 36.9208 48.4877C37.5967 48.7313 38.4294 49 39.9552 49C40.8902 49 42.1761 48.4123 43.5021 47.0957C44.831 45.781 46.1503 43.7239 46.8387 40.7224C46.8568 40.659 46.8616 40.5925 46.853 40.5271C46.8443 40.4617 46.8223 40.3988 46.7882 40.3422C46.7542 40.2856 46.7089 40.2366 46.6551 40.198C46.6013 40.1595 46.5401 40.1324 46.4754 40.1183C44.1302 39.5576 42.3817 37.4957 42.3817 34.9833C42.3817 32.8721 43.6025 31.0393 45.3836 30.179C45.4437 30.1478 45.4966 30.1044 45.5388 30.0516C45.581 29.9988 45.6117 29.9378 45.6288 29.8725C45.6459 29.8072 45.6491 29.7391 45.6381 29.6725C45.6272 29.6059 45.6024 29.5424 45.5652 29.4859C44.0614 27.1727 41.765 26.7667 39.9543 26.7667C38.4438 26.7667 37.3959 27.0325 36.5891 27.279C35.7793 27.5284 35.2363 27.7333 34.6168 27.7333C33.9953 27.7333 33.4533 27.5284 32.6454 27.279C31.8376 27.0335 30.7869 26.7667 29.2773 26.7667ZM29.2773 27.7333C30.6808 27.7333 31.5737 27.9508 32.3414 28.1877C33.1101 28.4216 33.7802 28.7 34.6168 28.7C35.4523 28.7 36.1225 28.4216 36.8921 28.1877C37.6598 27.9508 38.5518 27.7333 39.9543 27.7333C41.525 27.7333 43.2306 28.062 44.5031 29.7276C42.6914 30.8325 41.4094 32.7175 41.4094 34.9833C41.4094 37.7432 43.2258 40.0351 45.7163 40.8742C45.0452 43.4581 43.962 45.2851 42.8348 46.4016C41.6426 47.5838 40.4008 48.0333 39.9543 48.0333C38.5355 48.0333 37.9103 47.8187 37.2545 47.579C36.5996 47.3422 35.8873 47.0667 34.6158 47.0667C33.3443 47.0667 32.633 47.3422 31.9772 47.579C31.3223 47.8187 30.698 48.0333 29.2783 48.0333C29.1444 48.0333 28.5479 47.811 27.8825 47.3083C27.2199 46.8057 26.4293 46.0681 25.6998 45.0724C24.2419 43.0811 22.9704 40.1521 22.9704 36.4333C22.9704 32.6856 23.9015 30.5299 25.1234 29.3042C26.3452 28.0784 27.9073 27.7333 29.2773 27.7333Z" fill="black"/>
<path d="M35.332 66.2175C35.332 67.2019 36.1307 68.0049 37.1138 67.9533C40.9698 67.7509 44.7678 66.8929 48.3433 65.4119C52.4683 63.7032 56.2165 61.1988 59.3737 58.0416C62.5309 54.8844 65.0353 51.1363 66.7439 47.0112C68.2249 43.4358 69.083 39.6378 69.2853 35.7817C69.3369 34.7986 68.534 34 67.5495 34C66.5651 34 65.7724 34.7988 65.7148 35.7815C65.5162 39.1692 64.7521 42.5041 63.4503 45.647C61.9208 49.3395 59.679 52.6946 56.8528 55.5208C54.0267 58.3469 50.6715 60.5888 46.979 62.1183C43.8361 63.4201 40.5012 64.1842 37.1135 64.3828C36.1308 64.4404 35.332 65.233 35.332 66.2175Z" fill="url(#paint0_linear_1257_214)"/>
<defs>
<linearGradient id="paint0_linear_1257_214" x1="1.33201" y1="68" x2="1.33202" y2="-2.4803e-06" gradientUnits="userSpaceOnUse">
<stop stop-color="white"/>
<stop offset="0.475962" stop-color="#F9D58C"/>
<stop offset="1" stop-color="#F9D58C"/>
</linearGradient>
</defs>
</svg>
