<svg xmlns="http://www.w3.org/2000/svg" width="29" height="29" viewBox="0 0 29 29" fill="none">
  <g clip-path="url(#clip0_1100_7300)">
    <path d="M27.9057 18.8101C27.7126 18.2399 27.2512 17.8258 26.6067 17.644C25.9131 17.4485 25.0112 17.5108 23.9259 17.8292L18.985 19.2787C18.9642 19.2364 18.942 19.1947 18.9182 19.1535C18.6423 18.6756 18.1984 18.3341 17.6684 18.1921L14.1582 17.2515C11.5964 15.4564 10.2236 15.9721 8.20495 16.9593C7.23917 17.4315 6.27973 17.8882 5.37257 18.3169L5.18232 17.8601C4.92982 17.254 4.23103 16.9655 3.62465 17.2174L1.72853 18.0048C1.43294 18.1275 1.20342 18.3568 1.08228 18.6505C0.961152 18.9441 0.962191 19.2686 1.08524 19.564L4.29605 27.274C4.48647 27.7314 4.93103 28.0078 5.39828 28.0077C5.55031 28.0077 5.7048 27.9784 5.85371 27.9166L7.74984 27.1293C8.04543 27.0065 8.27495 26.7772 8.39608 26.4835C8.51721 26.1899 8.51618 25.8654 8.39313 25.57L8.17804 25.0535L9.41387 24.4527C9.86526 24.2332 10.319 24.1946 10.8011 24.3345L14.7451 25.4796C15.0355 25.5639 15.3355 25.6 15.64 25.6C16.6883 25.6 17.7876 25.1723 18.7116 24.8127C18.7929 24.781 18.8728 24.7499 18.9509 24.7198L26.3529 21.8674C27.5512 21.4058 28.2913 19.9485 27.9057 18.8101ZM7.68832 26.1917C7.64522 26.2961 7.56281 26.3781 7.45617 26.4223L5.56004 27.2096C5.34304 27.2996 5.09307 27.1966 5.00278 26.9797L1.79202 19.2698C1.74767 19.1633 1.74696 19.047 1.79005 18.9426C1.83314 18.8382 1.91556 18.7563 2.0222 18.712L3.91827 17.9246C3.97153 17.9025 4.02677 17.892 4.08118 17.892C4.24836 17.892 4.40739 17.9909 4.47553 18.1545L7.68635 25.8645C7.7307 25.971 7.73141 26.0872 7.68832 26.1917ZM26.0775 21.1532L18.6756 24.0056C18.5967 24.036 18.5161 24.0674 18.4339 24.0994C17.3492 24.5214 15.9993 25.0467 14.9585 24.7446L11.0145 23.5994C10.3513 23.4068 9.70011 23.4624 9.07907 23.7643L7.88317 24.3457L5.66718 19.0245C6.58642 18.5902 7.55991 18.127 8.54122 17.6472C10.428 16.7245 11.5176 16.3175 13.7718 17.9161C13.8089 17.9423 13.8503 17.9618 13.8941 17.9735L17.4702 18.9318C17.8027 19.0208 18.0814 19.2356 18.2551 19.5363C18.4287 19.8371 18.4753 20.1859 18.3862 20.5184C18.2972 20.8509 18.0824 21.1295 17.7816 21.3032C17.4808 21.4769 17.1321 21.5235 16.7996 21.4344L12.0472 20.1609C11.8429 20.1063 11.633 20.2274 11.5783 20.4316C11.5236 20.6358 11.6448 20.8457 11.8491 20.9005L16.6014 22.1739C17.1314 22.3159 17.6865 22.2421 18.1644 21.9662C18.6423 21.6903 18.9837 21.2464 19.1258 20.7164C19.1878 20.4851 19.2087 20.249 19.1896 20.0165L24.1414 18.5638C25.7775 18.0839 26.9137 18.2677 27.1806 19.0557C27.4335 19.8023 26.8871 20.8412 26.0775 21.1532ZM13.2553 14.9161L14.9101 14.5821L15.4483 16.1822C15.4962 16.3248 15.6233 16.4261 15.773 16.4411C15.7858 16.4423 15.7985 16.443 15.8112 16.443C15.9469 16.443 16.0738 16.3708 16.1426 16.2516L18.332 12.4595C18.6301 12.5072 18.9356 12.5323 19.2469 12.5323C19.5582 12.5323 19.8637 12.5072 20.1618 12.4595L22.3512 16.2516C22.42 16.3708 22.5469 16.443 22.6826 16.443C22.6952 16.443 22.708 16.4423 22.7208 16.4411C22.8705 16.4261 22.9976 16.3248 23.0456 16.1822L23.5837 14.5821L25.2385 14.9161C25.386 14.9458 25.5372 14.8865 25.6251 14.7642C25.7129 14.6421 25.721 14.4797 25.6457 14.3494L23.5086 10.648C24.4451 9.62182 25.0169 8.25759 25.0169 6.76221C25.017 3.5806 22.4285 0.992188 19.2469 0.992188C16.0653 0.992188 13.4768 3.58066 13.4768 6.76227C13.4768 8.25764 14.0487 9.62187 14.9851 10.648L12.8481 14.3495C12.7728 14.4798 12.7809 14.6421 12.8688 14.7643C12.9566 14.8865 13.108 14.9458 13.2553 14.9161ZM23.4042 13.7648C23.2151 13.7266 23.0271 13.8352 22.9656 14.018L22.5902 15.1344L20.9412 12.2783C21.6813 12.0505 22.3583 11.6775 22.9391 11.1927L24.5586 13.9979L23.4042 13.7648ZM19.2469 1.75781C22.0063 1.75781 24.2514 4.00279 24.2514 6.76227C24.2514 9.52174 22.0064 11.7667 19.2469 11.7667C16.4874 11.7667 14.2424 9.52174 14.2424 6.76227C14.2424 4.00279 16.4874 1.75781 19.2469 1.75781ZM15.5547 11.1927C16.1354 11.6775 16.8124 12.0505 17.5525 12.2783L15.9036 15.1344L15.5282 14.018C15.4666 13.8352 15.2784 13.7266 15.0896 13.7648L13.9351 13.9979L15.5547 11.1927ZM17.959 5.9688C17.959 5.43757 18.337 4.98645 18.8574 4.83338L18.8535 4.6714C18.8484 4.46003 19.0157 4.28459 19.2271 4.27956C19.4366 4.27431 19.6139 4.44177 19.6189 4.65313L19.6234 4.84055C19.9053 4.924 20.2154 5.08877 20.3698 5.32377C20.486 5.50041 20.4368 5.7378 20.2602 5.85391C20.0835 5.97001 19.8461 5.92095 19.73 5.74426C19.6751 5.67043 19.3909 5.54334 19.2469 5.54334C18.9589 5.54334 18.7246 5.7342 18.7246 5.9688C18.7246 6.20341 18.9589 6.39427 19.2469 6.39427C19.9571 6.39427 20.5348 6.92863 20.5348 7.58537C20.5348 8.11638 20.1571 8.56739 19.6371 8.72057L19.6403 8.85297C19.6454 9.06434 19.4782 9.23983 19.2669 9.24491C19.2637 9.24497 19.2606 9.24502 19.2575 9.24502C19.0503 9.24502 18.8799 9.0797 18.8749 8.87145L18.8715 8.72768C18.5927 8.64959 18.4006 8.48853 18.2269 8.32474C18.0731 8.17966 18.0661 7.93739 18.2112 7.78355C18.3562 7.62977 18.5985 7.62272 18.7524 7.76781C18.9488 7.95314 19.0426 8.01084 19.247 8.01084C19.535 8.01084 19.7693 7.81998 19.7693 7.58537C19.7693 7.35076 19.5349 7.1599 19.247 7.1599C18.5367 7.1599 17.959 6.6256 17.959 5.9688ZM19.2469 10.1044C21.0898 10.1044 22.5891 8.60513 22.5891 6.76221C22.5891 4.9193 21.0898 3.41998 19.2469 3.41998C17.404 3.41998 15.9047 4.9193 15.9047 6.76221C15.9047 8.60513 17.404 10.1044 19.2469 10.1044ZM19.2469 4.18566C20.6676 4.18566 21.8235 5.34154 21.8235 6.76227C21.8235 8.18299 20.6676 9.33887 19.2469 9.33887C17.8262 9.33887 16.6703 8.18299 16.6703 6.76227C16.6703 5.34154 17.8262 4.18566 19.2469 4.18566Z" fill="#EEAD1E"/>
  </g>
  <defs>
    <clipPath id="clip0_1100_7300">
      <rect width="28" height="28" fill="white" transform="translate(0.5 0.5)"/>
    </clipPath>
  </defs>
</svg>