<svg width="24" height="24" viewBox="0 0 24 24" fill="none" xmlns="http://www.w3.org/2000/svg">
<path d="M15.5312 18.9694C15.6008 19.039 15.6562 19.1218 15.6938 19.2128C15.7316 19.3038 15.751 19.4015 15.751 19.5C15.751 19.5985 15.7316 19.6962 15.6938 19.7872C15.6562 19.8782 15.6008 19.961 15.5312 20.0306C15.4615 20.1002 15.3788 20.1556 15.2878 20.1932C15.1968 20.231 15.0991 20.2504 15.0006 20.2504C14.9021 20.2504 14.8044 20.231 14.7134 20.1932C14.6224 20.1556 14.5397 20.1002 14.47 20.0306L6.96997 12.5306C6.90029 12.4609 6.84488 12.3782 6.80717 12.2872C6.76946 12.1962 6.75 12.0985 6.75 12C6.75 11.9015 6.76946 11.8038 6.80717 11.7128C6.84488 11.6218 6.90029 11.539 6.96997 11.4694L14.47 3.96935C14.6107 3.82868 14.8015 3.74956 15.0006 3.74956C15.1997 3.74956 15.3905 3.82868 15.5312 3.96935C15.672 4.11002 15.7511 4.30081 15.7511 4.5C15.7511 4.69919 15.672 4.88998 15.5312 5.03065L8.56091 12L15.5312 18.9694Z" fill="currentColor"/>
</svg>
