<svg xmlns="http://www.w3.org/2000/svg" width="29" height="29" viewBox="0 0 29 29" fill="none">
  <path d="M14.5 16.25C12.8113 16.25 11.4375 17.8206 11.4375 19.75C11.4375 21.6794 12.8113 23.25 14.5 23.25C16.1887 23.25 17.5625 21.6794 17.5625 19.75C17.5625 17.8206 16.1887 16.25 14.5 16.25ZM14.5 22.375C13.2925 22.375 12.3125 21.1981 12.3125 19.75C12.3125 18.3019 13.2925 17.125 14.5 17.125C15.7075 17.125 16.6875 18.3019 16.6875 19.75C16.6875 21.1981 15.7075 22.375 14.5 22.375Z" fill="#EEAD1E"/>
  <path d="M25.3281 12.8987L21.8281 6.83062C21.538 6.32821 21.0603 5.96161 20.4999 5.81146C19.9395 5.66132 19.3424 5.73992 18.84 6.02999C18.6388 6.14812 19.3344 6.46749 12.9556 2.80124C12.4537 2.51081 11.8571 2.43154 11.2967 2.58084C10.7364 2.73015 10.2583 3.09582 9.9675 3.59749C4.10062 13.765 4.79187 12.75 4.4375 12.75C3.85734 12.75 3.30094 12.9805 2.8907 13.3907C2.48047 13.8009 2.25 14.3573 2.25 14.9375V24.5625C2.25 25.1427 2.48047 25.6991 2.8907 26.1093C3.30094 26.5195 3.85734 26.75 4.4375 26.75H24.5625C25.1427 26.75 25.6991 26.5195 26.1093 26.1093C26.5195 25.6991 26.75 25.1427 26.75 24.5625V14.9375C26.7479 14.4935 26.6107 14.0607 26.3568 13.6965C26.1028 13.3324 25.744 13.0541 25.3281 12.8987ZM21.0625 7.26812L24.23 12.75H23.2237L21.1894 9.22374C21.1608 9.17361 21.1226 9.12963 21.0769 9.09433C21.0313 9.05903 20.9791 9.03311 20.9234 9.01806C20.8677 9.00302 20.8095 8.99914 20.7523 9.00666C20.6951 9.01418 20.6399 9.03294 20.59 9.06187C20.4406 9.14814 20.2758 9.20414 20.1047 9.22664C19.9337 9.24915 19.76 9.23773 19.5934 9.19303C19.4268 9.14834 19.2706 9.07124 19.1339 8.96616C18.9971 8.86108 18.8824 8.73007 18.7962 8.58062C18.7677 8.53048 18.7295 8.4865 18.6838 8.4512C18.6381 8.4159 18.586 8.38998 18.5303 8.37494C18.4745 8.35989 18.4164 8.35602 18.3592 8.36353C18.302 8.37105 18.2468 8.38981 18.1969 8.41874L10.6981 12.75H8.94812L19.2731 6.79124C19.5738 6.61802 19.9309 6.57094 20.2663 6.66031C20.6016 6.74967 20.8879 6.96821 21.0625 7.26812ZM18.2887 9.37687C18.5735 9.69931 18.947 9.93064 19.3625 10.0419C19.7781 10.1532 20.2172 10.1395 20.625 10.0025L22.2131 12.75H12.4481L18.2887 9.37687ZM7.9725 12.3125L11.1706 6.77374C11.5782 6.90928 12.0167 6.92181 12.4314 6.80978C12.8461 6.69775 13.2186 6.4661 13.5025 6.14374L16.075 7.63124L7.9725 12.3125ZM10.7287 4.03937C10.9034 3.73946 11.1897 3.52092 11.525 3.43156C11.8603 3.34219 12.2174 3.38927 12.5181 3.56249L17.825 6.62499L16.95 7.13249L13.5988 5.19437C13.4983 5.13733 13.3794 5.12234 13.2679 5.15266C13.1564 5.18299 13.0615 5.25617 13.0037 5.35624C12.9176 5.50627 12.8027 5.6378 12.6656 5.74326C12.5285 5.84872 12.3719 5.92604 12.2048 5.97077C12.0377 6.01549 11.8634 6.02674 11.6919 6.00387C11.5204 5.98099 11.3552 5.92445 11.2056 5.83749C11.1557 5.80856 11.1005 5.7898 11.0433 5.78228C10.9861 5.77477 10.928 5.77864 10.8722 5.79369C10.8165 5.80873 10.7644 5.83465 10.7187 5.86995C10.673 5.90525 10.6348 5.94923 10.6062 5.99937L6.70375 12.75H5.69313L10.7287 4.03937ZM25.875 24.5625C25.875 24.9106 25.7367 25.2444 25.4906 25.4906C25.2444 25.7367 24.9106 25.875 24.5625 25.875H4.4375C4.0894 25.875 3.75556 25.7367 3.50942 25.4906C3.26328 25.2444 3.125 24.9106 3.125 24.5625V14.9375C3.125 14.5894 3.26328 14.2556 3.50942 14.0094C3.75556 13.7633 4.0894 13.625 4.4375 13.625H24.5625C24.9106 13.625 25.2444 13.7633 25.4906 14.0094C25.7367 14.2556 25.875 14.5894 25.875 14.9375V24.5625Z" fill="#EEAD1E"/>
  <path d="M24.5625 16.25C24.2144 16.25 23.8806 16.1117 23.6344 15.8656C23.3883 15.6194 23.25 15.2856 23.25 14.9375C23.25 14.8215 23.2039 14.7102 23.1219 14.6281C23.0398 14.5461 22.9285 14.5 22.8125 14.5H6.1875C6.07147 14.5 5.96019 14.5461 5.87814 14.6281C5.79609 14.7102 5.75 14.8215 5.75 14.9375C5.75 15.2856 5.61172 15.6194 5.36558 15.8656C5.11944 16.1117 4.7856 16.25 4.4375 16.25C4.32147 16.25 4.21019 16.2961 4.12814 16.3781C4.04609 16.4602 4 16.5715 4 16.6875V22.8125C4 22.9285 4.04609 23.0398 4.12814 23.1219C4.21019 23.2039 4.32147 23.25 4.4375 23.25C4.7856 23.25 5.11944 23.3883 5.36558 23.6344C5.61172 23.8806 5.75 24.2144 5.75 24.5625C5.75 24.6785 5.79609 24.7898 5.87814 24.8719C5.96019 24.9539 6.07147 25 6.1875 25H22.8125C22.9285 25 23.0398 24.9539 23.1219 24.8719C23.2039 24.7898 23.25 24.6785 23.25 24.5625C23.25 24.2144 23.3883 23.8806 23.6344 23.6344C23.8806 23.3883 24.2144 23.25 24.5625 23.25C24.6785 23.25 24.7898 23.2039 24.8719 23.1219C24.9539 23.0398 25 22.9285 25 22.8125V16.6875C25 16.5715 24.9539 16.4602 24.8719 16.3781C24.7898 16.2961 24.6785 16.25 24.5625 16.25ZM24.125 22.4187C23.7046 22.5045 23.3187 22.712 23.0153 23.0153C22.712 23.3187 22.5045 23.7046 22.4187 24.125H6.58125C6.49551 23.7046 6.28805 23.3187 5.98467 23.0153C5.68129 22.712 5.29539 22.5045 4.875 22.4187V17.0813C5.29539 16.9955 5.68129 16.788 5.98467 16.4847C6.28805 16.1813 6.49551 15.7954 6.58125 15.375H22.4187C22.5045 15.7954 22.712 16.1813 23.0153 16.4847C23.3187 16.788 23.7046 16.9955 24.125 17.0813V22.4187Z" fill="#EEAD1E"/>
</svg>