<svg width="20" height="20" viewBox="0 0 20 20" fill="none" xmlns="http://www.w3.org/2000/svg">
<g clip-path="url(#clip0_1273_1271)">
<path d="M10 0.625C4.8225 0.625 0.625 4.8225 0.625 10C0.625 15.1775 4.8225 19.375 10 19.375C15.1775 19.375 19.375 15.1775 19.375 10C19.375 4.8225 15.1775 0.625 10 0.625ZM1.25 10C1.25 6.51 3.30438 3.49188 6.26688 2.08844L8.77063 2.625L5.69781 3.54656L8.77063 4.46844L5.69781 5.39031L8.77063 6.31219L5.69781 7.23406L8.77063 8.15562L5.69781 9.0775L8.77063 10L5.69781 10.9219L8.77063 11.8438L5.69781 12.7653L8.77063 13.6872L5.69781 14.6091L8.77063 15.5309L5.69781 16.4528L8.77063 17.3744L6.2675 17.9116C3.30469 16.5088 1.25 13.4903 1.25 10Z" fill="white"/>
</g>
<defs>
<clipPath id="clip0_1273_1271">
<rect width="20" height="20" fill="white"/>
</clipPath>
</defs>
</svg>
