<svg width="20" height="20" viewBox="0 0 20 20" fill="none" xmlns="http://www.w3.org/2000/svg">
<path d="M16.875 3.75H3.125C2.09375 3.75 1.25 4.59375 1.25 5.625V7.1875C1.25 7.3625 1.3875 7.5 1.5625 7.5H18.4375C18.6125 7.5 18.75 7.3625 18.75 7.1875V5.625C18.75 4.59375 17.9062 3.75 16.875 3.75Z" fill="white"/>
<path d="M1.25 14.375C1.25 15.4062 2.09375 16.25 3.125 16.25H16.875C17.9062 16.25 18.75 15.4062 18.75 14.375V9.0625C18.75 8.8875 18.6125 8.75 18.4375 8.75H1.5625C1.3875 8.75 1.25 8.8875 1.25 9.0625V14.375ZM4.375 12.5H6.25C6.59375 12.5 6.875 12.7812 6.875 13.125C6.875 13.4688 6.59375 13.75 6.25 13.75H4.375C4.03125 13.75 3.75 13.4688 3.75 13.125C3.75 12.7812 4.03125 12.5 4.375 12.5Z" fill="white"/>
</svg>
