<svg width="20" height="20" viewBox="0 0 20 20" fill="none" xmlns="http://www.w3.org/2000/svg">
<path d="M17.12 3.17001H2.88C1.58 3.17001 0.5 4.23001 0.5 5.55001V14.45C0.5 15.75 1.56 16.83 2.88 16.83H17.12C18.42 16.83 19.5 15.77 19.5 14.45V5.53001C19.5 4.23001 18.44 3.17001 17.12 3.17001ZM6.44 6.13001C7.42 6.13001 8.22 6.93001 8.22 7.91001C8.22 8.89001 7.42 9.69001 6.44 9.69001C5.46 9.69001 4.66 8.89001 4.66 7.91001C4.66 6.93001 5.46 6.13001 6.44 6.13001ZM9.46 13.85H3.42C3.24 13.85 3.06 13.77 2.96 13.63C2.84 13.49 2.8 13.31 2.86 13.13C3.26 11.47 4.74 10.29 6.46 10.29C8.12 10.29 9.56 11.39 10 12.99C10.04 13.07 10.06 13.15 10.06 13.25C10.06 13.59 9.8 13.85 9.46 13.85ZM13.56 11.47H11.18C10.86 11.47 10.58 11.21 10.58 10.87C10.58 10.55 10.84 10.27 11.18 10.27H13.56C13.88 10.27 14.16 10.53 14.16 10.87C14.16 11.21 13.9 11.47 13.56 11.47ZM16.54 9.09001H11.18C10.86 9.09001 10.58 8.83001 10.58 8.49001C10.58 8.17001 10.84 7.89001 11.18 7.89001H16.52C16.84 7.89001 17.12 8.15001 17.12 8.49001C17.12 8.83001 16.86 9.09001 16.54 9.09001Z" fill="white"/>
</svg>
