<svg width="22" height="22" viewBox="0 0 22 22" fill="none" xmlns="http://www.w3.org/2000/svg">
<g clip-path="url(#clip0_1273_1282)">
<path d="M11 11.6875C10.1842 11.6875 9.38663 11.4456 8.70827 10.9923C8.02992 10.5391 7.50121 9.89482 7.189 9.14107C6.87679 8.38733 6.7951 7.55793 6.95426 6.75775C7.11343 5.95758 7.50629 5.22258 8.08319 4.64569C8.66008 4.06879 9.39508 3.67593 10.1953 3.51676C10.9954 3.3576 11.8248 3.43929 12.5786 3.7515C13.3323 4.06371 13.9766 4.59242 14.4298 5.27077C14.8831 5.94913 15.125 6.74665 15.125 7.5625C15.125 8.65652 14.6904 9.70573 13.9168 10.4793C13.1432 11.2529 12.094 11.6875 11 11.6875ZM11 4.8125C10.4561 4.8125 9.92442 4.97379 9.47218 5.27596C9.01995 5.57813 8.66747 6.00763 8.45933 6.51012C8.25119 7.01262 8.19673 7.56555 8.30284 8.099C8.40895 8.63245 8.67086 9.12245 9.05546 9.50705C9.44005 9.89164 9.93006 10.1536 10.4635 10.2597C10.997 10.3658 11.5499 10.3113 12.0524 10.1032C12.5549 9.89503 12.9844 9.54255 13.2865 9.09032C13.5887 8.63808 13.75 8.1064 13.75 7.5625C13.75 6.83316 13.4603 6.13368 12.9445 5.61796C12.4288 5.10223 11.7293 4.8125 11 4.8125Z" fill="white"/>
<path d="M10.9995 21.3125C9.47488 21.3115 7.9695 20.9725 6.59169 20.3198C5.21387 19.6672 3.99791 18.7171 3.03133 17.5381L2.67383 17.0981L3.03133 16.665C3.99872 15.4875 5.21505 14.5391 6.59282 13.8879C7.97059 13.2368 9.47555 12.899 10.9995 12.899C12.5234 12.899 14.0283 13.2368 15.4061 13.8879C16.7839 14.5391 18.0002 15.4875 18.9676 16.665L19.3251 17.0981L18.9676 17.5381C18.001 18.7171 16.785 19.6672 15.4072 20.3198C14.0294 20.9725 12.524 21.3115 10.9995 21.3125ZM4.47508 17.105C5.31124 18.0002 6.32248 18.7139 7.44602 19.2018C8.56956 19.6898 9.7814 19.9416 11.0063 19.9416C12.2313 19.9416 13.4431 19.6898 14.5666 19.2018C15.6902 18.7139 16.7014 18.0002 17.5376 17.105C16.7014 16.2099 15.6902 15.4962 14.5666 15.0082C13.4431 14.5203 12.2313 14.2685 11.0063 14.2685C9.7814 14.2685 8.56956 14.5203 7.44602 15.0082C6.32248 15.4962 5.31124 16.2099 4.47508 17.105Z" fill="white"/>
<path d="M10.9991 21.3125C8.65658 21.3141 6.38336 20.5181 4.55354 19.0555C2.72373 17.593 1.44636 15.551 0.931689 13.2658C0.417014 10.9805 0.695697 8.58817 1.72187 6.48241C2.74805 4.37665 4.46056 2.683 6.57756 1.68021C8.69455 0.677425 11.0899 0.425258 13.3693 0.965214C15.6487 1.50517 17.6764 2.80507 19.1185 4.65098C20.5607 6.49688 21.3315 8.77878 21.304 11.1211C21.2765 13.4634 20.4523 15.7266 18.9672 17.5381C18.0006 18.7171 16.7847 19.6672 15.4068 20.3198C14.029 20.9725 12.5236 21.3115 10.9991 21.3125ZM10.9991 2.06251C9.2314 2.06251 7.50343 2.58668 6.03366 3.56875C4.5639 4.55081 3.41836 5.94666 2.7419 7.57977C2.06544 9.21289 1.88845 11.0099 2.2333 12.7436C2.57816 14.4773 3.42937 16.0698 4.67931 17.3198C5.92924 18.5697 7.52175 19.4209 9.25545 19.7658C10.9892 20.1106 12.7862 19.9336 14.4193 19.2572C16.0524 18.5807 17.4483 17.4352 18.4303 15.9654C19.4124 14.4956 19.9366 12.7677 19.9366 11C19.9366 8.62963 18.9949 6.35635 17.3188 4.68024C15.6427 3.00413 13.3694 2.06251 10.9991 2.06251Z" fill="white"/>
<path d="M3.56055 17.105C3.56055 17.105 10.4837 24.8394 17.5305 17.875L18.438 17.105C18.438 17.105 12.553 11 6.57867 14.6644L3.56055 17.105Z" fill="white"/>
<path d="M11 11C12.8985 11 14.4375 9.46098 14.4375 7.5625C14.4375 5.66402 12.8985 4.125 11 4.125C9.10152 4.125 7.5625 5.66402 7.5625 7.5625C7.5625 9.46098 9.10152 11 11 11Z" fill="white"/>
</g>
<defs>
<clipPath id="clip0_1273_1282">
<rect width="22" height="22" fill="white"/>
</clipPath>
</defs>
</svg>
