<svg width="25" height="24" viewBox="0 0 25 24" fill="none" xmlns="http://www.w3.org/2000/svg">
  <g clip-path="url(#clip0_1282_3547)">
    <path d="M23.3991 21.813H1.5907C0.98816 21.813 0.5 22.3011 0.5 22.9042C0.5 23.5062 0.98816 23.9944 1.5907 23.9944H23.3986C24.0011 23.9944 24.4893 23.5062 24.4893 22.9042C24.4888 22.3011 24.0006 21.813 23.3991 21.813Z" fill="currentColor"/>
    <path d="M2.95398 18.9775C2.35144 18.9775 1.86328 19.4656 1.86328 20.0682C1.86328 20.6707 2.35144 21.1594 2.95398 21.1594H22.0361C22.6387 21.1594 23.1268 20.6707 23.1268 20.0682C23.1268 19.4656 22.6387 18.9775 22.0361 18.9775H21.764V9.1632H22.0361C22.3379 9.1632 22.581 8.91912 22.581 8.61836C22.581 8.3176 22.3369 8.07352 22.0361 8.07352H2.95398C2.65271 8.07352 2.40914 8.3176 2.40914 8.61836C2.40914 8.91912 2.65322 9.1632 2.95398 9.1632H3.22666V18.9769L2.95398 18.9775ZM19.5826 9.1632V18.9769H16.3115V9.1632H19.5826ZM14.1301 9.1632V18.9769H10.859V9.1632H14.1301ZM5.40704 9.1632H8.67811V18.9769H5.40704V9.1632Z" fill="currentColor"/>
    <path d="M1.59072 7.09311H23.3986C23.4022 7.09311 23.4063 7.09311 23.4093 7.09311C24.0124 7.09311 24.5 6.60495 24.5 6.00241C24.5 5.52344 24.1916 5.1175 23.7632 4.97043L12.943 0.101602C12.6586 -0.0260548 12.3333 -0.0260548 12.0484 0.101602L1.14341 5.00822C0.674145 5.21962 0.416278 5.72923 0.524531 6.23168C0.632273 6.73414 1.07652 7.09311 1.59072 7.09311Z" fill="currentColor"/>
  </g>
  <defs>
    <clipPath id="clip0_1282_3547">
      <rect width="24" height="24" fill="white" transform="translate(0.5)"/>
    </clipPath>
  </defs>
</svg>
