<svg width="20" height="20" viewBox="0 0 20 20" fill="none" xmlns="http://www.w3.org/2000/svg">
<path d="M18.0536 9.37751L10.5536 2.71084C10.401 2.57496 10.2038 2.49988 9.99945 2.49988C9.79511 2.49988 9.59789 2.57496 9.44528 2.71084L1.94528 9.37751C1.86353 9.45028 1.79692 9.53845 1.74924 9.63696C1.70157 9.73548 1.67376 9.84243 1.66742 9.95169C1.66107 10.061 1.67631 10.1704 1.71226 10.2738C1.74821 10.3771 1.80417 10.4724 1.87695 10.5542C1.94972 10.6359 2.03788 10.7025 2.1364 10.7502C2.23492 10.7979 2.34186 10.8257 2.45113 10.832C2.56039 10.8384 2.66983 10.8231 2.77321 10.7872C2.87658 10.7512 2.97187 10.6953 3.05361 10.6225L3.33278 10.3725V16.6667C3.33278 16.8877 3.42058 17.0997 3.57686 17.2559C3.73314 17.4122 3.9451 17.5 4.16611 17.5H7.49945C7.72046 17.5 7.93242 17.4122 8.0887 17.2559C8.24498 17.0997 8.33278 16.8877 8.33278 16.6667V14.1667C8.33278 13.9457 8.42058 13.7337 8.57686 13.5774C8.73314 13.4211 8.9451 13.3333 9.16611 13.3333H10.8328C11.0538 13.3333 11.2658 13.4211 11.422 13.5774C11.5783 13.7337 11.6661 13.9457 11.6661 14.1667V16.6667C11.6661 16.8877 11.7539 17.0997 11.9102 17.2559C12.0665 17.4122 12.2784 17.5 12.4994 17.5H15.8328C16.0538 17.5 16.2658 17.4122 16.422 17.2559C16.5783 17.0997 16.6661 16.8877 16.6661 16.6667V10.3742L16.9453 10.6242C17.027 10.6969 17.1223 10.7529 17.2257 10.7889C17.3291 10.8248 17.4385 10.8401 17.5478 10.8337C17.657 10.8274 17.764 10.7996 17.8625 10.7519C17.961 10.7042 18.0492 10.6376 18.1219 10.5558C18.1947 10.4741 18.2507 10.3788 18.2866 10.2754C18.3226 10.1721 18.3378 10.0626 18.3315 9.95336C18.3251 9.84409 18.2973 9.73715 18.2496 9.63863C18.202 9.54011 18.1354 9.45195 18.0536 9.37918V9.37751Z" fill="white"/>
</svg>
