<svg width="28" height="28" viewBox="0 0 28 28" fill="none" xmlns="http://www.w3.org/2000/svg">
<path d="M25.4125 22.9473C25.5176 22.7891 25.5784 22.6065 25.5888 22.418C25.5991 22.2295 25.5587 22.0416 25.4716 21.8732C25.3845 21.7048 25.2537 21.562 25.0924 21.4589C24.9311 21.3559 24.7451 21.2964 24.5529 21.2863V20.5503C24.5524 20.2131 24.4157 19.8898 24.1727 19.6513C23.9297 19.4128 23.6002 19.2786 23.2565 19.2781H23.1551V11.6802H23.2565C23.6003 11.6798 23.93 11.5457 24.1732 11.3071C24.4163 11.0685 24.5531 10.7451 24.5534 10.4077V9.67832H25.0961C25.2923 9.67827 25.4826 9.6121 25.635 9.49086C25.7875 9.36963 25.8929 9.2007 25.9335 9.01234C25.9742 8.82399 25.9477 8.62764 25.8585 8.45617C25.7692 8.2847 25.6226 8.1485 25.4433 8.07039L13.7113 2.96885C13.6756 2.95333 13.6369 2.94531 13.5979 2.94531C13.5588 2.94531 13.5202 2.95333 13.4845 2.96885L1.74969 8.07039C1.57033 8.1485 1.42376 8.2847 1.33451 8.45617C1.24527 8.62764 1.21876 8.82399 1.25943 9.01234C1.30011 9.2007 1.40549 9.36963 1.55793 9.49086C1.71038 9.6121 1.90065 9.67827 2.09689 9.67832H2.63981V10.4077C2.64018 10.745 2.7769 11.0684 3.01999 11.307C3.26307 11.5455 3.59267 11.6798 3.93649 11.6802H4.03785V19.2781H3.93649C3.59267 19.2785 3.26304 19.4126 3.01991 19.6511C2.77677 19.8896 2.63997 20.213 2.63953 20.5503V21.2863C2.4474 21.2965 2.26139 21.3561 2.10019 21.4591C1.93899 21.5622 1.80829 21.7051 1.72122 21.8734C1.63416 22.0418 1.5938 22.2296 1.6042 22.4181C1.6146 22.6066 1.6754 22.7891 1.78049 22.9473C1.52785 23.0224 1.3112 23.1843 1.17014 23.4032C1.02907 23.6221 0.973003 23.8836 1.01217 24.1397C1.05134 24.3959 1.18314 24.6297 1.38348 24.7983C1.58382 24.967 1.83933 25.0594 2.10333 25.0585H25.0913C25.3552 25.059 25.6104 24.9663 25.8104 24.7975C26.0105 24.6287 26.142 24.3949 26.1809 24.1389C26.2199 23.8829 26.1637 23.6216 26.0226 23.4029C25.8815 23.1841 25.665 23.0224 25.4125 22.9473ZM23.9929 20.5503V21.28H19.3844V20.5503C19.3846 20.3588 19.4622 20.1752 19.6002 20.0397C19.7382 19.9042 19.9253 19.8279 20.1205 19.8275H23.2565C23.4518 19.8278 23.639 19.904 23.7772 20.0395C23.9153 20.175 23.9927 20.3587 23.9929 20.5503ZM8.36889 21.28V20.5503C8.36852 20.2131 8.23182 19.8897 7.98879 19.6512C7.74575 19.4127 7.41623 19.2785 7.07249 19.2781H6.97113V11.6802H7.07249C7.4163 11.6798 7.7459 11.5455 7.98899 11.307C8.23207 11.0684 8.3688 10.745 8.36917 10.4077V9.67832H18.8244V10.4077C18.8247 10.7449 18.9614 11.0683 19.2043 11.3068C19.4473 11.5453 19.7768 11.6796 20.1205 11.6802H20.2218V19.2781H20.1205C19.7767 19.2785 19.4471 19.4126 19.204 19.6511C18.9609 19.8896 18.8242 20.213 18.8238 20.5503V21.28H8.36889ZM22.5951 19.2781H20.7824V11.6802H22.5948L22.5951 19.2781ZM23.9934 10.4077C23.9932 10.5994 23.9155 10.7832 23.7773 10.9187C23.6392 11.0543 23.4519 11.1305 23.2565 11.1308H20.1205C19.9251 11.1305 19.7378 11.0543 19.5997 10.9187C19.4616 10.7832 19.384 10.5994 19.3838 10.4077V9.67832H23.9926L23.9934 10.4077ZM1.80849 8.89839C1.79187 8.83334 1.79972 8.76459 1.83057 8.70475C1.86143 8.64491 1.91323 8.59798 1.97649 8.57257L13.5965 3.52049L25.2165 8.57257C25.2785 8.5996 25.3292 8.64672 25.3601 8.70605C25.391 8.76537 25.4002 8.8333 25.3861 8.89847C25.372 8.96363 25.3356 9.02208 25.2828 9.06402C25.2301 9.10597 25.1643 9.12886 25.0964 9.12888H2.09689C2.02856 9.13105 1.96174 9.10892 1.90874 9.06657C1.85574 9.02421 1.82014 8.96448 1.80849 8.89839ZM3.20093 10.4077V9.67832H7.80973V10.4077C7.80958 10.5995 7.73185 10.7833 7.59361 10.9189C7.45538 11.0545 7.26794 11.1307 7.07249 11.1308H3.93649C3.74115 11.1305 3.5539 11.0542 3.4158 10.9186C3.27771 10.7831 3.20003 10.5994 3.19981 10.4077H3.20093ZM4.59925 11.6802H6.41169V19.2781H4.59813L4.59925 11.6802ZM3.19981 20.5503C3.20003 20.3587 3.27771 20.175 3.41582 20.0395C3.55393 19.904 3.74117 19.8278 3.93649 19.8275H7.07249C7.2678 19.8278 7.45505 19.904 7.59315 20.0395C7.73126 20.175 7.80894 20.3587 7.80917 20.5503V21.28H3.19981V20.5503ZM2.70449 21.8294H24.4885C24.5608 21.8278 24.6327 21.8404 24.7 21.8664C24.7673 21.8925 24.8286 21.9314 24.8803 21.9811C24.9321 22.0307 24.9732 22.0899 25.0012 22.1553C25.0293 22.2207 25.0437 22.291 25.0437 22.362C25.0437 22.4329 25.0293 22.5032 25.0012 22.5686C24.9732 22.634 24.9321 22.6933 24.8803 22.7429C24.8286 22.7925 24.7673 22.8315 24.7 22.8575C24.6327 22.8835 24.5608 22.8961 24.4885 22.8945H2.70449C2.63217 22.8961 2.56025 22.8835 2.49296 22.8575C2.42567 22.8315 2.36437 22.7925 2.31264 22.7429C2.26091 22.6933 2.21981 22.634 2.19175 22.5686C2.16369 22.5032 2.14924 22.4329 2.14924 22.362C2.14924 22.291 2.16369 22.2207 2.19175 22.1553C2.21981 22.0899 2.26091 22.0307 2.31264 21.9811C2.36437 21.9314 2.42567 21.8925 2.49296 21.8664C2.56025 21.8404 2.63217 21.8278 2.70449 21.8294ZM25.0891 24.509H2.10305C1.96123 24.5059 1.8263 24.4484 1.72714 24.3489C1.62798 24.2493 1.57246 24.1157 1.57246 23.9765C1.57246 23.8373 1.62798 23.7037 1.72714 23.6041C1.8263 23.5046 1.96123 23.4471 2.10305 23.4439H25.091C25.2329 23.4471 25.3678 23.5046 25.467 23.6041C25.5661 23.7037 25.6216 23.8373 25.6216 23.9765C25.6216 24.1157 25.5661 24.2493 25.467 24.3489C25.3678 24.4484 25.2329 24.5059 25.091 24.509H25.0891ZM13.3165 8.24099V4.93199C13.3165 4.85913 13.346 4.78926 13.3985 4.73774C13.451 4.68622 13.5222 4.65728 13.5965 4.65728C13.6707 4.65728 13.742 4.68622 13.7945 4.73774C13.847 4.78926 13.8765 4.85913 13.8765 4.93199V8.24099C13.8765 8.31385 13.847 8.38372 13.7945 8.43524C13.742 8.48676 13.6707 8.51571 13.5965 8.51571C13.5222 8.51571 13.451 8.48676 13.3985 8.43524C13.346 8.38372 13.3165 8.31385 13.3165 8.24099ZM14.8083 7.63194V5.5405C14.8083 5.46764 14.8378 5.39776 14.8903 5.34624C14.9428 5.29472 15.0141 5.26578 15.0883 5.26578C15.1626 5.26578 15.2338 5.29472 15.2863 5.34624C15.3388 5.39776 15.3683 5.46764 15.3683 5.5405V7.63166C15.3683 7.70452 15.3388 7.7744 15.2863 7.82592C15.2338 7.87744 15.1626 7.90638 15.0883 7.90638C15.0141 7.90638 14.9428 7.87744 14.8903 7.82592C14.8378 7.7744 14.8083 7.7048 14.8083 7.63194ZM11.8246 7.63194V5.5405C11.8246 5.46764 11.8541 5.39776 11.9067 5.34624C11.9592 5.29472 12.0304 5.26578 12.1046 5.26578C12.1789 5.26578 12.2501 5.29472 12.3026 5.34624C12.3551 5.39776 12.3846 5.46764 12.3846 5.5405V7.63166C12.3846 7.70452 12.3551 7.7744 12.3026 7.82592C12.2501 7.87744 12.1789 7.90638 12.1046 7.90638C12.0304 7.90638 11.9592 7.87744 11.9067 7.82592C11.8541 7.7744 11.8246 7.7048 11.8246 7.63194ZM13.5965 10.4896C12.5906 10.4895 11.6073 10.7821 10.771 11.3304C9.93458 11.8786 9.2827 12.6579 8.89774 13.5697C8.51279 14.4814 8.41205 15.4847 8.60827 16.4527C8.80449 17.4206 9.28886 18.3097 10.0001 19.0076C10.7114 19.7054 11.6176 20.1806 12.6041 20.3732C13.5907 20.5657 14.6132 20.4668 15.5425 20.0891C16.4718 19.7114 17.2661 19.0719 17.8249 18.2513C18.3837 17.4307 18.6819 16.4659 18.6818 15.479C18.6803 14.1562 18.144 12.888 17.1907 11.9526C16.2373 11.0173 14.9447 10.4911 13.5965 10.4896ZM13.5965 19.9193C12.7014 19.9194 11.8264 19.659 11.0821 19.1711C10.3378 18.6832 9.75772 17.9898 9.41514 17.1784C9.07256 16.3671 8.9829 15.4743 9.15749 14.6129C9.33208 13.7516 9.76309 12.9604 10.396 12.3394C11.0289 11.7183 11.8353 11.2954 12.7132 11.1241C13.5911 10.9527 14.5011 11.0406 15.328 11.3767C16.155 11.7128 16.8618 12.2819 17.3591 13.0121C17.8564 13.7423 18.1218 14.6008 18.1218 15.479C18.1205 16.6562 17.6433 17.7848 16.7949 18.6172C15.9466 19.4497 14.7963 19.9179 13.5965 19.9193ZM14.8125 17.8163C14.8125 17.8892 14.783 17.9591 14.7305 18.0106C14.678 18.0621 14.6068 18.091 14.5325 18.091H12.6604C12.5862 18.091 12.515 18.0621 12.4625 18.0106C12.4099 17.9591 12.3804 17.8892 12.3804 17.8163C12.3804 17.7435 12.4099 17.6736 12.4625 17.6221C12.515 17.5705 12.5862 17.5416 12.6604 17.5416H13.3165V14.4735H12.6604C12.5862 14.4735 12.515 14.4446 12.4625 14.3931C12.4099 14.3416 12.3804 14.2717 12.3804 14.1988C12.3804 14.126 12.4099 14.0561 12.4625 14.0046C12.515 13.953 12.5862 13.9241 12.6604 13.9241H13.5965C13.6707 13.9241 13.742 13.953 13.7945 14.0046C13.847 14.0561 13.8765 14.126 13.8765 14.1988V17.5416H14.5325C14.6068 17.5416 14.678 17.5705 14.7305 17.6221C14.783 17.6736 14.8125 17.7435 14.8125 17.8163ZM13.046 13.2747C13.046 13.1941 13.0704 13.1153 13.116 13.0483C13.1616 12.9813 13.2265 12.9291 13.3023 12.8983C13.3782 12.8674 13.4617 12.8594 13.5423 12.8751C13.6228 12.8908 13.6968 12.9296 13.7549 12.9866C13.8129 13.0436 13.8525 13.1162 13.8685 13.1952C13.8845 13.2742 13.8763 13.3561 13.8449 13.4306C13.8134 13.505 13.7602 13.5687 13.6919 13.6134C13.6237 13.6582 13.5434 13.6821 13.4612 13.6821C13.3511 13.6821 13.2455 13.6392 13.1676 13.5627C13.0898 13.4863 13.046 13.3827 13.046 13.2747Z" fill="#EEAD1E"/>
</svg>
