<svg width="20" height="20" viewBox="0 0 20 20" fill="none" xmlns="http://www.w3.org/2000/svg">
<path d="M18.3333 5.83331H1.66668C0.747461 5.83331 0 6.58081 0 7.49999V12.5C0 13.4192 0.747461 14.1667 1.66668 14.1667H18.3334C19.2525 14.1667 20 13.4192 20 12.5V7.49999C20 6.58081 19.2525 5.83331 18.3333 5.83331ZM5.0407 10.2641C5.24008 10.3792 5.30844 10.6339 5.19328 10.8333C5.11598 10.9672 4.97598 11.0416 4.83195 11.0416C4.76113 11.0416 4.68953 11.0237 4.62402 10.9859L4.16668 10.7218V11.25C4.16668 11.4803 3.98031 11.6667 3.75 11.6667C3.51969 11.6667 3.33332 11.4803 3.33332 11.25V10.7218L2.87598 10.9859C2.81047 11.0237 2.73887 11.0416 2.66805 11.0416C2.52398 11.0416 2.38402 10.9672 2.30672 10.8333C2.19156 10.6339 2.25992 10.3792 2.4593 10.2641L2.9166 9.99999L2.4593 9.73593C2.25992 9.62077 2.19156 9.36605 2.30672 9.16667C2.42188 8.96648 2.67699 8.89933 2.87598 9.01409L3.33332 9.27816V8.74999C3.33332 8.51968 3.51969 8.33331 3.75 8.33331C3.98031 8.33331 4.16668 8.51968 4.16668 8.74999V9.27816L4.62402 9.01409C4.8218 8.89933 5.07773 8.96648 5.19328 9.16667C5.30844 9.36605 5.24008 9.62077 5.0407 9.73593L4.5834 9.99999L5.0407 10.2641ZM9.20734 10.2641C9.40672 10.3792 9.47508 10.6339 9.35992 10.8333C9.28262 10.9672 9.14262 11.0416 8.99859 11.0416C8.92777 11.0416 8.85617 11.0237 8.79066 10.9859L8.33332 10.7218V11.25C8.33332 11.4803 8.14695 11.6667 7.91664 11.6667C7.68633 11.6667 7.49996 11.4803 7.49996 11.25V10.7218L7.04262 10.9859C6.97711 11.0237 6.90551 11.0416 6.83469 11.0416C6.69063 11.0416 6.55066 10.9672 6.47336 10.8333C6.3582 10.6339 6.42656 10.3792 6.62594 10.2641L7.08324 9.99999L6.62594 9.73593C6.42656 9.62077 6.3582 9.36605 6.47336 9.16667C6.58813 8.96648 6.84324 8.89933 7.04262 9.01409L7.49996 9.27816V8.74999C7.49996 8.51968 7.68633 8.33331 7.91664 8.33331C8.14695 8.33331 8.33332 8.51968 8.33332 8.74999V9.27816L8.79066 9.01409C8.98883 8.89933 9.24395 8.96648 9.35992 9.16667C9.47508 9.36605 9.40672 9.62077 9.20734 9.73593L8.75004 9.99999L9.20734 10.2641ZM13.374 10.2641C13.5734 10.3792 13.6418 10.6339 13.5266 10.8333C13.4493 10.9672 13.3093 11.0416 13.1653 11.0416C13.0945 11.0416 13.0229 11.0237 12.9573 10.9859L12.5 10.7218V11.25C12.5 11.4803 12.3136 11.6667 12.0833 11.6667C11.853 11.6667 11.6666 11.4803 11.6666 11.25V10.7218L11.2093 10.9859C11.1438 11.0237 11.0722 11.0416 11.0014 11.0416C10.8573 11.0416 10.7173 10.9672 10.64 10.8333C10.5249 10.6339 10.5932 10.3792 10.7926 10.2641L11.2499 9.99999L10.7926 9.73593C10.5932 9.62077 10.5249 9.36605 10.64 9.16667C10.7552 8.96648 11.0103 8.89933 11.2093 9.01409L11.6666 9.27816V8.74999C11.6666 8.51968 11.853 8.33331 12.0833 8.33331C12.3136 8.33331 12.5 8.51968 12.5 8.74999V9.27816L12.9573 9.01409C13.1551 8.89933 13.4111 8.96648 13.5266 9.16667C13.6418 9.36605 13.5734 9.62077 13.374 9.73593L12.9167 9.99999L13.374 10.2641ZM17.5407 10.2641C17.7401 10.3792 17.8084 10.6339 17.6933 10.8333C17.616 10.9672 17.476 11.0416 17.332 11.0416C17.2611 11.0416 17.1895 11.0237 17.124 10.9859L16.6667 10.7218V11.25C16.6667 11.4803 16.4803 11.6667 16.25 11.6667C16.0197 11.6667 15.8333 11.4803 15.8333 11.25V10.7218L15.376 10.9859C15.3105 11.0237 15.2389 11.0416 15.168 11.0416C15.024 11.0416 14.884 10.9672 14.8067 10.8333C14.6916 10.6339 14.7599 10.3792 14.9593 10.2641L15.4166 9.99999L14.9593 9.73593C14.7599 9.62077 14.6916 9.36605 14.8067 9.16667C14.9223 8.96648 15.1762 8.89933 15.376 9.01409L15.8333 9.27816V8.74999C15.8333 8.51968 16.0197 8.33331 16.25 8.33331C16.4803 8.33331 16.6667 8.51968 16.6667 8.74999V9.27816L17.124 9.01409C17.3222 8.89933 17.5781 8.96648 17.6933 9.16667C17.8084 9.36605 17.7401 9.62077 17.5407 9.73593L17.0834 9.99999L17.5407 10.2641Z" fill="white"/>
</svg>
