<svg xmlns="http://www.w3.org/2000/svg" width="36" height="36" viewBox="0 0 36 36" fill="none">
  <g clip-path="url(#clip0_5848_8963)">
    <path d="M36 18C36 27.9413 27.9413 36 18 36C8.05875 36 0 27.9413 0 18C0 8.05875 8.05875 0 18 0C27.9413 0 36 8.05875 36 18Z" fill="#EACA82"/>
    <path d="M16.1865 9.11523H17.9998V10.9285H16.1865V9.11523Z" fill="white"/>
    <path d="M16.1865 19.7676H17.9998V22.3516H16.1865V19.7676Z" fill="white"/>
    <path d="M19.8133 29.6048H21.6266V27.7918H19.8133V25.9785H18V29.6048H19.8133Z" fill="white"/>
    <path d="M19.8135 16.1416H25.2534V17.9549H19.8135V16.1416Z" fill="white"/>
    <path d="M25.2529 17.9551H27.7913V19.7684H25.2529V17.9551Z" fill="white"/>
    <path d="M25.2529 22.3516V24.1649H29.6046V19.7676H27.7916V22.3516H25.2529Z" fill="white"/>
    <path d="M18 6.39551H19.8133V9.11545H18V6.39551Z" fill="white"/>
    <path d="M17.9998 14.555H19.8131V10.9287H17.9998V12.742H16.1865V17.955H17.9998V14.555Z" fill="white"/>
    <path d="M9.11545 16.1416H6.39551V19.7682H8.2088V17.9549H10.9287V16.1416H9.11545Z" fill="white"/>
    <path d="M18 17.9551H19.8133V19.7684H18V17.9551Z" fill="white"/>
    <path d="M23.4395 19.7676H25.2527V21.5809H23.4395V19.7676Z" fill="white"/>
    <path d="M27.792 16.1416H29.605V17.9549H27.792V16.1416Z" fill="white"/>
    <path d="M21.6266 19.7676H19.8133V22.3516H18V24.1649H21.6266V19.7676Z" fill="white"/>
    <path d="M16.1865 24.165H17.9998V25.9783H16.1865V24.165Z" fill="white"/>
    <path d="M21.627 24.165V25.9783H25.2535V24.165H21.627Z" fill="white"/>
    <path d="M25.2529 25.9785H27.0662V27.7918H25.2529V25.9785Z" fill="white"/>
    <path d="M27.0664 27.792H29.6048V29.6053H27.0664V27.792Z" fill="white"/>
    <path d="M23.4395 27.792H25.2527V29.6053H23.4395V27.792Z" fill="white"/>
    <path d="M14.555 17.9549V16.1416H12.7417V17.9549H10.9287V19.7682H16.187V17.9549H14.555Z" fill="white"/>
    <path d="M14.7027 6.24707H6.24707V14.7027H14.703V6.24707H14.7027ZM12.5933 12.5933H8.35617V8.35645H12.5933V12.5933Z" fill="white"/>
    <path d="M9.56836 9.56836H11.3817V11.3817H9.56836V9.56836Z" fill="white"/>
    <path d="M21.2969 6.24707V14.7027H29.7528V6.24707H21.2969ZM27.6431 12.5933H23.4062V8.35645H27.6431V12.5933Z" fill="white"/>
    <path d="M24.6182 9.56836H26.4315V11.3817H24.6182V9.56836Z" fill="white"/>
    <path d="M6.24707 29.7525H14.703V21.2969H6.24707V29.7525ZM8.35645 23.4062H12.5936V27.6431H8.35645V23.4062Z" fill="white"/>
    <path d="M9.56836 24.6182H11.3817V26.4315H9.56836V24.6182Z" fill="white"/>
  </g>
  <defs>
    <clipPath id="clip0_5848_8963">
      <rect width="36" height="36" fill="white"/>
    </clipPath>
  </defs>
</svg>