<svg width="36" height="36" viewBox="0 0 36 36" fill="none" xmlns="http://www.w3.org/2000/svg">
<rect width="36" height="36" rx="18" fill="#F4D287"/>
<path d="M20.9688 18C20.9688 18.5872 20.7946 19.1611 20.4684 19.6493C20.1422 20.1376 19.6786 20.5181 19.1361 20.7428C18.5936 20.9675 17.9967 21.0263 17.4208 20.9117C16.8449 20.7972 16.316 20.5144 15.9008 20.0992C15.4856 19.684 15.2028 19.1551 15.0883 18.5792C14.9737 18.0033 15.0325 17.4064 15.2572 16.8639C15.4819 16.3214 15.8624 15.8578 16.3507 15.5316C16.8389 15.2054 17.4128 15.0312 18 15.0312C18.7874 15.0312 19.5425 15.344 20.0992 15.9008C20.656 16.4575 20.9688 17.2126 20.9688 18ZM26.9062 13.25V22.75C26.9062 22.9075 26.8437 23.0585 26.7323 23.1698C26.621 23.2812 26.47 23.3438 26.3125 23.3438H9.6875C9.53003 23.3438 9.37901 23.2812 9.26766 23.1698C9.15631 23.0585 9.09375 22.9075 9.09375 22.75V13.25C9.09375 13.0925 9.15631 12.9415 9.26766 12.8302C9.37901 12.7188 9.53003 12.6562 9.6875 12.6562H26.3125C26.47 12.6562 26.621 12.7188 26.7323 12.8302C26.8437 12.9415 26.9062 13.0925 26.9062 13.25ZM25.7188 16.69C25.0445 16.4907 24.4309 16.1258 23.9338 15.6287C23.4367 15.1316 23.0718 14.518 22.8725 13.8438H13.1275C12.9282 14.518 12.5633 15.1316 12.0662 15.6287C11.5691 16.1258 10.9555 16.4907 10.2812 16.69V19.31C10.9555 19.5093 11.5691 19.8742 12.0662 20.3713C12.5633 20.8684 12.9282 21.482 13.1275 22.1562H22.8725C23.0718 21.482 23.4367 20.8684 23.9338 20.3713C24.4309 19.8742 25.0445 19.5093 25.7188 19.31V16.69Z" fill="white"/>
</svg>
