<svg width="101" height="50" viewBox="0 0 101 50" fill="none" xmlns="http://www.w3.org/2000/svg">
<path d="M101 3C101 1.34315 99.6569 -1.44847e-07 98 0C96.3431 1.44847e-07 95 1.34315 95 3L98 3L101 3ZM98 3L95 3L95 30.5L98 30.5L101 30.5L101 3L98 3ZM98 30.5L95 30.5C95 32.9517 93.1741 39.2231 85.0258 42.7839L86.2271 45.5329L87.4284 48.2819C97.8778 43.7155 101 35.2073 101 30.5L98 30.5ZM77.5238 47L77.5238 44L-2.62268e-07 44L0 47L2.62268e-07 50L77.5238 50L77.5238 47ZM86.2271 45.5329L85.0258 42.7839C82.8693 43.7263 80.3522 44 77.5238 44L77.5238 47L77.5238 50C80.6381 50 84.1396 49.7191 87.4284 48.2819L86.2271 45.5329Z" fill="url(#paint0_linear_5756_2347)"/>
<defs>
<linearGradient id="paint0_linear_5756_2347" x1="-4.55578e-06" y1="3" x2="98" y2="2.99999" gradientUnits="userSpaceOnUse">
<stop stop-color="#F9D58C" stop-opacity="0.1"/>
<stop offset="1" stop-color="#F9D58C"/>
</linearGradient>
</defs>
</svg>
