<svg width="28" height="28" viewBox="0 0 28 28" fill="none" xmlns="http://www.w3.org/2000/svg">
<g clip-path="url(#clip0_6193_1484)">
<mask id="mask0_6193_1484" style="mask-type:luminance" maskUnits="userSpaceOnUse" x="0" y="0" width="28" height="29">
<path d="M28 0.00146484H0V28.0015H28V0.00146484Z" fill="white"/>
</mask>
<g mask="url(#mask0_6193_1484)">
<mask id="mask1_6193_1484" style="mask-type:luminance" maskUnits="userSpaceOnUse" x="0" y="0" width="28" height="29">
<path d="M0 0.00341988H28V28.0034H0V0.00341988Z" fill="white"/>
</mask>
<g mask="url(#mask1_6193_1484)">
<path d="M18.5975 6.75643C18.5975 9.29535 16.5393 11.3535 14.0004 11.3535C11.4615 11.3535 9.40332 9.29535 9.40332 6.75643C9.40332 4.21751 11.4615 2.15934 14.0004 2.15934C16.5393 2.15934 18.5975 4.21751 18.5975 6.75643Z" stroke="#EEAD1E" stroke-width="0.820312" stroke-miterlimit="10" stroke-linecap="round" stroke-linejoin="round"/>
<path d="M12.8184 8.61392C13.2504 8.8966 13.4804 8.92782 13.9723 8.9246C15.2327 8.91612 15.6908 7.16869 14.4517 6.73064C13.8981 6.53497 13.4872 6.35893 13.2142 6.14483C12.7387 5.77186 12.9125 4.8145 13.6122 4.60374C14.3742 4.37421 14.8685 4.8302 14.8685 4.8302L14.9366 4.88264" stroke="#EEAD1E" stroke-width="0.820312" stroke-miterlimit="10" stroke-linecap="round" stroke-linejoin="round"/>
<path d="M13.9727 9.05347V9.5625" stroke="#EEAD1E" stroke-width="0.820312" stroke-miterlimit="10" stroke-linecap="round" stroke-linejoin="round"/>
<path d="M13.9727 3.9491V4.46973" stroke="#EEAD1E" stroke-width="0.820312" stroke-miterlimit="10" stroke-linecap="round" stroke-linejoin="round"/>
<path d="M22.8245 15.5363C22.8245 15.6873 22.7021 15.8097 22.5511 15.8097H21.7114C21.4783 15.8097 21.3521 16.0828 21.5032 16.2603L23.5733 18.6929C23.6825 18.8211 23.8806 18.8211 23.9898 18.6929L26.0599 16.2603C26.211 16.0828 26.0848 15.8097 25.8517 15.8097H25.012C24.861 15.8097 24.7386 15.6873 24.7386 15.5363V9.49204C24.7386 9.34099 24.6162 9.2186 24.4651 9.2186H23.098C22.9469 9.2186 22.8245 9.34099 22.8245 9.49204V15.5363Z" stroke="#EEAD1E" stroke-width="0.820312" stroke-miterlimit="10" stroke-linecap="round" stroke-linejoin="round"/>
<path d="M13.6936 27.5938C13.9097 27.5938 14.0579 27.3761 13.9787 27.1751L12.458 23.3122C12.3658 23.0778 12.1396 22.9238 11.8878 22.9238H7.05299C6.80121 22.9238 6.57503 23.0778 6.48282 23.3122L4.96202 27.1751C4.88288 27.3761 5.03109 27.5938 5.24716 27.5938H13.6936Z" stroke="#EEAD1E" stroke-width="0.820312" stroke-miterlimit="10" stroke-linecap="round" stroke-linejoin="round"/>
<path d="M21.8826 24.2394L21.5175 23.3122C21.4253 23.0778 21.1992 22.9238 20.9473 22.9238H16.1126C15.8608 22.9238 15.6346 23.0778 15.5423 23.3122L14.0216 27.1751C13.9425 27.3761 14.0907 27.5938 14.3067 27.5938H22.7532C22.9692 27.5938 23.1174 27.3761 23.0383 27.1751L22.5472 25.9276" stroke="#EEAD1E" stroke-width="0.820312" stroke-miterlimit="10" stroke-linecap="round" stroke-linejoin="round"/>
<path d="M11.3408 22.9238H16.6597" stroke="#EEAD1E" stroke-width="0.820312" stroke-miterlimit="10" stroke-linecap="round" stroke-linejoin="round"/>
<path d="M9.7774 22.9238C9.56133 22.9238 9.41313 22.7062 9.49232 22.5052L11.013 18.6422C11.1053 18.408 11.3315 18.2539 11.5832 18.2539H16.418C16.6699 18.2539 16.896 18.408 16.9883 18.6422L18.509 22.5052C18.5882 22.7062 18.44 22.9238 18.2239 22.9238" stroke="#EEAD1E" stroke-width="0.820312" stroke-miterlimit="10" stroke-linecap="round" stroke-linejoin="round"/>
<path d="M5.17609 14.9159V12.4714C5.17609 12.3204 5.29854 12.198 5.44953 12.198H6.28915C6.52234 12.198 6.6485 11.9249 6.4974 11.7473L4.42731 9.31478C4.3181 9.18643 4.11997 9.18643 4.01081 9.31478L1.94073 11.7473C1.78963 11.9249 1.91579 12.198 2.14892 12.198H2.98859C3.13964 12.198 3.26203 12.3204 3.26203 12.4714V18.5156C3.26203 18.6667 3.38448 18.7891 3.53547 18.7891H4.90266C5.0537 18.7891 5.17609 18.6667 5.17609 18.5156V16.7027" stroke="#EEAD1E" stroke-width="0.820312" stroke-miterlimit="10" stroke-linecap="round" stroke-linejoin="round"/>
<path d="M7.68848 6.13679C7.82612 4.72585 8.43529 3.35221 9.51597 2.27148C11.9928 -0.205318 16.0086 -0.205318 18.4855 2.27148C20.9623 4.74833 20.9623 8.76414 18.4855 11.241C16.0086 13.7178 11.9928 13.7178 9.51597 11.241C8.56195 10.287 7.97537 9.10457 7.75629 7.86973" stroke="#EEAD1E" stroke-width="0.820312" stroke-miterlimit="10" stroke-linecap="round" stroke-linejoin="round"/>
</g>
</g>
</g>
<defs>
<clipPath id="clip0_6193_1484">
<rect width="28" height="28" fill="white"/>
</clipPath>
</defs>
</svg>
