<svg width="68" height="68" viewBox="0 0 68 68" fill="none" xmlns="http://www.w3.org/2000/svg">
<rect x="0.5" y="0.5" width="67" height="67" rx="33.5" stroke="#D9D9D9"/>
<g clip-path="url(#clip0_1257_183)">
<path d="M49.9831 37.8837L48.3582 23.9312C48.2003 22.5754 46.9687 21.6009 45.613 21.7587L21.6944 24.5442C21.0584 24.6182 20.4832 24.9304 20.0748 25.4233C19.9096 25.6226 19.9373 25.9181 20.1366 26.0833C20.336 26.2485 20.6314 26.2208 20.7967 26.0214C21.0504 25.7153 21.4077 25.5214 21.8028 25.4754L45.7215 22.6899C46.1295 22.6424 46.5316 22.7566 46.8538 23.0116C47.1759 23.2665 47.3795 23.6316 47.427 24.0397L49.0519 37.9922C49.15 38.8346 48.5445 39.5997 47.7022 39.6978L47.0313 39.7759V39.2676C47.0313 39.0087 46.8214 38.7989 46.5626 38.7989C46.3037 38.7989 46.0938 39.0087 46.0938 39.2676V43.7827C46.0938 44.6307 45.4039 45.3206 44.5559 45.3206H20.4754C19.6274 45.3206 18.9375 44.6307 18.9375 43.7827V29.7358C18.9375 28.8878 19.6274 28.1978 20.4754 28.1978H44.5558C45.4038 28.1978 46.0938 28.8878 46.0938 29.7358V37.2609C46.0938 37.5197 46.3036 37.7296 46.5625 37.7296C46.8214 37.7296 47.0313 37.5197 47.0313 37.2609V29.7358C47.0313 28.3708 45.9208 27.2604 44.5558 27.2604H20.4754C19.1105 27.2603 18 28.3708 18 29.7358V43.7827C18 45.1476 19.1105 46.2581 20.4754 46.2581H44.5558C45.9208 46.2581 47.0313 45.1476 47.0313 43.7827V40.7197L47.8106 40.629C48.4673 40.5525 49.055 40.2248 49.4654 39.7063C49.8757 39.1878 50.0596 38.5406 49.9831 37.8837Z" fill="black"/>
<path d="M21.4785 40.238H25.4919C25.7508 40.238 25.9606 40.0281 25.9606 39.7692C25.9606 39.5103 25.7508 39.3005 25.4919 39.3005H21.4785C21.2196 39.3005 21.0098 39.5103 21.0098 39.7692C21.0098 40.0281 21.2196 40.238 21.4785 40.238Z" fill="black"/>
<path d="M21.4785 42.7463H31.512C31.7709 42.7463 31.9808 42.5364 31.9808 42.2776C31.9808 42.0187 31.7709 41.8088 31.512 41.8088H21.4785C21.2196 41.8088 21.0098 42.0187 21.0098 42.2776C21.0098 42.5364 21.2196 42.7463 21.4785 42.7463Z" fill="black"/>
<path d="M31.5114 39.3005H27.498C27.2392 39.3005 27.0293 39.5103 27.0293 39.7692C27.0293 40.0281 27.2392 40.238 27.498 40.238H31.5114C31.7703 40.238 31.9802 40.0281 31.9802 39.7692C31.9802 39.5103 31.7703 39.3005 31.5114 39.3005Z" fill="black"/>
<path d="M37.5329 39.3005H33.5195C33.2607 39.3005 33.0508 39.5103 33.0508 39.7692C33.0508 40.0281 33.2607 40.238 33.5195 40.238H37.5329C37.7918 40.238 38.0017 40.0281 38.0017 39.7692C38.0017 39.5103 37.7918 39.3005 37.5329 39.3005Z" fill="black"/>
<path d="M39.0703 39.7692C39.0703 40.0281 39.2802 40.238 39.5391 40.238H43.5525C43.8114 40.238 44.0212 40.0281 44.0212 39.7692C44.0212 39.5104 43.8114 39.3005 43.5525 39.3005H39.5391C39.2802 39.3005 39.0703 39.5104 39.0703 39.7692Z" fill="black"/>
<path d="M22.4818 37.7296H25.4919C26.3036 37.7296 26.964 37.0692 26.964 36.2575V34.2508C26.964 33.4391 26.3036 32.7787 25.4919 32.7787H22.4818C21.6701 32.7787 21.0098 33.4391 21.0098 34.2508V36.2575C21.0098 37.0692 21.6701 37.7296 22.4818 37.7296ZM21.9473 34.2508C21.9473 33.956 22.1871 33.7162 22.4818 33.7162H25.4919C25.7866 33.7162 26.0265 33.956 26.0265 34.2508V36.2575C26.0265 36.5522 25.7867 36.7921 25.4919 36.7921H22.4818C22.1871 36.7921 21.9473 36.5523 21.9473 36.2575V34.2508Z" fill="black"/>
<path d="M23.4863 35.7229H24.4897C24.7486 35.7229 24.9585 35.5131 24.9585 35.2542C24.9585 34.9953 24.7486 34.7854 24.4897 34.7854H23.4863C23.2275 34.7854 23.0176 34.9953 23.0176 35.2542C23.0176 35.5131 23.2275 35.7229 23.4863 35.7229Z" fill="black"/>
<path d="M41.807 36.1755C41.874 36.2089 41.9453 36.2247 42.0154 36.2247C42.1876 36.2247 42.3535 36.1294 42.4355 35.9646C42.822 35.1877 43.018 34.3579 43.018 33.4983C43.018 32.6387 42.822 31.8089 42.4355 31.032C42.3201 30.8002 42.0388 30.7059 41.807 30.8211C41.5752 30.9365 41.4808 31.2178 41.5961 31.4496C41.9175 32.0956 42.0805 32.785 42.0805 33.4984C42.0805 34.2118 41.9175 34.9011 41.5961 35.5471C41.4807 35.7788 41.5751 36.0602 41.807 36.1755Z" fill="black"/>
<path d="M40.0076 35.2693C40.0748 35.3029 40.1462 35.3188 40.2166 35.3188C40.3886 35.3188 40.5543 35.2237 40.6363 35.0593C40.8853 34.5606 41.0115 34.0354 41.0115 33.4983C41.0115 32.9613 40.8853 32.4361 40.6363 31.9373C40.5206 31.7057 40.2392 31.6116 40.0075 31.7273C39.7759 31.843 39.6819 32.1245 39.7975 32.3561C39.981 32.7236 40.074 33.108 40.074 33.4983C40.074 33.8887 39.981 34.273 39.7975 34.6405C39.6819 34.8721 39.776 35.1537 40.0076 35.2693Z" fill="black"/>
<path d="M38.2112 34.3652C38.2793 34.3999 38.352 34.4164 38.4236 34.4164C38.5942 34.4164 38.7588 34.3228 38.8416 34.1604C38.9492 33.9491 39.0038 33.7264 39.0038 33.4983C39.0038 33.2702 38.9492 33.0475 38.8416 32.8362C38.724 32.6056 38.4417 32.5139 38.2111 32.6314C37.9805 32.749 37.8887 33.0312 38.0063 33.2619C38.0461 33.34 38.0663 33.4196 38.0663 33.4984C38.0663 33.5771 38.0461 33.6566 38.0063 33.7348C37.8888 33.9654 37.9805 34.2477 38.2112 34.3652Z" fill="black"/>
</g>
<path d="M34 66.2175C34 67.2019 34.7986 68.0049 35.7817 67.9533C39.6378 67.7509 43.4358 66.8929 47.0112 65.4119C51.1363 63.7032 54.8844 61.1988 58.0416 58.0416C61.1988 54.8844 63.7032 51.1363 65.4119 47.0112C66.8929 43.4358 67.7509 39.6378 67.9533 35.7817C68.0049 34.7986 67.2019 34 66.2175 34C65.233 34 64.4404 34.7988 64.3828 35.7815C64.1842 39.1692 63.4201 42.5041 62.1183 45.647C60.5887 49.3395 58.3469 52.6946 55.5208 55.5208C52.6946 58.3469 49.3395 60.5888 45.647 62.1183C42.5041 63.4201 39.1692 64.1842 35.7815 64.3828C34.7988 64.4404 34 65.233 34 66.2175Z" fill="url(#paint0_linear_1257_183)"/>
<defs>
<linearGradient id="paint0_linear_1257_183" x1="-1.80522e-05" y1="68" x2="-1.55719e-05" y2="-2.4803e-06" gradientUnits="userSpaceOnUse">
<stop stop-color="white"/>
<stop offset="0.475962" stop-color="#F9D58C"/>
<stop offset="1" stop-color="#F9D58C"/>
</linearGradient>
<clipPath id="clip0_1257_183">
<rect width="32" height="32" fill="white" transform="translate(18 18)"/>
</clipPath>
</defs>
</svg>
