<svg width="22" height="22" viewBox="0 0 22 22" fill="none" xmlns="http://www.w3.org/2000/svg">
<path d="M10.9991 0.648438C7.76379 0.648438 5.17555 3.23667 5.17555 6.47197V9.0602C4.07555 9.0602 3.23438 9.90138 3.23438 11.0014V19.4131C3.23438 20.5131 4.07555 21.3543 5.17555 21.3543H16.8226C17.9226 21.3543 18.7638 20.5131 18.7638 19.4131V11.0014C18.7638 9.90138 17.9226 9.0602 16.8226 9.0602V6.47197C16.8226 3.23667 14.2344 0.648438 10.9991 0.648438ZM17.4697 11.0014V19.4131C17.4697 19.8014 17.2108 20.0602 16.8226 20.0602H5.17555C4.78732 20.0602 4.52849 19.8014 4.52849 19.4131V11.0014C4.52849 10.6131 4.78732 10.3543 5.17555 10.3543H5.82261H16.1756H16.8226C17.2108 10.3543 17.4697 10.6131 17.4697 11.0014ZM6.46967 9.0602V6.47197C6.46967 3.94844 8.47555 1.94256 10.9991 1.94256C13.5226 1.94256 15.5285 3.94844 15.5285 6.47197V9.0602H6.46967Z" fill="#EEAD1E"/>
<path d="M10.9998 12.2969C9.89977 12.2969 9.05859 13.1381 9.05859 14.2381C9.05859 15.0792 9.57624 15.791 10.3527 16.0498V17.4733C10.3527 17.8616 10.6115 18.1204 10.9998 18.1204C11.388 18.1204 11.6468 17.8616 11.6468 17.4733V16.0498C12.4233 15.791 12.9409 15.0792 12.9409 14.2381C12.9409 13.1381 12.0998 12.2969 10.9998 12.2969ZM10.9998 14.8851C10.6115 14.8851 10.3527 14.6263 10.3527 14.2381C10.3527 13.8498 10.6115 13.591 10.9998 13.591C11.388 13.591 11.6468 13.8498 11.6468 14.2381C11.6468 14.6263 11.388 14.8851 10.9998 14.8851Z" fill="#EEAD1E"/>
</svg>
