<svg xmlns="http://www.w3.org/2000/svg" width="32" height="32" viewBox="0 0 32 32" fill="none">
  <path d="M30.4062 28.5H30.0938V14.3438C30.0938 14.2194 30.0444 14.1002 29.9565 14.0123C29.8685 13.9244 29.7493 13.875 29.625 13.875C29.5007 13.875 29.3815 13.9244 29.2935 14.0123C29.2056 14.1002 29.1562 14.2194 29.1562 14.3438V28.5H24.4688V10.8438C24.4688 10.8023 24.4852 10.7626 24.5145 10.7333C24.5438 10.704 24.5836 10.6875 24.625 10.6875H29C29.0414 10.6875 29.0812 10.704 29.1105 10.7333C29.1398 10.7626 29.1562 10.8023 29.1562 10.8438V12.4688C29.1562 12.5931 29.2056 12.7123 29.2935 12.8002C29.3815 12.8881 29.5007 12.9375 29.625 12.9375C29.7493 12.9375 29.8685 12.8881 29.9565 12.8002C30.0444 12.7123 30.0938 12.5931 30.0938 12.4688V10.8438C30.0934 10.5538 29.9781 10.2758 29.773 10.0707C29.568 9.86567 29.29 9.75033 29 9.75H24.625C24.335 9.75033 24.057 9.86567 23.852 10.0707C23.6469 10.2758 23.5316 10.5538 23.5312 10.8438V28.5H22.8854V16.4688C22.8851 16.1788 22.7698 15.9008 22.5647 15.6957C22.3597 15.4907 22.0817 15.3753 21.7917 15.375H17.4167C17.1267 15.3753 16.8487 15.4906 16.6436 15.6957C16.4386 15.9007 16.3233 16.1788 16.3229 16.4688V28.5H15.6771V13.3438C15.6767 13.0538 15.5614 12.7757 15.3564 12.5707C15.1513 12.3656 14.8733 12.2503 14.5833 12.25H10.2083C9.91833 12.2503 9.64033 12.3657 9.43528 12.5707C9.23023 12.7758 9.11489 13.0538 9.11456 13.3438V28.5H8.46875V21.4688C8.4684 21.1788 8.35306 20.9008 8.14801 20.6957C7.94297 20.4907 7.66497 20.3753 7.375 20.375H3C2.71003 20.3753 2.43203 20.4907 2.22699 20.6957C2.02194 20.9008 1.9066 21.1788 1.90625 21.4688V27.5312C1.90625 27.6556 1.95564 27.7748 2.04354 27.8627C2.13145 27.9506 2.25068 28 2.375 28C2.49932 28 2.61855 27.9506 2.70646 27.8627C2.79436 27.7748 2.84375 27.6556 2.84375 27.5312V21.4688C2.84375 21.4273 2.86021 21.3876 2.88951 21.3583C2.91882 21.329 2.95856 21.3125 3 21.3125H7.375C7.41644 21.3125 7.45618 21.329 7.48549 21.3583C7.51479 21.3876 7.53125 21.4273 7.53125 21.4688V28.5H1.59375C1.46943 28.5 1.3502 28.5494 1.26229 28.6373C1.17439 28.7252 1.125 28.8444 1.125 28.9688C1.125 29.0931 1.17439 29.2123 1.26229 29.3002C1.3502 29.3881 1.46943 29.4375 1.59375 29.4375H30.4062C30.5306 29.4375 30.6498 29.3881 30.7377 29.3002C30.8256 29.2123 30.875 29.0931 30.875 28.9688C30.875 28.8444 30.8256 28.7252 30.7377 28.6373C30.6498 28.5494 30.5306 28.5 30.4062 28.5ZM10.0521 28.5V13.3438C10.0521 13.3023 10.0685 13.2626 10.0978 13.2333C10.1271 13.204 10.1669 13.1875 10.2083 13.1875H14.5833C14.6248 13.1875 14.6645 13.204 14.6938 13.2333C14.7231 13.2626 14.7396 13.3023 14.7396 13.3438V28.5H10.0521ZM17.2604 28.5V16.4688C17.2604 16.4273 17.2769 16.3876 17.3062 16.3583C17.3355 16.329 17.3752 16.3125 17.4167 16.3125H21.7917C21.8331 16.3125 21.8729 16.329 21.9022 16.3583C21.9315 16.3876 21.9479 16.4273 21.9479 16.4688V28.5H17.2604Z" fill="white"/>
  <path d="M26.812 2.5625C26.5142 2.56244 26.2215 2.63977 25.9626 2.78689C25.7037 2.93402 25.4875 3.1459 25.3352 3.40175C25.1829 3.65761 25.0996 3.94866 25.0937 4.24638C25.0877 4.54409 25.1592 4.83824 25.3012 5.1L20.8483 8.72269C20.6817 8.54686 20.4797 8.40832 20.2556 8.31619C20.0316 8.22406 19.7906 8.18044 19.5484 8.18819C19.3063 8.19595 19.0685 8.2549 18.8508 8.36117C18.6331 8.46744 18.4404 8.61862 18.2853 8.80475L14.1135 6.80337C14.1135 6.79594 14.114 6.78856 14.114 6.78106C14.1143 6.51767 14.054 6.25774 13.9378 6.02135C13.8217 5.78496 13.6527 5.57843 13.4441 5.41771C13.2354 5.25699 12.9926 5.14638 12.7344 5.09442C12.4761 5.04246 12.2094 5.05054 11.9548 5.11803C11.7002 5.18553 11.4646 5.31063 11.266 5.48369C11.0674 5.65675 10.9113 5.87313 10.8097 6.11611C10.708 6.3591 10.6636 6.6222 10.6798 6.8851C10.696 7.14799 10.7724 7.40364 10.9031 7.63231L5.82491 13.3108C5.43931 13.1561 5.01081 13.1462 4.61846 13.2827C4.2261 13.4193 3.89637 13.6931 3.69009 14.0537C3.48381 14.4144 3.4149 14.8374 3.49608 15.2448C3.57725 15.6523 3.80304 16.0166 4.13177 16.2706C4.46051 16.5246 4.87002 16.6512 5.28475 16.6269C5.69948 16.6027 6.09144 16.4292 6.38834 16.1387C6.68523 15.8481 6.86702 15.4599 6.90016 15.0458C6.9333 14.6317 6.81556 14.2195 6.56866 13.8854L11.5728 8.29C11.9537 8.49801 12.3992 8.55402 12.8197 8.44674C13.2402 8.33946 13.6045 8.07686 13.8392 7.71181L17.9026 9.66113C17.8668 9.90883 17.8855 10.1614 17.9574 10.4011C18.0294 10.6408 18.1528 10.8619 18.3191 11.049C18.4854 11.2361 18.6905 11.3846 18.9201 11.4841C19.1498 11.5836 19.3984 11.6318 19.6486 11.6253C19.8988 11.6187 20.1445 11.5576 20.3687 11.4462C20.5928 11.3348 20.7899 11.1758 20.9462 10.9803C21.1024 10.7848 21.2141 10.5575 21.2735 10.3144C21.3328 10.0712 21.3383 9.81806 21.2895 9.57256L25.9598 5.77294C26.1884 5.90352 26.4439 5.97984 26.7067 5.99601C26.9694 6.01217 27.2324 5.96775 27.4752 5.86617C27.7181 5.76458 27.9344 5.60856 28.1074 5.41013C28.2804 5.2117 28.4055 4.97618 28.473 4.72174C28.5406 4.46729 28.5487 4.20074 28.4969 3.94263C28.4451 3.68453 28.3347 3.44178 28.1742 3.23312C28.0137 3.02446 27.8073 2.85548 27.5712 2.7392C27.335 2.62293 27.0752 2.56247 26.812 2.5625ZM5.18697 15.6875C5.03245 15.6875 4.88141 15.6417 4.75293 15.5558C4.62446 15.47 4.52432 15.348 4.46519 15.2052C4.40606 15.0625 4.39059 14.9054 4.42073 14.7538C4.45088 14.6023 4.52528 14.4631 4.63454 14.3538C4.7438 14.2446 4.88301 14.1702 5.03456 14.14C5.1861 14.1099 5.34319 14.1253 5.48594 14.1845C5.6287 14.2436 5.75071 14.3437 5.83656 14.4722C5.9224 14.6007 5.96822 14.7517 5.96822 14.9062C5.96799 15.1134 5.88561 15.312 5.73914 15.4584C5.59268 15.6049 5.3941 15.6873 5.18697 15.6875ZM12.3953 7.5625C12.2408 7.5625 12.0897 7.51668 11.9612 7.43084C11.8328 7.34499 11.7326 7.22298 11.6735 7.08022C11.6144 6.93747 11.5989 6.78038 11.629 6.62884C11.6592 6.47729 11.7336 6.33808 11.8429 6.22882C11.9521 6.11956 12.0913 6.04516 12.2429 6.01501C12.3944 5.98487 12.5515 6.00034 12.6943 6.05947C12.837 6.1186 12.959 6.21873 13.0449 6.34721C13.1307 6.47569 13.1765 6.62673 13.1765 6.78125C13.1763 6.98838 13.0939 7.18696 12.9475 7.33342C12.801 7.47988 12.6024 7.56227 12.3953 7.5625ZM19.6037 10.6875C19.4491 10.6875 19.2981 10.6417 19.1696 10.5558C19.0411 10.47 18.941 10.348 18.8819 10.2052C18.8227 10.0625 18.8073 9.90538 18.8374 9.75384C18.8676 9.60229 18.942 9.46308 19.0512 9.35382C19.1605 9.24456 19.2997 9.17016 19.4512 9.14001C19.6028 9.10987 19.7599 9.12534 19.9026 9.18447C20.0454 9.2436 20.1674 9.34373 20.2532 9.47221C20.3391 9.60069 20.3849 9.75173 20.3849 9.90625C20.3847 10.1134 20.3023 10.312 20.1558 10.4584C20.0094 10.6049 19.8108 10.6873 19.6037 10.6875ZM26.812 5.0625C26.6575 5.0625 26.5064 5.01668 26.3779 4.93084C26.2495 4.84499 26.1493 4.72298 26.0902 4.58022C26.0311 4.43747 26.0156 4.28038 26.0457 4.12884C26.0759 3.97729 26.1503 3.83808 26.2595 3.72882C26.3688 3.61956 26.508 3.54516 26.6596 3.51501C26.8111 3.48487 26.9682 3.50034 27.1109 3.55947C27.2537 3.6186 27.3757 3.71873 27.4616 3.84721C27.5474 3.97569 27.5932 4.12673 27.5932 4.28125C27.593 4.48838 27.5106 4.68696 27.3641 4.83342C27.2177 4.97988 27.0191 5.06227 26.812 5.0625Z" fill="white"/>
</svg>