<svg width="12" height="12" viewBox="0 0 12 12" fill="none" xmlns="http://www.w3.org/2000/svg">
<g clip-path="url(#clip0_5641_3805)">
<path d="M10.2426 1.75744C7.8993 -0.58582 4.10018 -0.58582 1.75741 1.75748C-0.58582 4.10072 -0.58582 7.89982 1.75751 10.2426C4.10018 12.5858 7.8993 12.5858 10.2426 10.2425C12.5858 7.89982 12.5858 4.10072 10.2426 1.75744ZM9.5355 9.53541C7.58273 11.4882 4.41684 11.4882 2.46462 9.5355C0.511851 7.58318 0.511851 4.41729 2.46457 2.46457C4.41684 0.511828 7.58273 0.511828 9.53545 2.46457C11.4882 4.41731 11.4882 7.58318 9.5355 9.53541Z" fill="#FF1414"/>
<path d="M8.47512 3.52511C8.27986 3.32985 7.96326 3.32985 7.76801 3.52511L6.00023 5.29288L4.23246 3.52511C4.0372 3.32985 3.72061 3.32985 3.52535 3.52511C3.33009 3.72036 3.33009 4.03696 3.52535 4.23221L5.29312 5.99999L3.52601 7.7671C3.33075 7.96236 3.33075 8.27896 3.52601 8.47421C3.72126 8.66947 4.03786 8.66947 4.23312 8.47421L6.00023 6.7071L7.76787 8.47473C7.96312 8.66999 8.27972 8.66999 8.47497 8.47473C8.67023 8.27947 8.67023 7.96288 8.47497 7.76762L6.70734 5.99999L8.47512 4.23221C8.67037 4.03696 8.67037 3.72039 8.47512 3.52511Z" fill="#FF1414"/>
</g>
<defs>
<clipPath id="clip0_5641_3805">
<rect width="12" height="12" fill="white"/>
</clipPath>
</defs>
</svg>
