<svg width="135" height="43" viewBox="0 0 135 43" fill="none" xmlns="http://www.w3.org/2000/svg">
<path d="M20.3738 43C18.1472 43 16.0561 42.0869 14.4826 40.4268C11.2334 36.9983 11.2334 31.4233 14.4826 27.9949L16.6818 25.6764L16.4183 25.3985L14.2192 27.7169C12.6458 29.3771 10.5528 30.2901 8.32807 30.2901C6.10335 30.2901 4.01035 29.3771 2.43695 27.7169C-0.812316 24.2885 -0.812316 18.7134 2.43695 15.285C4.01035 13.6249 6.10335 12.7118 8.32807 12.7118C10.5528 12.7118 12.6458 13.6229 14.2192 15.285L16.4183 17.6035L16.6818 17.3255L14.4826 15.0051C11.2334 11.5767 11.2334 6.00165 14.4826 2.57323C16.0579 0.913078 18.1509 0 20.3738 0C22.5967 0 24.6915 0.913078 26.2649 2.57323C29.5142 6.00165 29.5142 11.5767 26.2649 15.0051L24.0658 17.3235L24.3292 17.6015L26.5283 15.2831C28.1017 13.6229 30.1947 12.7098 32.4195 12.7098C34.6442 12.7098 36.7372 13.6229 38.3106 15.2831C39.884 16.9433 40.7494 19.1497 40.7494 21.499C40.7494 23.8484 39.884 26.0548 38.3106 27.715C36.7372 29.3751 34.6442 30.2882 32.4195 30.2882C30.1947 30.2882 28.1017 29.3751 26.5283 27.715L24.3292 25.3965L24.0658 25.6745L26.2649 27.9929C29.5142 31.4214 29.5142 36.9964 26.2649 40.4248C24.6915 42.085 22.5985 42.9981 20.3738 42.9981V43ZM23.537 16.7676L25.7361 14.4492C28.6945 11.3277 28.6945 6.25068 25.7361 3.1292C24.3036 1.61768 22.3991 0.785669 20.3738 0.785669C18.3485 0.785669 16.4457 1.61961 15.0132 3.13113C12.0548 6.25068 12.0548 11.3296 15.0132 14.4511L17.2123 16.7695L17.7411 16.2116L15.5419 13.8932C12.8763 11.0806 12.8763 6.50164 15.5419 3.68902C16.8757 2.28175 18.6266 1.57715 20.3793 1.57715C22.132 1.57715 23.8828 2.28175 25.2166 3.68902C27.8822 6.50164 27.8822 11.0806 25.2166 13.8932L23.0156 16.2116L23.5444 16.7695H23.5407L23.537 16.7676ZM22.4832 15.6518L24.6823 13.3334C25.8331 12.1191 26.468 10.5053 26.468 8.78724C26.468 7.06917 25.8331 5.45535 24.6823 4.24112C23.495 2.98828 21.9344 2.36089 20.3738 2.36089C18.8132 2.36089 17.2526 2.98828 16.0652 4.24112C13.6905 6.7468 13.6905 10.8277 16.0652 13.3334L18.2661 15.6537L18.7949 15.0958L16.5958 12.7774C14.5101 10.5767 14.5101 6.99968 16.5958 4.79901C17.6057 3.73342 18.9467 3.14657 20.3774 3.14657C21.8081 3.14657 23.1492 3.73342 24.1591 4.79901C26.2448 6.99968 26.2448 10.5767 24.1591 12.7774L21.96 15.0958L22.4887 15.6537H22.4869L22.4832 15.6518ZM21.4294 14.5399L23.6304 12.2234C24.4976 11.3084 24.9751 10.0883 24.9751 8.79111C24.9751 7.49387 24.4976 6.27384 23.6304 5.35882C22.7631 4.44574 21.605 3.93611 20.3756 3.93611C19.1461 3.93611 17.9917 4.44188 17.1227 5.35882C15.3279 7.25256 15.3279 10.3316 17.1227 12.2253L19.3218 14.5437L19.8505 13.9858L17.6514 11.6655C16.9233 10.8972 16.5244 9.87793 16.5244 8.78918C16.5244 7.70042 16.9251 6.67924 17.6514 5.91286C18.3796 5.14649 19.3474 4.72179 20.3774 4.72179C21.4075 4.72179 22.3753 5.14456 23.1034 5.91286C23.8334 6.6831 24.2304 7.70042 24.2304 8.78918C24.2304 9.87793 23.8298 10.8991 23.1034 11.6655L20.9025 13.9839L21.4312 14.5418L21.4294 14.5399ZM20.3738 13.428L22.5729 11.1095C23.1583 10.4899 23.4803 9.66752 23.4803 8.79111C23.4803 7.9147 23.1565 7.09041 22.5729 6.47268C21.9874 5.85301 21.2044 5.51327 20.3738 5.51327C19.5432 5.51327 18.7619 5.85494 18.1747 6.47268C17.5874 7.09041 17.2672 7.9147 17.2672 8.79111C17.2672 9.66752 17.591 10.4918 18.1747 11.1095L20.3738 13.428ZM32.4195 29.5025C34.4466 29.5025 36.3493 28.6705 37.7819 27.159C39.2144 25.6475 40.0047 23.636 40.0047 21.501C40.0047 19.3659 39.218 17.3525 37.7837 15.841C36.3511 14.3295 34.4448 13.4994 32.4213 13.4994C30.3978 13.4994 28.4914 14.3314 27.0589 15.8429L24.858 18.1594L25.3867 18.7173L27.5858 16.3989C28.9196 14.9916 30.6704 14.2889 32.4231 14.2889C34.1758 14.2889 35.9267 14.9935 37.2604 16.3989C39.9261 19.2115 39.9261 23.7904 37.2604 26.6031C35.9267 28.0103 34.1758 28.713 32.4231 28.713C30.6704 28.713 28.9196 28.0084 27.5858 26.6031L25.3867 24.2846L24.858 24.8425L27.0571 27.1609C28.4896 28.6724 30.3942 29.5045 32.4195 29.5045V29.5025ZM8.32807 29.5025C10.3552 29.5025 12.2579 28.6705 13.6905 27.159L15.8896 24.8406L15.3608 24.2827L13.1617 26.6011C11.8701 27.964 10.1521 28.7149 8.32624 28.7149C6.50036 28.7149 4.78059 27.964 3.48893 26.6011C0.823294 23.7885 0.823294 19.2096 3.48893 16.3969C4.78059 15.0341 6.49853 14.2831 8.32624 14.2831C10.154 14.2831 11.8719 15.0341 13.1617 16.3969L15.3627 18.7154L15.8914 18.1575L13.6905 15.8391C12.2579 14.3275 10.3515 13.4955 8.32807 13.4955C6.3046 13.4955 4.39822 14.3275 2.96569 15.8391C0.00731778 18.9586 0.00914741 24.0375 2.96569 27.1571C4.39822 28.6686 6.30277 29.5006 8.32807 29.5006V29.5025ZM20.3738 15.6537L20.9025 15.0958L20.3738 14.538L19.845 15.0958L20.3738 15.6537ZM8.32807 27.9273C9.95636 27.9273 11.4859 27.2575 12.6366 26.0432L14.8357 23.7248L14.307 23.1669L12.1079 25.4853C11.098 26.5509 9.75511 27.1378 8.32624 27.1378C6.89737 27.1378 5.55632 26.5509 4.54458 25.4853C3.53467 24.4197 2.98032 23.0048 2.98032 21.4971C2.98032 19.9894 3.5365 18.5725 4.54458 17.5089C5.55266 16.4452 6.89554 15.8564 8.32624 15.8564C9.75694 15.8564 11.0962 16.4433 12.1079 17.5089L14.307 19.8273L14.8357 19.2694L12.6366 16.9529C11.4859 15.7387 9.95636 15.0688 8.32807 15.0688C6.69978 15.0688 5.17028 15.7387 4.0195 16.9529C1.64476 19.4586 1.64476 23.5395 4.0195 26.0452C5.17028 27.2594 6.69978 27.9292 8.32807 27.9292V27.9273ZM32.4195 27.9235C33.9801 27.9235 35.5407 27.2961 36.728 26.0432C39.1028 23.5375 39.1028 19.4567 36.728 16.951C35.5407 15.6981 33.9801 15.0707 32.4195 15.0707C30.8589 15.0707 29.2983 15.6981 28.1109 16.951L25.9136 19.2713L26.4424 19.8292L28.6415 17.5108C29.6514 16.4452 30.9943 15.8584 32.4231 15.8584C33.852 15.8584 35.193 16.4452 36.2048 17.5108C37.2147 18.5764 37.7709 19.9933 37.7709 21.499C37.7709 23.0048 37.2147 24.4217 36.2048 25.4873C35.1949 26.5529 33.852 27.1397 32.4231 27.1397C30.9943 27.1397 29.6514 26.5529 28.6415 25.4873L26.4424 23.1688L25.9136 23.7267L28.1127 26.0452C29.3001 27.298 30.8607 27.9254 32.4213 27.9254L32.4195 27.9235ZM21.4294 16.7676L21.9581 16.2097L21.4294 15.6518L20.9007 16.2097L21.4294 16.7676ZM19.3181 16.7676L19.8469 16.2097L19.3181 15.6518L18.7894 16.2097L19.3181 16.7676ZM32.4195 26.3521C33.6489 26.3521 34.8034 25.8463 35.6724 24.9294C36.5396 24.0124 37.0189 22.7924 37.0189 21.4971C37.0189 20.2018 36.5396 18.9818 35.6706 18.0648C34.8015 17.1498 33.6453 16.6421 32.4176 16.6421C31.19 16.6421 30.0337 17.1479 29.1647 18.0648L26.9656 20.3832L27.4943 20.9411L29.6953 18.6227C30.4253 17.8544 31.3913 17.4316 32.4213 17.4316C33.4513 17.4316 34.4192 17.8544 35.1473 18.6227C35.8773 19.3929 36.2761 20.4122 36.2761 21.499C36.2761 22.5859 35.8736 23.607 35.1473 24.3753C34.4192 25.1456 33.4513 25.5664 32.4213 25.5664C31.3913 25.5664 30.4234 25.1437 29.6953 24.3753L27.4962 22.055L26.9674 22.6129L29.1665 24.9313C30.0356 25.8483 31.1918 26.354 32.4213 26.354L32.4195 26.3521ZM8.32807 26.3521C9.55569 26.3521 10.712 25.8463 11.581 24.9313L13.7801 22.6129L13.2514 22.055L11.0523 24.3734C10.3241 25.1398 9.35627 25.5645 8.32624 25.5645C7.29621 25.5645 6.32838 25.1417 5.60023 24.3734C4.87024 23.6032 4.47323 22.5859 4.47323 21.4971C4.47323 20.4083 4.8739 19.3872 5.60023 18.6208C6.32838 17.8544 7.29621 17.4297 8.32624 17.4297C9.35627 17.4297 10.3259 17.8544 11.0541 18.6227L13.2532 20.9411L13.7819 20.3832L11.5828 18.0648C10.7138 17.1498 9.55752 16.6421 8.3299 16.6421C7.10228 16.6421 5.94601 17.1479 5.07698 18.0648C4.20977 18.9818 3.73226 20.1999 3.73226 21.499C3.73226 22.7982 4.20977 24.0163 5.07698 24.9313C5.94418 25.8444 7.10228 26.354 8.3299 26.354L8.32807 26.3521ZM22.4832 17.8834L23.012 17.3255L22.4832 16.7676L21.9545 17.3255L22.4832 17.8834ZM20.3719 17.8834L20.9007 17.3255L20.3719 16.7676L19.8432 17.3255L20.3719 17.8834ZM18.2625 17.8834L18.7912 17.3255L18.2625 16.7676L17.7337 17.3255L18.2625 17.8834ZM17.4703 18.7173L17.7337 18.4393L17.205 17.8814L16.9415 18.1594L17.4703 18.7173ZM23.2736 18.7173L23.8023 18.1594L23.5389 17.8814L23.0101 18.4393L23.2736 18.7173ZM21.4294 18.9953L21.9581 18.4374L21.4294 17.8795L20.9007 18.4374L21.4294 18.9953ZM19.3181 18.9953L19.8469 18.4374L19.3181 17.8795L18.7894 18.4374L19.3181 18.9953ZM32.4195 24.7807C33.2482 24.7807 34.0313 24.439 34.6186 23.8213C35.2059 23.2017 35.5279 22.3774 35.5279 21.5029C35.5279 20.6284 35.204 19.8022 34.6186 19.1845C34.0313 18.5648 33.2501 18.225 32.4195 18.225C31.5889 18.225 30.8076 18.5667 30.2204 19.1845L28.0212 21.5029L30.2204 23.8213C30.8076 24.441 31.5889 24.7807 32.4195 24.7807ZM8.32807 24.7807C9.15685 24.7807 9.9399 24.439 10.5272 23.8213L12.7263 21.5029L10.5272 19.1845C9.9399 18.5648 9.16051 18.225 8.32807 18.225C7.49563 18.225 6.71625 18.5667 6.12896 19.1845C5.54168 19.8022 5.22151 20.6265 5.22151 21.5029C5.22151 22.3793 5.54351 23.2036 6.12896 23.8213C6.71625 24.441 7.49563 24.7807 8.32807 24.7807ZM24.3347 19.835L24.8635 19.2771L24.3347 18.7192L23.806 19.2771L24.3347 19.835ZM16.4201 19.835L16.9489 19.2771L16.4201 18.7192L15.8914 19.2771L16.4201 19.835ZM22.2234 19.835L22.7522 19.2771L22.4887 18.9991L21.96 19.557L22.2234 19.835ZM20.3774 20.113L20.9062 19.5551L20.3774 18.9972L19.8487 19.5551L20.3774 20.113ZM18.5332 19.835L18.7967 19.557L18.268 18.9991L18.0045 19.2771L18.5332 19.835ZM25.3904 20.9469L25.9191 20.389L25.3904 19.8312L24.8616 20.389L25.3904 20.9469ZM23.2791 20.9469L23.8078 20.389L23.2791 19.8312L22.7503 20.389L23.2791 20.9469ZM17.4758 20.9469L18.0045 20.389L17.4758 19.8312L16.947 20.389L17.4758 20.9469ZM15.3663 20.9469L15.8951 20.389L15.3663 19.8312L14.8376 20.389L15.3663 20.9469ZM21.1696 20.9469L21.6984 20.389L21.4349 20.1111L20.9062 20.6689L21.1696 20.9469ZM19.5871 20.9469L19.8505 20.6689L19.3218 20.1111L19.0583 20.389L19.5871 20.9469ZM26.4442 22.0588L26.9729 21.501L26.4442 20.9431L25.9154 21.501L26.4442 22.0588ZM24.3347 22.0588L24.8635 21.501L24.3347 20.9431L23.806 21.501L24.3347 22.0588ZM22.2234 22.0588L22.7522 21.501L22.2234 20.9431L21.6947 21.501L22.2234 22.0588ZM18.5314 22.0588L19.0602 21.501L18.5314 20.9431L18.0027 21.501L18.5314 22.0588ZM16.4201 22.0588L16.9489 21.501L16.4201 20.9431L15.8914 21.501L16.4201 22.0588ZM14.3088 22.0588L14.8376 21.501L14.3088 20.9431L13.7801 21.501L14.3088 22.0588ZM20.3756 21.7789L20.639 21.501L20.3756 21.223L20.1121 21.501L20.3756 21.7789ZM25.3885 23.1727L25.9173 22.6148L25.3885 22.0569L24.8598 22.6148L25.3885 23.1727ZM23.2772 23.1727L23.806 22.6148L23.2772 22.0569L22.7485 22.6148L23.2772 23.1727ZM21.4312 22.8928L21.6947 22.6148L21.166 22.0569L20.9025 22.3349L21.4312 22.8928ZM19.32 22.8928L19.8487 22.3349L19.5852 22.0569L19.0565 22.6148L19.32 22.8928ZM17.4739 23.1727L18.0027 22.6148L17.4739 22.0569L16.9452 22.6148L17.4739 23.1727ZM15.3645 23.1727L15.8932 22.6148L15.3645 22.0569L14.8357 22.6148L15.3645 23.1727ZM20.3756 24.0066L20.9043 23.4487L20.3756 22.8909L19.8469 23.4487L20.3756 24.0066ZM24.3329 24.2846L24.8616 23.7267L24.3329 23.1688L23.8042 23.7267L24.3329 24.2846ZM22.4869 24.0066L22.7503 23.7287L22.2216 23.1708L21.9581 23.4487L22.4869 24.0066ZM16.4201 24.2846L16.9489 23.7267L16.4201 23.1688L15.8914 23.7267L16.4201 24.2846ZM18.2661 24.0066L18.7949 23.4487L18.5314 23.1708L18.0027 23.7287L18.2661 24.0066ZM21.4312 25.1186L21.96 24.5607L21.4312 24.0028L20.9025 24.5607L21.4312 25.1186ZM19.32 25.1186L19.8487 24.5607L19.32 24.0028L18.7912 24.5607L19.32 25.1186ZM23.5407 25.1186L23.8042 24.8406L23.2754 24.2827L23.012 24.5607L23.5407 25.1186ZM17.2105 25.1186L17.7392 24.5607L17.4758 24.2827L16.947 24.8406L17.2105 25.1186ZM22.4869 26.2324L23.0156 25.6745L22.4869 25.1166L21.9581 25.6745L22.4869 26.2324ZM20.3756 26.2324L20.9043 25.6745L20.3756 25.1166L19.8469 25.6745L20.3756 26.2324ZM18.2661 26.2324L18.7949 25.6745L18.2661 25.1166L17.7374 25.6745L18.2661 26.2324ZM20.3756 42.2124C22.4027 42.2124 24.3055 41.3804 25.738 39.8689C28.6945 36.7474 28.6945 31.6704 25.738 28.5508L23.5389 26.2324L23.0101 26.7903L25.2092 29.1087C26.5009 30.4716 27.2126 32.2843 27.2126 34.2127C27.2126 36.1412 26.5009 37.9539 25.2092 39.3148C23.8755 40.7221 22.1246 41.4248 20.3719 41.4248C18.6192 41.4248 16.8702 40.7202 15.5365 39.3129C12.8708 36.5003 12.8708 31.9213 15.5365 29.1087L17.7356 26.7903L17.2068 26.2324L15.0077 28.5508C12.0512 31.6723 12.0512 36.7493 15.0077 39.8689C16.4403 41.3804 18.3448 42.2124 20.3701 42.2124H20.3756ZM21.4312 27.3443L21.96 26.7864L21.4312 26.2286L20.9025 26.7864L21.4312 27.3443ZM19.32 27.3443L19.8487 26.7864L19.32 26.2286L18.7912 26.7864L19.32 27.3443ZM20.3738 40.6352C21.9344 40.6352 23.495 40.0078 24.6823 38.755C25.8331 37.5408 26.468 35.927 26.468 34.2089C26.468 32.4908 25.8331 30.877 24.6823 29.6628L22.4832 27.3443L21.9545 27.9022L24.1536 30.2206C25.1617 31.2843 25.7179 32.7012 25.7179 34.2089C25.7179 35.7165 25.1617 37.1335 24.1536 38.1971C23.1455 39.2608 21.8026 39.8496 20.3719 39.8496C18.9412 39.8496 17.602 39.2627 16.5903 38.1971C15.5804 37.1315 15.026 35.7165 15.026 34.2089C15.026 32.7012 15.5822 31.2843 16.5903 30.2206L18.7894 27.9022L18.2606 27.3443L16.0615 29.6628C13.6868 32.1684 13.6868 36.2493 16.0615 38.755C17.2489 40.0078 18.8095 40.6352 20.3701 40.6352H20.3738ZM20.3738 28.4582L20.9025 27.9003L20.3738 27.3424L19.845 27.9003L20.3738 28.4582ZM20.3738 39.0639C21.6032 39.0639 22.7577 38.5581 23.6285 37.6431C24.4976 36.7281 24.9732 35.5081 24.9732 34.2108C24.9732 32.9136 24.4957 31.6936 23.6285 30.7785L21.4294 28.4562L20.9007 29.0141L23.0998 31.3326C23.8279 32.1009 24.2268 33.1201 24.2268 34.2089C24.2268 35.2976 23.8261 36.3188 23.0998 37.0852C22.3716 37.8535 21.4038 38.2763 20.3738 38.2763C19.3437 38.2763 18.3759 37.8535 17.6477 37.0852C16.9196 36.3188 16.5208 35.2976 16.5208 34.2089C16.5208 33.1201 16.9214 32.0989 17.6477 31.3326L19.8469 29.0141L19.3181 28.4562L17.119 30.7747C16.2518 31.6897 15.7743 32.9097 15.7743 34.207C15.7743 35.5042 16.2536 36.7242 17.119 37.6392C17.9844 38.5523 19.1443 39.06 20.3719 39.06V39.0639H20.3738ZM20.3738 37.4887C21.2044 37.4887 21.9856 37.147 22.5729 36.5292C23.1602 35.9096 23.4803 35.0872 23.4803 34.2108C23.4803 33.3344 23.1565 32.5101 22.5729 31.8924L20.3738 29.574L18.1747 31.8924C17.5892 32.512 17.2672 33.3344 17.2672 34.2108C17.2672 35.0872 17.591 35.9115 18.1747 36.5292C18.7601 37.1489 19.5413 37.4887 20.3738 37.4887Z" fill="url(#paint0_linear_6192_3837)"/>
<path d="M65.2264 38.1818C64.2403 38.1818 63.3493 37.9868 62.5315 37.6336C61.7137 37.2822 61.0258 36.7939 60.4312 36.1684C59.8549 35.5236 59.4085 34.7631 59.0938 33.904C58.759 33.0238 58.6108 32.0682 58.6108 31.0123C58.6108 29.9563 58.759 29.0008 59.0938 28.1205C59.4103 27.2402 59.8567 26.499 60.4312 25.8561C61.0258 25.2326 61.7137 24.723 62.5315 24.3716C63.3493 24.0203 64.2385 23.8466 65.2246 23.8466C66.2107 23.8466 67.12 24.0222 67.9378 24.3736C68.7373 24.7249 69.4435 25.2326 70.0198 25.858C70.5961 26.5009 71.059 27.2441 71.3755 28.1224C71.692 29.0008 71.8585 29.9776 71.8585 31.0142C71.8585 32.0508 71.692 33.0257 71.3755 33.9059C71.059 34.765 70.5943 35.5275 70.0198 36.1703C69.4435 36.7939 68.7373 37.2842 67.9378 37.6355C67.12 37.9868 66.2089 38.1838 65.2246 38.1838H65.2264V38.1818ZM52.1159 38.1818C51.0383 38.1818 50.0522 38.0042 49.1795 37.6548C48.3233 37.3035 47.5823 36.8151 46.9676 36.1703C46.3529 35.5468 45.8717 34.7843 45.5369 33.9059C45.2204 33.0257 45.0521 32.0701 45.0521 31.0142C45.0521 29.9583 45.2003 28.9834 45.5168 28.1051C45.8516 27.2055 46.298 26.4642 46.8908 25.8407C47.4854 25.1959 48.2099 24.7075 49.046 24.3755C49.904 24.0242 50.8499 23.8485 51.911 23.8485C52.4324 23.8485 52.9337 23.8871 53.3783 23.9662C53.843 24.0647 54.2711 24.1805 54.6608 24.3369C55.0523 24.4932 55.4054 24.6689 55.7384 24.9044L56.6678 25.6264L56.0915 26.5646C55.9982 26.7209 55.8866 26.8175 55.7567 26.858L55.6817 26.8734C55.5317 26.8734 55.4164 26.829 55.2902 26.7402L54.7505 26.4082C54.5456 26.2712 54.3224 26.1553 54.0443 26.0376C53.7845 25.9391 53.468 25.8426 53.1149 25.7654C52.7435 25.6862 52.3153 25.6476 51.8324 25.6476C51.106 25.6476 50.4382 25.7654 49.8619 26.0183C49.2673 26.2712 48.766 26.6225 48.3562 27.0916C47.9281 27.5607 47.6116 28.1263 47.3884 28.7923C47.1652 29.4563 47.0536 30.1976 47.0536 31.0181C47.0536 31.8385 47.1652 32.6396 47.4067 33.323C47.6482 34.0063 47.983 34.5739 48.4111 35.0623C48.8392 35.5314 49.3606 35.8827 49.9717 36.1356C50.6047 36.3885 51.2908 36.5062 52.0537 36.5062L52.8715 36.4464C53.1313 36.4078 53.3747 36.3672 53.6162 36.29L54.3041 36.0564C54.5273 35.958 54.7322 35.8422 54.9554 35.7244V32.794H52.9868C52.8569 32.794 52.7636 32.7554 52.6886 32.6763L52.577 32.4987V31.1918H56.7593V36.6587C56.0714 37.1664 55.3652 37.5583 54.6041 37.8112C53.843 38.0641 53.0069 38.1818 52.1141 38.1818H52.1159ZM83.9115 38.0255V24.0029H88.9299C89.9161 24.0029 90.8071 24.1805 91.6249 24.5106C92.4427 24.8407 93.1306 25.331 93.7252 25.9353C94.3015 26.5588 94.746 27.2846 95.0626 28.161C95.3974 29.0201 95.5456 29.9776 95.5456 31.0123C95.5456 32.047 95.3974 33.0045 95.0626 33.8635C94.746 34.7225 94.2996 35.4657 93.7252 36.0892C93.1306 36.6935 92.4427 37.1819 91.6249 37.5139C90.8071 37.8459 89.9161 38.0216 88.9299 38.0216L83.9115 38.0255ZM74.3412 38.0255V24.0029H76.3116V36.2669H81.9795V38.0235H74.3412V38.0255ZM65.2246 36.3672C65.9308 36.3672 66.562 36.2495 67.12 36.0159C67.6963 35.763 68.1793 35.4117 68.569 34.9426C68.9788 34.4928 69.2752 33.9272 69.4984 33.2631C69.7216 32.601 69.8332 31.8578 69.8332 31.0181C69.8332 30.1783 69.7216 29.4351 69.4984 28.773C69.2752 28.1108 68.977 27.5414 68.569 27.0723C68.1775 26.6225 67.6945 26.2712 67.12 26.0183C66.562 25.7654 65.9308 25.6476 65.2246 25.6476C64.5184 25.6476 63.8872 25.7654 63.3292 26.0183C62.7529 26.2712 62.2699 26.6225 61.8802 27.0723C61.4704 27.5414 61.1539 28.107 60.9508 28.773C60.7276 29.437 60.616 30.1783 60.616 31.0181C60.616 31.8578 60.7276 32.601 60.9508 33.2631C61.1557 33.9272 61.4722 34.4947 61.8802 34.9426C62.2717 35.4117 62.7547 35.763 63.3292 36.0159C63.8872 36.2495 64.5184 36.3672 65.2246 36.3672ZM88.9299 36.3479C89.6179 36.3479 90.249 36.2302 90.8253 35.9773C91.3833 35.7437 91.8645 35.3924 92.2743 34.9426C92.6659 34.4735 92.9805 33.9272 93.2037 33.2631C93.4087 32.5991 93.5202 31.8578 93.5202 31.0181C93.5202 30.1783 93.4087 29.4351 93.2037 28.773C92.9805 28.1089 92.664 27.5626 92.2743 27.0935C91.8645 26.6437 91.3815 26.2924 90.8253 26.0395C90.249 25.8059 89.6179 25.6882 88.9299 25.6882H85.9002V36.3479H88.9299Z" fill="url(#paint1_linear_6192_3837)"/>
<path d="M51.5252 8.13449C50.9864 8.13449 50.5081 8.24628 50.0903 8.46987C49.6786 8.68707 49.3305 9.00328 49.0459 9.41852C48.7674 9.83375 48.5555 10.3352 48.4102 10.9229C48.2649 11.5107 48.1923 12.1718 48.1923 12.9065C48.1923 13.8967 48.3073 14.7431 48.5374 15.4458C48.7735 16.1421 49.1367 16.6755 49.6272 17.046C50.1176 17.4102 50.7502 17.5922 51.5252 17.5922C52.064 17.5922 52.6029 17.5284 53.1417 17.4006C53.6866 17.2728 54.2769 17.0908 54.9126 16.8544V19.3458C54.3254 19.6013 53.7472 19.7834 53.1781 19.892C52.6089 20.007 51.9702 20.0645 51.2618 20.0645C49.8936 20.0645 48.7674 19.7674 47.8835 19.1733C47.0056 18.5728 46.3548 17.736 45.9309 16.6628C45.5071 15.5831 45.2952 14.3247 45.2952 12.8873C45.2952 11.8269 45.4315 10.8559 45.7039 9.97429C45.9764 9.09272 46.3759 8.32933 46.9027 7.68412C47.4294 7.03891 48.0803 6.54063 48.8552 6.18927C49.6302 5.83792 50.5202 5.66225 51.5252 5.66225C52.1851 5.66225 52.8451 5.75168 53.505 5.93055C54.171 6.10303 54.8067 6.34259 55.4121 6.64923L54.504 9.06397C54.0075 8.81483 53.508 8.59763 53.0055 8.41237C52.503 8.22712 52.0096 8.13449 51.5252 8.13449Z" fill="black"/>
<path d="M69.955 12.849C69.955 13.9286 69.8279 14.9124 69.5736 15.8003C69.3193 16.6819 68.9318 17.4421 68.4111 18.0809C67.8965 18.7198 67.2426 19.2117 66.4495 19.5566C65.6564 19.8952 64.7179 20.0645 63.6342 20.0645C62.5505 20.0645 61.612 19.8952 60.8189 19.5566C60.0258 19.2117 59.3689 18.7198 58.8482 18.0809C58.3336 17.4421 57.9491 16.6787 57.6948 15.7908C57.4405 14.9028 57.3134 13.9158 57.3134 12.8298C57.3134 11.3797 57.5374 10.118 57.9854 9.04481C58.4395 7.9652 59.1358 7.12834 60.0742 6.53424C61.0126 5.94013 62.2054 5.64308 63.6524 5.64308C65.0933 5.64308 66.2769 5.94013 67.2033 6.53424C68.1356 7.12834 68.8258 7.9652 69.2739 9.04481C69.7279 10.1244 69.955 11.3925 69.955 12.849ZM60.2649 12.849C60.2649 13.8264 60.38 14.6696 60.61 15.3787C60.8461 16.0814 61.2124 16.6244 61.7089 17.0077C62.2054 17.3846 62.8471 17.5731 63.6342 17.5731C64.4334 17.5731 65.0812 17.3846 65.5777 17.0077C66.0741 16.6244 66.4343 16.0814 66.6584 15.3787C66.8884 14.6696 67.0035 13.8264 67.0035 12.849C67.0035 11.3797 66.7431 10.2234 66.2225 9.38019C65.7018 8.53694 64.8451 8.11532 63.6524 8.11532C62.8592 8.11532 62.2114 8.30697 61.7089 8.69026C61.2124 9.06717 60.8461 9.61016 60.61 10.3193C60.38 11.022 60.2649 11.8652 60.2649 12.849Z" fill="black"/>
<path d="M78.4964 19.8728L75.2996 8.88191H75.2179C75.23 9.14383 75.2482 9.5399 75.2724 10.0701C75.3027 10.594 75.3299 11.1529 75.3541 11.747C75.3784 12.3411 75.3905 12.8777 75.3905 13.3569V19.8728H72.8749V5.86348H76.7073L79.8495 16.5765H79.904L83.237 5.86348H87.0694V19.8728H84.4448V13.2419C84.4448 12.8011 84.4509 12.2932 84.463 11.7183C84.4811 11.1433 84.5023 10.5971 84.5266 10.0797C84.5508 9.55587 84.5689 9.16299 84.581 8.90107H84.4993L81.0755 19.8728H78.4964Z" fill="black"/>
<path d="M95.6995 19.8728H92.8843V8.33572H89.2789V5.86348H99.3049V8.33572H95.6995V19.8728Z" fill="black"/>
<path d="M109.163 19.8728H101.516V5.86348H109.163V8.29739H104.332V11.3733H108.827V13.8072H104.332V17.4198H109.163V19.8728Z" fill="black"/>
<path d="M117.74 8.13449C117.201 8.13449 116.723 8.24628 116.305 8.46987C115.893 8.68707 115.545 9.00328 115.261 9.41852C114.982 9.83375 114.77 10.3352 114.625 10.9229C114.48 11.5107 114.407 12.1718 114.407 12.9065C114.407 13.8967 114.522 14.7431 114.752 15.4458C114.988 16.1421 115.351 16.6755 115.842 17.046C116.332 17.4102 116.965 17.5922 117.74 17.5922C118.279 17.5922 118.818 17.5284 119.356 17.4006C119.901 17.2728 120.492 17.0908 121.127 16.8544V19.3458C120.54 19.6013 119.962 19.7834 119.393 19.892C118.824 20.007 118.185 20.0645 117.477 20.0645C116.108 20.0645 114.982 19.7674 114.098 19.1733C113.22 18.5728 112.569 17.736 112.146 16.6628C111.722 15.5831 111.51 14.3247 111.51 12.8873C111.51 11.8269 111.646 10.8559 111.919 9.97429C112.191 9.09272 112.591 8.32933 113.117 7.68412C113.644 7.03891 114.295 6.54063 115.07 6.18927C115.845 5.83792 116.735 5.66225 117.74 5.66225C118.4 5.66225 119.06 5.75168 119.72 5.93055C120.386 6.10303 121.021 6.34259 121.627 6.64923L120.719 9.06397C120.222 8.81483 119.723 8.59763 119.22 8.41237C118.718 8.22712 118.224 8.13449 117.74 8.13449Z" fill="black"/>
<path d="M135 19.8728H132.194V13.8264H126.936V19.8728H124.12V5.86348H126.936V11.3541H132.194V5.86348H135V19.8728Z" fill="black"/>
<defs>
<linearGradient id="paint0_linear_6192_3837" x1="-14.1891" y1="-2.01159" x2="38.4321" y2="140.956" gradientUnits="userSpaceOnUse">
<stop stop-color="#F8E78B"/>
<stop offset="0.14" stop-color="#F8E78B"/>
<stop offset="0.3" stop-color="#AB7C34"/>
<stop offset="0.5" stop-color="#E7BA65"/>
<stop offset="0.73" stop-color="#AB7C34"/>
<stop offset="0.8" stop-color="#BB9A51"/>
<stop offset="0.83" stop-color="#F7E68A"/>
<stop offset="0.88" stop-color="#AB7C34"/>
<stop offset="0.91" stop-color="#8A530F"/>
<stop offset="0.94" stop-color="#814210"/>
<stop offset="1" stop-color="#140600"/>
</linearGradient>
<linearGradient id="paint1_linear_6192_3837" x1="68.3302" y1="95.223" x2="68.3302" y2="-52.2288" gradientUnits="userSpaceOnUse">
<stop stop-color="#F8E78B"/>
<stop offset="0.14" stop-color="#F8E78B"/>
<stop offset="0.3" stop-color="#AB7C34"/>
<stop offset="0.5" stop-color="#E7BA65"/>
<stop offset="0.73" stop-color="#AB7C34"/>
<stop offset="1" stop-color="#F8E896"/>
</linearGradient>
</defs>
</svg>
