<svg width="28" height="28" viewBox="0 0 28 28" fill="none" xmlns="http://www.w3.org/2000/svg">
<path d="M18.7568 17.885L18.0809 16.556C18.0536 16.501 18.0154 16.4522 17.9686 16.4124C17.9218 16.3726 17.8674 16.3428 17.8088 16.3246C17.6765 16.2844 17.5388 16.2645 17.4005 16.2657C17.0084 16.2657 16.6323 16.4215 16.355 16.6988C16.0777 16.9761 15.9219 17.3522 15.9219 17.7443C15.9219 18.4444 16.0599 19.1376 16.3281 19.7842C16.5963 20.4309 16.9893 21.0183 17.4847 21.5129C17.9802 22.0075 18.5683 22.3996 19.2154 22.6666C19.8625 22.9337 20.5559 23.0706 21.256 23.0694C21.4856 23.0708 21.7124 23.0185 21.9182 22.9168C22.1241 22.8151 22.3033 22.6666 22.4416 22.4834C22.58 22.3001 22.6736 22.087 22.715 21.8612C22.7564 21.6353 22.7445 21.4029 22.6802 21.1825C22.6621 21.1226 22.6318 21.0671 22.5912 21.0195C22.5506 20.9719 22.5006 20.9332 22.4444 20.9058L21.1199 20.2436C21.0343 20.2006 20.9373 20.1857 20.8428 20.2012C20.7483 20.2167 20.6611 20.2617 20.5938 20.3298L20.2218 20.7017C19.7779 20.5466 19.3745 20.2937 19.0416 19.9616C18.7086 19.6294 18.4547 19.2266 18.2986 18.783L18.6751 18.4066C18.7415 18.339 18.785 18.2524 18.7996 18.1589C18.8143 18.0653 18.7993 17.9695 18.7568 17.885ZM18.3984 20.6064C18.8944 21.1046 19.5121 21.4642 20.1901 21.6497H20.2626C20.3355 21.6643 20.4108 21.6607 20.482 21.6394C20.5532 21.618 20.6181 21.5795 20.6709 21.5272L21.0065 21.1916L21.8275 21.6043C21.8239 21.7535 21.7622 21.8954 21.6554 21.9997C21.5486 22.1039 21.4052 22.1623 21.256 22.1622C20.676 22.1622 20.1018 22.0479 19.566 21.8258C19.0303 21.6038 18.5436 21.2783 18.1337 20.868C17.7238 20.4577 17.3988 19.9706 17.1773 19.4347C16.9558 18.8987 16.842 18.3243 16.8426 17.7443C16.8425 17.5974 16.8989 17.456 17.0003 17.3496C17.1017 17.2431 17.2401 17.1798 17.3869 17.1728L17.7997 17.9984L17.464 18.334C17.411 18.3873 17.3721 18.4529 17.3507 18.5249C17.3293 18.597 17.3262 18.6732 17.3416 18.7468C17.3401 18.7679 17.3401 18.7891 17.3416 18.8103C17.5295 19.4903 17.8942 20.1085 18.3984 20.6019V20.6064Z" fill="#EEAD1E"/>
<path d="M5.26172 21.067C5.26142 21.2988 5.27353 21.5305 5.29801 21.761C5.31034 21.8725 5.36352 21.9754 5.44729 22.05C5.53105 22.1245 5.63946 22.1654 5.75159 22.1647H15.0318C15.1521 22.1647 15.2675 22.1169 15.3526 22.0319C15.4376 21.9468 15.4854 21.8314 15.4854 21.7111C15.4854 21.5908 15.4376 21.4755 15.3526 21.3904C15.2675 21.3053 15.1521 21.2575 15.0318 21.2575H6.17342C6.17342 21.194 6.17342 21.1305 6.17342 21.067C6.17581 19.0816 6.96464 17.178 8.36727 15.7728C9.7699 14.3676 11.6721 13.5754 13.6575 13.5694H13.6802C15.6275 13.567 17.4983 14.3273 18.8918 15.6876C18.9784 15.7712 19.0947 15.817 19.2151 15.8148C19.3354 15.8127 19.45 15.7629 19.5336 15.6762C19.6172 15.5896 19.663 15.4733 19.6609 15.353C19.6588 15.2326 19.6089 15.118 19.5223 15.0344C18.5075 14.0477 17.259 13.3345 15.8936 12.9616C16.7095 12.4792 17.3442 11.7422 17.7001 10.8638C18.0559 9.98542 18.1133 9.01442 17.8633 8.10026C17.6133 7.1861 17.0697 6.37944 16.3164 5.80444C15.563 5.22944 14.6415 4.91797 13.6938 4.91797C12.746 4.91797 11.8246 5.22944 11.0712 5.80444C10.3178 6.37944 9.7743 7.1861 9.52429 8.10026C9.27427 9.01442 9.33162 9.98542 9.68751 10.8638C10.0434 11.7422 10.6781 12.4792 11.4939 12.9616C9.70956 13.4414 8.13264 14.495 7.00636 15.9598C5.88009 17.4246 5.26702 19.2193 5.26172 21.067ZM10.2511 9.27395C10.2502 8.59863 10.4495 7.93821 10.8239 7.37614C11.1982 6.81407 11.7308 6.3756 12.3543 6.11613C12.9778 5.85666 13.6642 5.78785 14.3268 5.91839C14.9894 6.04893 15.5984 6.37296 16.0768 6.84953C16.5553 7.3261 16.8818 7.93382 17.015 8.59588C17.1481 9.25794 17.082 9.94462 16.8251 10.5691C16.5681 11.1936 16.1317 11.728 15.5712 12.1045C15.0106 12.4811 14.351 12.6831 13.6756 12.6849H13.653C13.2044 12.6825 12.7608 12.5918 12.3473 12.418C11.9338 12.2441 11.5586 11.9905 11.2432 11.6717C10.9277 11.3529 10.6781 10.975 10.5087 10.5597C10.3392 10.1444 10.2533 9.6998 10.2556 9.25128L10.2511 9.27395Z" fill="#EEAD1E"/>
</svg>
