<svg xmlns="http://www.w3.org/2000/svg" width="28" height="28" viewBox="0 0 28 28" fill="none">
  <path d="M4.08268 9.33463H9.91602C10.6896 9.33463 11.4314 9.02734 11.9784 8.48036C12.5254 7.93338 12.8327 7.19152 12.8327 6.41797V4.08464C12.8327 3.31109 12.5254 2.56922 11.9784 2.02224C11.4314 1.47526 10.6896 1.16797 9.91602 1.16797H4.08268C3.30913 1.16797 2.56727 1.47526 2.02029 2.02224C1.47331 2.56922 1.16602 3.31109 1.16602 4.08464V6.41797C1.16602 7.19152 1.47331 7.93338 2.02029 8.48036C2.56727 9.02734 3.30913 9.33463 4.08268 9.33463ZM2.33268 4.08464C2.33268 3.62051 2.51706 3.17539 2.84525 2.8472C3.17343 2.51901 3.61855 2.33464 4.08268 2.33464H9.91602C10.3801 2.33464 10.8253 2.51901 11.1535 2.8472C11.4816 3.17539 11.666 3.62051 11.666 4.08464V6.41797C11.666 6.8821 11.4816 7.32722 11.1535 7.65541C10.8253 7.98359 10.3801 8.16797 9.91602 8.16797H4.08268C3.61855 8.16797 3.17343 7.98359 2.84525 7.65541C2.51706 7.32722 2.33268 6.8821 2.33268 6.41797V4.08464Z" fill="white"/>
  <path d="M23.916 18.668H18.0827C17.3091 18.668 16.5673 18.9753 16.0203 19.5222C15.4733 20.0692 15.166 20.8111 15.166 21.5846V23.918C15.166 24.6915 15.4733 25.4334 16.0203 25.9804C16.5673 26.5273 17.3091 26.8346 18.0827 26.8346H23.916C24.6896 26.8346 25.4314 26.5273 25.9784 25.9804C26.5254 25.4334 26.8327 24.6915 26.8327 23.918V21.5846C26.8327 20.8111 26.5254 20.0692 25.9784 19.5222C25.4314 18.9753 24.6896 18.668 23.916 18.668ZM25.666 23.918C25.666 24.3821 25.4816 24.8272 25.1535 25.1554C24.8253 25.4836 24.3801 25.668 23.916 25.668H18.0827C17.6186 25.668 17.1734 25.4836 16.8452 25.1554C16.5171 24.8272 16.3327 24.3821 16.3327 23.918V21.5846C16.3327 21.1205 16.5171 20.6754 16.8452 20.3472C17.1734 20.019 17.6186 19.8346 18.0827 19.8346H23.916C24.3801 19.8346 24.8253 20.019 25.1535 20.3472C25.4816 20.6754 25.666 21.1205 25.666 21.5846V23.918Z" fill="white"/>
  <path d="M4.08268 26.8333H9.91602C10.6896 26.8333 11.4314 26.526 11.9784 25.9791C12.5254 25.4321 12.8327 24.6902 12.8327 23.9167V13.4167C12.8327 12.6431 12.5254 11.9013 11.9784 11.3543C11.4314 10.8073 10.6896 10.5 9.91602 10.5H4.08268C3.30913 10.5 2.56727 10.8073 2.02029 11.3543C1.47331 11.9013 1.16602 12.6431 1.16602 13.4167V23.9167C1.16602 24.6902 1.47331 25.4321 2.02029 25.9791C2.56727 26.526 3.30913 26.8333 4.08268 26.8333ZM2.33268 13.4167C2.33268 12.9525 2.51706 12.5074 2.84525 12.1792C3.17343 11.851 3.61855 11.6667 4.08268 11.6667H9.91602C10.3801 11.6667 10.8253 11.851 11.1535 12.1792C11.4816 12.5074 11.666 12.9525 11.666 13.4167V23.9167C11.666 24.3808 11.4816 24.8259 11.1535 25.1541C10.8253 25.4823 10.3801 25.6667 9.91602 25.6667H4.08268C3.61855 25.6667 3.17343 25.4823 2.84525 25.1541C2.51706 24.8259 2.33268 24.3808 2.33268 23.9167V13.4167Z" fill="white"/>
  <path d="M23.916 1.16797H18.0827C17.3091 1.16797 16.5673 1.47526 16.0203 2.02224C15.4733 2.56922 15.166 3.31109 15.166 4.08464V14.5846C15.166 15.3582 15.4733 16.1 16.0203 16.647C16.5673 17.194 17.3091 17.5013 18.0827 17.5013H23.916C24.6896 17.5013 25.4314 17.194 25.9784 16.647C26.5254 16.1 26.8327 15.3582 26.8327 14.5846V4.08464C26.8327 3.31109 26.5254 2.56922 25.9784 2.02224C25.4314 1.47526 24.6896 1.16797 23.916 1.16797ZM25.666 14.5846C25.666 15.0488 25.4816 15.4939 25.1535 15.8221C24.8253 16.1503 24.3801 16.3346 23.916 16.3346H18.0827C17.6186 16.3346 17.1734 16.1503 16.8452 15.8221C16.5171 15.4939 16.3327 15.0488 16.3327 14.5846V4.08464C16.3327 3.62051 16.5171 3.17539 16.8452 2.8472C17.1734 2.51901 17.6186 2.33464 18.0827 2.33464H23.916C24.3801 2.33464 24.8253 2.51901 25.1535 2.8472C25.4816 3.17539 25.666 3.62051 25.666 4.08464V14.5846Z" fill="white"/>
</svg>