<svg width="28" height="25" viewBox="0 0 28 25" fill="none" xmlns="http://www.w3.org/2000/svg">
  <path d="M2.42377 0.513451C2.42377 0.524225 2.50188 0.637356 2.59885 0.763956C3.03791 1.34577 3.32613 2.14577 3.49044 3.23399C3.56047 3.70806 3.57933 4.42187 3.58202 6.67372V8.87709H2.41838C1.49717 8.87709 1.21165 8.86901 1.06619 8.83668C0.788753 8.77742 0.465521 8.60773 0.244646 8.40301C0.142289 8.30874 0.0453191 8.23062 0.0264639 8.23062C-0.000472169 8.23062 -0.00316577 8.35453 0.00760864 8.77473C0.0210767 9.36463 0.0560935 9.54779 0.239258 9.98416C0.462828 10.5121 0.944982 10.9835 1.4864 11.1963L1.70997 11.2825L2.64734 11.2959L3.58202 11.3067V12.4892V13.6717H2.3268H1.07428L0.866868 13.5855C0.565184 13.4616 0.446666 13.3808 0.0560935 13.0414L-0.00585938 12.9848L0.00760864 13.5505C0.0183831 14.0623 0.0264639 14.1404 0.0911103 14.3586C0.287743 15.0212 0.656767 15.5303 1.15508 15.8266C1.4864 16.0232 1.67226 16.0717 2.19481 16.0986C2.44801 16.1094 2.86283 16.1202 3.11872 16.1202L3.58741 16.1229L3.57394 18.7815C3.56316 21.3539 3.56047 21.4535 3.50391 21.8064C3.30997 23.0212 3.01098 23.7781 2.48572 24.3869L2.38606 24.5054L7.38 24.4919C12.6702 24.4784 12.4978 24.4811 13.6696 24.3518C14.4965 24.2576 15.3585 24.0852 16.215 23.8401C17.0096 23.6111 17.5564 23.3983 18.2541 23.0508C19.3558 22.4959 20.0911 21.9761 20.8884 21.1761C21.877 20.1848 22.4723 19.2717 23.0918 17.7929C23.1941 17.5505 23.512 16.5404 23.5712 16.2764C23.5982 16.1471 23.6143 16.1202 23.6709 16.104C23.7867 16.0771 26.3699 16.1175 26.545 16.1498C26.7901 16.1956 27.0622 16.3411 27.3073 16.5539C27.4285 16.6562 27.5416 16.7424 27.5578 16.7424C27.582 16.7424 27.5847 16.597 27.5739 16.1821C27.5578 15.5357 27.5281 15.3956 27.3127 14.9485C27.0379 14.3774 26.642 14.0084 26.0601 13.7794L25.8446 13.6932L24.9154 13.6798L23.9861 13.6663V12.5L23.9834 11.3363L24.9019 11.3148C26.0467 11.2906 26.4507 11.3121 26.7012 11.401C26.9517 11.4899 27.1564 11.6165 27.38 11.8158L27.5686 11.9855L27.5766 11.9047C27.582 11.8616 27.582 11.6084 27.5739 11.3417C27.5605 10.7734 27.5093 10.5552 27.2884 10.1027C27.0568 9.63399 26.7416 9.31345 26.2756 9.07911C25.9632 8.92019 25.8851 8.9121 24.6325 8.89325C23.8972 8.87978 23.6278 8.86631 23.6063 8.84207C23.5901 8.82591 23.5497 8.69931 23.5147 8.56732C23.1888 7.28517 22.5315 5.91143 21.7531 4.87709C20.5221 3.23938 18.7335 1.99493 16.5975 1.28921C15.5389 0.941734 14.5342 0.734325 13.1174 0.575403C12.6002 0.516144 12.5248 0.516144 7.50929 0.508064C4.71064 0.502676 2.42377 0.505369 2.42377 0.513451ZM12.0399 1.76328C12.6218 1.81985 13.0231 1.87911 13.4083 1.95722C15.5147 2.39359 17.015 3.36867 18.0898 5.00099C18.4965 5.61514 18.9975 6.79224 19.2319 7.67574C19.3207 8.01513 19.4743 8.73433 19.4743 8.82052V8.87709H13.349H7.22646L7.20492 6.03803C7.19414 4.47574 7.19414 2.86227 7.20492 2.45284L7.22646 1.70672L9.47832 1.72018C10.8601 1.72827 11.8487 1.74443 12.0399 1.76328ZM19.7544 11.5491C19.776 11.8643 19.776 13.1599 19.7517 13.4481L19.7356 13.6717H13.4783H7.21838V12.5V11.3283L8.04801 11.3202C8.50323 11.3175 11.318 11.3121 14.3053 11.3067L19.7356 11.3013L19.7544 11.5491ZM19.4608 16.1229C19.4985 16.1848 19.2265 17.3027 19.0191 17.9276C18.3672 19.8805 17.2197 21.3081 15.5955 22.1835C14.7659 22.6333 13.9739 22.8892 12.8238 23.0858C11.9079 23.2421 11.9268 23.2421 9.48909 23.2528L7.21838 23.2636V19.6946V16.1229L12.3443 16.1148C15.1618 16.1121 17.912 16.1067 18.4561 16.1013C19.0595 16.0986 19.45 16.1067 19.4608 16.1229Z" fill="currentColor"/>
</svg>
