<svg width="9" height="16" viewBox="0 0 9 16" fill="none" xmlns="http://www.w3.org/2000/svg">
<path d="M3.66412 15.7601V13.5841C3.06678 13.5095 2.50678 13.3548 1.98412 13.1201C1.47212 12.8748 1.04012 12.5281 0.688117 12.0801C0.346784 11.6321 0.117451 11.0721 0.000117242 10.4001H1.74412C1.88278 10.8481 2.10678 11.2001 2.41612 11.4561C2.72545 11.7015 3.08278 11.8721 3.48812 11.9681C3.90412 12.0641 4.32012 12.1121 4.73612 12.1121C5.14145 12.1121 5.51478 12.0588 5.85612 11.9521C6.20812 11.8455 6.49078 11.6695 6.70412 11.4241C6.92812 11.1788 7.04012 10.8641 7.04012 10.4801C7.04012 10.1708 6.97612 9.92013 6.84812 9.72813C6.73078 9.53613 6.56545 9.38147 6.35212 9.26413C6.13878 9.13613 5.88812 9.0348 5.60012 8.96013C5.19478 8.83213 4.77878 8.7308 4.35212 8.65613C3.92545 8.5708 3.51478 8.48013 3.12012 8.38413C2.72545 8.27747 2.35745 8.13347 2.01612 7.95213C1.52545 7.7068 1.13078 7.37613 0.832117 6.96013C0.533451 6.54413 0.384117 5.98947 0.384117 5.29613C0.384117 4.61347 0.538784 4.04813 0.848117 3.60013C1.16812 3.14147 1.58412 2.7948 2.09612 2.56013C2.60812 2.3148 3.15212 2.1708 3.72812 2.12813V0.000132561H5.37612V2.16013C5.94145 2.21347 6.45345 2.36813 6.91212 2.62413C7.37078 2.88013 7.73878 3.2268 8.01612 3.66413C8.29345 4.10147 8.43745 4.6348 8.44812 5.26413H6.80012C6.75745 4.8588 6.62412 4.5388 6.40012 4.30413C6.17612 4.0588 5.89345 3.88813 5.55212 3.79213C5.21078 3.68547 4.84278 3.63213 4.44812 3.63213C4.07478 3.62147 3.70678 3.66413 3.34412 3.76013C2.99212 3.85613 2.69878 4.01613 2.46412 4.24013C2.22945 4.46413 2.11212 4.78413 2.11212 5.20013C2.11212 5.45613 2.16545 5.68013 2.27212 5.87213C2.37878 6.06413 2.51745 6.22413 2.68812 6.35213C2.86945 6.48013 3.06678 6.5868 3.28012 6.67213C3.73878 6.85347 4.24545 6.99747 4.80012 7.10413C5.35478 7.20013 5.87212 7.32813 6.35212 7.48813C6.85345 7.6268 7.28012 7.81347 7.63212 8.04813C7.99478 8.27213 8.27212 8.56547 8.46412 8.92813C8.65612 9.28013 8.75212 9.7228 8.75212 10.2561C8.75212 10.9921 8.59745 11.6001 8.28812 12.0801C7.97878 12.5495 7.56278 12.9121 7.04012 13.1681C6.51745 13.4241 5.93078 13.5788 5.28012 13.6321V15.7601H3.66412Z" fill="white"/>
</svg>
