<svg width="19" height="19" viewBox="0 0 19 19" fill="none" xmlns="http://www.w3.org/2000/svg">
<path fill-rule="evenodd" clip-rule="evenodd" d="M0.991249 13.5719C0.356874 12.3094 0 10.8831 0 9.375C0 7.86687 0.356874 6.44063 0.991249 5.17813C2.53187 2.10813 5.70938 0 9.375 0C13.0406 0 16.2181 2.10813 17.7588 5.17813C18.3931 6.44063 18.75 7.86687 18.75 9.375C18.75 10.8831 18.3931 12.3094 17.7588 13.5719C16.2181 16.6419 13.0406 18.75 9.375 18.75C5.70938 18.75 2.53187 16.6419 0.991249 13.5719ZM1.86625 6.26688C1.46938 7.22438 1.25 8.27437 1.25 9.375C1.25 10.4756 1.46938 11.5256 1.86625 12.4831C2.88688 12.0875 4.09 11.77 5.41812 11.5562C5.34937 10.8575 5.3125 10.1269 5.3125 9.375C5.3125 8.62313 5.34937 7.8925 5.41812 7.19375C4.09 6.98 2.88688 6.6625 1.86625 6.26688ZM16.3131 5.1475C15.2787 3.45438 13.6425 2.16937 11.7031 1.58937C11.79 1.72437 11.8744 1.8675 11.9556 2.01875C12.4887 3.01438 12.915 4.37437 13.1712 5.955C14.3387 5.76562 15.4019 5.49 16.3131 5.1475ZM7.04688 1.58937C5.1075 2.16937 3.47125 3.45438 2.43688 5.1475C3.34813 5.49062 4.41125 5.76562 5.57875 5.955C5.835 4.37437 6.26125 3.01438 6.79438 2.01875C6.87563 1.8675 6.96 1.72437 7.04688 1.58937ZM16.8838 12.4831C17.2806 11.5256 17.5 10.4756 17.5 9.375C17.5 8.27437 17.2806 7.22438 16.8838 6.26688C15.8631 6.6625 14.66 6.98 13.3319 7.19375C13.4006 7.8925 13.4375 8.62313 13.4375 9.375C13.4375 10.1269 13.4006 10.8575 13.3319 11.5562C14.66 11.77 15.8631 12.0875 16.8838 12.4831ZM2.43688 13.6025C3.47125 15.2956 5.1075 16.5806 7.04688 17.1606C6.96 17.0256 6.87563 16.8825 6.79438 16.7312C6.26125 15.7356 5.835 14.3756 5.57875 12.795C4.41125 12.9844 3.34813 13.26 2.43688 13.6025ZM11.7031 17.1606C13.6425 16.5806 15.2787 15.2956 16.3131 13.6025C15.4019 13.26 14.3387 12.9844 13.1712 12.795C12.915 14.3756 12.4887 15.7356 11.9556 16.7312C11.8744 16.8825 11.79 17.0256 11.7031 17.1606ZM9.375 1.25C9.13437 1.25 8.90937 1.36437 8.69312 1.54812C8.40312 1.79437 8.13813 2.1575 7.89625 2.60938C7.41875 3.50063 7.04375 4.7125 6.815 6.11938C7.63375 6.205 8.49125 6.25 9.375 6.25C10.2587 6.25 11.1163 6.20438 11.935 6.11938C11.7063 4.7125 11.3312 3.50063 10.8537 2.60938C10.6119 2.1575 10.3469 1.79437 10.0569 1.54812C9.84063 1.36437 9.61563 1.25 9.375 1.25ZM9.375 17.5C9.61563 17.5 9.84063 17.3856 10.0569 17.2019C10.3469 16.9556 10.6119 16.5925 10.8537 16.1406C11.3312 15.2494 11.7063 14.0375 11.935 12.6306C11.1163 12.5456 10.2587 12.5 9.375 12.5C8.49125 12.5 7.63375 12.5456 6.815 12.6306C7.04375 14.0375 7.41875 15.2494 7.89625 16.1406C8.13813 16.5925 8.40312 16.9556 8.69312 17.2019C8.90937 17.3856 9.13437 17.5 9.375 17.5ZM12.0937 11.3919C12.155 10.7456 12.1875 10.07 12.1875 9.375C12.1875 8.68 12.155 8.00438 12.0937 7.35813C11.2244 7.45063 10.3131 7.5 9.375 7.5C8.43688 7.5 7.52563 7.45063 6.65625 7.35813C6.595 8.00438 6.5625 8.68 6.5625 9.375C6.5625 10.07 6.595 10.7456 6.65625 11.3919C7.52563 11.2994 8.43688 11.25 9.375 11.25C10.3131 11.25 11.2244 11.2994 12.0937 11.3919Z" fill="#EEAD1E"/>
</svg>
