<svg width="24" height="24" viewBox="0 0 24 24" fill="none" xmlns="http://www.w3.org/2000/svg">
<path fill-rule="evenodd" clip-rule="evenodd" d="M12 21C7.02944 21 3 16.9706 3 12C3 7.02944 7.02944 3 12 3C16.9706 3 21 7.02944 21 12C21 12.7661 20.9044 13.5193 20.7173 14.2472C20.6486 14.5146 20.8097 14.7871 21.0771 14.8559C21.3446 14.9246 21.6171 14.7635 21.6858 14.4961C21.8938 13.687 22 12.8503 22 12C22 6.47715 17.5228 2 12 2C6.47715 2 2 6.47715 2 12C2 17.5228 6.47715 22 12 22C12.8979 22 13.7805 21.8815 14.6313 21.6501C14.8977 21.5776 15.055 21.3028 14.9825 21.0364C14.91 20.7699 14.6352 20.6127 14.3687 20.6852C13.6034 20.8934 12.809 21 12 21Z" fill="#EEAD1E"/>
<path fill-rule="evenodd" clip-rule="evenodd" d="M11.9997 15C14.5601 15 16.6444 15.6053 18.0942 16.6514C18.3181 16.813 18.6306 16.7625 18.7922 16.5385C18.9538 16.3146 18.9032 16.0021 18.6793 15.8405C17.05 14.6648 14.7608 14 11.9997 14C8.23108 14 5.33294 15.2542 3.8808 17.2511C3.7184 17.4745 3.7678 17.7872 3.99113 17.9496C4.21447 18.112 4.52718 18.0626 4.68958 17.8393C5.93831 16.122 8.53104 15 11.9997 15Z" fill="#EEAD1E"/>
<path fill-rule="evenodd" clip-rule="evenodd" d="M16 9C16 6.79086 14.2091 5 12 5C9.79086 5 8 6.79086 8 9C8 11.2091 9.79086 13 12 13C14.2091 13 16 11.2091 16 9ZM9 9C9 7.34315 10.3431 6 12 6C13.6569 6 15 7.34315 15 9C15 10.6569 13.6569 12 12 12C10.3431 12 9 10.6569 9 9Z" fill="#EEAD1E"/>
<path fill-rule="evenodd" clip-rule="evenodd" d="M22.2434 16.1726L17.2937 21.1223L15.8795 19.7081L20.8292 14.7584L22.2434 16.1726ZM20.4752 13.6972L14.8183 19.3541C14.6231 19.5493 14.6231 19.8659 14.8183 20.0612L16.9396 22.1825C17.1349 22.3778 17.4515 22.3778 17.6467 22.1825L23.3036 16.5257C23.4989 16.3304 23.4989 16.0138 23.3036 15.8185L21.1823 13.6972C20.987 13.502 20.6704 13.502 20.4752 13.6972Z" fill="#EEAD1E"/>
<path fill-rule="evenodd" clip-rule="evenodd" d="M13.6352 22.731C13.5478 22.993 13.6894 23.2762 13.9514 23.3635C14.2134 23.4508 14.4965 23.3092 14.5839 23.0473L15.6445 19.8653C15.7318 19.6033 15.5903 19.3201 15.3283 19.2328C15.0663 19.1455 14.7832 19.2871 14.6958 19.5491L13.6352 22.731Z" fill="#EEAD1E"/>
<path fill-rule="evenodd" clip-rule="evenodd" d="M17.4496 22.3026C17.7116 22.2153 17.8532 21.9321 17.7658 21.6701C17.6785 21.4082 17.3953 21.2666 17.1334 21.3539L13.9514 22.4146C13.6894 22.5019 13.5478 22.7851 13.6352 23.047C13.7225 23.309 14.0057 23.4506 14.2676 23.3633L17.4496 22.3026Z" fill="#EEAD1E"/>
</svg>
