<svg xmlns="http://www.w3.org/2000/svg" width="29" height="29" viewBox="0 0 29 29" fill="none">
  <g clip-path="url(#clip0_1100_7255)">
    <path d="M2.97543 9.88234H11.7795C11.8665 9.88234 11.9499 9.84777 12.0115 9.78623C12.073 9.7247 12.1076 9.64124 12.1076 9.55422V6.36905C12.1076 6.28203 12.073 6.19857 12.0115 6.13703C11.9499 6.0755 11.8665 6.04093 11.7795 6.04093H2.97543C2.88841 6.04093 2.80495 6.0755 2.74341 6.13703C2.68187 6.19857 2.6473 6.28203 2.6473 6.36905V9.55422C2.6473 9.64124 2.68187 9.7247 2.74341 9.78623C2.80495 9.84777 2.88841 9.88234 2.97543 9.88234ZM3.30355 6.69718H11.4513V9.22609H3.30355V6.69718ZM8.30795 17.6365H6.44694C6.35991 17.6365 6.27645 17.6711 6.21492 17.7326C6.15338 17.7941 6.11881 17.8776 6.11881 17.9646V19.8256C6.11881 19.9126 6.15338 19.9961 6.21492 20.0576C6.27645 20.1192 6.35991 20.1537 6.44694 20.1537H8.30795C8.39498 20.1537 8.47844 20.1192 8.53997 20.0576C8.60151 19.9961 8.63608 19.9126 8.63608 19.8256V17.9646C8.63608 17.8776 8.60151 17.7941 8.53997 17.7326C8.47844 17.6711 8.39498 17.6365 8.30795 17.6365ZM7.97983 19.4975H6.77506V18.2927H7.97983V19.4975ZM4.83672 17.6365H2.97543C2.88841 17.6365 2.80495 17.6711 2.74341 17.7326C2.68187 17.7941 2.6473 17.8776 2.6473 17.9646V19.8256C2.6473 19.9126 2.68187 19.9961 2.74341 20.0576C2.80495 20.1192 2.88841 20.1537 2.97543 20.1537H4.83672C4.92374 20.1537 5.0072 20.1192 5.06874 20.0576C5.13027 19.9961 5.16484 19.9126 5.16484 19.8256V17.9646C5.16484 17.8776 5.13027 17.7941 5.06874 17.7326C5.0072 17.6711 4.92374 17.6365 4.83672 17.6365ZM4.50859 19.4975H3.30355V18.2927H4.50859V19.4975ZM4.83672 10.6934H2.97543C2.88841 10.6934 2.80495 10.728 2.74341 10.7895C2.68187 10.8511 2.6473 10.9345 2.6473 11.0215V12.8826C2.6473 12.9696 2.68187 13.053 2.74341 13.1146C2.80495 13.1761 2.88841 13.2107 2.97543 13.2107H4.83672C4.92374 13.2107 5.0072 13.1761 5.06874 13.1146C5.13027 13.053 5.16484 12.9696 5.16484 12.8826V11.0215C5.16484 10.9345 5.13027 10.8511 5.06874 10.7895C5.0072 10.728 4.92374 10.6934 4.83672 10.6934ZM4.50859 12.5544H3.30355V11.3497H4.50859V12.5544ZM4.83672 14.1649H2.97543C2.88841 14.1649 2.80495 14.1995 2.74341 14.261C2.68187 14.3226 2.6473 14.406 2.6473 14.493V16.3539C2.6473 16.4409 2.68187 16.5244 2.74341 16.5859C2.80495 16.6474 2.88841 16.682 2.97543 16.682H4.83672C4.92374 16.682 5.0072 16.6474 5.06874 16.5859C5.13027 16.5244 5.16484 16.4409 5.16484 16.3539V14.4929C5.1648 14.4059 5.13021 14.3225 5.06868 14.261C5.00715 14.1995 4.92371 14.1649 4.83672 14.1649ZM4.50859 16.0259H3.30355V14.8212H4.50859V16.0259ZM8.30823 10.6934H6.44721C6.36019 10.6934 6.27673 10.728 6.21519 10.7895C6.15366 10.8511 6.11909 10.9345 6.11909 11.0215V12.8826C6.11909 12.9696 6.15366 13.053 6.21519 13.1146C6.27673 13.1761 6.36019 13.2107 6.44721 13.2107H8.30823C8.39525 13.2107 8.47871 13.1761 8.54025 13.1146C8.60178 13.053 8.63635 12.9696 8.63635 12.8826V11.0215C8.63635 10.9784 8.62786 10.9357 8.61135 10.8959C8.59484 10.8561 8.57065 10.8199 8.54015 10.7894C8.50965 10.7589 8.47345 10.7348 8.43361 10.7183C8.39376 10.7018 8.35107 10.6934 8.30795 10.6934H8.30823ZM7.9801 12.5544H6.77534V11.3497H7.9801V12.5544ZM11.7797 10.6934H9.9185C9.83148 10.6934 9.74802 10.728 9.68648 10.7895C9.62494 10.8511 9.59037 10.9345 9.59037 11.0215V12.8826C9.59037 12.9696 9.62494 13.053 9.68648 13.1146C9.74802 13.1761 9.83148 13.2107 9.9185 13.2107H11.7795C11.8665 13.2107 11.9499 13.1761 12.0115 13.1146C12.073 13.053 12.1076 12.9696 12.1076 12.8826V11.0215C12.1076 10.9345 12.073 10.8511 12.0115 10.7895C11.9499 10.728 11.8665 10.6934 11.7795 10.6934H11.7797ZM11.4516 12.5544H10.2466V11.3497H11.4513L11.4516 12.5544ZM8.30823 14.1649H6.44721C6.36019 14.1649 6.27673 14.1995 6.21519 14.261C6.15366 14.3226 6.11909 14.406 6.11909 14.493V16.3539C6.11909 16.4409 6.15366 16.5244 6.21519 16.5859C6.27673 16.6474 6.36019 16.682 6.44721 16.682H8.30823C8.39525 16.682 8.47871 16.6474 8.54025 16.5859C8.60178 16.5244 8.63635 16.4409 8.63635 16.3539V14.4929C8.63633 14.4498 8.62782 14.4071 8.6113 14.3673C8.59478 14.3275 8.57059 14.2913 8.54009 14.2609C8.50959 14.2304 8.4734 14.2063 8.43357 14.1898C8.39374 14.1733 8.35105 14.1649 8.30795 14.1649H8.30823ZM7.9801 16.0259H6.77534V14.8212H7.9801V16.0259ZM27.5513 13.74H14.2549V4.93755C14.2546 4.66079 14.1445 4.39545 13.9488 4.19975C13.7531 4.00406 13.4877 3.89398 13.211 3.89368H1.54387C1.26712 3.89398 1.00178 4.00406 0.80608 4.19976C0.610381 4.39546 0.500304 4.66079 0.5 4.93755L0.5 21.2571C0.500318 21.5339 0.610402 21.7992 0.806099 21.9949C1.0018 22.1906 1.26712 22.3006 1.54387 22.3009H9.59037V24.1574C9.59065 24.4089 9.69071 24.6501 9.8686 24.828C10.0465 25.0059 10.2877 25.106 10.5393 25.1063H27.551C27.8026 25.106 28.0438 25.006 28.2217 24.8281C28.3996 24.6502 28.4997 24.409 28.5 24.1574V14.6892C28.4997 14.4375 28.3997 14.1963 28.2217 14.0184C28.0438 13.8405 27.8026 13.7404 27.551 13.7401L27.5513 13.74ZM1.54387 21.6447C1.44113 21.6445 1.34265 21.6036 1.26999 21.531C1.19734 21.4583 1.15644 21.3599 1.15625 21.2571V4.93755C1.15642 4.8348 1.19732 4.73631 1.26997 4.66365C1.34263 4.59099 1.44112 4.5501 1.54387 4.54993H13.211C13.3137 4.55009 13.4122 4.59097 13.4849 4.66363C13.5576 4.73629 13.5985 4.83479 13.5986 4.93755V13.7401H10.5393C10.2877 13.7404 10.0465 13.8405 9.86859 14.0184C9.6907 14.1964 9.59065 14.4376 9.59037 14.6892V21.6447H1.54387ZM27.8438 24.1574C27.8437 24.235 27.8128 24.3094 27.7579 24.3642C27.703 24.4191 27.6286 24.45 27.551 24.4501H10.5393C10.4617 24.45 10.3873 24.4191 10.3324 24.3642C10.2775 24.3094 10.2467 24.235 10.2466 24.1574V14.6892C10.2467 14.6115 10.2775 14.5371 10.3324 14.4822C10.3873 14.4273 10.4616 14.3965 10.5393 14.3964H27.551C27.6286 14.3964 27.703 14.4273 27.7579 14.4822C27.8128 14.5371 27.8437 14.6115 27.8438 14.6892V24.1574ZM26.9408 16.3413C26.4756 16.1315 26.102 15.7606 25.8888 15.297C25.8626 15.24 25.8206 15.1917 25.7677 15.1579C25.7149 15.124 25.6535 15.106 25.5907 15.106H12.4996C12.4368 15.106 12.3754 15.124 12.3226 15.1579C12.2697 15.1917 12.2277 15.24 12.2015 15.2971C11.9883 15.7607 11.6147 16.1316 11.1495 16.3413C11.0919 16.3672 11.043 16.4093 11.0087 16.4623C10.9744 16.5154 10.9562 16.5772 10.9562 16.6404V22.2061C10.9562 22.2692 10.9744 22.3311 11.0087 22.3841C11.043 22.4372 11.0919 22.4792 11.1495 22.5052C11.6147 22.715 11.9884 23.086 12.2015 23.5497C12.2277 23.6067 12.2697 23.655 12.3226 23.6889C12.3754 23.7227 12.4368 23.7407 12.4996 23.7407H25.5906C25.6534 23.7407 25.7148 23.7227 25.7676 23.6889C25.8205 23.655 25.8625 23.6067 25.8887 23.5497C26.1018 23.086 26.4755 22.715 26.9407 22.5052C26.9983 22.4792 27.0472 22.4372 27.0814 22.3841C27.1157 22.3311 27.134 22.2692 27.134 22.2061V16.6404C27.134 16.5772 27.1158 16.5154 27.0815 16.4624C27.0472 16.4093 26.9984 16.3672 26.9408 16.3413ZM26.4778 22.0031C26.0206 22.2539 25.6434 22.6285 25.3895 23.084H12.7008C12.447 22.6285 12.0698 22.2538 11.6125 22.0031V16.8432C12.0698 16.5925 12.447 16.2178 12.7008 15.7623H25.3896C25.6434 16.2178 26.0206 16.5924 26.4779 16.8432L26.4778 22.0031ZM13.9798 18.5214C13.8014 18.5214 13.6271 18.5743 13.4788 18.6734C13.3305 18.7725 13.2149 18.9133 13.1466 19.0781C13.0783 19.2429 13.0605 19.4243 13.0953 19.5992C13.1301 19.7741 13.216 19.9348 13.3421 20.061C13.4683 20.1871 13.629 20.273 13.8039 20.3078C13.9788 20.3426 14.1602 20.3247 14.325 20.2564C14.4898 20.1881 14.6306 20.0725 14.7297 19.9242C14.8288 19.7759 14.8817 19.6015 14.8817 19.4232C14.8814 19.1841 14.7863 18.9549 14.6172 18.7858C14.4481 18.6167 14.2189 18.5216 13.9798 18.5214ZM13.9798 19.6688C13.9312 19.6688 13.8838 19.6544 13.8434 19.6274C13.803 19.6004 13.7715 19.562 13.7529 19.5172C13.7343 19.4723 13.7295 19.4229 13.7389 19.3753C13.7484 19.3276 13.7718 19.2839 13.8061 19.2495C13.8405 19.2152 13.8843 19.1918 13.9319 19.1823C13.9795 19.1728 14.0289 19.1777 14.0738 19.1963C14.1187 19.2149 14.157 19.2463 14.184 19.2867C14.211 19.3271 14.2254 19.3746 14.2254 19.4232C14.2253 19.4883 14.1994 19.5507 14.1533 19.5967C14.1073 19.6427 14.0449 19.6686 13.9798 19.6688ZM24.1105 18.5214C23.9321 18.5214 23.7578 18.5743 23.6095 18.6734C23.4612 18.7725 23.3456 18.9133 23.2773 19.0781C23.209 19.2429 23.1912 19.4243 23.226 19.5992C23.2608 19.7741 23.3467 19.9348 23.4728 20.061C23.599 20.1871 23.7597 20.273 23.9346 20.3078C24.1095 20.3426 24.2909 20.3247 24.4557 20.2564C24.6205 20.1881 24.7613 20.0725 24.8604 19.9242C24.9595 19.7759 25.0124 19.6015 25.0124 19.4232C25.0121 19.1841 24.917 18.9549 24.7479 18.7858C24.5788 18.6168 24.3496 18.5217 24.1105 18.5214ZM24.1105 19.6688C24.0619 19.6688 24.0144 19.6544 23.9741 19.6274C23.9337 19.6004 23.9022 19.562 23.8836 19.5172C23.865 19.4723 23.8601 19.4229 23.8696 19.3753C23.8791 19.3276 23.9025 19.2839 23.9368 19.2495C23.9712 19.2152 24.015 19.1918 24.0626 19.1823C24.1102 19.1728 24.1596 19.1777 24.2045 19.1963C24.2494 19.2149 24.2877 19.2463 24.3147 19.2867C24.3417 19.3271 24.3561 19.3746 24.3561 19.4232C24.356 19.4883 24.3301 19.5507 24.284 19.5967C24.238 19.6427 24.1756 19.6686 24.1105 19.6688ZM19.5775 18.5832C19.6046 18.6659 19.6634 18.7345 19.741 18.7739C19.8186 18.8133 19.9087 18.8202 19.9914 18.7931C20.0741 18.7661 20.1427 18.7073 20.1821 18.6297C20.2214 18.552 20.2283 18.462 20.2013 18.3792C20.143 18.1899 20.0358 18.0193 19.8904 17.8848C19.745 17.7502 19.5666 17.6565 19.3733 17.6131V17.3984C19.3733 17.3114 19.3387 17.2279 19.2772 17.1664C19.2156 17.1049 19.1322 17.0703 19.0451 17.0703C18.9581 17.0703 18.8746 17.1049 18.8131 17.1664C18.7516 17.2279 18.717 17.3114 18.717 17.3984V17.6369C18.5173 17.6962 18.3421 17.8185 18.2174 17.9854C18.0926 18.1523 18.0251 18.3549 18.0247 18.5633C18.0169 19.2464 18.3728 19.514 18.717 19.6467V20.4458C18.6238 20.366 18.548 20.2679 18.4942 20.1577C18.4751 20.1187 18.4486 20.0838 18.416 20.0551C18.3834 20.0265 18.3454 20.0045 18.3043 19.9906C18.2632 19.9767 18.2197 19.9711 18.1764 19.9742C18.1331 19.9772 18.0908 19.9888 18.052 20.0082C18.0132 20.0277 17.9787 20.0547 17.9504 20.0876C17.9221 20.1205 17.9006 20.1587 17.8872 20.2C17.8738 20.2413 17.8687 20.2848 17.8722 20.3281C17.8757 20.3714 17.8878 20.4135 17.9077 20.4521C18.0702 20.7948 18.3609 21.0599 18.7171 21.1903V21.448C18.7171 21.5351 18.7516 21.6185 18.8132 21.6801C18.8747 21.7416 18.9582 21.7762 19.0452 21.7762C19.1322 21.7762 19.2157 21.7416 19.2772 21.6801C19.3387 21.6185 19.3733 21.5351 19.3733 21.448V21.2446C19.3843 21.2425 19.3952 21.2406 19.4061 21.2381C19.8877 21.1275 20.2033 20.726 20.21 20.2154C20.22 19.4717 19.7438 19.2577 19.3733 19.1528V18.3148C19.4716 18.3766 19.5442 18.472 19.5775 18.5832ZM18.681 18.5708C18.6806 18.518 18.693 18.4659 18.717 18.4189V18.8367C18.688 18.7512 18.6757 18.6609 18.681 18.5708ZM19.5538 20.2066C19.5511 20.402 19.4632 20.5025 19.3733 20.5542V19.845C19.513 19.9091 19.5566 19.9981 19.5538 20.2066ZM19.0452 16.0831C17.3757 16.0831 16.0175 17.5816 16.0175 19.4232C16.0175 21.2648 17.3757 22.7633 19.0452 22.7633C20.7146 22.7633 22.0729 21.2648 22.0729 19.4232C22.0729 17.5815 20.7147 16.0831 19.0452 16.0831ZM19.0452 22.107C17.7376 22.107 16.6738 20.9031 16.6738 19.4232C16.6738 17.9433 17.7376 16.7394 19.0452 16.7394C20.3528 16.7394 21.4166 17.9433 21.4166 19.4232C21.4166 20.903 20.3528 22.107 19.0452 22.107Z" fill="#EEAD1E"/>
  </g>
  <defs>
    <clipPath id="clip0_1100_7255">
      <rect width="28" height="28" fill="white" transform="translate(0.5 0.5)"/>
    </clipPath>
  </defs>
</svg>