<svg xmlns="http://www.w3.org/2000/svg" width="29" height="29" viewBox="0 0 29 29" fill="none">
  <path d="M21.7367 13.1437H20.293C20.0523 13.1437 19.8555 13.3406 19.8555 13.5812C19.8555 13.8219 20.0523 14.0187 20.293 14.0187H21.7367C21.9336 14.0187 22.0955 14.1806 22.0955 14.3775V20.66C22.0955 20.8569 21.9336 21.0187 21.7367 21.0187H20.293C20.0523 21.0187 19.8555 21.2156 19.8555 21.4562C19.8555 21.6969 20.0523 21.8937 20.293 21.8937H21.7367C22.4148 21.8937 22.9705 21.3425 22.9705 20.66V14.3775C22.9705 13.6994 22.4192 13.1437 21.7367 13.1437Z" fill="#EEAD1E"/>
  <path d="M5.08922 14.0187H6.53297C6.77359 14.0187 6.97047 13.8219 6.97047 13.5812C6.97047 13.3406 6.77359 13.1437 6.53297 13.1437H5.08922C4.41109 13.1437 3.85547 13.695 3.85547 14.3775V20.66C3.85547 21.3381 4.40672 21.8937 5.08922 21.8937H6.53297C6.77359 21.8937 6.97047 21.6969 6.97047 21.4562C6.97047 21.2156 6.77359 21.0187 6.53297 21.0187H5.08922C4.89234 21.0187 4.73047 20.8569 4.73047 20.66V14.3775C4.73047 14.1806 4.89234 14.0187 5.08922 14.0187Z" fill="#EEAD1E"/>
  <path d="M13.8472 13.8962V13.5724C13.8472 13.3318 13.6503 13.1349 13.4097 13.1349C13.1691 13.1349 12.9722 13.3318 12.9722 13.5724V13.9181C11.8259 14.1149 10.9684 14.9331 10.9684 15.9087C10.9684 16.8843 11.8216 17.6937 12.9722 17.8906V20.2356C12.2328 20.1174 11.6641 19.6493 11.6641 19.1024C11.6641 18.8618 11.4672 18.6649 11.2266 18.6649C10.9859 18.6649 10.7891 18.8618 10.7891 19.1024C10.7891 20.1306 11.7428 20.9793 12.9722 21.1149V21.4387C12.9722 21.6793 13.1691 21.8762 13.4097 21.8762C13.6503 21.8762 13.8472 21.6793 13.8472 21.4387V21.0931C14.9934 20.8962 15.8553 20.0781 15.8553 19.1024C15.8553 18.1268 15.0109 17.3131 13.8472 17.1206V14.7756C14.5866 14.8893 15.1553 15.3618 15.1553 15.9087C15.1553 16.1493 15.3522 16.3462 15.5928 16.3462C15.8334 16.3462 16.0303 16.1493 16.0303 15.9087C16.0303 14.8806 15.0766 14.0318 13.8472 13.8962ZM11.8434 15.9087C11.8434 15.4099 12.3247 14.9724 12.9722 14.8149V17.0024C12.3203 16.8449 11.8434 16.4074 11.8434 15.9087ZM14.9803 19.1068C14.9803 19.6056 14.4991 20.0387 13.8472 20.2006V18.0131C14.5034 18.1706 14.9803 18.6081 14.9803 19.1112V19.1068Z" fill="#EEAD1E"/>
  <path d="M26.6931 15.4231L23.7838 6.34501C23.5781 5.69751 22.8781 5.33876 22.235 5.54876L3.86437 11.5119H3.48375C2.80563 11.5119 2.25 12.0631 2.25 12.7456V22.2788C2.25 22.9569 2.80125 23.5125 3.48375 23.5125H23.3419C24.02 23.5125 24.5756 22.9613 24.5756 22.2788V17.3788C24.6062 17.3788 24.6369 17.3744 24.6675 17.3656L25.8925 16.9719C26.54 16.7663 26.8944 16.0706 26.6888 15.4231H26.6931ZM23.7006 22.2788C23.7006 22.4756 23.5387 22.6375 23.3419 22.6375H3.48375C3.28688 22.6375 3.125 22.4756 3.125 22.2788V12.7456C3.125 12.5488 3.28688 12.3869 3.48375 12.3869H12.5662C12.5662 12.3869 12.5706 12.3869 12.575 12.3869H12.5794H14.1369C14.1369 12.3869 14.1413 12.3869 14.1456 12.3869C14.15 12.3869 14.15 12.3869 14.1544 12.3869H23.3419C23.5387 12.3869 23.7006 12.5488 23.7006 12.7456V22.2788ZM25.63 16.1406L24.5756 16.4775V12.7456C24.5756 12.1988 24.2169 11.7394 23.7225 11.5775L22.7513 8.38376C22.6506 8.06876 22.4363 7.81501 22.1431 7.66188C21.85 7.51313 21.5175 7.48251 21.2025 7.58313L19.8288 8.02501C19.5969 8.09938 19.47 8.34438 19.5444 8.57626C19.6187 8.80813 19.8638 8.93063 20.0956 8.86063L21.4694 8.41876C21.5613 8.38813 21.6575 8.39688 21.7406 8.44063C21.8237 8.48438 21.8894 8.55876 21.9156 8.64188L22.7862 11.5075H16.3812C15.9437 10.8863 15.1037 10.5713 14.1981 10.6719L14.0975 10.3613C14.0231 10.1338 13.7781 10.0069 13.5462 10.0769C13.3144 10.1513 13.1875 10.3963 13.2619 10.6281L13.345 10.8863C12.9819 11.035 12.6581 11.245 12.3956 11.5075H6.695L22.4975 6.38001C22.5894 6.34938 22.6856 6.35813 22.7688 6.40188C22.8519 6.44563 22.9175 6.52001 22.9438 6.61188L25.8531 15.69C25.9144 15.8781 25.8094 16.0794 25.6213 16.1406H25.63Z" fill="#EEAD1E"/>
</svg>