<svg width="25" height="24" viewBox="0 0 25 24" fill="none" xmlns="http://www.w3.org/2000/svg">
<path d="M13.2506 7.5V11.5753L16.6369 13.6069C16.8075 13.7093 16.9303 13.8753 16.9785 14.0684C17.0267 14.2614 16.9962 14.4657 16.8938 14.6363C16.7913 14.8068 16.6253 14.9297 16.4323 14.9779C16.2392 15.0261 16.035 14.9956 15.8644 14.8931L12.1144 12.6431C12.0034 12.5764 11.9116 12.4822 11.8478 12.3695C11.7841 12.2568 11.7506 12.1295 11.7506 12V7.5C11.7506 7.30109 11.8297 7.11033 11.9703 6.96967C12.111 6.82902 12.3017 6.75 12.5006 6.75C12.6996 6.75 12.8903 6.82902 13.031 6.96967C13.1716 7.11033 13.2506 7.30109 13.2506 7.5ZM21.7875 5.30719C21.6505 5.25034 21.4997 5.23541 21.3542 5.26428C21.2086 5.29315 21.075 5.36452 20.97 5.46938L19.8131 6.62907C19.5103 6.3 19.1981 5.97282 18.8663 5.63625C17.6155 4.38535 16.0238 3.53078 14.2902 3.17931C12.5565 2.82783 10.7577 2.99505 9.1185 3.66007C7.47932 4.32508 6.07246 5.4584 5.0737 6.91842C4.07495 8.37844 3.52859 10.1004 3.5029 11.8692C3.47721 13.6379 3.97333 15.375 4.92926 16.8634C5.88519 18.3518 7.25854 19.5255 8.87772 20.2379C10.4969 20.9502 12.2901 21.1696 14.0332 20.8686C15.7764 20.5677 17.3922 19.7597 18.6788 18.5456C18.7504 18.4779 18.808 18.3968 18.8483 18.3068C18.8886 18.2168 18.9108 18.1198 18.9136 18.0212C18.9163 17.9227 18.8997 17.8245 18.8646 17.7324C18.8294 17.6403 18.7765 17.556 18.7088 17.4844C18.6411 17.4127 18.5599 17.3551 18.4699 17.3148C18.3799 17.2745 18.2829 17.2524 18.1844 17.2496C18.0858 17.2468 17.9877 17.2635 17.8956 17.2986C17.8035 17.3337 17.7192 17.3867 17.6475 17.4544C16.5755 18.4659 15.2291 19.1392 13.7767 19.39C12.3242 19.6409 10.8301 19.4582 9.48085 18.8647C8.13163 18.2713 6.98717 17.2935 6.19044 16.0535C5.39371 14.8134 4.98004 13.3661 5.0011 11.8923C5.02216 10.4185 5.47701 8.98355 6.30884 7.76676C7.14068 6.54997 8.3126 5.60525 9.67823 5.05063C11.0438 4.49601 12.5426 4.35608 13.9873 4.64831C15.432 4.94054 16.7586 5.65198 17.8013 6.69375C18.1331 7.02938 18.4453 7.35938 18.7491 7.69032L17.22 9.21938C17.115 9.32427 17.0435 9.45796 17.0145 9.60352C16.9855 9.74909 17.0004 9.89998 17.0572 10.0371C17.114 10.1742 17.2102 10.2914 17.3337 10.3738C17.4571 10.4562 17.6022 10.5001 17.7506 10.5H21.5006C21.6996 10.5 21.8903 10.421 22.031 10.2803C22.1716 10.1397 22.2506 9.94892 22.2506 9.75V6C22.2506 5.85167 22.2066 5.70667 22.1242 5.58335C22.0417 5.46004 21.9246 5.36393 21.7875 5.30719Z" fill="#814B07"/>
</svg>
