<svg width="28" height="28" viewBox="0 0 28 28" fill="none" xmlns="http://www.w3.org/2000/svg">
<path d="M15.3357 18.0886C15.1312 18.1077 14.9259 18.0615 14.7493 17.9568C14.6202 17.8243 14.5584 17.6403 14.5811 17.4568C14.5859 17.3039 14.6041 17.1518 14.6357 17.0022C14.6662 16.8306 14.7056 16.6607 14.7538 16.4931L15.2902 14.6477C15.3455 14.4655 15.3821 14.2782 15.3993 14.0886C15.3993 13.884 15.4266 13.7431 15.4266 13.6613C15.438 13.2967 15.2823 12.9469 15.0038 12.7113C14.6613 12.4483 14.2347 12.3191 13.8038 12.3477C13.495 12.3523 13.1886 12.4028 12.8947 12.4977C12.5735 12.5977 12.2356 12.7173 11.8811 12.8568L11.7266 13.4568C11.8311 13.4204 11.9584 13.3795 12.1038 13.334C12.2426 13.2929 12.3864 13.2715 12.5311 13.2704C12.7341 13.2484 12.9384 13.2982 13.1084 13.4113C13.2238 13.5491 13.278 13.728 13.2584 13.9068C13.2579 14.0596 13.2411 14.212 13.2084 14.3613C13.1765 14.5204 13.1356 14.6886 13.0856 14.8658L12.5447 16.7203C12.5011 16.8927 12.4663 17.0672 12.4402 17.2431C12.4189 17.3937 12.4083 17.5455 12.4084 17.6976C12.4061 18.0647 12.574 18.4121 12.8629 18.6385C13.2107 18.9056 13.6434 19.038 14.0811 19.0112C14.3893 19.0176 14.6964 18.973 14.9902 18.8794C15.2477 18.7915 15.5917 18.6658 16.022 18.5021L16.1675 17.9294C16.0509 17.9778 15.9309 18.0173 15.8084 18.0476C15.6534 18.083 15.4944 18.0967 15.3357 18.0886Z" fill="#EEAD1E"/>
<path d="M15.9061 9.34132C15.6587 9.11413 15.3328 8.9919 14.997 9.00042C14.6614 8.99284 14.3358 9.11495 14.0879 9.34132C13.6335 9.73311 13.5828 10.4191 13.9746 10.8735C14.0095 10.914 14.0474 10.9519 14.0879 10.9868C14.6055 11.4498 15.3884 11.4498 15.906 10.9868C16.3604 10.5911 16.408 9.90206 16.0124 9.44768C15.9795 9.40983 15.9439 9.37428 15.9061 9.34132Z" fill="#EEAD1E"/>
<path d="M14 4C8.47715 4 4 8.47715 4 14C4 19.5229 8.47715 24 14 24C19.5229 24 24 19.5229 24 14C24 8.47715 19.5229 4 14 4ZM14 23.0909C8.97922 23.0909 4.9091 19.0208 4.9091 14C4.9091 8.97922 8.97922 4.9091 14 4.9091C19.0208 4.9091 23.0909 8.97922 23.0909 14C23.0909 19.0208 19.0208 23.0909 14 23.0909Z" fill="#EEAD1E"/>
</svg>
