<svg width="18" height="18" viewBox="0 0 18 18" fill="none" xmlns="http://www.w3.org/2000/svg">
<path d="M6.21937 9.53063L9.96937 13.2806C10.0391 13.3503 10.1218 13.4056 10.2128 13.4433C10.3039 13.481 10.4015 13.5004 10.5 13.5004C10.5985 13.5004 10.6961 13.481 10.7872 13.4433C10.8782 13.4056 10.9609 13.3503 11.0306 13.2806C11.1003 13.2109 11.1556 13.1282 11.1933 13.0372C11.231 12.9461 11.2504 12.8485 11.2504 12.75C11.2504 12.6515 11.231 12.5539 11.1933 12.4628C11.1556 12.3718 11.1003 12.2891 11.0306 12.2194L8.56031 9.75H17.25C17.4489 9.75 17.6397 9.67098 17.7803 9.53033C17.921 9.38968 18 9.19891 18 9C18 8.80109 17.921 8.61032 17.7803 8.46967C17.6397 8.32902 17.4489 8.25 17.25 8.25H8.56031L11.0306 5.78063C11.1714 5.63989 11.2504 5.44902 11.2504 5.25C11.2504 5.05098 11.1714 4.86011 11.0306 4.71937C10.8899 4.57864 10.699 4.49958 10.5 4.49958C10.301 4.49958 10.1101 4.57864 9.96937 4.71937L6.21937 8.46937C6.14964 8.53903 6.09432 8.62175 6.05658 8.71279C6.01884 8.80384 5.99941 8.90144 5.99941 9C5.99941 9.09856 6.01884 9.19616 6.05658 9.28721C6.09432 9.37825 6.14964 9.46097 6.21937 9.53063ZM0.75 0H6.75C6.94891 0 7.13968 0.0790178 7.28033 0.21967C7.42098 0.360322 7.5 0.551088 7.5 0.75C7.5 0.948912 7.42098 1.13968 7.28033 1.28033C7.13968 1.42098 6.94891 1.5 6.75 1.5H1.5V16.5H6.75C6.94891 16.5 7.13968 16.579 7.28033 16.7197C7.42098 16.8603 7.5 17.0511 7.5 17.25C7.5 17.4489 7.42098 17.6397 7.28033 17.7803C7.13968 17.921 6.94891 18 6.75 18H0.75C0.551088 18 0.360322 17.921 0.219669 17.7803C0.0790171 17.6397 0 17.4489 0 17.25V0.75C0 0.551088 0.0790171 0.360322 0.219669 0.21967C0.360322 0.0790178 0.551088 0 0.75 0Z" fill="black"/>
</svg>
