<svg xmlns="http://www.w3.org/2000/svg" width="27" height="27" viewBox="0 0 27 27" fill="none">
  <path d="M7.89404 14.7188C7.84529 14.7188 7.78842 14.7106 7.73967 14.6863C7.53654 14.5969 7.43092 14.3613 7.52029 14.1581L12.2328 2.78315C12.3222 2.5719 12.5578 2.4744 12.7609 2.56378C12.964 2.65315 13.0697 2.88878 12.9803 3.0919L8.26779 14.4669C8.20279 14.6213 8.05654 14.7188 7.89404 14.7188Z" fill="#EEAD1E"/>
  <path d="M4.56201 11.3875C4.39951 11.3875 4.25326 11.29 4.18826 11.1357C4.09889 10.9325 4.20451 10.6888 4.40764 10.6075L15.7826 5.89505C15.9858 5.80567 16.2295 5.9113 16.3108 6.11442C16.392 6.31755 16.2945 6.5613 16.0914 6.64255L4.71639 11.355C4.66764 11.3794 4.61076 11.3875 4.56201 11.3875Z" fill="#EEAD1E"/>
  <path d="M15.937 11.3875C15.8883 11.3875 15.8314 11.3794 15.7826 11.355L4.40764 6.64251C4.20451 6.55314 4.09889 6.31751 4.18826 6.11439C4.27764 5.90314 4.51326 5.80564 4.71639 5.89501L16.0914 10.6075C16.2945 10.6969 16.4001 10.9325 16.3108 11.1356C16.2458 11.29 16.0995 11.3875 15.937 11.3875Z" fill="#EEAD1E"/>
  <path d="M12.6057 14.7187C12.4432 14.7187 12.297 14.6213 12.232 14.4669L7.51946 3.09187C7.43009 2.88875 7.52759 2.645 7.73884 2.56375C7.94196 2.47437 8.18571 2.58 8.26696 2.78312L12.9795 14.1581C13.0688 14.3612 12.9632 14.605 12.7601 14.6862C12.7113 14.7106 12.6545 14.7187 12.6057 14.7187Z" fill="#EEAD1E"/>
  <path d="M10.2494 14.4994C10.1031 14.4994 9.97312 14.4262 9.9 14.2962L8.72187 12.3056L6.47938 12.8825C6.34125 12.9231 6.195 12.8744 6.08938 12.7769C5.98375 12.6712 5.95125 12.525 5.98375 12.3869L6.56063 10.1444L4.57 8.96625C4.44813 8.90125 4.375 8.77125 4.375 8.625C4.375 8.47875 4.44813 8.34875 4.57812 8.27562L6.56875 7.0975L5.98375 4.855C5.95125 4.71687 5.99187 4.57062 6.0975 4.47312C6.195 4.3675 6.34937 4.32687 6.4875 4.3675L8.73 4.94437L9.90812 2.95375C10.0544 2.71 10.4606 2.71 10.6069 2.95375L11.785 4.94437L14.0275 4.3675C14.1656 4.335 14.3119 4.37562 14.4175 4.47312C14.5231 4.57875 14.5556 4.725 14.5231 4.86312L13.9462 7.10562L15.9369 8.28375C16.0587 8.35687 16.14 8.48687 16.14 8.63312C16.14 8.77937 16.0669 8.90937 15.9369 8.9825L13.9462 10.1606L14.5231 12.4031C14.5556 12.5412 14.515 12.6875 14.4175 12.7931C14.32 12.8906 14.1656 12.9312 14.0275 12.8987L11.785 12.3219L10.6069 14.3125C10.5256 14.4262 10.3956 14.4994 10.2494 14.4994ZM8.91687 11.4362C9.055 11.4362 9.19312 11.5094 9.26625 11.6394L10.2494 13.2969L11.2325 11.6312C11.3219 11.4769 11.5087 11.3956 11.6794 11.4444L13.5481 11.9237L13.0688 10.055C13.02 9.88437 13.1013 9.6975 13.2556 9.60812L14.9212 8.625L13.2556 7.64187C13.1013 7.5525 13.02 7.36562 13.0688 7.195L13.5481 5.32625L11.6794 5.80562C11.5006 5.85437 11.3219 5.77312 11.2325 5.61875L10.2494 3.95312L9.26625 5.61875C9.17688 5.77312 8.99 5.85437 8.81938 5.80562L6.95062 5.32625L7.43 7.195C7.47875 7.36562 7.3975 7.5525 7.24313 7.64187L5.5775 8.625L7.24313 9.60812C7.3975 9.6975 7.47875 9.88437 7.43 10.055L6.95062 11.9237L8.81938 11.4444C8.85187 11.4362 8.88437 11.4362 8.91687 11.4362Z" fill="#EEAD1E"/>
  <path d="M24.4688 19.1875H20C18.2044 19.1875 16.75 17.7331 16.75 15.9375C16.75 14.1419 18.2044 12.6875 20 12.6875H24.4688C25.1431 12.6875 25.6875 13.2319 25.6875 13.9062V17.9688C25.6875 18.6431 25.1431 19.1875 24.4688 19.1875ZM20 13.5C18.6594 13.5 17.5625 14.5969 17.5625 15.9375C17.5625 17.2781 18.6594 18.375 20 18.375H24.4688C24.6962 18.375 24.875 18.1962 24.875 17.9688V13.9062C24.875 13.6787 24.6962 13.5 24.4688 13.5H20Z" fill="#EEAD1E"/>
  <path d="M20 17.5625C19.1062 17.5625 18.375 16.8312 18.375 15.9375C18.375 15.0437 19.1062 14.3125 20 14.3125C20.8937 14.3125 21.625 15.0437 21.625 15.9375C21.625 16.8312 20.8937 17.5625 20 17.5625ZM20 15.125C19.5531 15.125 19.1875 15.4906 19.1875 15.9375C19.1875 16.3844 19.5531 16.75 20 16.75C20.4469 16.75 20.8125 16.3844 20.8125 15.9375C20.8125 15.4906 20.4469 15.125 20 15.125Z" fill="#EEAD1E"/>
  <path d="M24.0625 25.6875H2.53125C1.85688 25.6875 1.3125 25.1431 1.3125 24.4688C1.3125 23.7944 1.85688 23.25 2.53125 23.25H23.25C23.6969 23.25 24.0625 22.8844 24.0625 22.4375V18.7812C24.0625 18.5537 24.2412 18.375 24.4688 18.375C24.6963 18.375 24.875 18.5537 24.875 18.7812V22.4375C24.875 23.3313 24.1437 24.0625 23.25 24.0625H2.53125C2.30375 24.0625 2.125 24.2413 2.125 24.4688C2.125 24.6962 2.30375 24.875 2.53125 24.875H24.0625C24.29 24.875 24.4688 25.0538 24.4688 25.2812C24.4688 25.5087 24.29 25.6875 24.0625 25.6875Z" fill="#EEAD1E"/>
  <path d="M1.71875 24.875C1.49125 24.875 1.3125 24.6963 1.3125 24.4688V8.625C1.3125 7.73125 2.04375 7 2.9375 7H3.75C3.9775 7 4.15625 7.17875 4.15625 7.40625C4.15625 7.63375 3.9775 7.8125 3.75 7.8125H2.9375C2.49063 7.8125 2.125 8.17813 2.125 8.625V24.4688C2.125 24.6963 1.94625 24.875 1.71875 24.875Z" fill="#EEAD1E"/>
  <path d="M24.4688 11.875C24.2413 11.875 24.0625 11.6962 24.0625 11.4688V8.625C24.0625 8.17813 23.6969 7.8125 23.25 7.8125H17.1562C16.9287 7.8125 16.75 7.63375 16.75 7.40625C16.75 7.17875 16.9287 7 17.1562 7H23.25C24.1438 7 24.875 7.73125 24.875 8.625V11.4688C24.875 11.6962 24.6962 11.875 24.4688 11.875Z" fill="#EEAD1E"/>
</svg>