<svg width="28" height="28" viewBox="0 0 28 28" fill="none" xmlns="http://www.w3.org/2000/svg">
<path d="M22.6768 5.18555H2.98926" stroke="#EEAD1E" stroke-width="0.820312" stroke-miterlimit="10" stroke-linecap="round" stroke-linejoin="round"/>
<path d="M20.7344 0.410156H21.8749C22.4186 0.410156 22.8593 0.850883 22.8593 1.39453V7.67446" stroke="#EEAD1E" stroke-width="0.820312" stroke-miterlimit="10" stroke-linecap="round" stroke-linejoin="round"/>
<path d="M2.84375 22.2213V1.39453C2.84375 0.850883 3.28448 0.410156 3.82812 0.410156H18.6094" stroke="#EEAD1E" stroke-width="0.820312" stroke-miterlimit="10" stroke-linecap="round" stroke-linejoin="round"/>
<path d="M22.8594 24.4632V26.6051C22.8594 27.1488 22.4186 27.5895 21.875 27.5895H3.82812C3.28448 27.5895 2.84375 27.1488 2.84375 26.6051V24.0986" stroke="#EEAD1E" stroke-width="0.820312" stroke-miterlimit="10" stroke-linecap="round" stroke-linejoin="round"/>
<path d="M22.8594 14.2734V17.9557" stroke="#EEAD1E" stroke-width="0.820312" stroke-miterlimit="10" stroke-linecap="round" stroke-linejoin="round"/>
<path d="M5.87305 3.61816C6.32609 3.61816 6.69336 3.2509 6.69336 2.79785C6.69336 2.34481 6.32609 1.97754 5.87305 1.97754C5.42 1.97754 5.05273 2.34481 5.05273 2.79785C5.05273 3.2509 5.42 3.61816 5.87305 3.61816Z" stroke="#EEAD1E" stroke-width="0.820312" stroke-miterlimit="10" stroke-linecap="round" stroke-linejoin="round"/>
<path d="M9.29102 3.61816C9.74406 3.61816 10.1113 3.2509 10.1113 2.79785C10.1113 2.34481 9.74406 1.97754 9.29102 1.97754C8.83797 1.97754 8.4707 2.34481 8.4707 2.79785C8.4707 3.2509 8.83797 3.61816 9.29102 3.61816Z" stroke="#EEAD1E" stroke-width="0.820312" stroke-miterlimit="10" stroke-linecap="round" stroke-linejoin="round"/>
<path d="M12.709 3.61816C13.162 3.61816 13.5293 3.2509 13.5293 2.79785C13.5293 2.34481 13.162 1.97754 12.709 1.97754C12.2559 1.97754 11.8887 2.34481 11.8887 2.79785C11.8887 3.2509 12.2559 3.61816 12.709 3.61816Z" stroke="#EEAD1E" stroke-width="0.820312" stroke-miterlimit="10" stroke-linecap="round" stroke-linejoin="round"/>
<path d="M9.74448 9.42792C9.60677 9.33238 9.25076 9.14103 8.76256 9.28808C8.18085 9.4633 8.13557 10.3464 8.53905 10.6457C8.78291 10.8265 9.00018 10.8937 9.46048 11.0564C10.4906 11.4206 10.1098 12.8733 9.06192 12.8803C8.65297 12.8831 8.46178 12.8571 8.10254 12.6221" stroke="#EEAD1E" stroke-width="0.820312" stroke-miterlimit="10" stroke-linecap="round" stroke-linejoin="round"/>
<path d="M9.0625 12.9512V13.4107" stroke="#EEAD1E" stroke-width="0.820312" stroke-miterlimit="10" stroke-linecap="round" stroke-linejoin="round"/>
<path d="M9.0625 8.74414V9.20095" stroke="#EEAD1E" stroke-width="0.820312" stroke-miterlimit="10" stroke-linecap="round" stroke-linejoin="round"/>
<path d="M9.08496 15.0693C11.2898 15.0693 13.0771 13.282 13.0771 11.0771C13.0771 8.87232 11.2898 7.08496 9.08496 7.08496C6.88014 7.08496 5.09277 8.87232 5.09277 11.0771C5.09277 13.282 6.88014 15.0693 9.08496 15.0693Z" stroke="#EEAD1E" stroke-width="0.820312" stroke-miterlimit="10" stroke-linecap="round" stroke-linejoin="round"/>
<path d="M9.74448 19.5676C9.60677 19.472 9.25076 19.2807 8.76256 19.4277C8.18085 19.6029 8.13557 20.486 8.53905 20.7853C8.78291 20.9662 9.00018 21.0334 9.46048 21.196C10.4906 21.5602 10.1098 23.013 9.06192 23.02C8.65297 23.0227 8.46178 22.9967 8.10254 22.7618" stroke="#EEAD1E" stroke-width="0.820312" stroke-miterlimit="10" stroke-linecap="round" stroke-linejoin="round"/>
<path d="M9.0625 23.0908V23.5504" stroke="#EEAD1E" stroke-width="0.820312" stroke-miterlimit="10" stroke-linecap="round" stroke-linejoin="round"/>
<path d="M9.0625 18.8838V19.3405" stroke="#EEAD1E" stroke-width="0.820312" stroke-miterlimit="10" stroke-linecap="round" stroke-linejoin="round"/>
<path d="M9.08496 25.209C11.2898 25.209 13.0771 23.4216 13.0771 21.2168C13.0771 19.012 11.2898 17.2246 9.08496 17.2246C6.88014 17.2246 5.09277 19.012 5.09277 21.2168C5.09277 23.4216 6.88014 25.209 9.08496 25.209Z" stroke="#EEAD1E" stroke-width="0.820312" stroke-miterlimit="10" stroke-linecap="round" stroke-linejoin="round"/>
<path d="M24.7734 14.1641H15.6953C15.4839 14.1641 15.3125 13.9927 15.3125 13.7812V8.3125C15.3125 8.10108 15.4839 7.92969 15.6953 7.92969H24.7734C24.9849 7.92969 25.1562 8.10108 25.1562 8.3125V13.7812C25.1562 13.9927 24.9849 14.1641 24.7734 14.1641Z" stroke="#EEAD1E" stroke-width="0.820312" stroke-miterlimit="10" stroke-linecap="round" stroke-linejoin="round"/>
<path d="M24.7734 24.3145H15.6953C15.4839 24.3145 15.3125 24.1431 15.3125 23.9316V18.4629C15.3125 18.2515 15.4839 18.0801 15.6953 18.0801H24.7734C24.9849 18.0801 25.1562 18.2515 25.1562 18.4629V23.9316C25.1562 24.1431 24.9849 24.3145 24.7734 24.3145Z" stroke="#EEAD1E" stroke-width="0.820312" stroke-miterlimit="10" stroke-linecap="round" stroke-linejoin="round"/>
<path d="M17.3906 10.208H20.4896" stroke="#EEAD1E" stroke-width="0.820312" stroke-miterlimit="10" stroke-linecap="round" stroke-linejoin="round"/>
<path d="M17.3906 11.9033H22.8594" stroke="#EEAD1E" stroke-width="0.820312" stroke-miterlimit="10" stroke-linecap="round" stroke-linejoin="round"/>
<path d="M17.3906 20.2666H20.4896" stroke="#EEAD1E" stroke-width="0.820312" stroke-miterlimit="10" stroke-linecap="round" stroke-linejoin="round"/>
<path d="M17.3906 21.9619H22.8594" stroke="#EEAD1E" stroke-width="0.820312" stroke-miterlimit="10" stroke-linecap="round" stroke-linejoin="round"/>
</svg>
