<svg width="20" height="20" viewBox="0 0 20 20" fill="none" xmlns="http://www.w3.org/2000/svg">
<g clip-path="url(#clip0_6235_13331)">
<path d="M19.7893 4.07797L15.8832 0.171641C15.7734 0.0617188 15.6243 0 15.4689 0H6.48438C5.51512 0 4.72656 0.788555 4.72656 1.75781V9.48586C2.09352 9.77828 0.0390625 12.0168 0.0390625 14.7266C0.0390625 17.6343 2.40473 20 5.3125 20H18.2031C19.1724 20 19.9609 19.2114 19.9609 18.2422V4.4923C19.9609 4.33687 19.8992 4.18789 19.7893 4.07797ZM16.0547 2.00051L17.9604 3.90625H16.0547V2.00051ZM1.21094 14.7266C1.21094 12.465 3.0509 10.625 5.3125 10.625C7.5741 10.625 9.41406 12.465 9.41406 14.7266C9.41406 16.9882 7.5741 18.8281 5.3125 18.8281C3.0509 18.8281 1.21094 16.9882 1.21094 14.7266ZM18.2031 18.8281H8.62301C9.67625 17.9764 10.396 16.7282 10.5532 15.3125H16.6406C16.9642 15.3125 17.2266 15.0502 17.2266 14.7266C17.2266 14.403 16.9642 14.1406 16.6406 14.1406H10.5532C10.4577 13.2805 10.1546 12.4821 9.69508 11.7969H16.6406C16.9642 11.7969 17.2266 11.5345 17.2266 11.2109C17.2266 10.8873 16.9642 10.625 16.6406 10.625H8.62301C7.86047 10.0084 6.92336 9.59969 5.89844 9.48586V1.75781C5.89844 1.43473 6.16129 1.17188 6.48438 1.17188H14.8828V4.49219C14.8828 4.81578 15.1452 5.07812 15.4688 5.07812H18.7891V18.2422C18.7891 18.5653 18.5262 18.8281 18.2031 18.8281Z" fill="#EEAD1E"/>
<path d="M16.6406 7.10938H8.04688C7.72328 7.10938 7.46094 7.37172 7.46094 7.69531C7.46094 8.01891 7.72328 8.28125 8.04688 8.28125H16.6406C16.9642 8.28125 17.2266 8.01891 17.2266 7.69531C17.2266 7.37172 16.9642 7.10938 16.6406 7.10938Z" fill="#EEAD1E"/>
<path d="M6.875 15.3125C7.19859 15.3125 7.46094 15.0502 7.46094 14.7266C7.46094 14.403 7.19859 14.1406 6.875 14.1406H5.89844V12.3828C5.89844 12.0592 5.63609 11.7969 5.3125 11.7969C4.98891 11.7969 4.72656 12.0592 4.72656 12.3828V14.7266C4.72656 15.0502 4.98891 15.3125 5.3125 15.3125H6.875Z" fill="#EEAD1E"/>
</g>
<defs>
<clipPath id="clip0_6235_13331">
<rect width="20" height="20" fill="white"/>
</clipPath>
</defs>
</svg>
