<svg width="28" height="28" viewBox="0 0 28 28" fill="none" xmlns="http://www.w3.org/2000/svg">
<g clip-path="url(#clip0_6193_1612)">
<mask id="mask0_6193_1612" style="mask-type:luminance" maskUnits="userSpaceOnUse" x="0" y="0" width="28" height="28">
<path d="M0 1.90735e-06H28V28H0V1.90735e-06Z" fill="white"/>
</mask>
<g mask="url(#mask0_6193_1612)">
<path fill-rule="evenodd" clip-rule="evenodd" d="M21.0293 3.51465C21.4805 3.51465 21.8496 3.88215 21.8496 4.33496C21.8496 4.78777 21.4805 5.15527 21.0293 5.15527C20.5781 5.15527 20.209 4.78777 20.209 4.33496C20.209 3.88215 20.5781 3.51465 21.0293 3.51465Z" fill="#EEAD1E"/>
<path d="M27.1799 10.4859C27.1799 10.952 26.9954 11.3988 26.6659 11.7288C26.3364 12.0583 25.8883 12.2432 25.4227 12.2432H18.7581C18.5253 12.2432 18.3012 12.3359 18.1343 12.5007C17.3259 13.3112 14.8789 15.7578 14.8789 15.7578V2.57813C14.8789 2.11197 15.0634 1.66523 15.3929 1.33574C15.7224 1.00624 16.1705 0.820853 16.6362 0.820853H25.4227C25.8883 0.820853 26.3364 1.00624 26.6659 1.33574C26.9954 1.66523 27.1799 2.11197 27.1799 2.57813V10.4859Z" stroke="#EEAD1E" stroke-miterlimit="10" stroke-linecap="round" stroke-linejoin="round"/>
<path d="M21.0293 6.97124V8.72852" stroke="#EEAD1E" stroke-miterlimit="10" stroke-linecap="round" stroke-linejoin="round"/>
<path d="M13.1213 24.5437C13.1213 21.1469 10.3668 18.3933 6.97085 18.3933C3.57487 18.3933 0.820312 21.1469 0.820312 24.5437V25.4224C0.820312 25.8885 1.00483 26.3353 1.33432 26.6652C1.66381 26.9947 2.11192 27.1797 2.57759 27.1797H11.3641C11.8298 27.1797 12.2778 26.9947 12.6073 26.6652C12.9368 26.3353 13.1213 25.8885 13.1213 25.4224V24.5437Z" stroke="#EEAD1E" stroke-miterlimit="10" stroke-linecap="round" stroke-linejoin="round"/>
<path d="M6.97163 11.3644C8.91342 11.3644 10.4862 12.9394 10.4862 14.879C10.4862 16.8186 8.91342 18.3936 6.97163 18.3936C5.02979 18.3936 3.45703 16.8186 3.45703 14.879C3.45703 12.9394 5.02979 11.3644 6.97163 11.3644Z" stroke="#EEAD1E" stroke-miterlimit="10" stroke-linecap="round" stroke-linejoin="round"/>
</g>
</g>
<defs>
<clipPath id="clip0_6193_1612">
<rect width="28" height="28" fill="white"/>
</clipPath>
</defs>
</svg>
