<svg xmlns="http://www.w3.org/2000/svg" width="32" height="32" viewBox="0 0 32 32" fill="none">
  <g clip-path="url(#clip0_1123_2212)">
    <path fill-rule="evenodd" clip-rule="evenodd" d="M31.2888 19.7576C30.9922 19.2623 29.7744 17.7919 26.5585 19.6649L24.975 20.5872C25.2568 19.884 25.4268 19.1449 25.4745 18.3935C25.5686 16.9104 25.2051 15.4362 24.3941 14.0121C23.5196 12.4768 22.188 10.7424 20.2316 8.59506C20.7706 8.30306 21.1375 7.73231 21.1375 7.07744C21.1375 6.20631 20.4883 5.48444 19.6484 5.36906L20.8168 4.20062C21.5025 3.51494 21.5026 2.39913 20.8168 1.71331C20.2365 1.13306 19.3136 1.03387 18.6223 1.4775C18.5763 1.50706 18.537 1.51062 18.4866 1.48969C18.4361 1.46875 18.4107 1.43837 18.399 1.38494C18.2237 0.582438 17.501 0 16.6803 0C15.8598 0.000125 15.1371 0.582563 14.9619 1.385C14.9502 1.43844 14.9249 1.46881 14.8745 1.48969C14.824 1.51056 14.7845 1.50713 14.7385 1.47756C14.0473 1.03394 13.1244 1.13319 12.544 1.71344C12.2128 2.04463 12.0304 2.48631 12.0304 2.95706C12.0304 3.42781 12.2128 3.8695 12.544 4.20062L13.7125 5.36906C12.8725 5.48444 12.2233 6.20625 12.2233 7.07737C12.2233 7.73231 12.5902 8.30306 13.1292 8.59506C11.1729 10.7423 9.84127 12.4767 8.96671 14.0122C7.91283 15.8626 7.61252 17.8146 8.08889 19.6829L4.88071 21.5404L4.48083 20.8339C4.11808 20.1929 3.30158 19.9666 2.66058 20.3293L1.06815 21.2306C0.42727 21.5933 0.200895 22.4098 0.563583 23.0508L5.24527 31.3229C5.49077 31.7566 5.9439 32.0004 6.4099 32.0004C6.63258 32.0004 6.85827 31.9447 7.06546 31.8274L8.6579 30.9262C9.29883 30.5634 9.52515 29.7469 9.1624 29.1059L8.67796 28.2499L9.6449 27.6917L16.9155 29.6398C17.3258 29.7498 17.7284 29.8047 18.1224 29.8047C18.9079 29.8047 19.6588 29.5864 20.3655 29.1514L30.6652 22.8092C31.6025 22.2322 31.8997 20.7777 31.2888 19.7576ZM13.0304 2.95706C13.0304 2.75344 13.1088 2.56288 13.2511 2.42056C13.5015 2.17031 13.8998 2.12756 14.1984 2.31912C14.5191 2.52487 14.905 2.55931 15.257 2.41356C15.6091 2.26775 15.8576 1.9705 15.9388 1.59825C16.0145 1.25169 16.3264 1.00006 16.6803 1C17.0343 1 17.3462 1.25156 17.4219 1.59825C17.5032 1.97056 17.7517 2.26769 18.1038 2.41356C18.4558 2.55931 18.8416 2.52487 19.1624 2.31906C19.4609 2.12744 19.8593 2.17019 20.1096 2.42056C20.252 2.56288 20.3303 2.75344 20.3303 2.95706C20.3303 3.16069 20.252 3.35125 20.1096 3.49356L18.2508 5.3525H15.1101L13.2511 3.4935C13.1088 3.35119 13.0304 3.16069 13.0304 2.95706ZM13.9481 6.3525H19.4126C19.8124 6.3525 20.1376 6.67769 20.1376 7.07737C20.1376 7.47706 19.8124 7.80219 19.4126 7.80219H13.9481C13.5484 7.80219 13.2232 7.477 13.2232 7.07731C13.2233 6.67769 13.5485 6.3525 13.9481 6.3525ZM9.83565 14.5071C10.7346 12.9286 12.155 11.1122 14.2971 8.80225H19.0636C21.2058 11.1123 22.6262 12.9288 23.5251 14.5071C24.8846 16.8942 24.8053 19.4569 23.3135 21.5549L20.8829 22.9706C20.5953 23.1381 20.3029 23.2559 19.9974 23.3256C20.1113 23.1446 20.2005 22.9394 20.2615 22.712C20.551 21.6311 19.9085 20.5024 18.7986 20.1426C18.7771 20.1356 18.7553 20.1301 18.7331 20.1261C18.6173 20.1052 18.5016 20.0826 18.3861 20.0589C18.5661 19.9445 18.7247 19.8117 18.8543 19.6619C19.1894 19.2743 19.3324 18.7882 19.2678 18.2559C19.0703 16.6294 17.3194 16.3419 16.744 16.2474C15.2914 16.0089 15.2622 15.4078 15.2513 15.1815C15.2195 14.5264 15.7541 14.1692 16.2651 14.0533C16.385 14.0261 16.5099 14.0103 16.6362 14.0071C16.6538 14.0078 16.6716 14.0077 16.689 14.0066C17.2685 14.0084 17.8676 14.2792 18.1472 14.9449C18.2541 15.1995 18.547 15.3194 18.8018 15.2124C19.0564 15.1055 19.1761 14.8124 19.0692 14.5578C18.6865 13.6464 17.9317 13.184 17.157 13.0507V12.5708C17.157 12.2946 16.9331 12.0708 16.657 12.0708C16.3809 12.0708 16.157 12.2946 16.157 12.5708V13.0551C16.119 13.062 16.0813 13.0697 16.044 13.0782C14.9223 13.3326 14.2023 14.1974 14.2525 15.2301C14.2886 15.9759 14.7222 16.929 16.582 17.2343C17.9878 17.4651 18.2253 17.966 18.2751 18.3766C18.3057 18.6282 18.2477 18.8347 18.0979 19.0079C17.5859 19.5999 16.5393 19.6503 15.8574 19.3638C15.5443 19.2322 15.1498 18.9637 15.016 18.4266C14.9491 18.1587 14.6779 17.9956 14.4098 18.0624C14.1419 18.1292 13.9788 18.4006 14.0456 18.6686C14.0511 18.6904 14.0572 18.7119 14.0632 18.7335C13.6639 18.5892 13.2877 18.4544 12.9631 18.3492C11.5114 17.8784 10.1988 18.4615 9.10621 19.0941L8.9944 19.1588C8.68046 17.6286 8.96646 16.0333 9.83565 14.5071ZM8.16533 30.0559L6.5729 30.9571C6.41465 31.0467 6.20508 30.9887 6.11546 30.8303L1.43383 22.5582C1.34421 22.3998 1.40233 22.1904 1.56065 22.1007C1.56065 22.1007 3.15302 21.1996 3.15308 21.1996C3.30971 21.1109 3.52071 21.1676 3.61046 21.3263L8.29208 29.5984C8.38171 29.7568 8.32365 29.9663 8.16533 30.0559ZM30.1408 21.9578L19.8411 28.2998C19.0235 28.8032 18.1263 28.9291 17.1743 28.6739L9.70358 26.6721C9.5754 26.6378 9.43896 26.6558 9.32421 26.7221L8.1854 27.3796L5.37327 22.4107L9.60733 19.9592C10.5546 19.4108 11.5796 18.9514 12.6547 19.3002C12.9998 19.4121 13.3974 19.5559 13.8578 19.7223C15.1776 20.1995 16.8178 20.7925 18.5196 21.1036C19.1147 21.3113 19.4475 21.8862 19.2956 22.4531C19.0958 23.1989 18.4746 23.2915 17.9807 23.2348C17.1445 23.0628 16.35 22.8361 15.5092 22.596C15.1106 22.4822 14.6984 22.3644 14.2748 22.2509C14.0079 22.1796 13.7339 22.3378 13.6624 22.6045C13.591 22.8713 13.7493 23.1454 14.016 23.2169C14.4317 23.3283 14.8399 23.4448 15.2346 23.5576C16.1008 23.8049 16.919 24.0386 17.7999 24.2187C17.8033 24.2194 18.5255 24.3371 18.5255 24.3371C19.58 24.5058 20.5159 24.3415 21.3862 23.8347L27.0617 20.5291C28.6974 19.5764 29.9569 19.4801 30.4309 20.2715C30.7577 20.8171 30.6113 21.6681 30.1408 21.9578ZM3.6169 22.8003C3.66233 23.111 3.44727 23.3997 3.13658 23.4451C2.8259 23.4906 2.53721 23.2755 2.49177 22.9648C2.44633 22.6541 2.6614 22.3654 2.97208 22.32C3.28277 22.2746 3.57146 22.4896 3.6169 22.8003Z" fill="white"/>
  </g>
  <defs>
    <clipPath id="clip0_1123_2212">
      <rect width="32" height="32" fill="white"/>
    </clipPath>
  </defs>
</svg>