<svg width="28" height="22" viewBox="0 0 28 22" fill="none" xmlns="http://www.w3.org/2000/svg">
<path d="M2.47543 6.38235H11.2795C11.3665 6.38235 11.4499 6.34778 11.5115 6.28625C11.573 6.22471 11.6076 6.14125 11.6076 6.05423V2.86906C11.6076 2.78204 11.573 2.69858 11.5115 2.63704C11.4499 2.57551 11.3665 2.54094 11.2795 2.54094H2.47543C2.38841 2.54094 2.30495 2.57551 2.24341 2.63704C2.18187 2.69858 2.1473 2.78204 2.1473 2.86906V6.05423C2.1473 6.14125 2.18187 6.22471 2.24341 6.28625C2.30495 6.34778 2.38841 6.38235 2.47543 6.38235ZM2.80355 3.19719H10.9513V5.7261H2.80355V3.19719ZM7.80795 14.1365H5.94694C5.85991 14.1365 5.77645 14.1711 5.71492 14.2326C5.65338 14.2941 5.61881 14.3776 5.61881 14.4646V16.3256C5.61881 16.4127 5.65338 16.4961 5.71492 16.5577C5.77645 16.6192 5.85991 16.6538 5.94694 16.6538H7.80795C7.89498 16.6538 7.97844 16.6192 8.03997 16.5577C8.10151 16.4961 8.13608 16.4127 8.13608 16.3256V14.4646C8.13608 14.3776 8.10151 14.2941 8.03997 14.2326C7.97844 14.1711 7.89498 14.1365 7.80795 14.1365ZM7.47983 15.9975H6.27506V14.7927H7.47983V15.9975ZM4.33672 14.1365H2.47543C2.38841 14.1365 2.30495 14.1711 2.24341 14.2326C2.18187 14.2941 2.1473 14.3776 2.1473 14.4646V16.3256C2.1473 16.4127 2.18187 16.4961 2.24341 16.5577C2.30495 16.6192 2.38841 16.6538 2.47543 16.6538H4.33672C4.42374 16.6538 4.5072 16.6192 4.56874 16.5577C4.63027 16.4961 4.66484 16.4127 4.66484 16.3256V14.4646C4.66484 14.3776 4.63027 14.2941 4.56874 14.2326C4.5072 14.1711 4.42374 14.1365 4.33672 14.1365ZM4.00859 15.9975H2.80355V14.7927H4.00859V15.9975ZM4.33672 7.19342H2.47543C2.38841 7.19342 2.30495 7.22799 2.24341 7.28953C2.18187 7.35106 2.1473 7.43452 2.1473 7.52155V9.38256C2.1473 9.46959 2.18187 9.55305 2.24341 9.61458C2.30495 9.67612 2.38841 9.71069 2.47543 9.71069H4.33672C4.42374 9.71069 4.5072 9.67612 4.56874 9.61458C4.63027 9.55305 4.66484 9.46959 4.66484 9.38256V7.52155C4.66484 7.43452 4.63027 7.35106 4.56874 7.28953C4.5072 7.22799 4.42374 7.19342 4.33672 7.19342ZM4.00859 9.05444H2.80355V7.84967H4.00859V9.05444ZM4.33672 10.6649H2.47543C2.38841 10.6649 2.30495 10.6995 2.24341 10.761C2.18187 10.8226 2.1473 10.906 2.1473 10.9931V12.8539C2.1473 12.9409 2.18187 13.0244 2.24341 13.0859C2.30495 13.1475 2.38841 13.182 2.47543 13.182H4.33672C4.42374 13.182 4.5072 13.1475 4.56874 13.0859C4.63027 13.0244 4.66484 12.9409 4.66484 12.8539V10.9929C4.6648 10.9059 4.63021 10.8225 4.56868 10.761C4.50715 10.6995 4.42371 10.6649 4.33672 10.6649ZM4.00859 12.5259H2.80355V11.3212H4.00859V12.5259ZM7.80823 7.19342H5.94721C5.86019 7.19342 5.77673 7.22799 5.71519 7.28953C5.65366 7.35106 5.61909 7.43452 5.61909 7.52155V9.38256C5.61909 9.46959 5.65366 9.55305 5.71519 9.61458C5.77673 9.67612 5.86019 9.71069 5.94721 9.71069H7.80823C7.89525 9.71069 7.97871 9.67612 8.04025 9.61458C8.10178 9.55305 8.13635 9.46959 8.13635 9.38256V7.52155C8.13635 7.47843 8.12785 7.43574 8.11135 7.39592C8.09484 7.35609 8.07065 7.3199 8.04015 7.28943C8.00965 7.25896 7.97345 7.23479 7.93361 7.21832C7.89376 7.20185 7.85107 7.19339 7.80795 7.19342H7.80823ZM7.4801 9.05444H6.27534V7.84967H7.4801V9.05444ZM11.2797 7.19342H9.4185C9.33148 7.19342 9.24802 7.22799 9.18648 7.28953C9.12494 7.35106 9.09037 7.43452 9.09037 7.52155V9.38256C9.09037 9.46959 9.12494 9.55305 9.18648 9.61458C9.24802 9.67612 9.33148 9.71069 9.4185 9.71069H11.2795C11.3665 9.71069 11.4499 9.67612 11.5115 9.61458C11.573 9.55305 11.6076 9.46959 11.6076 9.38256V7.52155C11.6076 7.43452 11.573 7.35106 11.5115 7.28953C11.4499 7.22799 11.3665 7.19342 11.2795 7.19342H11.2797ZM10.9516 9.05444H9.74662V7.84967H10.9513L10.9516 9.05444ZM7.80823 10.6649H5.94721C5.86019 10.6649 5.77673 10.6995 5.71519 10.761C5.65366 10.8226 5.61909 10.906 5.61909 10.9931V12.8539C5.61909 12.9409 5.65366 13.0244 5.71519 13.0859C5.77673 13.1475 5.86019 13.182 5.94721 13.182H7.80823C7.89525 13.182 7.97871 13.1475 8.04025 13.0859C8.10178 13.0244 8.13635 12.9409 8.13635 12.8539V10.9929C8.13633 10.9498 8.12782 10.9071 8.1113 10.8673C8.09478 10.8275 8.07059 10.7913 8.04009 10.7609C8.0096 10.7304 7.9734 10.7063 7.93357 10.6898C7.89374 10.6733 7.85105 10.6649 7.80795 10.6649H7.80823ZM7.4801 12.5259H6.27534V11.3212H7.4801V12.5259ZM27.0513 10.24H13.7549V1.43756C13.7546 1.1608 13.6445 0.895462 13.4488 0.699765C13.2531 0.504067 12.9877 0.393992 12.711 0.393688H1.04387C0.767115 0.393992 0.501778 0.504069 0.30608 0.699768C0.110381 0.895467 0.000303981 1.1608 0 1.43756L0 17.7571C0.000318453 18.0339 0.110402 18.2992 0.306099 18.4949C0.501796 18.6906 0.767125 18.8006 1.04387 18.801H9.09037V20.6574C9.09065 20.909 9.19071 21.1502 9.3686 21.3281C9.54649 21.506 9.78768 21.606 10.0393 21.6063H27.051C27.3026 21.606 27.5438 21.506 27.7217 21.3281C27.8996 21.1502 27.9997 20.909 28 20.6574V11.1892C27.9997 10.9376 27.8997 10.6963 27.7217 10.5184C27.5438 10.3405 27.3026 10.2404 27.051 10.2401L27.0513 10.24ZM1.04387 18.1447C0.941133 18.1445 0.842648 18.1036 0.769994 18.031C0.697339 17.9584 0.656438 17.8599 0.65625 17.7571V1.43756C0.656424 1.33481 0.697318 1.23632 0.769974 1.16366C0.842631 1.09101 0.941124 1.05011 1.04387 1.04994H12.711C12.8137 1.0501 12.9122 1.09099 12.9849 1.16364C13.0576 1.2363 13.0985 1.3348 13.0986 1.43756V10.2401H10.0393C9.78767 10.2404 9.54648 10.3405 9.36859 10.5184C9.1907 10.6964 9.09065 10.9376 9.09037 11.1892V18.1447H1.04387ZM27.3438 20.6574C27.3437 20.735 27.3128 20.8094 27.2579 20.8643C27.203 20.9191 27.1286 20.95 27.051 20.9501H10.0393C9.96166 20.95 9.88727 20.9191 9.83241 20.8642C9.77755 20.8094 9.7467 20.735 9.74662 20.6574V11.1892C9.74668 11.1116 9.77753 11.0371 9.83239 10.9822C9.88725 10.9274 9.96165 10.8965 10.0393 10.8964H27.051C27.1286 10.8965 27.203 10.9273 27.2579 10.9822C27.3128 11.0371 27.3437 11.1115 27.3438 11.1892V20.6574ZM26.4408 12.8413C25.9756 12.6315 25.602 12.2606 25.3888 11.797C25.3626 11.74 25.3206 11.6917 25.2677 11.6579C25.2149 11.624 25.1535 11.606 25.0907 11.606H11.9996C11.9368 11.606 11.8754 11.624 11.8226 11.6579C11.7697 11.6918 11.7277 11.7401 11.7015 11.7971C11.4883 12.2607 11.1147 12.6316 10.6495 12.8413C10.5919 12.8672 10.543 12.9093 10.5087 12.9623C10.4744 13.0154 10.4562 13.0772 10.4562 13.1404V18.7061C10.4562 18.7692 10.4744 18.8311 10.5087 18.8841C10.543 18.9372 10.5919 18.9792 10.6495 19.0052C11.1147 19.215 11.4884 19.586 11.7015 20.0497C11.7277 20.1067 11.7697 20.155 11.8226 20.1889C11.8754 20.2227 11.9368 20.2407 11.9996 20.2407H25.0906C25.1534 20.2407 25.2148 20.2227 25.2676 20.1889C25.3205 20.155 25.3625 20.1067 25.3887 20.0497C25.6018 19.586 25.9755 19.215 26.4407 19.0052C26.4983 18.9792 26.5472 18.9372 26.5814 18.8841C26.6157 18.8311 26.634 18.7692 26.634 18.7061V13.1404C26.634 13.0773 26.6158 13.0154 26.5815 12.9624C26.5472 12.9093 26.4984 12.8673 26.4408 12.8413ZM25.9778 18.5031C25.5206 18.7539 25.1434 19.1285 24.8895 19.584H12.2008C11.947 19.1285 11.5698 18.7538 11.1125 18.5031V13.3432C11.5698 13.0925 11.947 12.7178 12.2008 12.2623H24.8896C25.1434 12.7178 25.5206 13.0925 25.9779 13.3432L25.9778 18.5031ZM13.4798 15.0214C13.3014 15.0214 13.1271 15.0743 12.9788 15.1734C12.8305 15.2725 12.7149 15.4133 12.6466 15.5781C12.5783 15.7429 12.5605 15.9243 12.5953 16.0992C12.6301 16.2741 12.716 16.4348 12.8421 16.561C12.9683 16.6871 13.129 16.773 13.3039 16.8078C13.4788 16.8426 13.6602 16.8247 13.825 16.7564C13.9898 16.6882 14.1306 16.5726 14.2297 16.4242C14.3288 16.2759 14.3817 16.1016 14.3817 15.9232C14.3814 15.6841 14.2863 15.4549 14.1172 15.2858C13.9481 15.1167 13.7189 15.0217 13.4798 15.0214ZM13.4798 16.1688C13.4312 16.1688 13.3838 16.1544 13.3434 16.1274C13.303 16.1004 13.2715 16.0621 13.2529 16.0172C13.2343 15.9723 13.2295 15.9229 13.2389 15.8753C13.2484 15.8276 13.2718 15.7839 13.3061 15.7495C13.3405 15.7152 13.3843 15.6918 13.4319 15.6823C13.4795 15.6728 13.5289 15.6777 13.5738 15.6963C13.6187 15.7149 13.657 15.7463 13.684 15.7867C13.711 15.8271 13.7254 15.8746 13.7254 15.9232C13.7253 15.9883 13.6994 16.0507 13.6533 16.0967C13.6073 16.1427 13.5449 16.1687 13.4798 16.1688ZM23.6105 15.0214C23.4321 15.0214 23.2578 15.0743 23.1095 15.1734C22.9612 15.2725 22.8456 15.4133 22.7773 15.5781C22.709 15.7429 22.6912 15.9243 22.726 16.0992C22.7608 16.2741 22.8467 16.4348 22.9728 16.561C23.099 16.6871 23.2597 16.773 23.4346 16.8078C23.6095 16.8426 23.7909 16.8247 23.9557 16.7564C24.1205 16.6882 24.2613 16.5726 24.3604 16.4242C24.4595 16.2759 24.5124 16.1016 24.5124 15.9232C24.5121 15.6841 24.417 15.4549 24.2479 15.2858C24.0788 15.1168 23.8496 15.0217 23.6105 15.0214ZM23.6105 16.1688C23.5619 16.1688 23.5144 16.1544 23.4741 16.1274C23.4337 16.1004 23.4022 16.0621 23.3836 16.0172C23.365 15.9723 23.3601 15.9229 23.3696 15.8753C23.3791 15.8276 23.4025 15.7839 23.4368 15.7495C23.4712 15.7152 23.515 15.6918 23.5626 15.6823C23.6102 15.6728 23.6596 15.6777 23.7045 15.6963C23.7494 15.7149 23.7877 15.7463 23.8147 15.7867C23.8417 15.8271 23.8561 15.8746 23.8561 15.9232C23.856 15.9883 23.8301 16.0507 23.784 16.0967C23.738 16.1427 23.6756 16.1687 23.6105 16.1688ZM19.0775 15.0832C19.1046 15.166 19.1634 15.2345 19.241 15.2739C19.3186 15.3133 19.4087 15.3202 19.4914 15.2931C19.5741 15.2661 19.6427 15.2073 19.6821 15.1297C19.7214 15.052 19.7283 14.962 19.7013 14.8793C19.643 14.6899 19.5358 14.5193 19.3904 14.3848C19.245 14.2502 19.0666 14.1565 18.8733 14.1131V13.8984C18.8733 13.8114 18.8387 13.728 18.7772 13.6664C18.7156 13.6049 18.6322 13.5703 18.5451 13.5703C18.4581 13.5703 18.3746 13.6049 18.3131 13.6664C18.2516 13.728 18.217 13.8114 18.217 13.8984V14.1369C18.0173 14.1963 17.8421 14.3185 17.7174 14.4854C17.5926 14.6523 17.5251 14.8549 17.5247 15.0633C17.5169 15.7464 17.8728 16.014 18.217 16.1467V16.9458C18.1238 16.866 18.048 16.7679 17.9942 16.6577C17.9751 16.6187 17.9486 16.5838 17.916 16.5552C17.8834 16.5265 17.8454 16.5046 17.8043 16.4907C17.7632 16.4768 17.7197 16.4712 17.6764 16.4742C17.6331 16.4772 17.5908 16.4888 17.552 16.5083C17.5132 16.5277 17.4787 16.5547 17.4504 16.5876C17.4221 16.6205 17.4006 16.6587 17.3872 16.7C17.3738 16.7413 17.3687 16.7848 17.3722 16.8281C17.3757 16.8714 17.3878 16.9135 17.4077 16.9521C17.5702 17.2948 17.8609 17.56 18.2171 17.6904V17.948C18.2171 18.0351 18.2516 18.1185 18.3132 18.1801C18.3747 18.2416 18.4582 18.2762 18.5452 18.2762C18.6322 18.2762 18.7157 18.2416 18.7772 18.1801C18.8387 18.1185 18.8733 18.0351 18.8733 17.948V17.7446C18.8842 17.7425 18.8952 17.7406 18.9061 17.7381C19.3877 17.6275 19.7033 17.226 19.71 16.7154C19.72 15.9717 19.2438 15.7577 18.8733 15.6528V14.8148C18.9716 14.8766 19.0442 14.972 19.0775 15.0832ZM18.181 15.0708C18.1806 15.018 18.193 14.9659 18.217 14.9189V15.3367C18.188 15.2512 18.1757 15.1609 18.181 15.0708ZM19.0538 16.7066C19.0511 16.902 18.9632 17.0026 18.8733 17.0542V16.345C19.013 16.4091 19.0566 16.4981 19.0538 16.7066ZM18.5452 12.5831C16.8757 12.5831 15.5175 14.0816 15.5175 15.9232C15.5175 17.7648 16.8757 19.2633 18.5452 19.2633C20.2146 19.2633 21.5729 17.7648 21.5729 15.9232C21.5729 14.0815 20.2147 12.5831 18.5452 12.5831ZM18.5452 18.607C17.2376 18.607 16.1738 17.4031 16.1738 15.9232C16.1738 14.4433 17.2376 13.2394 18.5452 13.2394C19.8528 13.2394 20.9166 14.4433 20.9166 15.9232C20.9166 17.403 19.8528 18.607 18.5452 18.607Z" fill="#EEAD1E"/>
</svg>
