<svg width="20" height="20" viewBox="0 0 20 20" fill="none" xmlns="http://www.w3.org/2000/svg">
<path fill-rule="evenodd" clip-rule="evenodd" d="M3.71016 13.2C4.15198 13.2 4.51016 13.5582 4.51016 14V15.6C4.51016 15.8122 4.59443 16.0156 4.74448 16.1657C4.8945 16.3157 5.09797 16.4 5.31016 16.4H14.9101C15.1223 16.4 15.3257 16.3158 15.4758 16.1657C15.6259 16.0156 15.7101 15.8122 15.7101 15.6V14C15.7101 13.5582 16.0683 13.2 16.5101 13.2C16.952 13.2 17.3101 13.5582 17.3101 14V15.6C17.3101 16.2365 17.0573 16.847 16.6072 17.2971C16.1571 17.7472 15.5466 18 14.9101 18H5.31016C4.67365 18 4.06318 17.7472 3.61308 17.2971C3.16302 16.847 2.91016 16.2365 2.91016 15.6V14C2.91016 13.5582 3.26832 13.2 3.71016 13.2Z" fill="black"/>
<path fill-rule="evenodd" clip-rule="evenodd" d="M5.54486 8.63434C5.85728 8.32192 6.36381 8.32192 6.67624 8.63434L10.1105 12.0687L13.5449 8.63434C13.8573 8.32192 14.3638 8.32192 14.6762 8.63434C14.9887 8.94674 14.9887 9.4533 14.6762 9.7657L10.6762 13.7657C10.3638 14.0781 9.85725 14.0781 9.54485 13.7657L5.54486 9.7657C5.23244 9.4533 5.23244 8.94674 5.54486 8.63434Z" fill="black"/>
<path fill-rule="evenodd" clip-rule="evenodd" d="M10.1105 2.80005C10.5524 2.80005 10.9105 3.15822 10.9105 3.60005V13.2C10.9105 13.6419 10.5524 14 10.1105 14C9.66871 14 9.31055 13.6419 9.31055 13.2V3.60005C9.31055 3.15822 9.66871 2.80005 10.1105 2.80005Z" fill="black"/>
</svg>
