<svg width="13" height="12" viewBox="0 0 13 12" fill="none" xmlns="http://www.w3.org/2000/svg">
<path fill-rule="evenodd" clip-rule="evenodd" d="M9.5 6C10.6046 6 11.5 5.10455 11.5 4C11.5 2.89543 10.6046 2 9.5 2C8.5681 2 7.78505 2.63739 7.563 3.5H2C1.72386 3.5 1.5 3.72386 1.5 4C1.5 4.27615 1.72386 4.5 2 4.5H7.563C7.78505 5.3626 8.5681 6 9.5 6ZM8.5 4C8.5 4.55229 8.9477 5 9.5 5C10.0523 5 10.5 4.55229 10.5 4C10.5 3.44771 10.0523 3 9.5 3C8.9477 3 8.5 3.44771 8.5 4ZM1.5 8C1.5 6.89545 2.39543 6 3.5 6C4.43192 6 5.21497 6.6374 5.43699 7.5H11C11.2761 7.5 11.5 7.72385 11.5 8C11.5 8.27615 11.2761 8.5 11 8.5H5.43699C5.21497 9.3626 4.43192 10 3.5 10C2.39543 10 1.5 9.10455 1.5 8ZM4.5 8C4.5 7.4477 4.05229 7 3.5 7C2.94771 7 2.5 7.4477 2.5 8C2.5 8.5523 2.94771 9 3.5 9C4.05229 9 4.5 8.5523 4.5 8Z" fill="black"/>
</svg>
