<svg xmlns="http://www.w3.org/2000/svg" width="26" height="26" viewBox="0 0 26 26" fill="none">
  <mask id="mask0_6193_1863" style="mask-type:luminance" maskUnits="userSpaceOnUse" x="0" y="0" width="26" height="26">
    <path d="M0 1.90735e-06H26V26H0V1.90735e-06Z" fill="white"/>
  </mask>
  <g mask="url(#mask0_6193_1863)">
    <path d="M15.4326 13C15.8348 11.8042 16.3286 10.7932 16.8536 9.94383" stroke="#EEAD1E" stroke-width="0.761719" stroke-miterlimit="10" stroke-linecap="round" stroke-linejoin="round"/>
    <path d="M18.7789 7.54102C19.4108 6.93235 19.9803 6.52625 20.375 6.27951C20.566 6.16007 20.5179 5.86965 20.2987 5.81755L18.466 5.38159L18.8728 3.61989C18.9177 3.4252 18.7301 3.25665 18.5415 3.32272C17.1132 3.82327 15.9436 4.60474 14.9883 5.52134" stroke="#EEAD1E" stroke-width="0.761719" stroke-miterlimit="10" stroke-linecap="round" stroke-linejoin="round"/>
    <path d="M11.9297 5.7835C11.9556 5.75811 11.988 5.73881 12.0257 5.72713L12.9448 5.44428L13.4983 4.65768C13.5938 4.52158 13.7948 4.52158 13.8903 4.65768L14.4434 5.44428L15.363 5.72713C15.5214 5.77588 15.5839 5.96783 15.4844 6.10037L14.9064 6.86971L14.9217 7.8315C14.9243 7.99756 14.7612 8.11588 14.6043 8.06205L14.0635 7.8767" stroke="#EEAD1E" stroke-width="0.761719" stroke-miterlimit="10" stroke-linecap="round" stroke-linejoin="round"/>
    <path d="M11.0752 0.482672L11.6283 1.26973L12.5478 1.55253C12.7065 1.60133 12.7687 1.79283 12.669 1.92562L12.0914 2.69486L12.1065 3.65665C12.1091 3.82271 11.9462 3.94108 11.7892 3.88725L10.8791 3.57561L9.96901 3.88725C9.81189 3.94108 9.64899 3.82271 9.65163 3.65665L9.66681 2.69486L9.08917 1.92562C8.98949 1.79283 9.05165 1.60133 9.21039 1.55253L10.1299 1.26973L10.6829 0.482672C10.7784 0.346781 10.9798 0.346781 11.0752 0.482672Z" stroke="#EEAD1E" stroke-width="0.761719" stroke-miterlimit="10" stroke-linecap="round" stroke-linejoin="round"/>
    <path d="M13.7732 13.0928C15.0718 11.1385 14.8596 8.47666 13.1365 6.7536C12.4005 6.01757 11.4932 5.55729 10.543 5.37265" stroke="#EEAD1E" stroke-width="0.761719" stroke-miterlimit="10" stroke-linecap="round" stroke-linejoin="round"/>
    <path d="M8.74592 5.35111C7.74807 5.51772 6.79059 5.98455 6.0207 6.75445C4.30185 8.47324 4.08649 11.1262 5.37445 13.0791" stroke="#EEAD1E" stroke-width="0.761719" stroke-miterlimit="10" stroke-linecap="round" stroke-linejoin="round"/>
    <path d="M7.31492 13.0586C7.22809 12.987 7.14379 12.9103 7.06254 12.8291C5.67316 11.4397 5.67316 9.18652 7.06254 7.79715C8.45191 6.40777 10.7051 6.40777 12.0945 7.79715C13.4838 9.18652 13.4838 11.4397 12.0945 12.8291C12.0133 12.9103 11.9289 12.987 11.8421 13.0586" stroke="#EEAD1E" stroke-width="0.761719" stroke-miterlimit="10" stroke-linecap="round" stroke-linejoin="round"/>
    <path d="M9.03809 9.44728L9.53803 8.94734V11.5898" stroke="#EEAD1E" stroke-width="0.761719" stroke-miterlimit="10" stroke-linecap="round" stroke-linejoin="round"/>
    <path d="M10.666 8.94623V9.15723" stroke="#EEAD1E" stroke-width="0.761719" stroke-miterlimit="10" stroke-linecap="round" stroke-linejoin="round"/>
    <path d="M8.54086 13.1588H3.06445C2.78399 13.1588 2.55664 13.3862 2.55664 13.6666V24.8773C2.55664 25.1004 2.73752 25.2812 2.96061 25.2812H4.5495" stroke="#EEAD1E" stroke-width="0.761719" stroke-miterlimit="10" stroke-linecap="round" stroke-linejoin="round"/>
    <path d="M17.827 13.1582H13.2168" stroke="#EEAD1E" stroke-width="0.761719" stroke-miterlimit="10" stroke-linecap="round" stroke-linejoin="round"/>
    <path d="M13.2168 25.2812H18.797C19.0201 25.2812 19.201 25.1004 19.201 24.8773V17.275" stroke="#EEAD1E" stroke-width="0.761719" stroke-miterlimit="10" stroke-linecap="round" stroke-linejoin="round"/>
    <path d="M6.34766 25.2812H8.54156" stroke="#EEAD1E" stroke-width="0.761719" stroke-miterlimit="10" stroke-linecap="round" stroke-linejoin="round"/>
    <path d="M12.7315 25.6191H9.02572C8.81412 25.6191 8.64258 25.4476 8.64258 25.236V13.1588H13.1147V25.236C13.1147 25.4476 12.9431 25.6191 12.7315 25.6191Z" stroke="#EEAD1E" stroke-width="0.761719" stroke-miterlimit="10" stroke-linecap="round" stroke-linejoin="round"/>
    <path d="M19.7161 10.3741L18.9227 7.85519C18.8557 7.64242 18.6289 7.5242 18.4161 7.59123L16.7525 8.11525C16.5396 8.18223 16.4215 8.40912 16.4885 8.62189L21.6404 24.979C21.7074 25.1918 21.9343 25.31 22.1471 25.2429L23.8106 24.719C24.0235 24.652 24.1416 24.4251 24.0746 24.2123L20.2543 12.0828" stroke="#EEAD1E" stroke-width="0.761719" stroke-miterlimit="10" stroke-linecap="round" stroke-linejoin="round"/>
    <path d="M3.64249 2.68906L4.34297 3.34841L5.3005 3.43997C5.46584 3.45581 5.56537 3.6308 5.49453 3.78096L5.08392 4.6509L5.29273 5.58989C5.32878 5.75199 5.1931 5.90077 5.02836 5.87975L4.07413 5.75803L3.24563 6.24685C3.10258 6.3312 2.91916 6.24812 2.88824 6.08496L2.70913 5.13982L1.98824 4.50292C1.86383 4.39298 1.88612 4.19285 2.03171 4.11302L2.87529 3.65061L3.25828 2.76818C3.32435 2.61584 3.52158 2.57526 3.64249 2.68906Z" stroke="#EEAD1E" stroke-width="0.761719" stroke-miterlimit="10" stroke-linecap="round" stroke-linejoin="round"/>
    <path d="M4.35254 21.6162H5.44632" stroke="#EEAD1E" stroke-width="0.761719" stroke-miterlimit="10" stroke-linecap="round" stroke-linejoin="round"/>
    <path d="M4.35254 23.0127H7.09701" stroke="#EEAD1E" stroke-width="0.761719" stroke-miterlimit="10" stroke-linecap="round" stroke-linejoin="round"/>
  </g>
</svg>