<?xml version="1.0" encoding="utf-8"?>
<svg xmlns="http://www.w3.org/2000/svg" viewBox="9.961 134.229 345.747 182.323" xmlns:bx="https://boxy-svg.com" width="345.747px" height="182.323px"><defs><linearGradient id="paint0_linear_1195_4220" x1="-4.62814e-06" y1="3" x2="108" y2="2.99999" gradientUnits="userSpaceOnUse" gradientTransform="matrix(0.974351, 0, 0, 1, 248.414917, 265.213509)"><stop stop-color="#F9D58C" stop-opacity="0"/><stop offset="1" stop-color="#F9D58C"/></linearGradient><bx:export><bx:file format="svg"/></bx:export></defs><path d="M 356.568 268.214 C 356.568 266.557 355.259 265.214 353.645 265.214 C 352.03 265.214 350.722 266.557 350.722 268.214 L 353.645 268.214 L 356.568 268.214 Z M 340.266 311.036 L 341.274 313.852 L 340.266 311.036 Z M 353.645 268.214 L 350.722 268.214 L 350.722 295.714 L 353.645 295.714 L 356.568 295.714 L 356.568 268.214 L 353.645 268.214 Z M 353.645 295.714 L 350.722 295.714 C 350.722 298.045 348.771 304.633 339.259 308.219 L 340.266 311.036 L 341.274 313.852 C 352.945 309.452 356.568 300.714 356.568 295.714 L 353.645 295.714 Z M 332.495 312.214 L 332.495 309.214 L 248.415 309.214 L 248.415 312.214 L 248.415 315.214 L 332.495 315.214 L 332.495 312.214 Z M 340.266 311.036 L 339.259 308.219 C 337.249 308.977 334.983 309.214 332.495 309.214 L 332.495 312.214 L 332.495 315.214 C 335.281 315.214 338.333 314.96 341.274 313.852 L 340.266 311.036 Z" fill="url(#paint0_linear_1195_4220)" style="stroke-width: 1;" id="object-0"/><path d="M 245.626 310.81 L 27.418 310.81 C 18.582 310.81 11.418 303.647 11.418 294.81 L 11.418 151.81 C 11.418 142.973 18.582 135.81 27.418 135.81 L 338.418 135.81 C 347.255 135.81 354.418 142.973 354.418 151.81 L 354.418 228.082" stroke="#D9D9D9" style="stroke-width: 1; fill: rgba(0, 0, 0, 0);" id="object-1"/></svg>