<svg width="20" height="20" viewBox="0 0 20 20" fill="none" xmlns="http://www.w3.org/2000/svg">
<g clip-path="url(#clip0_1731_4939)">
<path d="M18.3333 10.8333V2.5C18.3333 2.38949 18.2894 2.28351 18.2113 2.20537C18.1332 2.12723 18.0272 2.08333 17.9167 2.08333H6.25C6.13949 2.08333 6.03351 2.12723 5.95537 2.20537C5.87723 2.28351 5.83333 2.38949 5.83333 2.5V9.30833C5.19167 9.26667 5.04583 9.30833 3.33333 9.52917V9.16667C3.33333 9.05616 3.28943 8.95018 3.21129 8.87204C3.13315 8.7939 3.02717 8.75 2.91667 8.75H0.416667C0.30616 8.75 0.200179 8.7939 0.122039 8.87204C0.0438987 8.95018 0 9.05616 0 9.16667L0 16.25C0 16.3605 0.0438987 16.4665 0.122039 16.5446C0.200179 16.6228 0.30616 16.6667 0.416667 16.6667H2.91667C3.02717 16.6667 3.13315 16.6228 3.21129 16.5446C3.28943 16.4665 3.33333 16.3605 3.33333 16.25V15.8333C4.80833 15.8333 4.0375 15.6292 8.17917 17.5C8.8441 17.8019 9.57027 17.9446 10.3 17.9167C11.7583 17.9167 11.8208 17.7 19.0958 13.9833C19.4289 13.8127 19.6949 13.5349 19.8509 13.1947C20.0069 12.8545 20.0438 12.4716 19.9558 12.1079C19.8677 11.7441 19.6598 11.4206 19.3655 11.1894C19.0712 10.9582 18.7076 10.8328 18.3333 10.8333ZM13.3333 2.91667V4.325C11.825 3.57083 12.3375 3.575 10.8333 4.325V2.91667H13.3333ZM6.66667 2.91667H10V5C10.0002 5.07103 10.0186 5.14082 10.0534 5.20275C10.0881 5.26468 10.1382 5.31669 10.1987 5.35385C10.2592 5.391 10.3283 5.41207 10.3992 5.41504C10.4702 5.41801 10.5407 5.40279 10.6042 5.37083L12.0833 4.63333C13.6542 5.41667 13.7042 5.51667 13.9708 5.35417C14.2375 5.19167 14.1667 5.15833 14.1667 2.91667H17.5V11.0542L12.9167 13.3958C12.924 13.1833 12.8915 12.9714 12.8208 12.7708C12.5 11.9 12.2583 11.9625 7.5 9.72083C7.23153 9.60095 6.95257 9.50611 6.66667 9.4375V2.91667ZM2.5 15.8333H0.833333V9.58333H2.5V15.8333ZM18.7167 13.2417C11.425 16.9667 11.4833 17.0833 10.3 17.0833C9.69036 17.1133 9.08225 16.9991 8.525 16.75C4.30833 14.8375 5 15 3.33333 15V10.3667C6.75833 9.95 5.6 9.75417 11.6042 12.575C11.7039 12.6219 11.7933 12.6881 11.8673 12.7697C11.9412 12.8514 11.9983 12.9469 12.0351 13.0507C12.0719 13.1546 12.0878 13.2647 12.0817 13.3747C12.0757 13.4847 12.0479 13.5925 12 13.6917C11.955 13.7916 11.8907 13.8817 11.8108 13.9568C11.7309 14.0319 11.637 14.0904 11.5344 14.1291C11.4318 14.1678 11.3226 14.1859 11.213 14.1824C11.1035 14.1788 10.9957 14.1536 10.8958 14.1083L7.60833 12.5417C7.51027 12.5032 7.40126 12.5032 7.30324 12.5418C7.20522 12.5805 7.12548 12.6548 7.08006 12.7499C7.03464 12.8449 7.02692 12.9537 7.05845 13.0542C7.08998 13.1547 7.15842 13.2396 7.25 13.2917L10.5375 14.8375C10.7972 14.9631 11.0855 15.0177 11.3731 14.9958C11.6607 14.9738 11.9374 14.8761 12.175 14.7125L17.95 11.7583C18.0474 11.708 18.1538 11.6773 18.263 11.6681C18.3723 11.6589 18.4822 11.6712 18.5867 11.7045C18.6912 11.7378 18.7881 11.7913 18.8719 11.862C18.9556 11.9327 19.0247 12.0193 19.075 12.1167C19.1253 12.2141 19.156 12.3204 19.1652 12.4297C19.1745 12.5389 19.1621 12.6489 19.1288 12.7534C19.0956 12.8578 19.042 12.9547 18.9713 13.0385C18.9006 13.1223 18.8141 13.1913 18.7167 13.2417Z" fill="white"/>
<path d="M14.5827 10.4167H16.2493C16.3599 10.4167 16.4658 10.3728 16.544 10.2946C16.6221 10.2165 16.666 10.1105 16.666 9.99999C16.666 9.88949 16.6221 9.78351 16.544 9.70537C16.4658 9.62723 16.3599 9.58333 16.2493 9.58333H14.5827C14.4722 9.58333 14.3662 9.62723 14.2881 9.70537C14.2099 9.78351 14.166 9.88949 14.166 9.99999C14.166 10.1105 14.2099 10.2165 14.2881 10.2946C14.3662 10.3728 14.4722 10.4167 14.5827 10.4167Z" fill="white"/>
</g>
<defs>
<clipPath id="clip0_1731_4939">
<rect width="20" height="20" fill="white"/>
</clipPath>
</defs>
</svg>
