<svg width="20" height="20" viewBox="0 0 20 20" fill="none" xmlns="http://www.w3.org/2000/svg">
<path d="M9.91625 9.30063C10.5271 9.30063 11.1241 9.11949 11.632 8.78014C12.1398 8.44078 12.5357 7.95845 12.7694 7.39413C13.0031 6.82981 13.0642 6.20886 12.945 5.60981C12.8258 5.01075 12.5316 4.4605 12.0997 4.02865C11.6677 3.59679 11.1174 3.30272 10.5183 3.18364C9.91925 3.06455 9.29831 3.1258 8.73404 3.35962C8.16977 3.59345 7.68752 3.98936 7.34826 4.49728C7.00901 5.00521 6.828 5.60233 6.82813 6.21313C6.82912 7.03179 7.15481 7.81662 7.73375 8.39544C8.31269 8.97426 9.09759 9.2998 9.91625 9.30063ZM9.91625 4.375C10.2798 4.375 10.6352 4.4828 10.9375 4.68478C11.2397 4.88676 11.4753 5.17383 11.6145 5.50971C11.7536 5.84558 11.79 6.21517 11.7191 6.57173C11.6481 6.92829 11.4731 7.25581 11.216 7.51288C10.9589 7.76994 10.6314 7.94501 10.2749 8.01593C9.91829 8.08686 9.5487 8.05046 9.21283 7.91133C8.87696 7.77221 8.58988 7.53661 8.38791 7.23433C8.18593 6.93206 8.07812 6.57667 8.07812 6.21313C8.07879 5.72583 8.27266 5.25868 8.61723 4.91411C8.9618 4.56953 9.42895 4.37566 9.91625 4.375Z" fill="white"/>
<path d="M4.08398 11.1156C4.55371 11.1156 5.0129 10.9763 5.40346 10.7154C5.79403 10.4544 6.09844 10.0835 6.2782 9.64951C6.45796 9.21553 6.50499 8.738 6.41335 8.27729C6.32171 7.81659 6.09551 7.3934 5.76336 7.06125C5.43121 6.7291 5.00803 6.50291 4.54732 6.41127C4.08662 6.31963 3.60909 6.36666 3.17511 6.54642C2.74114 6.72618 2.37021 7.03059 2.10924 7.42115C1.84828 7.81172 1.70898 8.2709 1.70898 8.74063C1.70898 9.37052 1.95921 9.97461 2.40461 10.42C2.85 10.8654 3.4541 11.1156 4.08398 11.1156ZM4.08398 7.61563C4.30649 7.61563 4.524 7.68161 4.709 7.80523C4.89401 7.92885 5.0382 8.10455 5.12335 8.31011C5.2085 8.51568 5.23078 8.74188 5.18737 8.96011C5.14396 9.17834 5.03681 9.37879 4.87948 9.53613C4.72215 9.69346 4.52169 9.80061 4.30346 9.84402C4.08523 9.88742 3.85903 9.86515 3.65347 9.78C3.4479 9.69485 3.2722 9.55065 3.14858 9.36565C3.02496 9.18064 2.95898 8.96314 2.95898 8.74063C2.95898 8.44226 3.07751 8.15612 3.28849 7.94514C3.49947 7.73416 3.78562 7.61563 4.08398 7.61563Z" fill="white"/>
<path d="M15.75 11.1156C16.2197 11.1156 16.6789 10.9763 17.0695 10.7154C17.46 10.4544 17.7645 10.0835 17.9442 9.64951C18.124 9.21553 18.171 8.738 18.0794 8.27729C17.9877 7.81659 17.7615 7.3934 17.4294 7.06125C17.0972 6.7291 16.674 6.50291 16.2133 6.41127C15.7526 6.31963 15.2751 6.36666 14.8411 6.54642C14.4072 6.72618 14.0362 7.03059 13.7753 7.42115C13.5143 7.81172 13.375 8.2709 13.375 8.74063C13.375 9.37052 13.6252 9.97461 14.0706 10.42C14.516 10.8654 15.1201 11.1156 15.75 11.1156ZM15.75 7.61563C15.9725 7.61563 16.19 7.68161 16.375 7.80523C16.56 7.92885 16.7042 8.10455 16.7894 8.31011C16.8745 8.51568 16.8968 8.74188 16.8534 8.96011C16.81 9.17834 16.7028 9.37879 16.5455 9.53613C16.3882 9.69346 16.1877 9.80061 15.9695 9.84402C15.7512 9.88742 15.525 9.86515 15.3195 9.78C15.1139 9.69485 14.9382 9.55065 14.8146 9.36565C14.691 9.18064 14.625 8.96314 14.625 8.74063C14.625 8.44226 14.7435 8.15612 14.9545 7.94514C15.1655 7.73416 15.4516 7.61563 15.75 7.61563Z" fill="white"/>
<path d="M15.8326 12.3694C15.2847 12.373 14.7463 12.5133 14.2663 12.7775C13.81 12.0551 13.181 11.4576 12.4361 11.0389C11.6912 10.6203 10.8538 10.3936 9.99946 10.3794C9.14508 10.3936 8.30769 10.6203 7.56279 11.0389C6.81789 11.4576 6.18891 12.0551 5.73258 12.7775C5.25258 12.5133 4.71424 12.373 4.16633 12.3694C3.18314 12.4174 2.25886 12.8524 1.59527 13.5794C0.931678 14.3065 0.582676 15.2665 0.624455 16.25C0.624455 16.4158 0.690303 16.5747 0.807514 16.6919C0.924724 16.8092 1.0837 16.875 1.24946 16.875C1.41522 16.875 1.57419 16.8092 1.6914 16.6919C1.80861 16.5747 1.87446 16.4158 1.87446 16.25C1.83349 15.5982 2.05112 14.9565 2.48015 14.464C2.90918 13.9716 3.51503 13.6681 4.16633 13.6194C4.51172 13.622 4.8508 13.7121 5.15196 13.8813C4.8574 14.6236 4.7066 15.4151 4.70758 16.2138C4.70758 16.3795 4.77343 16.5385 4.89064 16.6557C5.00785 16.7729 5.16682 16.8388 5.33258 16.8388C5.49834 16.8388 5.65731 16.7729 5.77452 16.6557C5.89173 16.5385 5.95758 16.3795 5.95758 16.2138C5.95758 13.6856 7.77008 11.6294 9.99946 11.6294C12.2288 11.6294 14.0413 13.6856 14.0413 16.2138C14.0413 16.3795 14.1072 16.5385 14.2244 16.6557C14.3416 16.7729 14.5006 16.8388 14.6663 16.8388C14.8321 16.8388 14.9911 16.7729 15.1083 16.6557C15.2255 16.5385 15.2913 16.3795 15.2913 16.2138C15.2923 15.4151 15.1415 14.6236 14.847 13.8813C15.1481 13.7121 15.4872 13.622 15.8326 13.6194C16.4839 13.6681 17.0897 13.9716 17.5188 14.464C17.9478 14.9565 18.1654 15.5982 18.1245 16.25C18.1245 16.4158 18.1903 16.5747 18.3075 16.6919C18.4247 16.8092 18.5837 16.875 18.7495 16.875C18.9152 16.875 19.0742 16.8092 19.1914 16.6919C19.3086 16.5747 19.3745 16.4158 19.3745 16.25C19.4162 15.2665 19.0672 14.3065 18.4036 13.5794C17.7401 12.8524 16.8158 12.4174 15.8326 12.3694Z" fill="white"/>
</svg>
