<svg width="20" height="20" viewBox="0 0 20 20" fill="none" xmlns="http://www.w3.org/2000/svg">
<g clip-path="url(#clip0_1195_4188)">
<path d="M13.0881 20C13.0185 20 12.9489 19.9965 12.8796 19.9894C10.3955 19.7358 7.83342 18.5529 5.66526 16.6585C3.48908 14.7571 1.97326 12.3666 1.39701 9.92754C1.32193 9.61038 1.32344 9.27991 1.40141 8.96345C1.47937 8.64699 1.63156 8.35364 1.84537 8.10766L3.81049 5.85863C3.85762 5.8047 3.91491 5.76058 3.97909 5.72879C4.04328 5.69701 4.11309 5.67818 4.18456 5.67338C4.25602 5.66859 4.32773 5.67792 4.39558 5.70085C4.46344 5.72377 4.52611 5.75984 4.58002 5.80699L8.13186 8.91039C8.24062 9.00567 8.30714 9.14021 8.31681 9.28449C8.32649 9.42876 8.27853 9.57097 8.18346 9.67992L6.45014 11.6637C6.43932 11.6762 6.43317 11.692 6.43276 11.7086C6.43235 11.7251 6.43769 11.7412 6.44787 11.7542C7.54332 13.1493 8.89068 14.3265 10.4201 15.2249C10.4343 15.2333 10.451 15.2365 10.4673 15.2338C10.4837 15.2312 10.4985 15.223 10.5094 15.2106L12.243 13.2266C12.3383 13.1179 12.4728 13.0514 12.617 13.0416C12.7612 13.0319 12.9034 13.0798 13.0124 13.1747L16.5553 16.2703C16.6093 16.3174 16.6534 16.3747 16.6852 16.4389C16.7169 16.5031 16.7358 16.5729 16.7405 16.6444C16.7453 16.7159 16.736 16.7876 16.7131 16.8554C16.6902 16.9233 16.6541 16.9859 16.6069 17.0398L14.6307 19.3016C14.4382 19.5211 14.2009 19.697 13.9349 19.8175C13.6689 19.9379 13.3802 20.0002 13.0881 20ZM4.26194 6.82328L2.57932 8.74906C2.46739 8.87819 2.38781 9.0321 2.34717 9.19808C2.30652 9.36406 2.30597 9.53733 2.34557 9.70356C2.87545 11.9465 4.28217 14.1559 6.30651 15.9246C8.32401 17.6874 10.6935 18.7866 12.9784 19.0198C13.149 19.0376 13.3213 19.0142 13.481 18.9517C13.6407 18.8892 13.7831 18.7893 13.8963 18.6605L15.5903 16.7218L12.6941 14.1913L11.2431 15.8519C11.083 16.0348 10.8642 16.1563 10.6243 16.1955C10.3843 16.2347 10.1382 16.1892 9.92822 16.0668C8.29221 15.1061 6.85105 13.8469 5.67959 12.3545C5.53002 12.1628 5.45184 11.925 5.45848 11.682C5.46512 11.4389 5.55615 11.2058 5.71596 11.0225L7.16694 9.3618L4.26194 6.82328Z" fill="white"/>
<path d="M17.131 12.2263H8.71496C8.58571 12.2263 8.46175 12.1749 8.37036 12.0835C8.27896 11.9922 8.22762 11.8682 8.22762 11.7389C8.22762 11.6097 8.27896 11.4857 8.37036 11.3943C8.46175 11.3029 8.58571 11.2516 8.71496 11.2516H17.131C17.2773 11.2514 17.4175 11.1933 17.521 11.0898C17.6244 10.9864 17.6826 10.8461 17.6828 10.6998V1.52641C17.6826 1.38012 17.6244 1.23986 17.521 1.13642C17.4175 1.03298 17.2773 0.974804 17.131 0.974648H3.25492C3.10864 0.974814 2.96839 1.033 2.86495 1.13644C2.76151 1.23988 2.70333 1.38012 2.70316 1.52641V5.77734C2.70201 5.90583 2.65016 6.02867 2.5589 6.11912C2.46763 6.20958 2.34434 6.26032 2.21584 6.26032C2.08734 6.26032 1.96405 6.20958 1.87278 6.11912C1.78152 6.02867 1.72967 5.90583 1.72852 5.77734V1.52641C1.72897 1.12172 1.88993 0.733735 2.17609 0.447576C2.46225 0.161418 2.85023 0.000454916 3.25492 0L17.131 0C17.5357 0.000444559 17.9237 0.161402 18.2098 0.44756C18.496 0.733718 18.657 1.12171 18.6575 1.52641V10.6998C18.657 11.1045 18.496 11.4925 18.2098 11.7787C17.9237 12.0649 17.5357 12.2258 17.131 12.2263Z" fill="white"/>
<path d="M16.6389 10.6388C16.5699 10.6389 16.5017 10.6243 16.4388 10.596C16.3759 10.5677 16.3197 10.5264 16.274 10.4747L13.6947 7.56455C13.6519 7.51672 13.6189 7.46089 13.5977 7.40027C13.5765 7.33965 13.5674 7.27543 13.5711 7.21132C13.5748 7.1472 13.5911 7.08444 13.6192 7.02665C13.6472 6.96886 13.6863 6.91718 13.7344 6.87458C13.7825 6.83198 13.8385 6.79931 13.8992 6.77843C13.96 6.75755 14.0242 6.74888 14.0883 6.75292C14.1524 6.75696 14.2151 6.77363 14.2727 6.80197C14.3303 6.83031 14.3818 6.86977 14.4241 6.91806L17.0033 9.82814C17.0656 9.89839 17.1062 9.98512 17.1204 10.0779C17.1345 10.1707 17.1216 10.2656 17.0831 10.3512C17.0446 10.4369 16.9822 10.5095 16.9034 10.5605C16.8246 10.6115 16.7327 10.6387 16.6388 10.6387L16.6389 10.6388Z" fill="white"/>
<path d="M10.1926 7.23499C9.77315 7.23482 9.36464 7.10121 9.02615 6.85351L3.45928 2.79499C3.40734 2.75738 3.36334 2.70988 3.3298 2.65522C3.29626 2.60057 3.27383 2.53983 3.2638 2.47649C3.25378 2.41315 3.25635 2.34846 3.27138 2.28612C3.2864 2.22378 3.31359 2.16501 3.35137 2.1132C3.38914 2.06138 3.43678 2.01753 3.49154 1.98416C3.5463 1.95078 3.6071 1.92855 3.67047 1.91872C3.73384 1.90889 3.79853 1.91167 3.86082 1.92689C3.92312 1.94211 3.9818 1.96947 4.03349 2.00741L9.60037 6.06601C9.77217 6.19189 9.97961 6.25975 10.1926 6.25975C10.4056 6.25975 10.613 6.19189 10.7848 6.06601L16.3517 2.00741C16.4034 1.96947 16.462 1.94211 16.5243 1.92689C16.5866 1.91167 16.6513 1.90889 16.7147 1.91872C16.778 1.92855 16.8389 1.95078 16.8936 1.98416C16.9484 2.01753 16.996 2.06138 17.0338 2.1132C17.0716 2.16501 17.0987 2.22378 17.1138 2.28612C17.1288 2.34846 17.1314 2.41315 17.1213 2.47649C17.1113 2.53983 17.0889 2.60057 17.0554 2.65522C17.0218 2.70988 16.9778 2.75738 16.9259 2.79499L11.359 6.85351C11.0205 7.10117 10.612 7.23477 10.1926 7.23499Z" fill="white"/>
</g>
<defs>
<clipPath id="clip0_1195_4188">
<rect width="20" height="20" fill="white"/>
</clipPath>
</defs>
</svg>
