<svg width="18" height="18" viewBox="0 0 18 18" fill="none" xmlns="http://www.w3.org/2000/svg">
<g clip-path="url(#clip0_1728_1127)">
<path d="M10.4225 11.8335C9.98241 11.5264 9.51205 11.2762 9.02014 11.0851C9.67452 10.4903 10.1086 9.65712 10.1841 8.72438C11.1765 7.75745 12.4773 7.22736 13.8717 7.22736C14.9603 7.22736 16.0055 7.55516 16.8946 8.1752C17.2132 8.3974 17.6513 8.3194 17.8735 8.0008C18.0955 7.68233 18.0175 7.24411 17.6991 7.02205C17.2589 6.71498 16.7884 6.46491 16.2965 6.27361C17.0186 5.61731 17.4726 4.67098 17.4726 3.62068C17.4726 1.64356 15.8642 0.0351562 13.8871 0.0351562C11.9101 0.0351562 10.3017 1.64356 10.3017 3.62068C10.3017 4.66672 10.752 5.60962 11.4691 6.26564C11.3709 6.30341 11.2733 6.34337 11.1766 6.38594C10.7366 6.57958 10.323 6.81771 9.93832 7.09731C9.40782 5.77936 8.11624 4.84662 6.6107 4.84662C4.63371 4.84662 3.02518 6.45502 3.02518 8.43201C3.02518 9.47516 3.47301 10.4155 4.18629 11.0712C2.2792 11.7857 0.732877 13.3204 0.10336 15.2776C-0.10538 15.9266 0.00516996 16.6149 0.40672 17.166C0.808271 17.717 1.42955 18.033 2.11125 18.033H8.22775C8.61598 18.033 8.93074 17.7182 8.93074 17.3298C8.93074 16.9416 8.61598 16.6269 8.22775 16.6269H2.11125C1.88397 16.6269 1.67688 16.5215 1.54298 16.3378C1.40909 16.154 1.37228 15.9246 1.44177 15.7081C2.13666 13.5477 4.25592 12.0388 6.59532 12.0388C7.68379 12.0388 8.72914 12.3666 9.61821 12.9867C9.93668 13.2089 10.3749 13.1307 10.5971 12.8123C10.8192 12.4938 10.7412 12.0556 10.4225 11.8335ZM13.8871 1.44127C15.0889 1.44127 16.0665 2.41892 16.0665 3.62068C16.0665 4.82231 15.0889 5.8001 13.8871 5.8001C12.6855 5.8001 11.7077 4.82231 11.7077 3.62068C11.7077 2.41892 12.6855 1.44127 13.8871 1.44127ZM6.6107 6.2526C7.81247 6.2526 8.79012 7.23038 8.79012 8.43201C8.79012 9.63378 7.81247 10.6114 6.6107 10.6114C5.40893 10.6114 4.43129 9.63378 4.43129 8.43201C4.43129 7.23038 5.40893 6.2526 6.6107 6.2526ZM18 14.6935C18 15.0818 17.6852 15.3965 17.2968 15.3965H15.3635V17.3298C15.3635 17.7182 15.0488 18.033 14.6605 18.033C14.2722 18.033 13.9574 17.7182 13.9574 17.3298V15.3965H12.0241C11.6359 15.3965 11.3211 15.0818 11.3211 14.6935C11.3211 14.3052 11.6359 13.9904 12.0241 13.9904H13.9574V12.0571C13.9574 11.6689 14.2722 11.3541 14.6605 11.3541C15.0488 11.3541 15.3635 11.6689 15.3635 12.0571V13.9904H17.2968C17.6852 13.9904 18 14.3052 18 14.6935Z" fill="white"/>
</g>
<defs>
<clipPath id="clip0_1728_1127">
<rect width="18" height="18" fill="white"/>
</clipPath>
</defs>
</svg>
