<svg width="111" height="50" viewBox="0 0 111 50" fill="none" xmlns="http://www.w3.org/2000/svg">
<path d="M111 3C111 1.34315 109.657 -1.44847e-07 108 0C106.343 1.44847e-07 105 1.34315 105 3L108 3L111 3ZM94.2687 45.8219L95.303 48.638L94.2687 45.8219ZM108 3L105 3L105 30.5L108 30.5L111 30.5L111 3L108 3ZM108 30.5L105 30.5C105 32.8318 102.998 39.4198 93.2345 43.0058L94.2687 45.8219L95.303 48.638C107.282 44.2384 111 35.5004 111 30.5L108 30.5ZM86.2933 47L86.2933 44L4.5061e-06 44L4.76837e-06 47L5.03064e-06 50L86.2933 50L86.2933 47ZM94.2687 45.8219L93.2345 43.0058C91.1717 43.7634 88.8466 44 86.2933 44L86.2933 47L86.2933 50C89.1527 50 92.2849 49.7464 95.303 48.638L94.2687 45.8219Z" fill="url(#paint0_linear_1195_4220)"/>
<defs>
<linearGradient id="paint0_linear_1195_4220" x1="-4.62814e-06" y1="3" x2="108" y2="2.99999" gradientUnits="userSpaceOnUse">
<stop stop-color="#F9D58C" stop-opacity="0"/>
<stop offset="1" stop-color="#F9D58C"/>
</linearGradient>
</defs>
</svg>
