<?xml version="1.0" encoding="utf-8"?>
<svg xmlns="http://www.w3.org/2000/svg" viewBox="24.308 62.355 366.836 185.057" xmlns:bx="https://boxy-svg.com" width="355.009124592158px" height="175px" preserveAspectRatio="none"><defs><linearGradient id="paint0_linear_1195_4443" x1="-4.62814e-06" y1="3" x2="108" y2="2.99999" gradientUnits="userSpaceOnUse" gradientTransform="matrix(1, 0, 0, 1, 281.229974, 198.46311)"><stop stop-color="#F9D58C" stop-opacity="0"/><stop offset="1" stop-color="#F9D58C"/></linearGradient><bx:export><bx:file format="svg" width="355.009124592158" height="175"/></bx:export></defs><path d="M 392.231 201.463 C 392.231 199.806 390.888 198.463 389.231 198.463 C 387.574 198.463 386.231 199.806 386.231 201.463 L 389.231 201.463 L 392.231 201.463 Z M 375.499 244.285 L 376.534 247.101 L 375.499 244.285 Z M 389.231 201.463 L 386.231 201.463 L 386.231 228.963 L 389.231 228.963 L 392.231 228.963 L 392.231 201.463 L 389.231 201.463 Z M 389.231 228.963 L 386.231 228.963 C 386.231 231.295 384.229 237.883 374.465 241.469 L 375.499 244.285 L 376.534 247.101 C 388.513 242.701 392.231 233.963 392.231 228.963 L 389.231 228.963 Z M 367.524 245.463 L 367.524 242.463 L 281.231 242.463 L 281.231 245.463 L 281.231 248.463 L 367.524 248.463 L 367.524 245.463 Z M 375.499 244.285 L 374.465 241.469 C 372.402 242.226 370.077 242.463 367.524 242.463 L 367.524 245.463 L 367.524 248.463 C 370.383 248.463 373.515 248.209 376.534 247.101 L 375.499 244.285 Z" fill="url(#paint0_linear_1195_4443)" style="stroke-width: 1;"/><path d="M 273.645 246.495 L 42.663 246.495 C 33.308 246.495 25.726 239.073 25.726 229.915 L 25.726 81.734 C 25.726 72.577 33.308 65.154 42.663 65.154 L 371.869 65.154 C 381.224 65.154 388.806 72.577 388.806 81.734 L 388.806 160.769" stroke="#D9D9D9" style="stroke-width: 1; fill: rgba(0, 0, 0, 0);"/></svg>