<svg width="29" height="28" viewBox="0 0 29 28" fill="none" xmlns="http://www.w3.org/2000/svg">
<g clip-path="url(#clip0_1195_4227)">
<path fill-rule="evenodd" clip-rule="evenodd" d="M25.0527 9.69493L23.8748 10.0848C23.7028 10.1418 23.5866 10.3026 23.5866 10.4839C23.5866 10.6651 23.7028 10.8258 23.8748 10.8828L25.0527 11.2728L25.4427 12.4507C25.4997 12.6227 25.6604 12.7389 25.8416 12.7389C26.0229 12.7389 26.1836 12.6227 26.2406 12.4507L26.6306 11.2728L27.8085 10.8828C27.9804 10.8258 28.0966 10.6651 28.0966 10.4839C28.0966 10.3026 27.9804 10.1418 27.8085 10.0848L26.6306 9.69493L26.2406 8.51704C26.1836 8.34495 26.0229 8.22886 25.8416 8.22886C25.6604 8.22886 25.4997 8.34495 25.4427 8.51704L25.0527 9.69493ZM23.7749 2.01181L23.2703 3.53598C23.2663 3.54825 23.2566 3.55779 23.2444 3.56188L21.7202 4.06651C21.5246 4.13122 21.3926 4.314 21.3926 4.52007C21.3926 4.72614 21.5246 4.90892 21.7202 4.97373L23.2444 5.47826C23.2566 5.48235 23.2663 5.49199 23.2703 5.50426L23.7749 7.02832C23.8396 7.2239 24.0225 7.35604 24.2284 7.35604C24.4345 7.35604 24.6173 7.2239 24.6821 7.02832L25.1866 5.50426C25.1907 5.49199 25.2004 5.48235 25.2126 5.47826L26.7367 4.97373C26.9323 4.90892 27.0644 4.72614 27.0644 4.52007C27.0644 4.314 26.9323 4.13122 26.7367 4.06651L25.2126 3.56188C25.2004 3.55779 25.1907 3.54825 25.1866 3.53598L24.6821 2.01181C24.6173 1.81623 24.4345 1.6842 24.2284 1.6842C24.0225 1.6842 23.8396 1.81623 23.7749 2.01181Z" fill="#F4D287"/>
<path fill-rule="evenodd" clip-rule="evenodd" d="M10.5487 5.84178C9.64185 4.36156 7.95472 3.6409 6.35054 3.66323C4.95851 3.68264 3.6553 4.2678 2.94534 5.31135C2.55754 5.88132 2.50049 6.37252 2.589 6.76568C2.7162 7.33144 3.20668 7.82548 4.04563 8.08944C4.13435 8.11733 4.22768 8.14303 4.325 8.16662C4.35845 8.1747 4.39327 8.1748 4.42672 8.16694L17.0637 5.18006C17.0972 5.17209 17.1282 5.15646 17.1546 5.13423C17.231 5.06963 17.3029 5.00482 17.3699 4.94012C18.0018 4.32852 18.2192 3.66712 18.0797 3.10439C17.9827 2.71312 17.7118 2.29952 17.1099 1.96341C16.0078 1.34825 14.5805 1.40845 13.3272 2.01428C11.8827 2.71249 10.6967 4.11228 10.5487 5.84178ZM8.99313 6.60816C8.39423 5.75831 7.35026 5.3684 6.37445 5.38193C5.56528 5.39326 4.77919 5.67168 4.36642 6.27835C4.34566 6.30876 4.32731 6.33781 4.31168 6.36592C4.38278 6.39706 4.4694 6.42087 4.56148 6.44981C5.69427 6.80626 7.72202 6.71272 8.99313 6.60816ZM16.3603 3.5182C16.3337 3.50006 16.3043 3.48223 16.2721 3.4643C15.6314 3.1067 14.8038 3.20968 14.0753 3.56183C13.1965 3.98665 12.4376 4.80274 12.2826 5.83067C13.4661 5.35509 15.3211 4.53082 16.1745 3.70508C16.2439 3.63786 16.3107 3.57777 16.3603 3.5182Z" fill="#F4D287"/>
<path fill-rule="evenodd" clip-rule="evenodd" d="M8.17801 6.83106L2.51917 8.16856C1.37799 8.43839 0.670439 9.58387 0.940162 10.7252L1.0487 11.1843C1.31842 12.3256 2.46391 13.0331 3.6052 12.7634L9.26403 11.4259L8.17801 6.83106ZM13.7713 10.3605L9.68927 11.3253L8.60325 6.7306L12.6854 5.7658L13.7713 10.3605ZM13.1106 5.66523L14.1965 10.2601L19.8555 8.92246C20.9967 8.65274 21.7042 7.50726 21.4345 6.36597L21.3259 5.90675C21.0562 4.76556 19.9106 4.05801 18.7695 4.32774L13.1106 5.66523Z" fill="#F4D287"/>
<path fill-rule="evenodd" clip-rule="evenodd" d="M10.7883 11.5144L3.70513 13.1886C3.6054 13.2122 3.50567 13.2295 3.40625 13.2409V24.1091C3.40625 25.3931 4.44865 26.4356 5.73277 26.4356H10.7883V11.5144ZM14.9052 11.4769V26.4356H11.2253V11.4769H14.9052ZM15.3421 11.4769V26.4356H20.3977C21.6818 26.4356 22.7243 25.3931 22.7243 24.1091C22.7243 24.1091 22.7243 15.9032 22.7243 12.8349C22.7243 12.0849 22.1163 11.4769 21.3663 11.4769H15.3421Z" fill="#F4D287"/>
</g>
<defs>
<clipPath id="clip0_1195_4227">
<rect width="28" height="28" fill="white" transform="translate(0.5)"/>
</clipPath>
</defs>
</svg>
