<svg width="69" height="68" viewBox="0 0 69 68" fill="none" xmlns="http://www.w3.org/2000/svg">
<rect x="0.5" y="0.5" width="67" height="67" rx="33.5" stroke="#D9D9D9"/>
<path d="M30.2353 47.9305L23.5523 47.9297C23.2828 47.9293 22.9948 47.9483 22.7286 47.9119C21.0743 47.6856 19.5909 46.3394 19.3717 44.6571L19.3564 44.527C19.3256 44.171 19.3426 43.8035 19.3424 43.4458L19.3409 28.2285C19.3351 26.9375 19.2989 26.4052 20.707 25.8004C21.8484 25.3102 23.4546 25.1181 24.7201 25.07L27.6295 25.061C27.8542 25.0586 28.0739 25.0229 28.297 25.017L29.1221 25.0117C29.6209 25.0082 29.6384 24.9095 30.0501 24.6373L35.7217 21.0388C36.402 20.6227 37.0024 20.1753 37.8205 20.1168C39.0488 20.1337 39.4999 20.7649 40.0983 21.7617L40.8067 22.953C41.0346 23.3479 41.2275 23.8164 41.6063 24.0936C41.792 24.2295 42.0868 24.354 42.1966 24.5634C42.4791 25.1024 42.0755 25.0634 42.8779 25.2191L43.8541 25.3927C45.2668 25.6248 45.6593 26.059 45.6653 27.4374L45.6666 28.4303C46.7391 28.6001 47.5622 29.4817 47.7207 30.5441C47.7922 31.0233 47.7536 31.5494 47.7536 32.0344L47.7632 34.9994C48.5726 35.3615 48.5926 35.9258 48.5935 36.7335L48.5894 40.3123C48.5795 40.979 48.3234 41.2743 47.7197 41.6033C47.7115 41.7968 47.7495 42.0099 47.7509 42.2081C47.7557 42.9257 47.7647 43.543 47.8055 44.2549L47.8162 45.2185C47.8166 45.419 47.8284 45.6283 47.8034 45.8272C47.6128 47.3446 46.5839 47.93 45.2 47.9323L30.2352 47.9305H30.2353ZM37.7335 21.0436C37.1175 21.1907 36.6261 21.5641 36.0948 21.8921L26.0629 28.1826C25.9571 28.2421 25.881 28.3212 25.7666 28.3628L27.7031 28.3635C28.0014 28.3617 28.0966 28.2918 28.3499 28.1371L33.3145 24.9132L35.8702 23.2558C36.1081 23.0862 36.2493 22.808 36.5089 22.6655C36.76 22.5276 37.4644 22.4857 37.3467 22.9562C37.3052 23.122 37.108 23.3892 37.1796 23.5503C37.294 23.8074 37.7861 23.8071 38.0092 23.7581C38.441 23.6631 38.6729 23.4547 38.9553 23.912C39.1984 24.3058 39.3849 24.7494 39.599 25.1612L41.1721 28.1224C41.2217 28.2115 41.2372 28.2875 41.3094 28.3644L42.505 28.3447C42.4684 28.2956 42.1893 27.5433 42.1083 27.3785L41.1887 25.4673L39.2951 22.1903C38.937 21.5684 38.5276 20.9584 37.7334 21.0435L37.7335 21.0436ZM36.3631 24.0282C35.9318 24.3566 35.4518 24.6403 34.9996 24.9411L30.0499 28.0898C29.9053 28.1767 29.7979 28.3005 29.649 28.3692L34.8039 28.3532C34.7348 28.2049 34.7174 27.9278 34.74 27.7633C34.9954 25.8751 37.7816 26.4234 37.4854 28.2305C37.4778 28.2772 37.4707 28.3201 37.4472 28.3618L40.2675 28.3425C40.1925 28.2867 40.1655 28.1795 40.1192 28.1006L38.5426 25.1928C38.266 24.6523 38.503 24.7438 37.9533 24.7416C37.3913 24.7393 36.7207 24.4728 36.3631 24.0281L36.3631 24.0282ZM25.0833 25.9764C24.8752 25.9779 24.6633 25.9735 24.4558 25.989L23.9837 26.044C23.1989 26.1075 20.7305 26.3564 20.3097 27.1723C20.7686 27.9144 22.3195 28.3351 23.1062 28.3697C24.44 28.3676 24.4711 28.1475 25.4618 27.4916L27.3523 26.3108C27.5227 26.2092 27.7104 26.0512 27.8928 25.984L25.0833 25.9764ZM42.6337 26.1241C42.8285 26.4991 43.1787 26.7816 43.3136 27.1854C43.436 27.5521 43.2803 27.9916 43.3976 28.3698L44.7462 28.367L44.7548 27.4453C44.7534 27.1902 44.7756 26.8422 44.6627 26.6084C44.4003 26.3449 42.9933 26.1583 42.6337 26.1242L42.6337 26.1241ZM35.9519 27.4923C35.3992 27.7354 35.3897 28.3708 36.2733 28.3078C36.936 28.1359 36.5681 27.4021 35.9519 27.4923ZM20.2526 28.376L20.256 43.8722C20.2607 45.3873 21.1459 46.7507 22.7268 46.9871C23.0259 47.0319 23.3458 47.0192 23.6479 47.0192L45.3261 47.0179C46.5422 47.0158 46.9234 46.3676 46.9026 45.2056L46.8062 41.9291C46.4236 42.069 45.4179 42.183 45.014 42.2187L44.9988 42.2514C43.81 42.3345 42.1181 42.2975 41.1867 41.5334C39.5969 40.2292 39.6029 37.2276 40.8741 35.7279C42.0231 34.3723 44.8168 34.3891 46.5082 34.6417C46.6112 34.6571 46.7498 34.6615 46.8435 34.7041L46.8452 31.2123C46.8415 30.0384 46.3827 29.2899 45.0622 29.2883L23.3905 29.2917C22.2984 29.2915 21.1779 28.9559 20.2526 28.3761L20.2526 28.376ZM44.6044 35.4595C43.6805 35.4627 42.4174 35.4586 41.7204 36.1606C40.6502 37.2388 40.5518 39.629 41.673 40.7141C42.2529 41.2755 43.2235 41.3534 43.9901 41.3373C45.0862 41.3397 46.1583 41.2017 47.1948 40.8296C47.7492 40.6306 47.6762 40.7067 47.6777 40.1398L47.6789 37.1139C47.6784 36.7308 47.6976 36.3326 47.6593 35.9515C47.1213 35.5147 45.2853 35.4638 44.6044 35.4595Z" fill="black"/>
<path d="M43.4982 40.177C41.2571 40.4674 40.7734 37.0222 43.0524 36.6523C45.3092 36.4613 45.6608 39.8133 43.4982 40.177ZM43.1103 37.5801C42.0148 37.957 42.4182 39.4435 43.4149 39.2309C44.4555 38.9011 44.1196 37.4315 43.1103 37.5801Z" fill="black"/>
<path d="M34.666 66.2175C34.666 67.2019 35.4646 68.0049 36.4477 67.9533C40.3038 67.7509 44.1018 66.8929 47.6772 65.4119C51.8023 63.7032 55.5505 61.1988 58.7076 58.0416C61.8648 54.8844 64.3693 51.1363 66.0779 47.0112C67.5589 43.4358 68.417 39.6378 68.6193 35.7817C68.6709 34.7986 67.868 34 66.8835 34C65.899 34 65.1064 34.7988 65.0488 35.7815C64.8502 39.1692 64.0861 42.5041 62.7843 45.647C61.2548 49.3395 59.0129 52.6946 56.1868 55.5208C53.3606 58.3469 50.0055 60.5888 46.313 62.1183C43.1701 63.4201 39.8352 64.1842 36.4475 64.3828C35.4648 64.4404 34.666 65.233 34.666 66.2175Z" fill="url(#paint0_linear_1091_6770)"/>
<defs>
<linearGradient id="paint0_linear_1091_6770" x1="0.665998" y1="68" x2="0.666" y2="-2.4803e-06" gradientUnits="userSpaceOnUse">
<stop stop-color="white"/>
<stop offset="0.475962" stop-color="#F9D58C"/>
<stop offset="1" stop-color="#F9D58C"/>
</linearGradient>
</defs>
</svg>
