<svg xmlns="http://www.w3.org/2000/svg" width="32" height="33" viewBox="0 0 32 33" fill="none">
  <path d="M29.5175 16.8784C29.5001 16.7529 29.4407 16.6369 29.3491 16.5493L19.3789 7.83937C19.2786 7.75511 19.1493 7.71354 19.0187 7.72359C18.8882 7.73363 18.7667 7.79449 18.6806 7.89309C18.5944 7.99169 18.5503 8.12016 18.5578 8.25091C18.5653 8.38165 18.6238 8.50424 18.7207 8.59232L28.121 16.8045L24.0932 18.749L11.0142 6.99402L15.8149 6.05374L17.2104 7.27689C17.3105 7.362 17.44 7.40435 17.571 7.39476C17.702 7.38518 17.8239 7.32444 17.9105 7.22567C17.9971 7.1269 18.0413 6.99803 18.0337 6.86691C18.026 6.73579 17.9671 6.61295 17.8696 6.52492L16.2895 5.13992C16.232 5.08964 16.1637 5.05316 16.0899 5.03328C16.0161 5.01339 15.9388 5.01062 15.8638 5.02518L9.83886 6.20509C9.70613 6.24579 9.58973 6.32751 9.50636 6.43851L6.66136 11.1785C6.60061 11.2798 6.57766 11.3993 6.59656 11.5158C6.61546 11.6324 6.67499 11.7385 6.76463 11.8154L10.3818 14.9182L3.94873 18.7617C3.84911 18.8317 3.77221 18.9294 3.72756 19.0427L2.02247 24.5327C1.98423 24.6559 1.9951 24.7891 2.05279 24.9045C2.11048 25.0199 2.21053 25.1085 2.33204 25.1518L4.39209 25.8867C4.51631 25.9284 4.65194 25.9197 4.76981 25.8625C4.88769 25.8053 4.97839 25.7041 5.0224 25.5806C5.06642 25.4572 5.06023 25.3214 5.00518 25.2025C4.95012 25.0836 4.85059 24.9911 4.728 24.9448L3.11988 24.3711L4.52994 19.8304L9.74264 21.6152L9.94149 26.7975L6.61255 25.6147C6.4882 25.5728 6.35236 25.5815 6.23432 25.6388C6.11628 25.6961 6.0255 25.7975 5.98155 25.9212C5.93761 26.0448 5.94402 26.1808 5.9994 26.2998C6.05478 26.4187 6.1547 26.5111 6.27761 26.5571L10.3025 27.987C10.3751 28.011 10.4521 28.0188 10.5281 28.0099C10.604 28.0009 10.6771 27.9755 10.7422 27.9353L15.8772 24.6003C15.9323 24.5646 15.9798 24.5183 16.017 24.4642C16.0542 24.4101 16.0804 24.3492 16.094 24.285C16.1077 24.2208 16.1086 24.1545 16.0966 24.0899C16.0847 24.0253 16.0601 23.9638 16.0244 23.9087C15.9886 23.8536 15.9424 23.8061 15.8883 23.7689C15.8342 23.7317 15.7733 23.7055 15.7091 23.6918C15.6448 23.6782 15.5785 23.6773 15.514 23.6892C15.4494 23.7012 15.3878 23.7257 15.3327 23.7615L10.9351 26.6177L10.7391 21.5105L14.8215 18.7264L18.3803 21.779L17.0073 22.6716C16.9521 22.7073 16.9044 22.7535 16.867 22.8077C16.8297 22.8618 16.8033 22.9228 16.7896 22.9871C16.7758 23.0515 16.7749 23.1179 16.7869 23.1826C16.7988 23.2473 16.8235 23.309 16.8593 23.3641C16.8952 23.4193 16.9415 23.4668 16.9958 23.504C17.0501 23.5412 17.1111 23.5673 17.1755 23.5809C17.2399 23.5944 17.3063 23.5951 17.3709 23.583C17.4356 23.5708 17.4972 23.546 17.5523 23.51L19.1713 22.4574C19.1837 22.4612 22.7281 25.5199 22.7448 25.5172C22.818 25.5752 22.906 25.6114 22.9989 25.6216C23.0917 25.6318 23.1855 25.6155 23.2695 25.5747L26.4848 23.9997C26.6021 23.9404 26.6912 23.8372 26.733 23.7126C26.7747 23.5881 26.7658 23.452 26.708 23.334C26.6502 23.216 26.5483 23.1254 26.4243 23.082C26.3003 23.0385 26.1642 23.0456 26.0454 23.1018L23.7005 24.2503L24.4595 19.6827L28.5902 17.6882L28.9697 21.6738L27.8403 22.2268C27.7232 22.2863 27.6342 22.3894 27.5926 22.514C27.5509 22.6385 27.5599 22.7744 27.6176 22.8923C27.6754 23.0103 27.7772 23.1007 27.901 23.1442C28.0249 23.1877 28.161 23.1807 28.2797 23.1248L29.7197 22.42C29.811 22.3754 29.8866 22.304 29.9362 22.2153C29.9859 22.1266 30.0072 22.0248 29.9975 21.9236L29.5175 16.8784ZM10.154 20.699L5.38738 19.0669L11.1822 15.6047L14.0354 18.0521L10.154 20.699ZM22.7006 24.1676L7.73607 11.3311L10.0516 7.47321L23.4707 19.5336L22.7006 24.1676Z" fill="white"/>
  <path d="M18.7109 24.3949C18.6453 24.3949 18.5802 24.4078 18.5196 24.4329C18.4589 24.458 18.4038 24.4949 18.3573 24.5413C18.3109 24.5877 18.2741 24.6429 18.249 24.7035C18.2238 24.7642 18.2109 24.8292 18.2109 24.8949V25.3544C18.2109 25.487 18.2636 25.6142 18.3574 25.708C18.4512 25.8017 18.5783 25.8544 18.7109 25.8544C18.8435 25.8544 18.9707 25.8017 19.0645 25.708C19.1583 25.6142 19.2109 25.487 19.2109 25.3544V24.8949C19.211 24.8292 19.198 24.7642 19.1729 24.7035C19.1478 24.6429 19.111 24.5877 19.0645 24.5413C19.0181 24.4949 18.963 24.458 18.9023 24.4329C18.8416 24.4078 18.7766 24.3949 18.7109 24.3949Z" fill="white"/>
  <path d="M17.6649 25.9027H17.2059C17.0745 25.9046 16.9491 25.9581 16.8569 26.0516C16.7646 26.1452 16.7129 26.2713 16.7129 26.4027C16.7129 26.5341 16.7646 26.6602 16.8569 26.7538C16.9491 26.8474 17.0745 26.9009 17.2059 26.9027H17.6648C17.7962 26.9009 17.9216 26.8474 18.0138 26.7538C18.1061 26.6602 18.1578 26.5341 18.1578 26.4027C18.1578 26.2713 18.1061 26.1452 18.0139 26.0516C17.9216 25.9581 17.7963 25.9046 17.6649 25.9027Z" fill="white"/>
  <path d="M18.7109 26.9496C18.6453 26.9496 18.5802 26.9625 18.5196 26.9876C18.4589 27.0127 18.4038 27.0496 18.3573 27.096C18.3109 27.1424 18.2741 27.1976 18.249 27.2582C18.2238 27.3189 18.2109 27.3839 18.2109 27.4496V27.9088C18.2109 28.0414 18.2636 28.1686 18.3574 28.2624C18.4512 28.3561 18.5783 28.4088 18.7109 28.4088C18.8435 28.4088 18.9707 28.3561 19.0645 28.2624C19.1583 28.1686 19.2109 28.0414 19.2109 27.9088V27.4496C19.211 27.3839 19.198 27.3189 19.1729 27.2582C19.1478 27.1976 19.111 27.1424 19.0645 27.096C19.0181 27.0496 18.963 27.0127 18.9023 26.9876C18.8416 26.9625 18.7766 26.9496 18.7109 26.9496Z" fill="white"/>
  <path d="M20.2157 25.9027H19.7567C19.6253 25.9046 19.4999 25.9581 19.4076 26.0516C19.3154 26.1452 19.2637 26.2713 19.2637 26.4027C19.2637 26.5341 19.3154 26.6602 19.4076 26.7538C19.4999 26.8474 19.6253 26.9009 19.7567 26.9027H20.2156C20.347 26.9009 20.4724 26.8474 20.5646 26.7538C20.6569 26.6602 20.7086 26.5341 20.7086 26.4027C20.7086 26.2713 20.6569 26.1452 20.5647 26.0516C20.4724 25.9581 20.347 25.9046 20.2157 25.9027Z" fill="white"/>
  <path d="M5.21875 14.3385C5.35136 14.3385 5.47854 14.2858 5.5723 14.1921C5.66607 14.0983 5.71875 13.9711 5.71875 13.8385V13.3793C5.71875 13.2467 5.66607 13.1195 5.5723 13.0257C5.47854 12.932 5.35136 12.8793 5.21875 12.8793C5.08614 12.8793 4.95896 12.932 4.8652 13.0257C4.77143 13.1195 4.71875 13.2467 4.71875 13.3793V13.8385C4.71875 13.9711 4.77143 14.0983 4.8652 14.1921C4.95896 14.2858 5.08614 14.3385 5.21875 14.3385Z" fill="white"/>
  <path d="M3.71368 15.3832H4.1729C4.30429 15.3813 4.42966 15.3278 4.52191 15.2343C4.61416 15.1407 4.66588 15.0146 4.66588 14.8832C4.66588 14.7518 4.61416 14.6257 4.52191 14.5321C4.42966 14.4385 4.30429 14.385 4.1729 14.3832H3.71368C3.5823 14.385 3.45693 14.4385 3.36467 14.5321C3.27242 14.6257 3.2207 14.7518 3.2207 14.8832C3.2207 15.0146 3.27242 15.1407 3.36467 15.2343C3.45693 15.3278 3.5823 15.3813 3.71368 15.3832Z" fill="white"/>
  <path d="M5.21875 16.8893C5.35136 16.8893 5.47853 16.8366 5.5723 16.7428C5.66606 16.6491 5.71874 16.5219 5.71875 16.3893V15.9301C5.71875 15.7974 5.66607 15.6703 5.5723 15.5765C5.47854 15.4827 5.35136 15.4301 5.21875 15.4301C5.08614 15.4301 4.95896 15.4827 4.8652 15.5765C4.77143 15.6703 4.71875 15.7974 4.71875 15.9301V16.3893C4.71875 16.5219 4.77143 16.6491 4.8652 16.7428C4.95896 16.8366 5.08614 16.8893 5.21875 16.8893Z" fill="white"/>
  <path d="M6.2664 15.3832H6.72563C6.85702 15.3813 6.98239 15.3278 7.07464 15.2343C7.16689 15.1407 7.21861 15.0146 7.21861 14.8832C7.21861 14.7518 7.16689 14.6257 7.07464 14.5321C6.98239 14.4385 6.85702 14.385 6.72563 14.3832H6.26643C6.13505 14.385 6.00967 14.4385 5.91742 14.5321C5.82516 14.6257 5.77344 14.7518 5.77344 14.8832C5.77343 15.0146 5.82515 15.1407 5.9174 15.2343C6.00965 15.3278 6.13502 15.3813 6.2664 15.3832Z" fill="white"/>
  <path d="M24.6113 8.11218C24.677 8.1122 24.742 8.09928 24.8027 8.07415C24.8634 8.04903 24.9185 8.0122 24.9649 7.96577C25.0114 7.91934 25.0482 7.86421 25.0733 7.80354C25.0984 7.74287 25.1113 7.67785 25.1113 7.61218V7.15271C25.1113 7.0201 25.0587 6.89292 24.9649 6.79916C24.8711 6.70539 24.7439 6.65271 24.6113 6.65271C24.4787 6.65271 24.3515 6.70539 24.2578 6.79916C24.164 6.89292 24.1113 7.0201 24.1113 7.15271V7.61218C24.1113 7.67785 24.1242 7.74287 24.1494 7.80354C24.1745 7.86421 24.2113 7.91934 24.2577 7.96577C24.3042 8.0122 24.3593 8.04903 24.42 8.07415C24.4806 8.09928 24.5457 8.1122 24.6113 8.11218Z" fill="white"/>
  <path d="M23.1062 9.16052H23.5657C23.6971 9.15866 23.8225 9.10516 23.9148 9.01159C24.007 8.91803 24.0587 8.79191 24.0587 8.66051C24.0587 8.52911 24.007 8.403 23.9147 8.30943C23.8225 8.21587 23.6971 8.16238 23.5657 8.16052H23.1063C22.9749 8.16238 22.8495 8.21587 22.7573 8.30943C22.665 8.403 22.6133 8.52911 22.6133 8.66051C22.6133 8.79191 22.665 8.91803 22.7572 9.01159C22.8495 9.10516 22.9749 9.15866 23.1062 9.16052Z" fill="white"/>
  <path d="M24.6113 10.6666C24.677 10.6666 24.742 10.6537 24.8027 10.6286C24.8634 10.6035 24.9185 10.5667 24.9649 10.5202C25.0114 10.4738 25.0482 10.4187 25.0733 10.358C25.0984 10.2973 25.1113 10.2323 25.1113 10.1666V9.7074C25.1113 9.57479 25.0587 9.44761 24.9649 9.35384C24.8711 9.26008 24.7439 9.2074 24.6113 9.2074C24.4787 9.2074 24.3515 9.26008 24.2578 9.35384C24.164 9.44761 24.1113 9.57479 24.1113 9.7074V10.1666C24.1113 10.2323 24.1242 10.2973 24.1494 10.358C24.1745 10.4187 24.2113 10.4738 24.2577 10.5202C24.3042 10.5667 24.3593 10.6035 24.42 10.6286C24.4806 10.6537 24.5457 10.6666 24.6113 10.6666Z" fill="white"/>
  <path d="M25.657 9.16052H26.1165C26.2479 9.15866 26.3733 9.10516 26.4655 9.01159C26.5578 8.91803 26.6095 8.79191 26.6095 8.66051C26.6095 8.52911 26.5578 8.403 26.4655 8.30943C26.3733 8.21587 26.2479 8.16238 26.1165 8.16052H25.6571C25.5257 8.16238 25.4003 8.21587 25.308 8.30943C25.2158 8.403 25.1641 8.52911 25.1641 8.66051C25.1641 8.79191 25.2158 8.91803 25.308 9.01159C25.4003 9.10516 25.5256 9.15866 25.657 9.16052Z" fill="white"/>
</svg>