<?xml version="1.0" encoding="utf-8"?>
<svg width="171" height="108" viewBox="0 0 171 108" fill="none" xmlns="http://www.w3.org/2000/svg" xmlns:bx="https://boxy-svg.com"><defs><linearGradient id="paint0_linear_859_2267" x1="111" y1="47.7113" x2="3" y2="47.7113" gradientUnits="userSpaceOnUse" gradientTransform="matrix(1.00478, 0, 0, 0.994177, 1.118871, -3.775792)"><stop stop-color="#F9D58C" stop-opacity="0"/><stop offset="1" stop-color="#F9D58C"/></linearGradient><bx:export><bx:file format="svg"/></bx:export></defs><path d="M 107.167 1.615 L 152.111 1.615 C 160.711 1.615 167.681 8.7 167.684 17.433 L 167.692 90.584 C 167.693 99.319 160.724 106.4 152.121 106.4 L 18.8 106.4 C 10.2 106.4 3.229 99.319 3.227 90.584 L 3.222 51.149" stroke="#D9D9D9" style="fill-rule: nonzero;"/><path d="M 1.12 43.657 C 1.12 45.305 2.471 46.639 4.134 46.639 C 5.796 46.639 7.15 45.305 7.15 43.657 L 1.12 43.657 Z M 17.932 1.085 L 16.892 -1.715 L 17.932 1.085 Z M 4.134 43.657 L 7.15 43.657 L 7.15 16.318 L 4.134 16.318 L 1.12 16.318 L 1.12 43.657 L 4.134 43.657 Z M 4.134 16.318 L 7.15 16.318 C 7.15 14.001 9.162 7.449 18.972 3.884 L 17.932 1.085 L 16.892 -1.715 C 4.858 2.66 1.12 11.347 1.12 16.318 L 4.134 16.318 Z M 25.946 -0.086 L 25.946 2.897 L 112.652 2.897 L 112.652 -0.086 L 112.652 -3.068 L 25.946 -3.068 L 25.946 -0.086 Z M 17.932 1.085 L 18.972 3.884 C 21.044 3.132 23.38 2.897 25.946 2.897 L 25.946 -0.086 L 25.946 -3.068 C 23.074 -3.068 19.927 -2.817 16.892 -1.715 L 17.932 1.085 Z" fill="url(#paint0_linear_859_2267)" style="stroke-width: 1; fill-rule: nonzero; paint-order: stroke; transform-box: fill-box; transform-origin: 50% 50%;" transform="matrix(0.999996, 0.002723, -0.002723, 0.999996, 0, 0)"/></svg>