<svg width="69" height="68" viewBox="0 0 69 68" fill="none" xmlns="http://www.w3.org/2000/svg">
<rect x="0.5" y="0.5" width="67" height="67" rx="33.5" stroke="#D9D9D9"/>
<path d="M21.7305 37.7257C22.6128 38.2332 23.6602 38.3703 24.6434 38.1071C25.6266 37.8438 26.4653 37.2016 26.9759 36.3211L31.8484 27.8934C31.9863 27.6546 32.0758 27.391 32.1118 27.1176C32.1478 26.8443 32.1295 26.5665 32.0581 26.3002C31.9866 26.0338 31.8634 25.7842 31.6954 25.5656C31.5274 25.3469 31.318 25.1635 31.0791 25.0259L29.622 24.1866" stroke="black" stroke-width="0.761335" stroke-linecap="round" stroke-linejoin="round"/>
<path d="M21.5362 37.6151C20.7345 37.1508 20.1499 36.3874 19.9106 35.4924C19.6713 34.5975 19.7969 33.6442 20.2598 32.8417L23.9491 26.4306C24.2258 25.9489 24.3002 25.3772 24.156 24.8407C24.0117 24.3042 23.6607 23.8469 23.1797 23.5689L20.4987 22.0244C20.261 21.8856 19.9981 21.7952 19.7252 21.7585C19.4524 21.7217 19.1749 21.7394 18.9089 21.8103C18.6429 21.8813 18.3936 22.0042 18.1753 22.172C17.957 22.3398 17.774 22.5491 17.637 22.7879L14.6471 28.0101C14.0046 29.1306 13.8321 30.4601 14.1675 31.7075C14.5028 32.9549 15.3186 34.0186 16.4364 34.666L18.5113 35.8666L21.5362 37.6151Z" stroke="black" stroke-width="0.761335" stroke-linecap="round" stroke-linejoin="round"/>
<path d="M34.7982 22.6597C35.2358 22.9109 35.6195 23.2461 35.9273 23.6459C36.2352 24.0457 36.4611 24.5024 36.5921 24.9897C36.7231 25.477 36.7567 25.9853 36.6909 26.4856C36.6251 26.9859 36.4612 27.4683 36.2086 27.9051L32.7699 33.8384C32.4908 34.3197 32.0324 34.6709 31.495 34.8151C30.9576 34.9592 30.385 34.8847 29.9024 34.6077L28.4453 33.7626" stroke="black" stroke-width="0.761335" stroke-linecap="round" stroke-linejoin="round"/>
<path d="M21.9548 22.8812L22.8174 21.3891C23.4671 20.2658 24.5361 19.4464 25.7896 19.1109C27.0432 18.7754 28.3786 18.9512 29.5025 19.5998L31.5774 20.8005L34.6023 22.549C33.7991 22.0865 32.8453 21.9619 31.9502 22.2023C31.0552 22.4427 30.2922 23.0286 29.8289 23.8312L24.7699 32.5562C24.4919 33.0371 24.0346 33.3882 23.4981 33.5324C22.9616 33.6766 22.3899 33.6022 21.9082 33.3255L20.4453 32.4804" stroke="black" stroke-width="0.761335" stroke-linecap="round" stroke-linejoin="round"/>
<path d="M48.0024 26.5577C45.9644 26.6643 44.2651 28.3825 44.1597 30.4446C44.1566 30.495 44.1642 30.5455 44.1819 30.5927C44.1996 30.6399 44.227 30.6828 44.2624 30.7184C44.2978 30.754 44.3403 30.7816 44.387 30.7994C44.4338 30.8171 44.4838 30.8245 44.5336 30.8212C46.5716 30.7146 48.2709 28.9979 48.3763 26.9365C48.3794 26.8861 48.3718 26.8356 48.3541 26.7884C48.3364 26.7412 48.309 26.6983 48.2736 26.6627C48.2382 26.6271 48.1957 26.5994 48.149 26.5817C48.1022 26.564 48.0522 26.5565 48.0024 26.5599V26.5577ZM47.5414 27.4019C47.2582 28.6767 46.2553 29.69 44.9946 29.977C45.2771 28.7023 46.2806 27.6876 47.5414 27.4019ZM41.076 31.5318C39.9445 31.5318 38.5952 31.8416 37.5327 32.9089C36.4687 33.9748 35.7266 35.7626 35.7266 38.6376C35.7266 41.5339 36.7385 43.8177 37.889 45.3881C38.4638 46.1733 39.0766 46.7922 39.6276 47.2093C40.18 47.6257 40.6255 47.8751 41.0774 47.8751C42.199 47.8751 42.8111 47.6776 43.3073 47.4985C43.8027 47.3173 44.1625 47.1645 45.0009 47.1645C45.84 47.1645 46.1998 47.3173 46.6946 47.4985C47.1914 47.6776 47.8035 47.8751 48.9251 47.8751C49.6124 47.8751 50.5577 47.4431 51.5324 46.4753C52.5092 45.5089 53.479 43.9968 53.985 41.7904C53.9983 41.7438 54.0019 41.6949 53.9955 41.6469C53.9892 41.5988 53.973 41.5525 53.9479 41.5109C53.9229 41.4693 53.8896 41.4333 53.8501 41.405C53.8105 41.3766 53.7656 41.3567 53.718 41.3463C51.9941 40.9342 50.7088 39.4185 50.7088 37.5717C50.7088 36.0198 51.6062 34.6726 52.9154 34.0401C52.9596 34.0172 52.9985 33.9853 53.0295 33.9465C53.0606 33.9077 53.0831 33.8628 53.0957 33.8149C53.1082 33.7669 53.1106 33.7168 53.1025 33.6678C53.0945 33.6189 53.0762 33.5722 53.049 33.5307C51.9435 31.8302 50.2555 31.5318 48.9244 31.5318C47.8141 31.5318 47.0438 31.7272 46.4507 31.9084C45.8555 32.0917 45.4563 32.2424 45.0009 32.2424C44.5441 32.2424 44.1457 32.0917 43.5518 31.9084C42.958 31.7279 42.1857 31.5318 41.076 31.5318ZM41.076 32.2424C42.1076 32.2424 42.764 32.4023 43.3283 32.5763C43.8934 32.7483 44.386 32.953 45.0009 32.953C45.6151 32.953 46.1078 32.7483 46.6735 32.5763C47.2378 32.4023 47.8935 32.2424 48.9244 32.2424C50.0791 32.2424 51.3328 32.484 52.2682 33.7083C50.9365 34.5205 49.994 35.9061 49.994 37.5717C49.994 39.6004 51.3293 41.2852 53.16 41.902C52.6667 43.8014 51.8704 45.1444 51.0419 45.9651C50.1655 46.8341 49.2526 47.1645 48.9244 47.1645C47.8815 47.1645 47.4219 47.0068 46.9398 46.8306C46.4584 46.6565 45.9349 46.454 45.0002 46.454C44.0655 46.454 43.5427 46.6565 43.0606 46.8306C42.5792 47.0068 42.1203 47.1645 41.0767 47.1645C40.9783 47.1645 40.5398 47.0011 40.0507 46.6316C39.5636 46.2621 38.9825 45.7199 38.4463 44.988C37.3745 43.5242 36.4399 41.3712 36.4399 38.6376C36.4399 35.8827 37.1244 34.2981 38.0225 33.3971C38.9206 32.4961 40.0689 32.2424 41.076 32.2424Z" fill="black"/>
<rect x="42.7357" y="13.9148" width="3.80668" height="41.1121" transform="rotate(22.1384 42.7357 13.9148)" fill="black" stroke="white" stroke-width="3.04534"/>
<path d="M50.4432 59.9007C50.9354 60.7533 52.0285 61.0493 52.8541 60.5131C56.0924 58.4098 58.9525 55.7678 61.3084 52.6974C64.0265 49.1552 66.0203 45.1122 67.1759 40.7994C68.3315 36.4866 68.6263 31.9884 68.0436 27.5617C67.5384 23.7247 66.3825 20.0066 64.6297 16.5659C64.1828 15.6887 63.0882 15.3986 62.2356 15.8908C61.383 16.383 61.096 17.4711 61.5375 18.351C63.0593 21.3841 64.065 24.6543 64.509 28.027C65.0307 31.9896 64.7668 36.0161 63.7324 39.8767C62.6979 43.7373 60.9132 47.3563 58.4801 50.5272C56.4092 53.226 53.9031 55.5552 51.0687 57.4211C50.2464 57.9623 49.9509 59.0481 50.4432 59.9007Z" fill="url(#paint0_linear_1091_6757)"/>
<defs>
<linearGradient id="paint0_linear_1091_6757" x1="21.8896" y1="78.4444" x2="-12.1104" y2="19.5547" gradientUnits="userSpaceOnUse">
<stop stop-color="white"/>
<stop offset="0.475962" stop-color="#F9D58C"/>
<stop offset="1" stop-color="#F9D58C"/>
</linearGradient>
</defs>
</svg>
