<svg width="69" height="68" viewBox="0 0 69 68" fill="none" xmlns="http://www.w3.org/2000/svg">
<rect x="0.833984" y="0.5" width="67" height="67" rx="33.5" fill="white"/>
<rect x="0.833984" y="0.5" width="67" height="67" rx="33.5" stroke="#D9D9D9"/>
<path d="M29.7832 46.3904C30.9759 47.0765 32.392 47.2618 33.7211 46.9059C35.0502 46.55 36.1841 45.6818 36.8744 44.4915L43.4614 33.0982C43.6478 32.7754 43.7689 32.4191 43.8175 32.0495C43.8661 31.6799 43.8415 31.3044 43.7449 30.9444C43.6483 30.5843 43.4817 30.2469 43.2546 29.9513C43.0275 29.6557 42.7443 29.4078 42.4213 29.2217L40.4516 28.0871" stroke="black" stroke-width="0.761335" stroke-linecap="round" stroke-linejoin="round"/>
<path d="M29.5219 46.2404C28.4382 45.6127 27.6479 44.5807 27.3244 43.3708C27.0009 42.1609 27.1706 40.8722 27.7964 39.7874L32.7839 31.1202C33.158 30.4691 33.2585 29.6961 33.0636 28.9709C32.8686 28.2457 32.394 27.6274 31.7438 27.2516L28.1194 25.1636C27.798 24.9759 27.4426 24.8537 27.0737 24.8041C26.7049 24.7544 26.3298 24.7782 25.9702 24.8742C25.6106 24.9701 25.2735 25.1363 24.9784 25.3631C24.6833 25.5899 24.436 25.8729 24.2508 26.1957L20.2088 33.2555C19.3402 34.7704 19.1071 36.5676 19.5604 38.254C20.0137 39.9403 21.1166 41.3784 22.6277 42.2535L25.4327 43.8767L29.5219 46.2404Z" stroke="black" stroke-width="0.761335" stroke-linecap="round" stroke-linejoin="round"/>
<path d="M47.4515 26.0228C48.0431 26.3624 48.5619 26.8155 48.978 27.356C49.3942 27.8965 49.6996 28.5139 49.8767 29.1726C50.0539 29.8314 50.0992 30.5187 50.0103 31.195C49.9213 31.8714 49.6998 32.5235 49.3583 33.114L44.7096 41.1351C44.3323 41.7858 43.7126 42.2605 42.9861 42.4554C42.2596 42.6504 41.4854 42.5496 40.8331 42.1751L38.8633 41.0326" stroke="black" stroke-width="0.761335" stroke-linecap="round" stroke-linejoin="round"/>
<path d="M30.0856 26.3221L31.2517 24.305C32.13 22.7864 33.5752 21.6786 35.2698 21.2251C36.9644 20.7715 38.7697 21.0092 40.2891 21.8861L43.0941 23.5092L47.1834 25.8729C46.0976 25.2478 44.8081 25.0793 43.5981 25.4043C42.3882 25.7293 41.3567 26.5213 40.7303 27.6064L33.8912 39.4015C33.5154 40.0517 32.8971 40.5263 32.1719 40.7213C31.4467 40.9162 30.6738 40.8156 30.0226 40.4416L28.0449 39.2991" stroke="black" stroke-width="0.761335" stroke-linecap="round" stroke-linejoin="round"/>
<path d="M50.7772 59.9007C51.2694 60.7533 52.3625 61.0493 53.1881 60.5131C56.4264 58.4098 59.2865 55.7678 61.6424 52.6974C64.3605 49.1552 66.3543 45.1122 67.5099 40.7994C68.6655 36.4866 68.9603 31.9884 68.3775 27.5617C67.8724 23.7247 66.7165 20.0066 64.9637 16.5659C64.5168 15.6887 63.4221 15.3986 62.5696 15.8908C61.717 16.383 61.43 17.4711 61.8714 18.351C63.3932 21.3841 64.399 24.6543 64.843 28.027C65.3647 31.9896 65.1008 36.0161 64.0663 39.8767C63.0319 43.7373 61.2472 47.3563 58.8141 50.5272C56.7432 53.226 54.2371 55.5552 51.4027 57.4211C50.5804 57.9623 50.2849 59.0481 50.7772 59.9007Z" fill="url(#paint0_linear_1257_201)"/>
<defs>
<linearGradient id="paint0_linear_1257_201" x1="22.2235" y1="78.4444" x2="-11.7765" y2="19.5547" gradientUnits="userSpaceOnUse">
<stop stop-color="white"/>
<stop offset="0.475962" stop-color="#F9D58C"/>
<stop offset="1" stop-color="#F9D58C"/>
</linearGradient>
</defs>
</svg>
