<svg width="7" height="7" viewBox="0 0 7 7" fill="none" xmlns="http://www.w3.org/2000/svg">
<g clip-path="url(#clip0_7699_3405)">
<path d="M0.616602 0.00107336C0.616602 0.00380754 0.636426 0.0325184 0.661035 0.0646477C0.772461 0.212304 0.845606 0.415331 0.887305 0.691503C0.905078 0.811816 0.909864 0.992968 0.910547 1.56445V2.12363H0.615235C0.381445 2.12363 0.308984 2.12158 0.27207 2.11338C0.20166 2.09834 0.119629 2.05527 0.0635742 2.00332C0.0375977 1.97939 0.0129883 1.95957 0.00820313 1.95957C0.00136719 1.95957 0.000683594 1.99101 0.00341797 2.09766C0.00683594 2.24736 0.0157227 2.29385 0.0622071 2.40459C0.118945 2.53857 0.241309 2.6582 0.378711 2.71221L0.435449 2.73408L0.67334 2.7375L0.910547 2.74023V3.04033V3.34043H0.591992H0.274121L0.221484 3.31855C0.144922 3.28711 0.114844 3.2666 0.0157227 3.18047L0 3.16611L0.00341797 3.30967C0.00615235 3.43955 0.00820313 3.45937 0.0246094 3.51475C0.0745117 3.68291 0.168164 3.81211 0.294629 3.8873C0.378711 3.93721 0.425879 3.94951 0.558496 3.95635C0.622754 3.95908 0.728028 3.96182 0.792969 3.96182L0.911914 3.9625L0.908496 4.63721C0.905762 5.29004 0.905078 5.31533 0.890723 5.40488C0.841504 5.71318 0.765625 5.90527 0.632324 6.05977L0.607031 6.08984L1.87441 6.08643C3.21699 6.08301 3.17324 6.08369 3.47061 6.05088C3.68047 6.02695 3.89922 5.9832 4.1166 5.921C4.31826 5.86289 4.45703 5.80889 4.63408 5.7207C4.91367 5.57988 5.10029 5.44795 5.30264 5.24492C5.55352 4.99336 5.70459 4.76162 5.86182 4.38633C5.88779 4.3248 5.96846 4.06846 5.9835 4.00146C5.99033 3.96865 5.99444 3.96182 6.00879 3.95771C6.03819 3.95088 6.69375 3.96113 6.73819 3.96934C6.80039 3.98096 6.86944 4.01787 6.93164 4.07187C6.9624 4.09785 6.99112 4.11973 6.99522 4.11973C7.00137 4.11973 7.00205 4.08281 6.99932 3.97754C6.99522 3.81348 6.9877 3.77793 6.93301 3.66445C6.86328 3.51953 6.76279 3.42588 6.61514 3.36777L6.56045 3.3459L6.32461 3.34248L6.08877 3.33906V3.04307L6.08809 2.74775L6.32119 2.74228C6.61172 2.73613 6.71426 2.7416 6.77783 2.76416C6.84141 2.78672 6.89336 2.81885 6.9501 2.86943L6.99795 2.9125L7 2.89199C7.00137 2.88105 7.00137 2.8168 6.99932 2.74912C6.9959 2.60488 6.98291 2.54951 6.92686 2.43467C6.86807 2.31572 6.78809 2.23437 6.66983 2.1749C6.59053 2.13457 6.57071 2.13252 6.25283 2.12773C6.06621 2.12432 5.99785 2.1209 5.99238 2.11475C5.98828 2.11064 5.97803 2.07852 5.96914 2.04502C5.88643 1.71963 5.71963 1.371 5.52207 1.1085C5.20967 0.69287 4.75576 0.37705 4.21367 0.197948C3.94502 0.109765 3.69004 0.057128 3.33047 0.0167961C3.19922 0.00175667 3.18008 0.00175667 1.90723 -0.000293732C1.19697 -0.0016613 0.616602 -0.000977516 0.616602 0.00107336ZM3.05703 0.318261C3.20469 0.332616 3.30654 0.347655 3.4043 0.36748C3.93887 0.478222 4.31963 0.725683 4.59238 1.13994C4.69561 1.2958 4.82276 1.59453 4.88223 1.81875C4.90479 1.90488 4.94375 2.0874 4.94375 2.10928V2.12363H3.38926H1.83545L1.82998 1.40312C1.82725 1.00664 1.82725 0.597167 1.82998 0.493261L1.83545 0.303905L2.40693 0.307323C2.75762 0.309374 3.0085 0.313476 3.05703 0.318261ZM5.01485 2.80176C5.02031 2.88174 5.02031 3.21055 5.01416 3.28369L5.01006 3.34043H3.42207H1.8334V3.04307V2.7457L2.04395 2.74365C2.15947 2.74297 2.87383 2.7416 3.63193 2.74023L5.01006 2.73887L5.01485 2.80176ZM4.94033 3.9625C4.9499 3.97822 4.88086 4.26191 4.82822 4.42051C4.66279 4.91611 4.37158 5.27842 3.95938 5.50059C3.74883 5.61475 3.54785 5.67969 3.25596 5.72959C3.02354 5.76924 3.02832 5.76924 2.40967 5.77197L1.8334 5.77471V4.86895V3.9625L3.13428 3.96045C3.84932 3.95977 4.54727 3.9584 4.68535 3.95703C4.83848 3.95635 4.9376 3.9584 4.94033 3.9625Z" fill="#009E43"/>
</g>
<defs>
<clipPath id="clip0_7699_3405">
<rect width="7" height="6.09082" fill="white"/>
</clipPath>
</defs>
</svg>
