<svg width="12" height="12" viewBox="0 0 12 12" fill="none" xmlns="http://www.w3.org/2000/svg">
<rect width="12" height="12" rx="6" fill="white"/>
<path d="M7.03125 6.23437C7.03125 6.42907 6.97352 6.61938 6.86535 6.78126C6.75719 6.94314 6.60345 7.06931 6.42358 7.14382C6.24371 7.21832 6.04578 7.23782 5.85483 7.19984C5.66388 7.16185 5.48848 7.0681 5.35082 6.93043C5.21315 6.79277 5.1194 6.61737 5.08141 6.42642C5.04343 6.23547 5.06293 6.03754 5.13743 5.85767C5.21194 5.6778 5.33811 5.52406 5.49999 5.4159C5.66187 5.30773 5.85218 5.25 6.04688 5.25C6.30795 5.25 6.55833 5.35371 6.74293 5.53832C6.92754 5.72292 7.03125 5.9733 7.03125 6.23437ZM3.23438 5.25C3.03968 5.25 2.84937 5.30773 2.68749 5.4159C2.52561 5.52406 2.39944 5.6778 2.32493 5.85767C2.25043 6.03754 2.23093 6.23547 2.26891 6.42642C2.3069 6.61737 2.40065 6.79277 2.53832 6.93043C2.67598 7.0681 2.85138 7.16185 3.04233 7.19984C3.23328 7.23782 3.43121 7.21832 3.61108 7.14382C3.79095 7.06931 3.94469 6.94314 4.05285 6.78126C4.16102 6.61938 4.21875 6.42907 4.21875 6.23437C4.21875 5.9733 4.11504 5.72292 3.93043 5.53832C3.74583 5.35371 3.49545 5.25 3.23438 5.25ZM8.85938 5.25C8.66468 5.25 8.47437 5.30773 8.31249 5.4159C8.15061 5.52406 8.02444 5.6778 7.94993 5.85767C7.87543 6.03754 7.85593 6.23547 7.89392 6.42642C7.9319 6.61737 8.02565 6.79277 8.16332 6.93043C8.30098 7.0681 8.47638 7.16185 8.66733 7.19984C8.85828 7.23782 9.05621 7.21832 9.23608 7.14382C9.41595 7.06931 9.56969 6.94314 9.67785 6.78126C9.78602 6.61938 9.84375 6.42907 9.84375 6.23437C9.84375 6.1051 9.81829 5.9771 9.76882 5.85767C9.71935 5.73824 9.64684 5.62972 9.55543 5.53832C9.46403 5.44691 9.35551 5.3744 9.23608 5.32493C9.11665 5.27546 8.98865 5.25 8.85938 5.25Z" fill="black"/>
</svg>
