<svg width="20" height="20" viewBox="0 0 20 20" fill="none" xmlns="http://www.w3.org/2000/svg">
<g clip-path="url(#clip0_6235_13421)">
<path d="M14.9996 0H4.99988C2.25019 0 0 2.25019 0 4.99988V15.0001C0 17.7491 2.25019 20 4.99988 20H14.9996C17.7493 20 19.9995 17.7491 19.9995 15.0001V4.99988C19.9995 2.25019 17.7493 0 14.9996 0ZM18.3328 15.0001C18.3328 16.8376 16.8381 18.3333 14.9996 18.3333H4.99988C3.16218 18.3333 1.66671 16.8376 1.66671 15.0001V4.99988C1.66671 3.16193 3.16218 1.66671 4.99988 1.66671H14.9996C16.8381 1.66671 18.3328 3.16193 18.3328 4.99988V15.0001Z" fill="#EEAD1E"/>
<path d="M15.4179 5.83588C16.1083 5.83588 16.6679 5.27625 16.6679 4.58591C16.6679 3.89557 16.1083 3.33594 15.4179 3.33594C14.7276 3.33594 14.168 3.89557 14.168 4.58591C14.168 5.27625 14.7276 5.83588 15.4179 5.83588Z" fill="#EEAD1E"/>
<path d="M9.99988 5C7.23793 5 5 7.23818 5 9.99988C5 12.7606 7.23793 15.0002 9.99988 15.0002C12.761 15.0002 14.9998 12.7606 14.9998 9.99988C14.9998 7.23818 12.761 5 9.99988 5ZM9.99988 13.3335C8.15915 13.3335 6.66671 11.8411 6.66671 9.99988C6.66671 8.15866 8.15915 6.66671 9.99988 6.66671C11.8406 6.66671 13.3331 8.15866 13.3331 9.99988C13.3331 11.8411 11.8406 13.3335 9.99988 13.3335Z" fill="#EEAD1E"/>
</g>
<defs>
<clipPath id="clip0_6235_13421">
<rect width="20" height="20" fill="white"/>
</clipPath>
</defs>
</svg>
