<svg width="28" height="28" viewBox="0 0 28 28" fill="none" xmlns="http://www.w3.org/2000/svg">
<path d="M5.25092 19.2482V19.467C5.25092 19.8731 5.41225 20.2626 5.69942 20.5498C5.98658 20.8369 6.37606 20.9982 6.78217 20.9982H12.4697C12.8758 20.9982 13.2653 20.8369 13.5524 20.5498C13.8396 20.2626 14.0009 19.8731 14.0009 19.467V19.2482C14.0185 18.4933 13.7848 17.7539 13.3366 17.1462C12.8884 16.5384 12.2511 16.0967 11.5247 15.8904C11.9532 15.5061 12.255 15.0008 12.3901 14.4413C12.5253 13.8818 12.4875 13.2945 12.2818 12.7569C12.076 12.2193 11.712 11.7569 11.2378 11.4306C10.7636 11.1044 10.2015 10.9297 9.62592 10.9297C9.05033 10.9297 8.48828 11.1044 8.01407 11.4306C7.53987 11.7569 7.17583 12.2193 6.97007 12.7569C6.76431 13.2945 6.72653 13.8818 6.86171 14.4413C6.99689 15.0008 7.29868 15.5061 7.72717 15.8904C7.00075 16.0967 6.3634 16.5384 5.9152 17.1462C5.46701 17.7539 5.23335 18.4933 5.25092 19.2482ZM9.62592 11.8107C10.0153 11.8107 10.3959 11.9262 10.7197 12.1425C11.0435 12.3589 11.2958 12.6663 11.4448 13.0261C11.5938 13.3858 11.6328 13.7817 11.5568 14.1636C11.4809 14.5455 11.2934 14.8963 11.018 15.1716C10.7427 15.4469 10.3919 15.6345 10.01 15.7104C9.62811 15.7864 9.23226 15.7474 8.87252 15.5984C8.51277 15.4494 8.2053 15.197 7.98897 14.8733C7.77264 14.5495 7.65717 14.1689 7.65717 13.7795C7.65717 13.2573 7.86459 12.7566 8.23381 12.3874C8.60302 12.0182 9.10378 11.8107 9.62592 11.8107ZM8.75092 16.6232H10.5009C10.8478 16.6155 11.1926 16.6781 11.5146 16.8072C11.8366 16.9364 12.1291 17.1295 12.3744 17.3748C12.6197 17.6201 12.8128 17.9126 12.9419 18.2346C13.0711 18.5566 13.1337 18.9014 13.1259 19.2482V19.467C13.1259 19.641 13.0568 19.808 12.9337 19.931C12.8106 20.0541 12.6437 20.1232 12.4697 20.1232H6.78217C6.60812 20.1232 6.44121 20.0541 6.31813 19.931C6.19506 19.808 6.12592 19.641 6.12592 19.467V19.2482C6.11815 18.9014 6.18074 18.5566 6.30991 18.2346C6.43908 17.9126 6.63215 17.6201 6.87747 17.3748C7.12278 17.1295 7.41527 16.9364 7.73726 16.8072C8.05925 16.6781 8.40408 16.6155 8.75092 16.6232Z" fill="#EEAD1E"/>
<path d="M23.1875 16.1875C23.0715 16.1875 22.9602 16.2336 22.8781 16.3156C22.7961 16.3977 22.75 16.509 22.75 16.625V22.0938C22.75 22.2678 22.6809 22.4347 22.5578 22.5578C22.4347 22.6809 22.2678 22.75 22.0938 22.75H4.15625C3.9822 22.75 3.81528 22.6809 3.69221 22.5578C3.56914 22.4347 3.5 22.2678 3.5 22.0938V9.40625C3.5 9.2322 3.56914 9.06528 3.69221 8.94221C3.81528 8.81914 3.9822 8.75 4.15625 8.75H13.7812C13.8973 8.75 14.0086 8.70391 14.0906 8.62186C14.1727 8.53981 14.2188 8.42853 14.2188 8.3125C14.2188 8.19647 14.1727 8.08519 14.0906 8.00314C14.0086 7.92109 13.8973 7.875 13.7812 7.875H4.15625C3.75014 7.875 3.36066 8.03633 3.07349 8.32349C2.78633 8.61066 2.625 9.00014 2.625 9.40625V22.0938C2.625 22.4999 2.78633 22.8893 3.07349 23.1765C3.36066 23.4637 3.75014 23.625 4.15625 23.625H22.0938C22.4999 23.625 22.8893 23.4637 23.1765 23.1765C23.4637 22.8893 23.625 22.4999 23.625 22.0938V16.625C23.625 16.509 23.5789 16.3977 23.4969 16.3156C23.4148 16.2336 23.3035 16.1875 23.1875 16.1875Z" fill="#EEAD1E"/>
<path d="M22.802 8.00445L20.0501 10.7563L18.3176 9.02382C18.2355 8.94173 18.1242 8.89561 18.0081 8.89561C17.892 8.89561 17.7806 8.94173 17.6985 9.02382C17.6164 9.10591 17.5703 9.21726 17.5703 9.33335C17.5703 9.44945 17.6164 9.56079 17.6985 9.64288L19.7395 11.6838C19.7802 11.7248 19.8286 11.7572 19.8819 11.7794C19.9352 11.8015 19.9924 11.8129 20.0501 11.8129C20.1659 11.8124 20.2769 11.766 20.3585 11.6838L23.421 8.62132C23.4963 8.53796 23.5366 8.42886 23.5337 8.31659C23.5307 8.20432 23.4847 8.09749 23.4051 8.01822C23.3256 7.93895 23.2186 7.8933 23.1063 7.89074C22.994 7.88818 22.8851 7.92889 22.802 8.00445Z" fill="#EEAD1E"/>
<path d="M25.8718 5.57252C25.861 5.47148 25.8154 5.37736 25.7427 5.30631C25.6701 5.23526 25.575 5.19171 25.4737 5.18314C24.6392 5.0752 23.8245 4.84832 23.0543 4.50939C22.2588 4.17814 21.5177 3.72905 20.8559 3.1772C20.7752 3.10342 20.6699 3.0625 20.5606 3.0625C20.4513 3.0625 20.3459 3.10342 20.2653 3.1772C19.6036 3.72929 18.8625 4.17841 18.0668 4.50939C17.3007 4.84689 16.4905 5.07375 15.6606 5.18314C15.5589 5.19123 15.4633 5.23456 15.3902 5.30565C15.3171 5.37675 15.2712 5.47114 15.2603 5.57252C15.2406 5.75845 14.8031 10.1269 15.8837 12.2838C17.1765 14.8606 20.2587 16.3066 20.3878 16.3678C20.4454 16.3945 20.5081 16.4083 20.5715 16.4083C20.635 16.4083 20.6977 16.3945 20.7553 16.3678C20.8843 16.3066 23.9665 14.8606 25.2593 12.2838C26.329 10.1269 25.8915 5.75845 25.8718 5.57252ZM24.4653 11.8922C23.4831 13.8544 21.2168 15.1385 20.5606 15.4819C19.9043 15.1385 17.6381 13.8544 16.6559 11.8922C15.8509 10.2822 16.0128 7.06002 16.0915 6.00564C16.8888 5.86672 17.667 5.63472 18.4103 5.31439C19.1764 4.9904 19.8988 4.5715 20.5606 4.06752C21.2223 4.5715 21.9448 4.9904 22.7109 5.31439C23.4541 5.63472 24.2323 5.86672 25.0296 6.00564C25.1106 7.06002 25.2724 10.2822 24.4653 11.8922Z" fill="#EEAD1E"/>
<path d="M16.1875 21H20.5625C20.6785 21 20.7898 20.9539 20.8719 20.8719C20.9539 20.7898 21 20.6785 21 20.5625C21 20.4465 20.9539 20.3352 20.8719 20.2531C20.7898 20.1711 20.6785 20.125 20.5625 20.125H16.1875C16.0715 20.125 15.9602 20.1711 15.8781 20.2531C15.7961 20.3352 15.75 20.4465 15.75 20.5625C15.75 20.6785 15.7961 20.7898 15.8781 20.8719C15.9602 20.9539 16.0715 21 16.1875 21Z" fill="#EEAD1E"/>
<path d="M16.1875 18.375H18.8125C18.9285 18.375 19.0398 18.3289 19.1219 18.2469C19.2039 18.1648 19.25 18.0535 19.25 17.9375C19.25 17.8215 19.2039 17.7102 19.1219 17.6281C19.0398 17.5461 18.9285 17.5 18.8125 17.5H16.1875C16.0715 17.5 15.9602 17.5461 15.8781 17.6281C15.7961 17.7102 15.75 17.8215 15.75 17.9375C15.75 18.0535 15.7961 18.1648 15.8781 18.2469C15.9602 18.3289 16.0715 18.375 16.1875 18.375Z" fill="#EEAD1E"/>
</svg>
