<svg width="69" height="69" viewBox="0 0 69 69" fill="none" xmlns="http://www.w3.org/2000/svg">
<rect x="0.5" y="1.2113" width="67" height="67" rx="33.5" stroke="#D9D9D9"/>
<g clip-path="url(#clip0_859_2353)">
<path d="M42.2018 41.699C42.7909 41.699 43.2685 41.2215 43.2685 40.6324V39.2532C43.2686 38.858 43.0502 38.4952 42.701 38.3102L34.1677 33.7924C33.8554 33.627 33.4815 33.627 33.1693 33.7924L24.636 38.3102C24.2867 38.4952 24.0684 38.858 24.0685 39.2532V40.6324C24.0685 41.2215 24.5461 41.699 25.1352 41.699H25.6685V47.0324C24.4903 47.0324 23.5352 47.9875 23.5352 49.1657V49.699C23.5352 50.2881 24.0127 50.7657 24.6018 50.7657H42.7352C43.3243 50.7657 43.8018 50.2881 43.8018 49.699V49.1657C43.8018 47.9875 42.8467 47.0324 41.6685 47.0324V41.699H42.2018ZM25.1352 39.2532L33.6685 34.7353L42.2018 39.2532V40.6324H25.1352V39.2532ZM35.8018 47.0324V41.699H37.4018V47.0324H35.8018ZM29.9352 47.0324V41.699H31.5352V47.0324H29.9352ZM32.6018 41.699H34.7352V47.0324H32.6018V41.699ZM26.7352 41.699H28.8685V47.0324H26.7352V41.699ZM42.7352 49.1657V49.699H24.6018V49.1657C24.6018 48.5766 25.0794 48.099 25.6685 48.099H41.6685C42.2576 48.099 42.7352 48.5766 42.7352 49.1657ZM40.6018 47.0324H38.4685V41.699H40.6018V47.0324Z" fill="black"/>
<path d="M32.0685 39.0319H35.2685C35.563 39.0319 35.8018 38.7931 35.8018 38.4985C35.8018 38.204 35.563 37.9652 35.2685 37.9652H32.0685C31.7739 37.9652 31.5352 38.204 31.5352 38.4985C31.5352 38.7931 31.7739 39.0319 32.0685 39.0319Z" fill="black"/>
<path d="M21.9346 33.1665C24.2911 33.1665 26.2013 31.2563 26.2013 28.8998C26.2013 26.5434 24.2911 24.6332 21.9346 24.6332C19.5782 24.6332 17.668 26.5434 17.668 28.8998C17.6706 31.2552 19.5793 33.1639 21.9346 33.1665ZM21.9346 25.6998C23.7019 25.6998 25.1346 27.1325 25.1346 28.8998C25.1346 30.6672 23.7019 32.0998 21.9346 32.0998C20.1673 32.0998 18.7346 30.6672 18.7346 28.8998C18.7364 27.1333 20.1681 25.7016 21.9346 25.6998Z" fill="black"/>
<path d="M29.8756 33.1683C29.9035 33.1725 29.9317 33.1747 29.9599 33.1747C30.222 33.1745 30.4451 32.984 30.4863 32.7251C30.5887 31.9447 30.3909 31.1545 29.9327 30.5144C29.3879 29.8665 28.5922 29.4822 27.746 29.4584C27.4571 29.4405 27.2066 29.6564 27.1817 29.9449C27.1568 30.2333 27.3665 30.4889 27.6543 30.5208C28.2017 30.5258 28.722 30.7594 29.0895 31.1651C29.3698 31.5716 29.4924 32.0662 29.4346 32.5566C29.3875 32.8473 29.5849 33.1211 29.8756 33.1683Z" fill="black"/>
<path d="M27.5678 27.8401C29.1977 27.8908 30.4084 28.3559 31.1668 29.2225C31.8068 30.0183 32.1262 31.0246 32.0622 32.0439C32.0311 32.3361 32.2421 32.5984 32.5342 32.6305C32.5537 32.6327 32.5733 32.6337 32.5929 32.6337C32.8647 32.6335 33.0929 32.4288 33.1225 32.1585C33.2212 30.8478 32.812 29.5492 31.9796 28.5319C31.0196 27.4263 29.5454 26.8348 27.6009 26.7745C27.4586 26.767 27.3194 26.8179 27.2155 26.9155C27.1117 27.0131 27.0523 27.1489 27.051 27.2913C27.0423 27.5855 27.2736 27.8311 27.5678 27.8401Z" fill="black"/>
<path d="M39.6825 30.5208C39.9703 30.4889 40.18 30.2333 40.1551 29.9449C40.1302 29.6564 39.8797 29.4405 39.5908 29.4584C38.7446 29.4822 37.9489 29.8665 37.4041 30.5144C36.9462 31.1542 36.7484 31.944 36.8505 32.724C36.8923 32.9821 37.115 33.1717 37.3764 33.172C37.4027 33.1725 37.4291 33.1712 37.4553 33.1683C37.746 33.1237 37.9457 32.8522 37.9017 32.5614C37.8436 32.0702 37.9662 31.5746 38.2468 31.1672C38.614 30.7606 39.1346 30.5262 39.6825 30.5208Z" fill="black"/>
<path d="M35.3566 28.5286C34.5242 29.5459 34.115 30.8444 34.2137 32.1552C34.2435 32.425 34.4713 32.6294 34.7427 32.6299C34.7618 32.6299 34.7809 32.6288 34.7998 32.6267C34.9406 32.6119 35.0697 32.5418 35.1587 32.4317C35.2478 32.3217 35.2894 32.1808 35.2745 32.04C35.2103 31.021 35.5295 30.0148 36.1694 29.2192C36.9278 28.3526 38.1385 27.8859 39.7684 27.8368C40.0629 27.8277 40.2943 27.5815 40.2851 27.287C40.276 26.9924 40.0298 26.761 39.7353 26.7702C37.7907 26.8315 36.3177 27.423 35.3566 28.5286Z" fill="black"/>
<path d="M20.334 28.9006C20.4755 28.9006 20.6111 28.8443 20.7111 28.7443L21.7777 27.6777C21.9799 27.4684 21.977 27.1357 21.7713 26.93C21.5655 26.7243 21.2329 26.7214 21.0236 26.9235L19.9569 27.9902C19.8045 28.1427 19.7589 28.3721 19.8414 28.5713C19.9239 28.7706 20.1183 28.9005 20.334 28.9006Z" fill="black"/>
<path d="M20.4882 30.8756C20.6965 31.0838 21.0341 31.0838 21.2423 30.8756L23.909 28.2089C24.1111 27.9996 24.1082 27.667 23.9025 27.4613C23.6968 27.2555 23.3641 27.2526 23.1549 27.4548L20.4882 30.1214C20.28 30.3297 20.28 30.6673 20.4882 30.8756Z" fill="black"/>
<path d="M45.3995 24.6332C43.0431 24.6332 41.1328 26.5434 41.1328 28.8998C41.1328 31.2563 43.0431 33.1665 45.3995 33.1665C47.7559 33.1665 49.6661 31.2563 49.6661 28.8998C49.6635 26.5445 47.7548 24.6358 45.3995 24.6332ZM45.3995 32.0998C43.6322 32.0998 42.1995 30.6672 42.1995 28.8998C42.1995 27.1325 43.6322 25.6998 45.3995 25.6998C47.1668 25.6998 48.5995 27.1325 48.5995 28.8998C48.5977 30.6664 47.1661 32.0981 45.3995 32.0998Z" fill="black"/>
<path d="M44.1787 28.7443L45.2454 27.6777C45.4475 27.4684 45.4446 27.1357 45.2389 26.93C45.0331 26.7243 44.7005 26.7214 44.4912 26.9235L43.4246 27.9902C43.2859 28.1241 43.2303 28.3224 43.2791 28.5089C43.3279 28.6953 43.4735 28.8409 43.66 28.8898C43.8465 28.9386 44.0448 28.883 44.1787 28.7443Z" fill="black"/>
<path d="M46.6264 27.4548L43.9597 30.1214C43.8211 30.2553 43.7655 30.4536 43.8143 30.6401C43.8631 30.8266 44.0087 30.9722 44.1952 31.021C44.3816 31.0698 44.5799 31.0142 44.7138 30.8756L47.3805 28.2089C47.5826 27.9996 47.5797 27.667 47.374 27.4613C47.1683 27.2555 46.8356 27.2526 46.6264 27.4548Z" fill="black"/>
<path d="M33.669 27.2993C36.0254 27.2993 37.9357 25.3891 37.9357 23.0327C37.9357 20.6762 36.0254 18.766 33.669 18.766C31.3126 18.766 29.4023 20.6762 29.4023 23.0327C29.405 25.388 31.3137 27.2967 33.669 27.2993ZM33.669 19.8327C35.4363 19.8327 36.869 21.2653 36.869 23.0327C36.869 24.8 35.4363 26.2327 33.669 26.2327C31.9017 26.2327 30.469 24.8 30.469 23.0327C30.4708 21.2661 31.9024 19.8344 33.669 19.8327Z" fill="black"/>
<path d="M32.0684 23.0348C32.2098 23.0348 32.3455 22.9786 32.4455 22.8785L33.5121 21.8119C33.6508 21.678 33.7064 21.4797 33.6576 21.2932C33.6088 21.1067 33.4631 20.9611 33.2767 20.9123C33.0902 20.8635 32.8919 20.9191 32.758 21.0577L31.6913 22.1244C31.5388 22.2769 31.4932 22.5063 31.5758 22.7055C31.6583 22.9048 31.8527 23.0348 32.0684 23.0348Z" fill="black"/>
<path d="M32.2226 25.0098C32.4308 25.218 32.7684 25.218 32.9767 25.0098L35.6434 22.3431C35.782 22.2092 35.8376 22.0109 35.7888 21.8244C35.74 21.638 35.5944 21.4924 35.4079 21.4435C35.2214 21.3947 35.0231 21.4503 34.8892 21.589L32.2226 24.2556C32.0144 24.4639 32.0144 24.8015 32.2226 25.0098Z" fill="black"/>
</g>
<path d="M34.666 66.9288C34.666 67.9132 35.4646 68.7162 36.4477 68.6646C40.3038 68.4622 44.1018 67.6042 47.6772 66.1232C51.8023 64.4145 55.5505 61.9101 58.7076 58.7529C61.8648 55.5957 64.3693 51.8476 66.0779 47.7225C67.5589 44.1471 68.417 40.3491 68.6193 36.493C68.6709 35.5099 67.868 34.7113 66.8835 34.7113C65.899 34.7113 65.1064 35.5101 65.0488 36.4928C64.8502 39.8805 64.0861 43.2154 62.7843 46.3583C61.2548 50.0508 59.0129 53.4059 56.1868 56.2321C53.3606 59.0582 50.0055 61.3001 46.313 62.8296C43.1701 64.1314 39.8352 64.8955 36.4475 65.0941C35.4648 65.1517 34.666 65.9443 34.666 66.9288Z" fill="url(#paint0_linear_859_2353)"/>
<defs>
<linearGradient id="paint0_linear_859_2353" x1="0.665998" y1="68.7113" x2="0.666" y2="0.711301" gradientUnits="userSpaceOnUse">
<stop stop-color="white"/>
<stop offset="0.475962" stop-color="#F9D58C"/>
<stop offset="1" stop-color="#F9D58C"/>
</linearGradient>
<clipPath id="clip0_859_2353">
<rect width="32" height="32" fill="white" transform="translate(17.668 18.766)"/>
</clipPath>
</defs>
</svg>
