<svg width="69" height="69" viewBox="0 0 69 69" fill="none" xmlns="http://www.w3.org/2000/svg">
<rect x="1.5" y="1.2113" width="67" height="67" rx="33.5" stroke="#D9D9D9"/>
<path d="M25.3282 39.1524C25.0177 39.1524 24.7657 39.4038 24.7657 39.7149V41.3748H21.9566C21.6461 41.3748 21.3941 41.6263 21.3941 41.9373V43.9859H20.5391C20.2286 43.9859 19.9766 44.2374 19.9766 44.5484V47.1641C19.9766 47.4751 20.2286 47.7266 20.5391 47.7266H27.6339C29.1566 50.1133 31.8189 51.5853 34.6657 51.5853C37.5125 51.5853 40.1754 50.1127 41.6975 47.7266H48.7923C49.1028 47.7266 49.3548 47.4751 49.3548 47.1641V44.5484C49.3548 44.2374 49.1028 43.9859 48.7923 43.9859H47.9373V41.9373C47.9373 41.6263 47.6853 41.3748 47.3748 41.3748H44.5657V39.7149C44.5657 39.4038 44.3137 39.1524 44.0032 39.1524H43.3946V28.1966H46.6869C46.9276 28.1966 47.1419 28.0436 47.2196 27.8146C47.2972 27.5868 47.2207 27.3343 47.03 27.188L35.0083 17.9523C34.8063 17.7976 34.5251 17.7976 34.3226 17.9523L22.3019 27.1886C22.1113 27.3354 22.0347 27.5874 22.1124 27.8152C22.19 28.0436 22.4043 28.1971 22.6451 28.1971H25.9374V39.1529H25.3288L25.3282 39.1524ZM25.8907 40.2774H26.8633C26.8385 40.3415 26.8194 40.4073 26.7963 40.472C26.7676 40.5524 26.7389 40.6329 26.7131 40.7144C26.6765 40.8281 26.645 40.9428 26.6135 41.0581C26.5921 41.1374 26.5696 41.2156 26.5505 41.2955C26.5443 41.3219 26.5353 41.3484 26.5291 41.3748H25.8901L25.8907 40.2774ZM22.5191 42.4998H26.3536C26.3531 42.5077 26.3536 42.515 26.3525 42.5229C26.3317 42.7648 26.3199 43.0061 26.3199 43.2457C26.3199 43.4853 26.3311 43.7249 26.3519 43.9646C26.3525 43.9719 26.3519 43.9792 26.3531 43.9865H22.5191V42.4998ZM21.1016 46.6016V45.1109H26.5303C26.5404 45.1543 26.5556 45.1964 26.5663 45.2398C26.5994 45.3742 26.6383 45.5064 26.6776 45.6386C26.7114 45.7511 26.744 45.8636 26.7828 45.9744C26.8295 46.1083 26.8824 46.2393 26.9358 46.3704C26.9668 46.4469 26.9915 46.5262 27.0253 46.6021L21.1016 46.6016ZM34.6657 50.4603C32.1069 50.4603 29.7174 49.0889 28.4298 46.8794C27.9883 46.1268 27.6913 45.3106 27.5467 44.4545C27.4792 44.054 27.4449 43.6468 27.4449 43.2451C27.4449 42.8435 27.4792 42.4357 27.5467 42.0296C27.6659 41.3141 27.896 40.6216 28.2335 39.9663C28.4546 39.5248 28.7251 39.1063 29.0418 38.7159C29.147 38.5859 29.2573 38.4599 29.3726 38.3368C29.3731 38.3362 29.3737 38.3351 29.3743 38.3345C30.7321 36.8669 32.6604 36.0249 34.6646 36.0249C36.6688 36.0249 38.597 36.8669 39.9571 38.3373C40.4184 38.8295 40.8014 39.3779 41.0996 39.9725C41.4343 40.6216 41.6643 41.3141 41.7836 42.0296C41.8511 42.4357 41.8854 42.8446 41.8854 43.2451C41.8854 43.6456 41.8511 44.054 41.7836 44.4545C41.7476 44.6683 41.702 44.8798 41.6469 45.0884C41.5293 45.5345 41.3651 45.9665 41.162 46.3833C41.0804 46.5509 40.9955 46.7174 40.9004 46.8789C39.6129 49.0873 37.2239 50.4592 34.6651 50.4592L34.6657 50.4603ZM48.2298 46.6016H42.3061C42.3399 46.5256 42.3646 46.4463 42.3956 46.3693C42.449 46.2382 42.5019 46.1077 42.548 45.9744C42.5868 45.8636 42.6194 45.7505 42.6532 45.638C42.6926 45.5058 42.7319 45.3736 42.7646 45.2398C42.7753 45.1964 42.7904 45.1548 42.8006 45.1109H48.2293L48.2298 46.6016ZM46.8123 43.9859H42.9783C42.9789 43.9786 42.9783 43.9713 42.9794 43.964C43.0003 43.7244 43.0115 43.4842 43.0115 43.2451C43.0115 43.0061 43.0003 42.7648 42.9789 42.5223C42.9783 42.5144 42.9789 42.5071 42.9778 42.4993H46.8123V43.9859ZM43.4407 41.3748H42.8017C42.7955 41.3484 42.7871 41.3225 42.7809 41.2961C42.7618 41.2151 42.7387 41.1352 42.7168 41.0542C42.6858 40.9411 42.6549 40.8281 42.6189 40.7167C42.5919 40.6329 42.5626 40.5502 42.5334 40.4669C42.5109 40.4039 42.4923 40.3398 42.4681 40.2768H43.4407V41.3748ZM41.9394 39.1524C41.9264 39.1293 41.9096 39.1079 41.8966 39.0843C41.7706 38.8638 41.6362 38.6478 41.4894 38.4397C41.4703 38.4121 41.4483 38.3868 41.4292 38.3593C41.2953 38.1748 41.1524 37.9959 41.0023 37.8221C40.9775 37.7934 40.9573 37.7624 40.9325 37.7343V28.1977H42.2707V39.1524H41.9405H41.9394ZM34.6657 19.1077L45.0314 27.0721H24.2999L34.6657 19.1077ZM39.8064 28.1971V36.6875C38.3495 35.5456 36.5394 34.8999 34.6657 34.8999C32.792 34.8999 30.9808 35.5456 29.525 36.6869V28.1971H39.8064ZM27.0618 28.1983H28.4V37.7349C28.3753 37.7624 28.3556 37.7934 28.3314 37.8209C28.1801 37.9964 28.0355 38.1764 27.9005 38.3626C27.8819 38.3885 27.8617 38.4127 27.8431 38.4386C27.6946 38.6484 27.5596 38.8655 27.4336 39.0866C27.4207 39.1091 27.4044 39.1299 27.392 39.1529H27.0618V28.1983Z" fill="black"/>
<path d="M39.7234 43.1037C39.6587 42.8562 39.4349 42.6829 39.1789 42.6829H37.7249L37.0988 40.2805C37.0341 40.033 36.8102 39.8597 36.5543 39.8597H32.7766C32.5206 39.8597 32.2967 40.033 32.2321 40.2805L31.606 42.6829H30.1519C29.896 42.6829 29.6721 42.8562 29.6074 43.1037L28.8717 45.9274C28.8278 46.0962 28.8644 46.2751 28.9712 46.4129C29.0776 46.5507 29.2418 46.6317 29.4162 46.6317H39.9136C40.0879 46.6317 40.2522 46.5507 40.3585 46.4129C40.4648 46.2751 40.5019 46.0962 40.4581 45.9274L39.7223 43.1037H39.7234ZM33.2119 40.9842H36.1201L36.5627 42.6829H32.7698L33.2119 40.9842ZM34.666 43.8372L34.6581 43.8074H34.6733L34.666 43.8372ZM30.1452 45.5061L30.5879 43.8074H33.496L33.9387 45.5061H30.1457H30.1452ZM35.3939 45.5061L35.8366 43.8074H38.7447L39.1874 45.5061H35.3939Z" fill="black"/>
<path d="M18.5588 4.81059C18.0665 3.95803 16.9735 3.66198 16.1479 4.19821C12.9096 6.30148 10.0494 8.94354 7.6935 12.0139C4.97542 15.5561 2.98165 19.5991 1.82604 23.9119C0.670426 28.2247 0.375599 32.7229 0.958393 37.1496C1.46354 40.9866 2.61945 44.7047 4.37225 48.1454C4.81912 49.0226 5.91379 49.3127 6.76635 48.8205C7.61892 48.3283 7.90597 47.2402 7.46449 46.3603C5.94269 43.3272 4.93694 40.057 4.49292 36.6843C3.97123 32.7217 4.23514 28.6952 5.26959 24.8346C6.30403 20.974 8.08874 17.355 10.5218 14.1841C12.5927 11.4853 15.0988 9.15609 17.9333 7.29024C18.7556 6.74896 19.051 5.66315 18.5588 4.81059Z" fill="url(#paint0_linear_859_2398)"/>
<defs>
<linearGradient id="paint0_linear_859_2398" x1="47.1124" y1="-13.7331" x2="81.1124" y2="45.1566" gradientUnits="userSpaceOnUse">
<stop stop-color="white"/>
<stop offset="0.475962" stop-color="#F9D58C"/>
<stop offset="1" stop-color="#F9D58C"/>
</linearGradient>
</defs>
</svg>
