<svg width="24" height="24" viewBox="0 0 24 24" fill="none" xmlns="http://www.w3.org/2000/svg">
<path fill-rule="evenodd" clip-rule="evenodd" d="M10.5 20.263H2.95C2.897 20.263 2.846 20.241 2.809 20.204C2.771 20.166 2.75 20.116 2.75 20.063C2.75 20.062 2.75 18.613 2.75 18.613C2.75 17.782 3.343 17.05 4.257 16.428C5.889 15.314 8.53 14.612 11.5 14.612C11.99 14.612 12.471 14.632 12.941 14.669C13.353 14.702 13.715 14.394 13.748 13.981C13.78 13.568 13.472 13.207 13.059 13.174C12.551 13.133 12.031 13.112 11.5 13.112C8.178 13.112 5.237 13.943 3.411 15.188C2.018 16.138 1.25 17.345 1.25 18.612V20.063C1.25 20.513 1.429 20.946 1.748 21.265C2.067 21.583 2.499 21.763 2.95 21.762C4.966 21.763 10.5 21.763 10.5 21.763C10.914 21.763 11.25 21.426 11.25 21.013C11.25 20.599 10.914 20.263 10.5 20.263Z" fill="black"/>
<path fill-rule="evenodd" clip-rule="evenodd" d="M11.5 1.25C8.464 1.25 6 3.714 6 6.75C6 9.786 8.464 12.25 11.5 12.25C14.536 12.25 17 9.786 17 6.75C17 3.714 14.536 1.25 11.5 1.25ZM11.5 2.75C13.708 2.75 15.5 4.542 15.5 6.75C15.5 8.958 13.708 10.75 11.5 10.75C9.292 10.75 7.5 8.958 7.5 6.75C7.5 4.542 9.292 2.75 11.5 2.75Z" fill="black"/>
<path fill-rule="evenodd" clip-rule="evenodd" d="M18.152 20.208C19.364 20.39 20.645 20.014 21.578 19.081C23.14 17.519 23.14 14.983 21.578 13.422C20.017 11.86 17.481 11.86 15.919 13.422C14.986 14.355 14.61 15.636 14.792 16.849L12.47 19.17C12.329 19.311 12.25 19.502 12.25 19.701V22C12.25 22.414 12.586 22.75 13 22.75H15.299C15.498 22.75 15.689 22.671 15.83 22.53L18.152 20.208ZM18.1 18.668C17.842 18.599 17.566 18.673 17.377 18.862L14.989 21.25H13.75V20.011L16.138 17.623C16.327 17.434 16.401 17.158 16.332 16.9C16.11 16.065 16.325 15.137 16.98 14.482C17.956 13.506 19.541 13.506 20.518 14.482C21.494 15.459 21.494 17.044 20.518 18.02C19.863 18.675 18.935 18.89 18.1 18.668Z" fill="black"/>
<path fill-rule="evenodd" clip-rule="evenodd" d="M17.9823 17.018C17.5593 16.595 17.5593 15.908 17.9823 15.485C18.4053 15.062 19.0923 15.062 19.5153 15.485C19.9383 15.908 19.9383 16.595 19.5153 17.018C19.0923 17.441 18.4053 17.441 17.9823 17.018Z" fill="black"/>
</svg>
