<?xml version="1.0" encoding="utf-8"?>
<!-- Generator: Adobe Illustrator 25.0.1, SVG Export Plug-In . SVG Version: 6.00 Build 0)  -->
<svg version="1.1" id="Layer_1" xmlns="http://www.w3.org/2000/svg" xmlns:xlink="http://www.w3.org/1999/xlink" x="0px" y="0px"
	 viewBox="0 0 365 110" style="enable-background:new 0 0 365 110;" xml:space="preserve">
<style type="text/css">
	.st0{fill:#737372;}
	.st1{fill:url(#_443267416_1_);}
	.st2{fill:url(#_4432674161_1_);}
	.st3{fill:url(#_44326741612_1_);}
	.st4{fill:url(#_443267416123_1_);}
	.st5{fill:url(#_443267680_1_);}
</style>
<g id="Layer_x0020_1">
	<g id="_443267776">
		<path id="_443268448" class="st0" d="M146,39.9c0.2,0,0.4,0,0.6,0.1c0.2,0.1,0.4,0.2,0.6,0.4l3.3,3.5c-1.5,1.9-3.3,3.3-5.5,4.3
			c-2.2,1-4.8,1.5-7.8,1.5c-2.7,0-5.2-0.5-7.4-1.4c-2.2-0.9-4-2.2-5.5-3.9c-1.5-1.6-2.7-3.6-3.5-5.8c-0.8-2.3-1.2-4.7-1.2-7.3
			c0-2.7,0.4-5.2,1.3-7.4c0.9-2.3,2.1-4.2,3.7-5.8c1.6-1.6,3.5-2.9,5.7-3.8c2.2-0.9,4.6-1.4,7.3-1.4c1.4,0,2.6,0.1,3.8,0.4
			c1.2,0.2,2.3,0.6,3.4,1c1,0.4,2,0.9,2.9,1.5c0.9,0.6,1.7,1.2,2.3,1.9l-2.8,3.8c-0.2,0.2-0.4,0.4-0.6,0.6c-0.2,0.2-0.6,0.3-1,0.3
			c-0.3,0-0.6-0.1-0.8-0.2c-0.3-0.1-0.5-0.3-0.8-0.5c-0.3-0.2-0.6-0.4-1-0.6c-0.4-0.2-0.8-0.4-1.3-0.6c-0.5-0.2-1.1-0.3-1.7-0.5
			c-0.7-0.1-1.4-0.2-2.3-0.2c-1.4,0-2.6,0.3-3.8,0.8c-1.1,0.5-2.1,1.3-3,2.2c-0.8,1-1.5,2.2-1.9,3.6c-0.5,1.4-0.7,3.1-0.7,4.9
			c0,1.8,0.3,3.5,0.8,4.9c0.5,1.4,1.2,2.6,2.1,3.6c0.9,1,1.9,1.7,3,2.2c1.2,0.5,2.4,0.8,3.7,0.8c0.8,0,1.5,0,2.1-0.1
			c0.6-0.1,1.2-0.2,1.8-0.4c0.5-0.2,1.1-0.4,1.5-0.7c0.5-0.3,1-0.7,1.5-1.1c0.2-0.2,0.4-0.3,0.6-0.4C145.5,40,145.7,39.9,146,39.9
			L146,39.9z"/>
		<path id="_4432684481" class="st0" d="M189.6,31.2c0,2.6-0.4,5-1.3,7.3c-0.9,2.2-2.2,4.2-3.8,5.9c-1.6,1.7-3.6,3-5.9,3.9
			c-2.3,0.9-4.9,1.4-7.7,1.4c-2.8,0-5.4-0.5-7.7-1.4c-2.3-0.9-4.3-2.2-5.9-3.9c-1.6-1.7-2.9-3.6-3.8-5.9s-1.4-4.7-1.4-7.3
			c0-2.6,0.5-5,1.4-7.3c0.9-2.2,2.2-4.2,3.8-5.8c1.6-1.7,3.6-2.9,5.9-3.9c2.3-0.9,4.9-1.4,7.7-1.4c2.8,0,5.4,0.5,7.7,1.4
			c2.3,0.9,4.3,2.3,5.9,3.9c1.6,1.7,2.9,3.6,3.8,5.8C189.1,26.2,189.6,28.6,189.6,31.2L189.6,31.2z M181,31.2c0-1.8-0.2-3.4-0.7-4.8
			c-0.5-1.4-1.1-2.6-2-3.6c-0.9-1-1.9-1.8-3.2-2.3c-1.3-0.5-2.7-0.8-4.3-0.8c-1.6,0-3.1,0.3-4.3,0.8c-1.3,0.5-2.3,1.3-3.2,2.3
			c-0.9,1-1.5,2.2-2,3.6c-0.5,1.4-0.7,3-0.7,4.8c0,1.8,0.2,3.4,0.7,4.8c0.5,1.4,1.1,2.6,2,3.6c0.9,1,1.9,1.7,3.2,2.3
			c1.3,0.5,2.7,0.8,4.3,0.8c1.6,0,3-0.3,4.3-0.8c1.3-0.5,2.3-1.3,3.2-2.3c0.9-1,1.5-2.2,2-3.6C180.8,34.6,181,33,181,31.2z"/>
		<path id="_44326844812" class="st0" d="M235.1,13.2v36.1h-7.4V28.5c0-0.5,0-1,0-1.6c0-0.6,0.1-1.1,0.1-1.7l-9.6,18.5
			c-0.3,0.6-0.7,1-1.2,1.3c-0.5,0.3-1.1,0.4-1.7,0.4h-1.1c-0.6,0-1.2-0.1-1.7-0.4c-0.5-0.3-0.9-0.7-1.2-1.3l-9.6-18.6
			c0,0.6,0.1,1.2,0.1,1.7c0,0.6,0,1.1,0,1.6v20.8h-7.4V13.2h6.4c0.4,0,0.7,0,1,0c0.3,0,0.5,0.1,0.7,0.1c0.2,0.1,0.4,0.2,0.6,0.4
			c0.2,0.2,0.3,0.4,0.5,0.7l9.3,18.3c0.3,0.6,0.7,1.3,1,2c0.3,0.7,0.6,1.4,0.9,2.1c0.3-0.7,0.6-1.4,0.9-2.1c0.3-0.7,0.6-1.4,1-2
			l9.3-18.2c0.2-0.3,0.3-0.6,0.5-0.7c0.2-0.2,0.4-0.3,0.6-0.4c0.2-0.1,0.5-0.1,0.7-0.1c0.3,0,0.6,0,0.9,0H235.1L235.1,13.2z"/>
		<polygon id="_443268448123" class="st0" points="268,19.8 257.8,19.8 257.8,49.3 249.4,49.3 249.4,19.8 239.3,19.8 239.3,13.2 
			268,13.2 		"/>
		<polygon id="_4432684481234" class="st0" points="280.6,19.6 280.6,28 292,28 292,34.2 280.6,34.2 280.6,42.8 295.4,42.8 
			295.4,49.3 272.2,49.3 272.2,13.2 295.4,13.2 295.4,19.6 		"/>
		<path id="_44326844812345" class="st0" d="M324.9,39.9c0.2,0,0.4,0,0.6,0.1c0.2,0.1,0.4,0.2,0.6,0.4l3.3,3.5
			c-1.5,1.9-3.3,3.3-5.5,4.3c-2.2,1-4.8,1.5-7.8,1.5c-2.7,0-5.2-0.5-7.4-1.4c-2.2-0.9-4-2.2-5.5-3.9c-1.5-1.6-2.7-3.6-3.5-5.8
			c-0.8-2.3-1.2-4.7-1.2-7.3c0-2.7,0.4-5.2,1.3-7.4c0.9-2.3,2.1-4.2,3.7-5.8c1.6-1.6,3.5-2.9,5.7-3.8c2.2-0.9,4.6-1.4,7.3-1.4
			c1.4,0,2.6,0.1,3.8,0.4c1.2,0.2,2.3,0.6,3.4,1c1,0.4,2,0.9,2.9,1.5c0.9,0.6,1.7,1.2,2.3,1.9l-2.8,3.8c-0.2,0.2-0.4,0.4-0.6,0.6
			c-0.2,0.2-0.6,0.3-1,0.3c-0.3,0-0.6-0.1-0.8-0.2c-0.3-0.1-0.5-0.3-0.8-0.5c-0.3-0.2-0.6-0.4-1-0.6c-0.4-0.2-0.8-0.4-1.3-0.6
			c-0.5-0.2-1.1-0.3-1.7-0.5c-0.7-0.1-1.4-0.2-2.3-0.2c-1.4,0-2.6,0.3-3.8,0.8c-1.1,0.5-2.1,1.3-3,2.2c-0.8,1-1.5,2.2-1.9,3.6
			c-0.5,1.4-0.7,3.1-0.7,4.9c0,1.8,0.3,3.5,0.8,4.9c0.5,1.4,1.2,2.6,2.1,3.6c0.9,1,1.9,1.7,3,2.2c1.2,0.5,2.4,0.8,3.7,0.8
			c0.8,0,1.5,0,2.1-0.1c0.6-0.1,1.2-0.2,1.8-0.4c0.5-0.2,1.1-0.4,1.5-0.7c0.5-0.3,1-0.7,1.5-1.1c0.2-0.2,0.4-0.3,0.6-0.4
			C324.4,40,324.7,39.9,324.9,39.9L324.9,39.9z"/>
		<polygon id="_443268448123456" class="st0" points="364.6,13.2 364.6,49.3 356.1,49.3 356.1,34 341.5,34 341.5,49.3 333,49.3 
			333,13.2 341.5,13.2 341.5,28.3 356.1,28.3 356.1,13.2 		"/>
		
			<linearGradient id="_443267416_1_" gradientUnits="userSpaceOnUse" x1="27.9664" y1="70.8732" x2="27.9664" y2="116.3596" gradientTransform="matrix(2.7414 0 0 -2.7414 59.3225 335.6769)">
			<stop  offset="0" style="stop-color:#F7E887"/>
			<stop  offset="0.1412" style="stop-color:#F7E887"/>
			<stop  offset="0.302" style="stop-color:#B1823A"/>
			<stop  offset="0.502" style="stop-color:#E6B963"/>
			<stop  offset="0.7294" style="stop-color:#B08239"/>
			<stop  offset="1" style="stop-color:#F7E792"/>
		</linearGradient>
		<path id="_443267416" class="st1" d="M151.6,79.5v13.9c-1.8,1.3-3.7,2.2-5.7,2.9c-2,0.6-4.2,1-6.6,1c-2.9,0-5.5-0.4-7.8-1.3
			c-2.3-0.9-4.3-2.1-5.9-3.7c-1.6-1.6-2.9-3.5-3.8-5.7c-0.9-2.2-1.3-4.7-1.3-7.4c0-2.7,0.4-5.2,1.3-7.4c0.9-2.2,2.1-4.2,3.6-5.7
			c1.6-1.6,3.5-2.8,5.8-3.7c2.3-0.9,4.8-1.3,7.6-1.3c1.4,0,2.7,0.1,4,0.3c1.2,0.2,2.3,0.5,3.4,0.9c1,0.4,2,0.9,2.9,1.4
			c0.9,0.6,1.7,1.2,2.5,1.9l-1.5,2.4c-0.2,0.4-0.5,0.6-0.9,0.7c-0.4,0.1-0.8,0-1.2-0.3c-0.4-0.2-0.9-0.5-1.4-0.9
			c-0.5-0.3-1.1-0.6-1.9-0.9c-0.7-0.3-1.6-0.5-2.5-0.7c-1-0.2-2.1-0.3-3.4-0.3c-1.9,0-3.7,0.3-5.3,0.9c-1.6,0.6-2.9,1.6-4,2.7
			c-1.1,1.2-2,2.6-2.6,4.3c-0.6,1.7-0.9,3.6-0.9,5.6c0,2.2,0.3,4.1,0.9,5.9c0.6,1.7,1.5,3.2,2.7,4.4c1.1,1.2,2.5,2.1,4.2,2.7
			c1.6,0.6,3.5,0.9,5.5,0.9c0.8,0,1.5,0,2.2-0.1c0.7-0.1,1.3-0.2,2-0.4c0.6-0.2,1.2-0.4,1.8-0.6c0.6-0.2,1.2-0.5,1.7-0.8v-7.5h-5.3
			c-0.3,0-0.6-0.1-0.8-0.3c-0.2-0.2-0.3-0.4-0.3-0.7v-3H151.6L151.6,79.5z"/>
		
			<linearGradient id="_4432674161_1_" gradientUnits="userSpaceOnUse" x1="41.8969" y1="70.8732" x2="41.8969" y2="116.3596" gradientTransform="matrix(2.7414 0 0 -2.7414 59.3225 335.6769)">
			<stop  offset="0" style="stop-color:#F7E887"/>
			<stop  offset="0.1412" style="stop-color:#F7E887"/>
			<stop  offset="0.302" style="stop-color:#B1823A"/>
			<stop  offset="0.502" style="stop-color:#E6B963"/>
			<stop  offset="0.7294" style="stop-color:#B08239"/>
			<stop  offset="1" style="stop-color:#F7E792"/>
		</linearGradient>
		<path id="_4432674161" class="st2" d="M191.8,79c0,2.7-0.4,5.1-1.3,7.3c-0.9,2.2-2.1,4.1-3.6,5.7c-1.6,1.6-3.4,2.9-5.6,3.8
			c-2.2,0.9-4.6,1.3-7.2,1.3c-2.6,0-5-0.4-7.2-1.3c-2.2-0.9-4-2.1-5.6-3.8c-1.5-1.6-2.7-3.5-3.6-5.7c-0.9-2.2-1.3-4.7-1.3-7.3
			c0-2.6,0.4-5.1,1.3-7.3c0.9-2.2,2.1-4.2,3.6-5.8c1.5-1.6,3.4-2.9,5.6-3.8c2.2-0.9,4.6-1.3,7.2-1.3c2.6,0,5,0.4,7.2,1.3
			c2.2,0.9,4,2.2,5.6,3.8c1.6,1.6,2.8,3.5,3.6,5.8C191.4,74,191.8,76.4,191.8,79z M186.4,79c0-2.1-0.3-4-0.9-5.7
			c-0.6-1.7-1.4-3.1-2.5-4.3c-1.1-1.2-2.4-2.1-3.9-2.7c-1.5-0.6-3.2-0.9-5.1-0.9s-3.5,0.3-5.1,0.9c-1.5,0.6-2.8,1.5-3.9,2.7
			c-1.1,1.2-1.9,2.6-2.5,4.3c-0.6,1.7-0.9,3.6-0.9,5.7c0,2.1,0.3,4,0.9,5.7c0.6,1.7,1.4,3.1,2.5,4.3c1.1,1.2,2.4,2.1,3.9,2.7
			c1.5,0.6,3.2,0.9,5.1,0.9s3.6-0.3,5.1-0.9c1.5-0.6,2.8-1.5,3.9-2.7c1.1-1.2,1.9-2.6,2.5-4.3C186.1,83.1,186.4,81.2,186.4,79z"/>
		
			<linearGradient id="_44326741612_1_" gradientUnits="userSpaceOnUse" x1="54.4632" y1="70.8732" x2="54.4632" y2="116.3596" gradientTransform="matrix(2.7414 0 0 -2.7414 59.3225 335.6769)">
			<stop  offset="0" style="stop-color:#F7E887"/>
			<stop  offset="0.1412" style="stop-color:#F7E887"/>
			<stop  offset="0.302" style="stop-color:#B1823A"/>
			<stop  offset="0.502" style="stop-color:#E6B963"/>
			<stop  offset="0.7294" style="stop-color:#B08239"/>
			<stop  offset="1" style="stop-color:#F7E792"/>
		</linearGradient>
		<polygon id="_44326741612" class="st3" points="218.8,92.4 218.8,96.8 198.4,96.8 198.4,61.3 203.7,61.3 203.7,92.4 		"/>
		
			<linearGradient id="_443267416123_1_" gradientUnits="userSpaceOnUse" x1="65.715" y1="70.8732" x2="65.715" y2="116.3596" gradientTransform="matrix(2.7414 0 0 -2.7414 59.3225 335.6769)">
			<stop  offset="0" style="stop-color:#F7E887"/>
			<stop  offset="0.1412" style="stop-color:#F7E887"/>
			<stop  offset="0.302" style="stop-color:#B1823A"/>
			<stop  offset="0.502" style="stop-color:#E6B963"/>
			<stop  offset="0.7294" style="stop-color:#B08239"/>
			<stop  offset="1" style="stop-color:#F7E792"/>
		</linearGradient>
		<path id="_443267416123" class="st4" d="M255,79c0,2.7-0.4,5.1-1.3,7.3c-0.9,2.2-2.1,4-3.6,5.6c-1.6,1.6-3.4,2.8-5.6,3.6
			c-2.2,0.9-4.6,1.3-7.2,1.3H224V61.3h13.4c2.6,0,5,0.4,7.2,1.3c2.2,0.9,4,2.1,5.6,3.6c1.6,1.6,2.8,3.4,3.6,5.6
			C254.6,74,255,76.4,255,79L255,79z M249.6,79c0-2.1-0.3-4-0.9-5.7c-0.6-1.7-1.4-3.1-2.5-4.3c-1.1-1.2-2.4-2-3.9-2.7
			c-1.5-0.6-3.2-0.9-5.1-0.9h-8.1v27h8.1c1.9,0,3.6-0.3,5.1-0.9c1.5-0.6,2.8-1.5,3.9-2.7c1.1-1.2,1.9-2.6,2.5-4.2
			C249.3,83.1,249.6,81.2,249.6,79L249.6,79z"/>
		
			<linearGradient id="_443267680_1_" gradientUnits="userSpaceOnUse" x1="-22.8218" y1="120.6972" x2="19.048" y2="84.4609" gradientTransform="matrix(2.7414 0 0 -2.7414 59.3225 335.6769)">
			<stop  offset="0" style="stop-color:#F7E887"/>
			<stop  offset="0.1412" style="stop-color:#F7E887"/>
			<stop  offset="0.302" style="stop-color:#B1823A"/>
			<stop  offset="0.502" style="stop-color:#E6B963"/>
			<stop  offset="0.7294" style="stop-color:#B08239"/>
			<stop  offset="0.8" style="stop-color:#C19F56"/>
			<stop  offset="0.8314" style="stop-color:#F5E588"/>
			<stop  offset="0.8784" style="stop-color:#B0823A"/>
			<stop  offset="0.9098" style="stop-color:#8E5C24"/>
			<stop  offset="0.9412" style="stop-color:#864C23"/>
			<stop  offset="1" style="stop-color:#27190E"/>
		</linearGradient>
		<path id="_443267680" class="st5" d="M102.6,39.3c-4.2-4.2-9.8-6.5-15.7-6.5c-5.9,0-11.5,2.3-15.7,6.5l-5.9,5.9l-0.7-0.7l5.9-5.9
			c8.7-8.7,8.7-22.8,0-31.4C66.3,3,60.7,0.7,54.8,0.7c-5.9,0-11.5,2.3-15.7,6.5c-8.7,8.7-8.7,22.8,0,31.4l5.9,5.9l-0.7,0.7l-5.9-5.9
			c-4.2-4.2-9.8-6.5-15.7-6.5c-5.9,0-11.5,2.3-15.7,6.5C-1.7,48-1.7,62,6.9,70.7c4.2,4.2,9.8,6.5,15.7,6.5c5.9,0,11.5-2.3,15.7-6.5
			l5.9-5.9l0.7,0.7l-5.9,5.9c-8.7,8.7-8.7,22.8,0,31.4c4.2,4.2,9.8,6.5,15.7,6.5c5.9,0,11.5-2.3,15.7-6.5c8.7-8.7,8.7-22.8,0-31.4
			l-5.9-5.9l0.7-0.7l5.9,5.9c4.2,4.2,9.8,6.5,15.7,6.5c5.9,0,11.5-2.3,15.7-6.5c4.2-4.2,6.5-9.8,6.5-15.7S106.8,43.5,102.6,39.3
			L102.6,39.3z M63.9,46.6L63.9,46.6L62.5,48l-0.7-0.7l1.4-1.4L63.9,46.6z M62.5,53.6L62.5,53.6l-1.4-1.4l1.4-1.4l1.4,1.4L62.5,53.6
			z M65.3,53.6L65.3,53.6l1.4,1.4l-1.4,1.4L63.9,55L65.3,53.6z M54.8,75.4L54.8,75.4l5.9,5.9c1.6,1.6,2.4,3.6,2.4,5.9
			c0,2.2-0.9,4.3-2.4,5.9c-1.6,1.6-3.6,2.4-5.9,2.4c-2.2,0-4.3-0.9-5.9-2.4c-1.6-1.6-2.4-3.6-2.4-5.9c0-2.2,0.9-4.3,2.4-5.9
			L54.8,75.4L54.8,75.4z M47.5,79.8L47.5,79.8c-1.9,1.9-3,4.5-3,7.3c0,2.7,1.1,5.3,3,7.3c1.9,1.9,4.5,3,7.3,3c2.7,0,5.3-1.1,7.3-3
			c1.9-1.9,3-4.5,3-7.3c0-2.7-1.1-5.3-3-7.3L56.2,74l1.4-1.4l5.9,5.9c2.3,2.3,3.6,5.4,3.6,8.7c0,3.3-1.3,6.4-3.6,8.7
			c-2.3,2.3-5.4,3.6-8.7,3.6c-3.3,0-6.4-1.3-8.7-3.6c-2.3-2.3-3.6-5.4-3.6-8.7c0-3.3,1.3-6.4,3.6-8.7l5.9-5.9l1.4,1.4L47.5,79.8z
			 M54.8,72.6L54.8,72.6l-1.4-1.4l1.4-1.4l1.4,1.4L54.8,72.6z M54.8,67L54.8,67l-1.4-1.4l1.4-1.4l1.4,1.4L54.8,67z M54.8,61.3
			L54.8,61.3l-1.4-1.4l1.4-1.4l1.4,1.4L54.8,61.3z M54.8,34.6L54.8,34.6l-5.9-5.9c-1.6-1.6-2.4-3.6-2.4-5.9c0-2.2,0.9-4.3,2.4-5.9
			c1.6-1.6,3.6-2.4,5.9-2.4c2.2,0,4.3,0.9,5.9,2.4c1.6,1.6,2.4,3.6,2.4,5.9c0,2.2-0.9,4.3-2.4,5.9L54.8,34.6L54.8,34.6z M62,30.2
			L62,30.2c1.9-1.9,3-4.5,3-7.3c0-2.7-1.1-5.3-3-7.3c-1.9-1.9-4.5-3-7.3-3c-2.7,0-5.3,1.1-7.3,3c-1.9,1.9-3,4.5-3,7.3
			c0,2.7,1.1,5.3,3,7.3l5.9,5.9L52,37.4l-5.9-5.9c-4.8-4.8-4.8-12.6,0-17.3c2.3-2.3,5.4-3.6,8.7-3.6c3.3,0,6.4,1.3,8.7,3.6
			c2.3,2.3,3.6,5.4,3.6,8.7c0,3.3-1.3,6.4-3.6,8.7l-5.9,5.9L56.2,36L62,30.2z M54.8,37.4L54.8,37.4l1.4,1.4l-1.4,1.4l-1.4-1.4
			L54.8,37.4z M54.8,43L54.8,43l1.4,1.4l-1.4,1.4l-1.4-1.4L54.8,43z M54.8,48.7L54.8,48.7l1.4,1.4l-1.4,1.4l-1.4-1.4L54.8,48.7z
			 M55.5,55L55.5,55l-0.7,0.7L54.1,55l0.7-0.7L55.5,55z M56.9,53.6L56.9,53.6l-0.7-0.7l1.4-1.4l0.7,0.7L56.9,53.6z M53.4,52.9
			L53.4,52.9l-0.7,0.7l-1.4-1.4l0.7-0.7L53.4,52.9z M51.2,55L51.2,55l-1.4,1.4L48.4,55l1.4-1.4L51.2,55z M52.7,56.4L52.7,56.4
			l0.7,0.7L52,58.5l-0.7-0.7L52.7,56.4z M56.2,57.1L56.2,57.1l0.7-0.7l1.4,1.4l-0.7,0.7L56.2,57.1z M58.3,55L58.3,55l1.4-1.4
			l1.4,1.4l-1.4,1.4L58.3,55z M59.7,50.8L59.7,50.8L59,50.1l1.4-1.4l0.7,0.7L59.7,50.8z M57.6,48.7L57.6,48.7l-1.4-1.4l1.4-1.4
			l1.4,1.4L57.6,48.7z M59,44.5L59,44.5l1.4-1.4l1.4,1.4l-1.4,1.4L59,44.5z M57.6,43L57.6,43l-1.4-1.4l1.4-1.4l1.4,1.4L57.6,43z
			 M59,38.8L59,38.8l5.9-5.9c5.6-5.6,5.6-14.6,0-20.2c-2.7-2.7-6.3-4.2-10.1-4.2c-3.8,0-7.4,1.5-10.1,4.2c-5.6,5.6-5.6,14.6,0,20.2
			l5.9,5.9l-1.4,1.4l-5.9-5.9c-6.3-6.3-6.3-16.6,0-23c3.2-3.2,7.3-4.7,11.5-4.7c4.2,0,8.3,1.6,11.5,4.8c3.1,3.1,4.8,7.1,4.8,11.5
			c0,4.3-1.7,8.4-4.8,11.5l-5.9,5.9L59,38.8L59,38.8z M52,40.2L52,40.2l1.4,1.4L52,43l-1.4-1.4L52,40.2z M50.5,44.5L50.5,44.5
			l-1.4,1.4l-1.4-1.4l1.4-1.4L50.5,44.5z M52,45.9L52,45.9l1.4,1.4L52,48.7l-1.4-1.4L52,45.9z M50.5,50.1L50.5,50.1l-0.7,0.7
			l-1.4-1.4l0.7-0.7L50.5,50.1z M48.4,52.2L48.4,52.2L47,53.6l-1.4-1.4l1.4-1.4L48.4,52.2z M45.6,55L45.6,55l-1.4,1.4L42.8,55
			l1.4-1.4L45.6,55z M44.2,50.8L44.2,50.8l-1.4-1.4l1.4-1.4l1.4,1.4L44.2,50.8z M42.8,52.2L42.8,52.2l-1.4,1.4L40,52.2l1.4-1.4
			L42.8,52.2z M35.8,53.6L35.8,53.6l-5.9-5.9c-1.9-1.9-4.5-3-7.3-3c-2.7,0-5.3,1.1-7.3,3c-1.9,1.9-3,4.5-3,7.3c0,2.7,1.1,5.3,3,7.3
			c1.9,1.9,4.5,3,7.3,3c2.7,0,5.3-1.1,7.3-3l5.9-5.9l1.4,1.4l-5.9,5.9c-2.3,2.3-5.4,3.6-8.7,3.6c-3.3,0-6.4-1.3-8.7-3.6
			c-2.3-2.3-3.6-5.4-3.6-8.7c0-3.3,1.3-6.4,3.6-8.7c2.3-2.3,5.4-3.6,8.7-3.6s6.4,1.3,8.7,3.6l5.9,5.9L35.8,53.6L35.8,53.6z M34.4,55
			L34.4,55l-5.9,5.9c-1.6,1.6-3.6,2.4-5.9,2.4c-2.2,0-4.3-0.9-5.9-2.4c-1.6-1.6-2.4-3.6-2.4-5.9c0-2.2,0.9-4.3,2.4-5.9
			c1.6-1.6,3.6-2.4,5.9-2.4c2.2,0,4.3,0.9,5.9,2.4L34.4,55L34.4,55z M37.2,55L37.2,55l1.4-1.4L40,55l-1.4,1.4L37.2,55z M38.6,50.8
			L38.6,50.8l-5.9-5.9c-2.7-2.7-6.3-4.2-10.1-4.2c-3.8,0-7.4,1.5-10.1,4.2C9.9,47.6,8.4,51.2,8.4,55c0,3.8,1.5,7.4,4.2,10.1
			c2.7,2.7,6.3,4.2,10.1,4.2c3.8,0,7.4-1.5,10.1-4.2l5.9-5.9l1.4,1.4l-5.9,5.9c-3.1,3.1-7.1,4.8-11.5,4.8c-4.3,0-8.4-1.7-11.5-4.8
			c-6.3-6.3-6.3-16.6,0-23c3.1-3.1,7.1-4.8,11.5-4.8c4.3,0,8.4,1.7,11.5,4.8l5.9,5.9L38.6,50.8L38.6,50.8z M40,57.8L40,57.8l1.4-1.4
			l1.4,1.4l-1.4,1.4L40,57.8z M44.2,59.2L44.2,59.2l1.4,1.4L44.2,62l-1.4-1.4L44.2,59.2z M45.6,57.8L45.6,57.8l1.4-1.4l1.4,1.4
			L47,59.2L45.6,57.8z M49.8,59.2L49.8,59.2l0.7,0.7l-1.4,1.4l-0.7-0.7L49.8,59.2z M52,61.3L52,61.3l1.4,1.4L52,64.1l-1.4-1.4
			L52,61.3z M50.5,65.5L50.5,65.5L49.1,67l-1.4-1.4l1.4-1.4L50.5,65.5z M52,67L52,67l1.4,1.4L52,69.8l-1.4-1.4L52,67z M50.5,71.2
			L50.5,71.2L44.7,77c-2.7,2.7-4.2,6.3-4.2,10.1c0,3.8,1.5,7.4,4.2,10.1c2.7,2.7,6.3,4.2,10.1,4.2c3.8,0,7.4-1.5,10.1-4.2
			c2.7-2.7,4.2-6.3,4.2-10.1c0-3.8-1.5-7.4-4.2-10.1L59,71.2l1.4-1.4l5.9,5.9c3.1,3.1,4.8,7.1,4.8,11.5c0,4.3-1.7,8.4-4.8,11.5
			c-6.3,6.3-16.6,6.3-23,0c-6.3-6.3-6.3-16.6,0-23l5.9-5.9L50.5,71.2L50.5,71.2z M57.6,69.8L57.6,69.8l-1.4-1.4l1.4-1.4l1.4,1.4
			L57.6,69.8z M59,65.5L59,65.5l1.4-1.4l1.4,1.4L60.4,67L59,65.5z M57.6,64.1L57.6,64.1l-1.4-1.4l1.4-1.4l1.4,1.4L57.6,64.1z
			 M59,59.9L59,59.9l0.7-0.7l1.4,1.4l-0.7,0.7L59,59.9z M61.1,57.8L61.1,57.8l1.4-1.4l1.4,1.4l-1.4,1.4L61.1,57.8z M65.3,59.2
			L65.3,59.2l1.4,1.4L65.3,62l-1.4-1.4L65.3,59.2z M66.7,57.8L66.7,57.8l1.4-1.4l1.4,1.4l-1.4,1.4L66.7,57.8z M73.8,56.4L73.8,56.4
			l5.9,5.9c1.9,1.9,4.5,3,7.3,3c2.7,0,5.3-1.1,7.3-3c1.9-1.9,3-4.5,3-7.3c0-2.7-1.1-5.3-3-7.3c-1.9-1.9-4.5-3-7.3-3
			c-2.7,0-5.3,1.1-7.3,3l-5.9,5.9l-1.4-1.4l5.9-5.9c2.3-2.3,5.4-3.6,8.7-3.6s6.4,1.3,8.7,3.6c2.3,2.3,3.6,5.4,3.6,8.7
			s-1.3,6.4-3.6,8.7c-2.3,2.3-5.4,3.6-8.7,3.6c-3.3,0-6.4-1.3-8.7-3.6l-5.9-5.9L73.8,56.4L73.8,56.4z M75.2,55L75.2,55l5.9-5.9
			c1.6-1.6,3.6-2.4,5.9-2.4c2.2,0,4.3,0.9,5.9,2.4c1.6,1.6,2.4,3.6,2.4,5.9c0,2.2-0.9,4.3-2.4,5.9c-1.6,1.6-3.6,2.4-5.9,2.4
			c-2.2,0-4.3-0.9-5.9-2.4L75.2,55L75.2,55z M72.3,55L72.3,55l-1.4,1.4L69.5,55l1.4-1.4L72.3,55z M70.9,59.2L70.9,59.2l5.9,5.9
			c2.7,2.7,6.3,4.2,10.1,4.2c3.8,0,7.4-1.5,10.1-4.2c2.7-2.7,4.2-6.3,4.2-10.1c0-3.8-1.5-7.4-4.2-10.1c-2.7-2.7-6.3-4.2-10.1-4.2
			c-3.8,0-7.4,1.5-10.1,4.2l-5.9,5.9l-1.4-1.4l5.9-5.9c6.3-6.3,16.6-6.3,23,0c6.3,6.3,6.3,16.6,0,23c-6.3,6.3-16.6,6.3-23,0
			l-5.9-5.9L70.9,59.2L70.9,59.2z M69.5,52.2L69.5,52.2l-1.4,1.4l-1.4-1.4l1.4-1.4L69.5,52.2z M65.3,50.8L65.3,50.8l-1.4-1.4
			l1.4-1.4l1.4,1.4L65.3,50.8z M40.5,37.2L40.5,37.2c-7.9-7.9-7.9-20.7,0-28.6c3.8-3.8,8.9-5.9,14.3-5.9c5.4,0,10.5,2.1,14.3,5.9
			c7.9,7.9,7.9,20.7,0,28.6L63.2,43l-1.4-1.4l5.9-5.9c7.1-7.1,7.1-18.7,0-25.8C60.5,2.9,49,2.9,41.9,10c-7.1,7.1-7.1,18.7,0,25.8
			l5.9,5.9L46.3,43L40.5,37.2L40.5,37.2z M46.3,45.9L46.3,45.9l1.4,1.4L47,48l-1.4-1.4L46.3,45.9z M36.9,69.3L36.9,69.3
			c-3.8,3.8-8.9,5.9-14.3,5.9c-5.4,0-10.5-2.1-14.3-5.9c-7.9-7.9-7.9-20.7,0-28.6c3.8-3.8,8.9-5.9,14.3-5.9c5.4,0,10.5,2.1,14.3,5.9
			l5.9,5.9L41.4,48l-5.9-5.9c-3.4-3.4-8-5.3-12.9-5.3c-4.9,0-9.4,1.9-12.9,5.3c-7.1,7.1-7.1,18.7,0,25.8c3.4,3.4,8,5.3,12.9,5.3
			c4.9,0,9.4-1.9,12.9-5.3l5.9-5.9l1.4,1.4L36.9,69.3L36.9,69.3z M45.6,63.4L45.6,63.4L47,62l0.7,0.7l-1.4,1.4L45.6,63.4z
			 M69.1,72.8L69.1,72.8c7.9,7.9,7.9,20.7,0,28.6c-3.8,3.8-8.9,5.9-14.3,5.9s-10.5-2.1-14.3-5.9c-7.9-7.9-7.9-20.7,0-28.6l5.9-5.9
			l1.4,1.4l-5.9,5.9c-7.1,7.1-7.1,18.7,0,25.8c3.6,3.6,8.2,5.3,12.9,5.3c4.7,0,9.3-1.8,12.9-5.3c3.4-3.4,5.3-8,5.3-12.9
			c0-4.9-1.9-9.5-5.3-12.9l-5.9-5.9l1.4-1.4L69.1,72.8L69.1,72.8z M63.2,64.1L63.2,64.1l-1.4-1.4l0.7-0.7l1.4,1.4L63.2,64.1z
			 M101.2,69.3L101.2,69.3c-3.8,3.8-8.9,5.9-14.3,5.9s-10.5-2.1-14.3-5.9l-5.9-5.9l1.4-1.4l5.9,5.9c3.6,3.6,8.2,5.3,12.9,5.3
			c4.7,0,9.3-1.8,12.9-5.3c7.1-7.1,7.1-18.7,0-25.8C92.7,35,81.1,35,74,42.1L68.1,48l-1.4-1.4l5.9-5.9c3.8-3.8,8.9-5.9,14.3-5.9
			s10.5,2.1,14.3,5.9c3.8,3.8,5.9,8.9,5.9,14.3C107.1,60.4,105,65.5,101.2,69.3L101.2,69.3z"/>
	</g>
</g>
</svg>
