<svg width="68" height="69" viewBox="0 0 68 69" fill="none" xmlns="http://www.w3.org/2000/svg">
<rect x="0.5" y="1.2113" width="67" height="67" rx="33.5" stroke="#D9D9D9"/>
<g clip-path="url(#clip0_859_2294)">
<path d="M30.7082 31.7512C30.6182 31.7512 30.5232 31.7262 30.4382 31.6712C30.2132 31.5212 30.1532 31.2212 30.3032 31.0012C31.6282 29.0112 33.4482 27.2562 35.7082 25.7862C35.9332 25.6412 36.2332 25.7012 36.3782 25.9262C36.5232 26.1512 36.4632 26.4512 36.2382 26.5962C34.0882 27.9962 32.3632 29.6612 31.1132 31.5362C31.0182 31.6762 30.8632 31.7512 30.7082 31.7512Z" fill="black"/>
<path d="M38.8172 48.1954C36.7022 48.1954 34.7672 47.7604 33.1372 46.9054C32.9022 46.7804 32.8072 46.4904 32.9322 46.2504C33.0572 46.0154 33.3472 45.9204 33.5872 46.0454C35.6672 47.1304 38.2972 47.4754 41.1922 47.0404C45.4372 46.4754 48.1172 44.1004 48.7372 40.3654C49.5972 35.1854 46.3722 29.0204 41.5422 26.6204C41.3022 26.5004 41.2022 26.2104 41.3222 25.9704C41.4422 25.7304 41.7322 25.6304 41.9722 25.7504C47.1522 28.3254 50.6172 34.9554 49.6922 40.5254C48.9972 44.7204 46.0272 47.3754 41.3272 48.0054C40.4672 48.1304 39.6272 48.1954 38.8172 48.1954Z" fill="black"/>
<path d="M41.904 25.4619C41.809 25.4619 41.719 25.4369 41.634 25.3819C41.409 25.2319 41.349 24.9319 41.499 24.7119L41.624 24.5269L43.799 21.2119C43.409 21.2169 42.964 21.1969 42.454 21.1469C41.444 21.0519 40.394 20.8319 39.329 20.4919C36.204 19.5069 34.054 19.6369 33.059 19.8019L36.294 24.6819C36.439 24.9069 36.379 25.2069 36.154 25.3519C35.929 25.4969 35.629 25.4369 35.484 25.2119L31.864 19.7519C31.784 19.6269 31.759 19.4719 31.809 19.3319C31.854 19.1919 31.964 19.0769 32.104 19.0269C32.214 18.9869 34.869 18.0669 39.619 19.5669C40.619 19.8819 41.604 20.0869 42.544 20.1769C43.854 20.3069 44.409 20.2019 44.624 20.1269C44.819 20.0569 45.039 20.1219 45.164 20.2869C45.294 20.4519 45.299 20.6769 45.189 20.8519L42.304 25.2419C42.214 25.3869 42.059 25.4619 41.904 25.4619Z" fill="black"/>
<path d="M41.7078 26.6713H35.8628C35.2528 26.6713 34.7578 26.1763 34.7578 25.5663C34.7578 24.9563 35.2528 24.4613 35.8628 24.4613H41.7078C42.3178 24.4613 42.8128 24.9563 42.8128 25.5663C42.8178 26.1763 42.3178 26.6713 41.7078 26.6713ZM35.8628 25.4313C35.7878 25.4313 35.7278 25.4913 35.7278 25.5663C35.7278 25.6413 35.7878 25.7013 35.8628 25.7013H41.7078C41.7828 25.7013 41.8428 25.6413 41.8428 25.5663C41.8428 25.4913 41.7828 25.4313 41.7078 25.4313H35.8628Z" fill="black"/>
<path d="M26.5138 39.2829C24.5138 39.2829 22.6637 39.0179 21.2987 38.5379C20.1387 38.1279 19.4437 37.6029 19.2437 36.9779C19.2287 36.9279 19.2188 36.8779 19.2188 36.8279C19.2188 36.5579 19.4338 36.3429 19.7038 36.3429C19.9288 36.3429 20.1138 36.4929 20.1738 36.6979C20.2287 36.8329 20.4787 37.2179 21.6237 37.6229C22.8687 38.0579 24.6488 38.3129 26.5138 38.3129C28.3787 38.3129 30.1637 38.0629 31.4087 37.6229C32.4237 37.2629 32.8787 36.8479 32.8787 36.5979C32.8787 36.4379 32.6838 36.1679 32.1287 35.8829C31.8888 35.7579 31.7987 35.4679 31.9187 35.2279C32.0437 34.9879 32.3337 34.8979 32.5737 35.0179C33.6237 35.5629 33.8438 36.1779 33.8438 36.5979C33.8438 37.1429 33.4788 37.9229 31.7288 38.5379C30.3638 39.0179 28.5087 39.2829 26.5138 39.2829Z" fill="black"/>
<path d="M26.5155 42.2474C22.8755 42.2474 19.1855 41.3274 19.1855 39.5624L19.2205 36.8174C19.2255 36.5524 19.4405 36.3374 19.7055 36.3374H19.7105C19.9755 36.3424 20.1905 36.5624 20.1905 36.8274L20.1555 39.5724C20.1555 40.2474 22.6905 41.2824 26.5155 41.2824C30.3405 41.2824 32.8755 40.2524 32.8755 39.5674V36.6024C32.8755 36.3324 33.0905 36.1174 33.3605 36.1174C33.6305 36.1174 33.8455 36.3324 33.8455 36.6024V39.5674C33.8405 41.3274 30.1555 42.2474 26.5155 42.2474Z" fill="black"/>
<path d="M25.5019 35.3782C23.5019 35.3782 21.6519 35.1132 20.2869 34.6332C18.5369 34.0182 18.1719 33.2382 18.1719 32.6932C18.1719 30.9332 21.8569 30.0082 25.5019 30.0082C29.1419 30.0082 32.8319 30.9282 32.8319 32.6932C32.8319 33.2382 32.4669 34.0182 30.7169 34.6332C29.3519 35.1132 27.4969 35.3782 25.5019 35.3782ZM25.5019 30.9782C21.6769 30.9782 19.1419 32.0082 19.1419 32.6932C19.1419 32.9482 19.5969 33.3632 20.6069 33.7182C21.8519 34.1582 23.6369 34.4082 25.5019 34.4082C27.3669 34.4082 29.1469 34.1582 30.3969 33.7182C31.4119 33.3632 31.8619 32.9482 31.8619 32.6932C31.8619 32.0082 29.3219 30.9782 25.5019 30.9782Z" fill="black"/>
<path d="M25.5019 38.3424C21.8569 38.3424 18.1719 37.4224 18.1719 35.6574V32.6924C18.1719 32.4224 18.3869 32.2074 18.6569 32.2074C18.9269 32.2074 19.1419 32.4224 19.1419 32.6924V35.6574C19.1419 36.3374 21.6769 37.3724 25.5019 37.3724C29.3269 37.3724 31.8619 36.3424 31.8619 35.6574V32.6924C31.8619 32.4224 32.0769 32.2074 32.3469 32.2074C32.6169 32.2074 32.8319 32.4224 32.8319 32.6924V35.6574C32.8319 37.4224 29.1419 38.3424 25.5019 38.3424Z" fill="black"/>
<path d="M26.5138 47.7425C24.5138 47.7425 22.6637 47.4775 21.2987 46.9975C20.1387 46.5875 19.4437 46.0625 19.2437 45.4375C19.2287 45.3875 19.2188 45.3375 19.2188 45.2875C19.2188 45.0175 19.4338 44.8025 19.7038 44.8025C19.9288 44.8025 20.1138 44.9525 20.1738 45.1575C20.2287 45.2925 20.4737 45.6775 21.6237 46.0825C22.8687 46.5175 24.6488 46.7725 26.5138 46.7725C28.3787 46.7725 30.1637 46.5225 31.4087 46.0825C32.4237 45.7275 32.8787 45.3125 32.8787 45.0575C32.8787 44.8975 32.6838 44.6275 32.1287 44.3375C31.8888 44.2125 31.7987 43.9225 31.9237 43.6825C32.0487 43.4475 32.3387 43.3525 32.5787 43.4775C33.6287 44.0225 33.8488 44.6375 33.8488 45.0575C33.8488 45.6025 33.4837 46.3825 31.7337 46.9975C30.3637 47.4825 28.5087 47.7425 26.5138 47.7425Z" fill="black"/>
<path d="M26.5155 50.7135C22.8755 50.7135 19.1855 49.7935 19.1855 48.0285L19.2205 45.2835C19.2255 45.0185 19.4405 44.8035 19.7055 44.8035H19.7105C19.9755 44.8085 20.1905 45.0285 20.1905 45.2935L20.1555 48.0385C20.1555 48.7135 22.6905 49.7435 26.5155 49.7435C30.3405 49.7435 32.8755 48.7135 32.8755 48.0285V45.0635C32.8755 44.7935 33.0905 44.5785 33.3605 44.5785C33.6305 44.5785 33.8455 44.7935 33.8455 45.0635V48.0285C33.8405 49.7935 30.1555 50.7135 26.5155 50.7135Z" fill="black"/>
<path d="M25.5019 43.8348C23.5019 43.8348 21.6519 43.5698 20.2869 43.0898C18.5369 42.4748 18.1719 41.6948 18.1719 41.1498C18.1719 40.7148 18.4119 40.0748 19.5569 39.5098C19.7969 39.3948 20.0869 39.4898 20.2069 39.7298C20.3269 39.9698 20.2269 40.2598 19.9869 40.3798C19.3669 40.6848 19.1419 40.9798 19.1419 41.1498C19.1419 41.4048 19.5969 41.8198 20.6119 42.1748C21.8569 42.6098 23.6419 42.8648 25.5069 42.8648C27.3719 42.8648 29.1569 42.6148 30.4019 42.1748C31.4169 41.8198 31.8719 41.4048 31.8719 41.1498C31.8719 41.1048 31.8569 41.0548 31.8269 40.9998C31.6969 40.7648 31.7869 40.4698 32.0219 40.3398C32.2569 40.2098 32.5519 40.2998 32.6819 40.5348C32.7919 40.7348 32.8469 40.9398 32.8469 41.1498C32.8469 41.6948 32.4819 42.4748 30.7319 43.0898C29.3519 43.5748 27.4969 43.8348 25.5019 43.8348Z" fill="black"/>
<path d="M25.5019 46.807C21.8569 46.807 18.1719 45.887 18.1719 44.122V41.157C18.1719 40.887 18.3869 40.672 18.6569 40.672C18.9269 40.672 19.1419 40.887 19.1419 41.157V44.122C19.1419 44.802 21.6769 45.837 25.5019 45.837C29.3269 45.837 31.8619 44.807 31.8619 44.122V41.157C31.8619 40.887 32.0769 40.672 32.3469 40.672C32.6169 40.672 32.8319 40.887 32.8319 41.157V44.122C32.8319 45.887 29.1419 46.807 25.5019 46.807Z" fill="black"/>
</g>
<path d="M34 66.9288C34 67.9132 34.7986 68.7162 35.7817 68.6646C39.6378 68.4622 43.4358 67.6042 47.0112 66.1232C51.1363 64.4145 54.8844 61.9101 58.0416 58.7529C61.1988 55.5957 63.7032 51.8476 65.4119 47.7225C66.8929 44.1471 67.7509 40.3491 67.9533 36.493C68.0049 35.5099 67.2019 34.7113 66.2175 34.7113C65.233 34.7113 64.4404 35.5101 64.3828 36.4928C64.1842 39.8805 63.4201 43.2154 62.1183 46.3583C60.5887 50.0508 58.3469 53.4059 55.5208 56.2321C52.6946 59.0582 49.3395 61.3001 45.647 62.8296C42.5041 64.1314 39.1692 64.8955 35.7815 65.0941C34.7988 65.1517 34 65.9443 34 66.9288Z" fill="url(#paint0_linear_859_2294)"/>
<defs>
<linearGradient id="paint0_linear_859_2294" x1="-1.80522e-05" y1="68.7113" x2="-1.55719e-05" y2="0.711301" gradientUnits="userSpaceOnUse">
<stop stop-color="white"/>
<stop offset="0.475962" stop-color="#F9D58C"/>
<stop offset="1" stop-color="#F9D58C"/>
</linearGradient>
<clipPath id="clip0_859_2294">
<rect width="32" height="32" fill="white" transform="translate(18 18.7113)"/>
</clipPath>
</defs>
</svg>
