<svg width="69" height="69" viewBox="0 0 69 69" fill="none" xmlns="http://www.w3.org/2000/svg">
<rect x="0.5" y="1.2113" width="67" height="67" rx="33.5" stroke="#D9D9D9"/>
<g clip-path="url(#clip0_859_2340)">
<path d="M42.7808 37.6654H31.2295L37.6117 34.1087C38.2788 33.7354 38.5198 32.8889 38.1485 32.2209L37.1972 30.5154C36.8232 29.8473 35.9759 29.6076 35.3092 29.9805L32.6544 31.4598C32.9665 30.8333 33.1609 30.219 33.2327 29.6224C33.3525 28.6289 33.127 27.7323 32.5808 27.0294C31.693 25.8869 30.1428 25.5072 28.8109 26.1058C28.5747 26.2119 28.4694 26.4893 28.5755 26.7255C28.6816 26.9616 28.959 27.067 29.1952 26.9609C30.1313 26.5401 31.2191 26.8049 31.8405 27.6046C32.7329 28.753 32.3906 30.5493 30.9284 32.4216L30.3623 32.737L29.9526 32.0031C29.8474 31.814 29.7109 31.6491 29.5502 31.5129C29.6498 30.9168 29.9274 30.1453 30.2342 29.6413C30.3689 29.4202 30.2988 29.1318 30.0777 28.9972C29.8565 28.8625 29.5682 28.9327 29.4335 29.1538C29.1033 29.6961 28.8171 30.4476 28.6732 31.1124C28.2805 31.0498 27.8819 31.1189 27.5312 31.3144L27.3691 31.4048C27.3048 30.0523 27.5145 28.9203 27.987 28.1039C28.1167 27.8798 28.0402 27.5931 27.8161 27.4634C27.5922 27.3338 27.3053 27.4102 27.1756 27.6343C26.5486 28.7176 26.3097 30.1551 26.4631 31.9099L25.897 32.2254C23.5053 30.4475 21.165 30.084 19.5948 31.2619C18.458 32.1146 18.0298 33.6236 18.5534 34.9314C19.0877 36.2656 20.4235 37.0781 22.2639 37.2497L19.546 38.7642C18.8792 39.136 18.6388 39.9819 19.0103 40.6503L19.9614 42.3573C20.2148 42.8114 20.6884 43.0677 21.176 43.0677C21.4044 43.0677 21.6358 43.0114 21.8491 42.893C21.8493 42.8929 21.8495 42.8928 21.8497 42.8927L24.9126 41.1858V48.8208C24.9126 49.7386 25.6595 50.4854 26.5777 50.4854H42.2535C43.1717 50.4854 43.9187 49.7386 43.9187 48.8208V38.803C43.9186 38.1758 43.4082 37.6654 42.7808 37.6654ZM27.1593 38.8605L25.7702 36.3693L30.0002 34.0122L31.3892 36.5032L29.274 37.6819C29.1985 37.7022 29.1307 37.7407 29.0754 37.7927L27.1593 38.8605ZM35.7663 30.7991C35.8354 30.7604 35.9105 30.7421 35.9847 30.7421C36.1427 30.7421 36.2964 30.8254 36.3789 30.9727L37.3294 32.6769C37.4499 32.8936 37.3712 33.1689 37.1547 33.2901L32.2081 36.0468L30.8192 33.5558L35.7663 30.7991ZM27.9877 32.1334C28.1135 32.0633 28.2525 32.0277 28.3937 32.0277C28.4717 32.0277 28.5502 32.0386 28.6276 32.0605C28.8452 32.1223 29.0248 32.2638 29.1337 32.4596L29.5432 33.1932L25.3135 35.5501L24.9034 34.8143C24.8227 34.6696 24.7878 34.5073 24.8004 34.3446C24.8008 34.3401 24.8014 34.3357 24.8017 34.3312C24.8065 34.2793 24.8158 34.2274 24.8304 34.1761C24.8921 33.9593 25.0337 33.78 25.2295 33.6711L27.9877 32.1334ZM19.4237 34.583C19.0574 33.6681 19.359 32.6109 20.1574 32.0121C21.307 31.1497 23.083 31.4241 24.9914 32.7305L24.7736 32.8519C24.4289 33.0436 24.1637 33.3383 24.0091 33.6954C23.3901 33.5005 22.8342 33.3935 22.0379 33.3063C21.7804 33.2783 21.5491 33.4639 21.5209 33.7213C21.4927 33.9786 21.6785 34.2101 21.9359 34.2383C22.8118 34.3341 23.3271 34.4534 23.8748 34.637C23.9034 34.8571 23.9735 35.0717 24.0846 35.2709L24.4947 36.0067L23.983 36.2919C21.6567 36.5462 19.9554 35.911 19.4237 34.583ZM21.3934 42.0739C21.1794 42.1923 20.8986 42.1131 20.7801 41.9008L19.8295 40.1946C19.709 39.9779 19.7867 39.7036 20.0025 39.5833L24.3382 37.1673C24.3519 37.1604 24.3652 37.1531 24.3781 37.145L24.9513 36.8256L26.3404 39.3169L25.1609 39.9743C25.1584 39.9756 25.156 39.977 25.1535 39.9784L21.3934 42.0739ZM25.8501 48.8208V40.6634L29.5473 38.6029H31.7087V42.7542C31.7087 43.0131 31.9186 43.2229 32.1775 43.2229C32.4364 43.2229 32.6462 43.0131 32.6462 42.7542V38.6029H36.1849V49.5479H32.6462V44.9751C32.6462 44.7162 32.4364 44.5063 32.1775 44.5063C31.9186 44.5063 31.7087 44.7162 31.7087 44.9751V49.5479H26.5777C26.1765 49.5479 25.8501 49.2218 25.8501 48.8208ZM42.9811 48.8208C42.9811 49.2218 42.6547 49.5479 42.2535 49.5479H37.1225V38.6029H42.7808C42.8894 38.6029 42.9811 38.6946 42.9811 38.803V48.8208Z" fill="black"/>
<path d="M41.0612 27.1642C41.0675 27.2219 41.6623 32.9534 39.6555 35.1289C39.4799 35.3192 39.4919 35.6158 39.6822 35.7913C39.7723 35.8744 39.8862 35.9155 39.9999 35.9155C40.1262 35.9155 40.2522 35.8647 40.3446 35.7645C42.6372 33.2793 42.0207 27.3159 41.9933 27.0632C41.9654 26.8058 41.7343 26.62 41.4768 26.6476C41.2194 26.6756 41.0333 26.9069 41.0612 27.1642Z" fill="black"/>
<path d="M45.3483 26.4672C44.5553 27.6815 44.3034 28.7652 44.293 28.8107C44.2357 29.0629 44.3935 29.3132 44.6455 29.371C44.6807 29.379 44.7158 29.3829 44.7504 29.3829C44.9639 29.3829 45.1569 29.2359 45.207 29.0191C45.2092 29.0094 45.4412 28.0287 46.1515 26.952C47.086 25.5352 48.3707 24.6232 49.9696 24.2415C50.2214 24.1815 50.3769 23.9286 50.3167 23.6768C50.2567 23.425 50.0039 23.2696 49.752 23.3297C47.9272 23.7652 46.4044 24.8502 45.3483 26.4672Z" fill="black"/>
<path d="M35.7363 23.8896C35.7379 23.901 35.7401 23.9283 35.7359 23.9833L35.6255 25.3471C35.6098 25.4918 35.5788 25.8155 35.8431 26.0155C36.1118 26.2188 36.4275 26.0913 36.5671 26.035L37.8198 25.5129C37.8446 25.5049 37.9058 25.5046 37.9284 25.5116L39.1911 26.0369C39.2706 26.069 39.4129 26.1265 39.5714 26.1265C39.6814 26.1265 39.7993 26.0988 39.9091 26.0156C40.1726 25.8162 40.1418 25.4924 40.1261 25.3474L40.0178 23.9855C40.0136 23.9306 40.0151 23.9027 40.0165 23.8903L40.9266 22.7936C41.0317 22.6743 41.2393 22.4326 41.1415 22.1192C41.0423 21.8013 40.7193 21.7211 40.5813 21.6868L39.1977 21.3436L38.47 20.129C38.4031 20.016 38.2253 19.7161 37.8781 19.7152C37.8775 19.7152 37.8769 19.7152 37.8764 19.7152C37.5301 19.7152 37.3507 20.0141 37.2831 20.1268C37.283 20.1269 37.2829 20.127 37.2829 20.1271L36.5608 21.3326L36.5543 21.3437L35.1696 21.6871C35.032 21.7215 34.7096 21.802 34.6108 22.1199C34.5133 22.4332 34.7278 22.6832 34.8253 22.7939L35.7363 23.8896ZM36.8246 22.2425C37.1371 22.1653 37.2499 22.0105 37.3468 21.8451L37.8758 20.9615L38.4096 21.8526C38.5061 22.0145 38.6182 22.1662 38.9266 22.2424L39.9543 22.4973L39.2924 23.2948C39.0749 23.5519 39.0661 23.837 39.083 24.0583L39.1586 25.008L38.2909 24.647C38.0444 24.5429 37.7116 24.5426 37.4628 24.6461L36.5935 25.0084L36.6705 24.0567C36.6858 23.8563 36.6809 23.5595 36.4635 23.298L35.7977 22.4972L36.8246 22.2425Z" fill="black"/>
<path d="M50.0895 33.5719C50.1883 33.4608 50.4032 33.2116 50.3062 32.8981C50.2075 32.5791 49.8834 32.4986 49.7449 32.4642L48.3632 32.1216L47.6341 30.9041C47.5665 30.7915 47.387 30.4926 47.0407 30.4926C47.0402 30.4926 47.0396 30.4926 47.0391 30.4926C46.6931 30.4935 46.5154 30.7913 46.4479 30.9051L45.7244 32.1099L45.7175 32.1216L44.3357 32.4642C44.1974 32.4986 43.8732 32.5791 43.7745 32.8981C43.6776 33.2115 43.8925 33.4607 43.9913 33.5718L44.9007 34.6677C44.9021 34.68 44.9037 34.7074 44.8996 34.7606L44.7891 36.1242C44.7744 36.2684 44.7444 36.5949 45.0093 36.7939C45.2775 36.9954 45.5918 36.8685 45.7307 36.8123L46.9836 36.2902C47.0091 36.282 47.0717 36.282 47.0938 36.2889L48.3548 36.8142C48.4342 36.8462 48.5764 36.9037 48.735 36.9037C48.8445 36.9037 48.9619 36.8762 49.0716 36.7939C49.3365 36.5948 49.3065 36.2684 49.2918 36.1242L49.1815 34.7627C49.1773 34.7079 49.1788 34.6801 49.1802 34.6676L50.0895 33.5719ZM48.4562 34.0721C48.2385 34.3292 48.2298 34.6143 48.2467 34.8363L48.3236 35.7857L47.4542 35.4234C47.2067 35.3203 46.874 35.3204 46.6265 35.4234L45.7571 35.7857L45.8342 34.834C45.851 34.6143 45.8422 34.3292 45.6275 34.0756L44.9629 33.2746L45.9914 33.0195C46.3015 32.942 46.4137 32.7876 46.5103 32.6228L47.0411 31.7384L47.5517 32.5907L47.5706 32.6228C47.6671 32.7877 47.7794 32.9421 48.0904 33.0197L49.118 33.2746L48.4562 34.0721Z" fill="black"/>
<path d="M45.3294 23.7342C46.6225 23.7342 47.6745 22.6833 47.6745 21.3916C47.6745 20.0989 46.6225 19.0472 45.3294 19.0472C44.0364 19.0472 42.9844 20.0989 42.9844 21.3916C42.9844 22.6833 44.0364 23.7342 45.3294 23.7342ZM45.3294 19.9847C46.1056 19.9847 46.737 20.6159 46.737 21.3916C46.737 22.1664 46.1056 22.7967 45.3294 22.7967C44.5533 22.7967 43.9219 22.1664 43.9219 21.3916C43.9219 20.6159 44.5533 19.9847 45.3294 19.9847Z" fill="black"/>
</g>
<path d="M50.4432 60.612C50.9354 61.4646 52.0285 61.7606 52.8541 61.2244C56.0924 59.1211 58.9525 56.4791 61.3084 53.4087C64.0265 49.8665 66.0203 45.8235 67.1759 41.5107C68.3315 37.1979 68.6263 32.6997 68.0436 28.273C67.5384 24.436 66.3825 20.7179 64.6297 17.2772C64.1828 16.4 63.0882 16.1099 62.2356 16.6021C61.383 17.0943 61.096 18.1824 61.5375 19.0623C63.0593 22.0954 64.065 25.3656 64.509 28.7383C65.0307 32.7009 64.7668 36.7274 63.7324 40.588C62.6979 44.4486 60.9132 48.0676 58.4801 51.2385C56.4092 53.9373 53.9031 56.2665 51.0687 58.1324C50.2464 58.6736 49.9509 59.7595 50.4432 60.612Z" fill="url(#paint0_linear_859_2340)"/>
<defs>
<linearGradient id="paint0_linear_859_2340" x1="21.8896" y1="79.1557" x2="-12.1104" y2="20.266" gradientUnits="userSpaceOnUse">
<stop stop-color="white"/>
<stop offset="0.475962" stop-color="#F9D58C"/>
<stop offset="1" stop-color="#F9D58C"/>
</linearGradient>
<clipPath id="clip0_859_2340">
<rect width="32" height="32" fill="white" transform="translate(18.332 18.766)"/>
</clipPath>
</defs>
</svg>
