<svg xmlns="http://www.w3.org/2000/svg" width="36" height="36" viewBox="0 0 36 36" fill="none">
  <path fill-rule="evenodd" clip-rule="evenodd" d="M18 0C27.9407 0 36 8.05943 36 17.9999C36 27.9404 27.9406 35.9999 17.9996 35.9999C8.05859 35.9999 0 27.941 0 17.9999C0 8.05887 8.05922 0 18 0ZM25.7108 24.6562C25.7108 24.6093 25.7016 24.5629 25.6837 24.5195C25.6658 24.4762 25.6395 24.4368 25.6063 24.4036C25.5732 24.3705 25.5338 24.3442 25.4904 24.3262C25.4471 24.3083 25.4007 24.2991 25.3538 24.2991H16.892C16.8447 24.2984 16.7977 24.3072 16.7538 24.3248C16.7099 24.3425 16.67 24.3687 16.6363 24.4019C16.6026 24.4351 16.5758 24.4747 16.5576 24.5184C16.5393 24.562 16.5299 24.6089 16.5299 24.6562C16.5299 24.7035 16.5393 24.7503 16.5576 24.794C16.5758 24.8376 16.6026 24.8772 16.6363 24.9105C16.67 24.9437 16.7099 24.9699 16.7538 24.9875C16.7977 25.0052 16.8447 25.0139 16.892 25.0133H25.3538C25.4007 25.0133 25.4471 25.0041 25.4904 24.9861C25.5338 24.9682 25.5731 24.9419 25.6063 24.9087C25.6395 24.8756 25.6658 24.8362 25.6837 24.7929C25.7016 24.7495 25.7108 24.7031 25.7108 24.6562ZM25.7108 22.8305C25.7108 22.7836 25.7016 22.7372 25.6836 22.6939C25.6657 22.6506 25.6394 22.6113 25.6062 22.5781C25.573 22.545 25.5337 22.5187 25.4904 22.5008C25.4471 22.4829 25.4006 22.4737 25.3538 22.4737H16.892C16.8447 22.473 16.7978 22.4818 16.7539 22.4994C16.71 22.5171 16.67 22.5432 16.6364 22.5765C16.6027 22.6097 16.5759 22.6492 16.5577 22.6929C16.5394 22.7365 16.53 22.7833 16.53 22.8306C16.53 22.8779 16.5394 22.9248 16.5577 22.9684C16.5759 23.012 16.6027 23.0516 16.6364 23.0848C16.67 23.118 16.71 23.1442 16.7539 23.1619C16.7978 23.1795 16.8447 23.1883 16.892 23.1876H25.3538C25.4007 23.1876 25.4471 23.1784 25.4904 23.1604C25.5338 23.1425 25.5732 23.1162 25.6063 23.083C25.6395 23.0499 25.6658 23.0105 25.6837 22.9672C25.7016 22.9238 25.7108 22.8774 25.7108 22.8305ZM25.7108 21.0057C25.7108 20.9588 25.7016 20.9124 25.6837 20.869C25.6658 20.8257 25.6395 20.7863 25.6063 20.7532C25.5732 20.72 25.5338 20.6937 25.4904 20.6758C25.4471 20.6578 25.4007 20.6486 25.3538 20.6486H16.892C16.7973 20.6486 16.7065 20.6862 16.6395 20.7532C16.5725 20.8202 16.5349 20.911 16.5349 21.0057C16.5349 21.1004 16.5725 21.1913 16.6395 21.2582C16.7065 21.3252 16.7973 21.3628 16.892 21.3628H25.3538C25.4485 21.3628 25.5393 21.3251 25.6062 21.2582C25.6732 21.1912 25.7108 21.1004 25.7108 21.0057ZM21.123 11.7013C20.9212 11.7012 20.7239 11.7611 20.556 11.8732C20.3882 11.9853 20.2574 12.1446 20.1801 12.3311C20.1029 12.5175 20.0826 12.7227 20.122 12.9207C20.1613 13.1186 20.2585 13.3004 20.4012 13.4432C20.5439 13.5859 20.7257 13.6831 20.9236 13.7225C21.1216 13.7619 21.3268 13.7417 21.5132 13.6645C21.6997 13.5873 21.8591 13.4566 21.9713 13.2888C22.0834 13.121 22.1433 12.9237 22.1433 12.7219C22.143 12.4513 22.0354 12.192 21.8441 12.0006C21.6529 11.8093 21.3935 11.7017 21.123 11.7013ZM21.123 14.4564C21.4661 14.4564 21.8015 14.3546 22.0867 14.164C22.372 13.9733 22.5943 13.7024 22.7255 13.3854C22.8568 13.0684 22.8911 12.7196 22.8242 12.3832C22.7572 12.0467 22.592 11.7376 22.3494 11.495C22.1067 11.2524 21.7976 11.0872 21.4611 11.0203C21.1246 10.9534 20.7759 10.9878 20.4589 11.1191C20.1419 11.2505 19.871 11.4728 19.6804 11.7581C19.4899 12.0434 19.3882 12.3788 19.3882 12.7219C19.3888 13.1818 19.5717 13.6226 19.8969 13.9478C20.2222 14.273 20.6631 14.4559 21.123 14.4564ZM21.123 15.258C20.4209 15.2588 19.7432 15.5156 19.2169 15.9803C18.6906 16.445 18.3518 17.0856 18.264 17.7822H23.9821C23.8942 17.0856 23.5553 16.445 23.029 15.9804C22.5027 15.5157 21.8251 15.2589 21.123 15.258ZM17.8845 18.496H24.3612C24.4559 18.4959 24.5467 18.4583 24.6136 18.3913C24.6806 18.3244 24.7182 18.2336 24.7183 18.1389C24.7183 17.1853 24.3395 16.2708 23.6652 15.5965C22.9909 14.9222 22.0764 14.5434 21.1229 14.5434C20.1693 14.5434 19.2548 14.9222 18.5805 15.5965C17.9062 16.2708 17.5274 17.1853 17.5274 18.1389C17.5275 18.2335 17.5652 18.3243 17.6322 18.3913C17.6991 18.4582 17.7899 18.4959 17.8845 18.496ZM26.8415 27.5066V8.4934C26.8412 8.17379 26.714 7.86738 26.488 7.64142C26.262 7.41546 25.9555 7.28841 25.6359 7.28817H15.4043V28.7118H25.6359C25.9555 28.7115 26.2618 28.5844 26.4878 28.3584C26.7137 28.1325 26.8408 27.8261 26.8412 27.5066H26.8415ZM10.8416 27.5066C10.842 27.8261 10.969 28.1325 11.195 28.3585C11.4209 28.5844 11.7273 28.7115 12.0469 28.7118H14.6906V7.28817H12.0469C11.7273 7.28843 11.421 7.41546 11.195 7.64136C10.9691 7.86727 10.842 8.1736 10.8416 8.49312V10.3178H11.3515C11.5063 10.3166 11.6598 10.3461 11.8032 10.4045C11.9466 10.4629 12.077 10.5491 12.1869 10.6582C12.2968 10.7673 12.3841 10.897 12.4436 11.0399C12.5031 11.1829 12.5338 11.3362 12.5338 11.491C12.5338 11.6458 12.5031 11.7991 12.4436 11.9421C12.3841 12.085 12.2968 12.2147 12.1869 12.3238C12.077 12.4329 11.9466 12.5191 11.8032 12.5775C11.6598 12.6359 11.5063 12.6654 11.3515 12.6642H10.8416V16.827H11.3515C11.5062 16.8258 11.6597 16.8553 11.8031 16.9137C11.9464 16.9721 12.0768 17.0583 12.1867 17.1673C12.2966 17.2764 12.3838 17.4061 12.4433 17.549C12.5028 17.6918 12.5334 17.8451 12.5334 17.9999C12.5334 18.1547 12.5028 18.3079 12.4433 18.4508C12.3838 18.5937 12.2966 18.7234 12.1867 18.8325C12.0768 18.9415 11.9464 19.0277 11.8031 19.0861C11.6597 19.1445 11.5062 19.1739 11.3515 19.1727H10.8416V23.3356H11.3515C11.6626 23.3356 11.961 23.4592 12.181 23.6792C12.401 23.8992 12.5246 24.1976 12.5246 24.5088C12.5246 24.8199 12.401 25.1183 12.181 25.3383C11.961 25.5583 11.6626 25.6819 11.3515 25.6819H10.8416V27.5063V27.5066ZM9.15877 24.5092C9.15882 24.6308 9.20714 24.7474 9.2931 24.8334C9.37907 24.9195 9.49566 24.9678 9.61727 24.968H11.3515C11.4122 24.9687 11.4725 24.9574 11.5288 24.9347C11.5852 24.912 11.6365 24.8783 11.6797 24.8356C11.7229 24.7929 11.7572 24.742 11.7807 24.686C11.8041 24.6299 11.8161 24.5698 11.8161 24.509C11.8161 24.4483 11.8041 24.3881 11.7807 24.332C11.7572 24.276 11.7229 24.2251 11.6797 24.1824C11.6365 24.1397 11.5852 24.1061 11.5288 24.0833C11.4725 24.0606 11.4122 24.0493 11.3515 24.05H9.61727C9.49565 24.0503 9.37909 24.0988 9.29314 24.1849C9.2072 24.2709 9.15888 24.3876 9.15877 24.5092ZM9.15877 18C9.15884 18.1216 9.20716 18.2382 9.29312 18.3243C9.37908 18.4103 9.49566 18.4587 9.61727 18.4589H11.3515C11.4122 18.4596 11.4725 18.4483 11.5288 18.4256C11.5851 18.4029 11.6364 18.3692 11.6796 18.3265C11.7228 18.2838 11.7571 18.233 11.7805 18.1769C11.8039 18.1209 11.816 18.0608 11.816 18C11.816 17.9393 11.8039 17.8792 11.7805 17.8231C11.7571 17.7671 11.7228 17.7163 11.6796 17.6736C11.6364 17.6309 11.5851 17.5972 11.5288 17.5745C11.4725 17.5518 11.4122 17.5405 11.3515 17.5412H9.61727C9.49568 17.5414 9.37912 17.5898 9.29317 17.6758C9.20721 17.7618 9.15888 17.8784 9.15877 18ZM9.15877 11.4912C9.15888 11.6128 9.2072 11.7294 9.29315 11.8155C9.3791 11.9015 9.49565 11.95 9.61727 11.9502H11.3515C11.4122 11.951 11.4725 11.9397 11.5288 11.917C11.5852 11.8942 11.6365 11.8605 11.6797 11.8178C11.7229 11.7751 11.7572 11.7243 11.7807 11.6682C11.8041 11.6122 11.8161 11.552 11.8161 11.4913C11.8161 11.4305 11.8041 11.3704 11.7807 11.3143C11.7572 11.2583 11.7229 11.2074 11.6797 11.1647C11.6365 11.122 11.5852 11.0883 11.5288 11.0656C11.4725 11.0429 11.4122 11.0316 11.3515 11.0323H9.61727C9.49566 11.0325 9.37906 11.0809 9.2931 11.1669C9.20714 11.2529 9.15882 11.3696 9.15877 11.4912ZM25.6359 6.57429H12.0469C11.538 6.57487 11.0502 6.77723 10.6903 7.137C10.3305 7.49676 10.128 7.98456 10.1273 8.4934V10.3181H9.6172C9.30762 10.3205 9.01154 10.4451 8.79348 10.6649C8.57542 10.8847 8.45305 11.1817 8.45305 11.4913C8.45305 11.8009 8.57542 12.0979 8.79348 12.3177C9.01154 12.5374 9.30762 12.6621 9.6172 12.6645H10.1273V16.8273H9.6172C9.30772 16.8297 9.01172 16.9543 8.79373 17.174C8.57573 17.3937 8.4534 17.6907 8.4534 18.0002C8.4534 18.3097 8.57573 18.6066 8.79373 18.8263C9.01172 19.046 9.30772 19.1706 9.6172 19.173H10.1273V23.3359H9.6172C9.30606 23.3359 9.00766 23.4595 8.78765 23.6795C8.56764 23.8995 8.44404 24.1979 8.44404 24.509C8.44404 24.8202 8.56764 25.1186 8.78765 25.3386C9.00766 25.5586 9.30606 25.6822 9.6172 25.6822H10.1273V27.5066C10.1279 28.0155 10.3303 28.5034 10.6902 28.8633C11.05 29.2232 11.5379 29.4256 12.0469 29.4261H25.6359C26.1449 29.4256 26.6328 29.2232 26.9927 28.8634C27.3526 28.5035 27.555 28.0155 27.5555 27.5066V8.4934C27.5548 7.98454 27.3524 7.49671 26.9925 7.13693C26.6327 6.77716 26.1448 6.57481 25.6359 6.57429Z" fill="#EACA82"/>
</svg>