<svg width="28" height="28" viewBox="0 0 28 28" fill="none" xmlns="http://www.w3.org/2000/svg">
<path fill-rule="evenodd" clip-rule="evenodd" d="M12.9783 14.3844C13.0088 14.3788 13.0388 14.376 13.0687 14.3705C13.0172 14.3133 12.9395 14.0862 13.004 14.0652C13.0042 14.065 13.0104 14.018 13.0271 14.018C13.1298 13.9282 13.507 13.895 13.6531 13.9459C13.6582 13.9802 13.6941 13.9694 13.6923 13.982C13.6982 14.0114 13.7789 14.0204 13.7977 14.0541L13.8216 14.2705C13.8069 14.2761 13.8294 14.2844 13.8241 14.2927C13.8419 14.3566 13.8457 14.3279 13.8016 14.4121C13.8926 14.4292 14.0393 14.4682 14.1193 14.5064C14.2046 14.547 14.3632 14.5274 14.3785 14.5785C14.4108 14.6381 14.7097 14.6688 14.744 14.8283L14.6418 14.8228C14.6432 14.8255 14.6443 14.8283 14.6462 14.8283C14.6645 14.8544 14.6239 14.8505 14.6163 14.8727C14.609 14.8939 14.7431 14.95 14.4664 14.9116C14.1555 14.8669 13.7146 14.9356 13.3919 14.956C12.0102 15.1231 12.3089 16.031 13.5981 15.9688C15.4447 16.0083 15.6803 18.1076 13.7702 18.3443H13.7721L13.8118 18.4414H13.8126C13.8344 18.4988 13.8438 18.5226 13.8282 18.5746C13.8147 18.5746 13.825 18.6042 13.8074 18.608C13.7643 18.7637 13.2845 18.7771 13.1585 18.7273C13.1508 18.6893 13.1363 18.7225 13.1114 18.6774L13.0692 18.6551C13.077 18.6523 13.0526 18.6468 13.0384 18.644L13.0334 18.6301C12.9868 18.601 13.0137 18.6042 13.0029 18.583C12.9996 18.5746 13.0021 18.5691 13.0068 18.5636C13.0093 18.5608 13.0035 18.558 13.0029 18.5552L12.9988 18.4747C12.9959 18.4569 12.986 18.4836 12.9885 18.4082C12.9885 18.4054 12.9821 18.3998 12.9905 18.3971C13.0134 18.388 12.9517 18.3598 12.9852 18.2972C12.9855 18.2972 12.9861 18.2944 12.9866 18.2944C12.7063 18.178 12.237 18.0233 12.1585 17.6201C12.4176 17.5528 12.8186 17.6484 13.1245 17.6617C13.4599 17.6002 14.0556 17.5495 14.2501 17.2399C14.3705 16.6905 13.2292 16.783 12.8776 16.6932C11.3752 16.3347 11.4144 14.6209 12.9783 14.3844ZM21.9625 18.0031C21.9722 17.2173 21.9325 15.0953 21.9467 14.2762C21.961 13.6414 20.5526 14.3151 20.3999 12.7388C20.3981 12.5517 20.2517 12.4102 20.0752 12.4113C16.1488 12.4662 10.311 12.4423 7.23313 12.7804C7.217 12.796 7.17998 12.8042 7.16486 12.8054L7.25396 12.822L6.84437 12.8442C11.2241 13.0549 15.3852 13.0785 19.7384 13.1079C19.8857 13.8665 20.4639 14.4582 21.2158 14.6258L21.185 18.0003C20.4352 18.1633 19.8602 18.7456 19.7003 19.5016C15.616 19.4992 11.1944 19.523 7.1069 19.5182C6.93694 18.7807 6.29535 18.1682 5.54148 18.0419C5.49685 16.9148 5.48884 15.6354 5.44908 14.5092C6.21869 14.4219 6.96953 13.5652 6.79162 12.7915C6.77465 13.0733 6.40136 13.651 5.87725 13.9181C5.58533 14.1403 5.02689 13.8723 4.96171 14.2566C4.88342 15.6476 4.81085 16.997 4.80833 18.3804C4.83666 18.9971 5.68327 18.5962 6.07426 19.1962C6.07202 19.2516 6.0956 19.2767 6.09117 19.2712C6.09772 19.3643 6.1451 19.4293 6.21409 19.496C6.21465 19.496 6.21577 19.496 6.21605 19.4987C6.45372 19.722 6.13715 20.279 6.73641 20.3312C10.6485 20.3632 15.5153 20.3333 19.4037 20.2923C19.6966 20.2633 20.4303 20.4342 20.4448 19.9482C20.4614 19.7239 20.4504 19.7291 20.519 19.5181C21.0942 18.1785 22.1073 19.3329 21.9625 18.0031ZM25.2498 13.6324C25.2898 13.332 24.9295 12.8826 24.7617 12.6001C24.1427 11.5624 23.1232 9.78427 22.5017 8.71781C22.3157 8.38971 21.6302 7.24495 21.4386 6.89456C21.1426 6.50872 21.0819 5.88102 20.5045 5.81505C17.4369 7.19388 14.0599 9.45679 10.9922 10.9656C11.7779 10.9413 12.738 10.9271 13.5333 10.9267C14.6372 9.88748 16.2163 9.11166 17.4957 8.31814C17.8919 8.14868 18.9338 7.13452 19.2498 7.66602C19.561 8.23324 20.3619 8.36495 20.8738 8.0462C21.3312 7.84303 21.5302 8.46111 21.698 8.75942C22.0764 9.40975 22.5312 10.269 22.6929 10.9961C23.2077 11.2195 23.5203 11.7772 23.4852 12.3281L23.4882 15.1142C23.9443 14.6424 25.1997 14.27 25.2498 13.6324ZM18.5797 8.57899L18.8206 8.42633C19.3478 9.00139 20.1342 9.18759 20.8705 8.95637C21.2228 9.60513 21.726 10.2844 22.147 10.8739C19.9544 10.8854 16.3701 10.9074 14.2157 10.9211C15.6792 10.2042 17.1433 9.36058 18.5797 8.57899ZM22.7606 13.0219C22.7706 12.461 22.9107 11.5866 22.1029 11.5705C16.606 11.5216 10.1815 11.601 4.68423 11.3513C4.78273 11.329 5.12764 11.3188 5.25145 11.3152C5.06749 11.2948 5.19058 11.2969 5.27419 11.2597C4.1053 11.1782 9.30507 11.0549 9.53613 11.0183C9.25713 6.64379 3.24509 7.2496 3.90863 11.4456C4.10172 11.3139 4.4254 11.2376 4.68423 11.2763C3.98809 11.3472 3.74365 12.0539 3.892 12.6861C3.93842 13.2468 3.88724 13.941 3.92218 14.5037C3.94934 16.468 4.00915 18.4496 4.03956 20.409C4.0344 20.9031 4.52575 21.1242 4.96921 21.0584C10.3791 21.0268 16.9538 21.0862 22.2749 21.0196C22.5359 20.9498 22.7228 20.7027 22.7228 20.434C22.7229 17.9621 22.7436 15.4938 22.7606 13.0219ZM11.2811 21.9464C10.7661 22.223 10.1717 22.4903 9.68514 22.8011C8.99326 23.0516 8.8933 22.3383 8.4042 21.8854C8.40252 21.8919 11.3033 21.884 11.3938 21.8854L11.2811 21.9464ZM3.36526 13.0052C0.0305171 6.86477 9.88277 3.8448 10.7447 10.7713L10.4416 10.985L9.79479 11.0071C10.753 8.81099 8.0785 6.66905 5.98136 7.24154C4.11252 7.59837 2.56133 9.90204 3.72215 11.6399C3.41796 12.0055 3.51148 12.7252 3.4552 13.1634C3.43476 13.1336 3.36134 13.0394 3.36526 13.0052ZM11.1545 10.0275C11.1795 8.48457 10.0645 7.05259 8.72138 6.3867C11.3059 5.40345 13.1029 8.51856 11.1362 10.3661C11.1559 10.2361 11.1569 10.1627 11.1545 10.0275ZM7.32194 5.95376C9.95674 3.83203 13.3324 5.76459 13.3415 9.01467L12.6273 9.45035C13.7402 7.0326 10.2426 4.19217 8.29931 6.20912C7.95004 6.0834 7.67648 6.01335 7.30251 5.96491C7.30861 5.96211 7.315 5.95656 7.32194 5.95376ZM25.96 13.4159C25.9429 12.8836 25.5321 12.4069 25.3067 11.9562C20.0505 3.21195 22.6598 3.60434 13.7761 8.75376C14.8447 5.02439 8.75784 2.55988 6.8815 5.93153C3.03665 5.60679 0.231053 10.9318 3.43375 13.5241C3.38912 15.984 3.0861 18.504 3.35535 20.9473C3.59184 21.5668 4.23741 21.9212 4.879 21.8686L7.78808 21.8853C7.99803 23.4007 9.31397 24.2644 10.5898 23.1673C11.1816 22.7603 11.9488 22.4144 12.4776 21.8826C24.5396 21.3512 23.6151 24.186 23.4885 15.4028C24.4066 15.0049 26.0447 14.7339 25.96 13.4159Z" fill="#EEAD1E"/>
</svg>
