<?xml version="1.0" encoding="utf-8"?>
<svg width="345" height="117" viewBox="0 0 345 117" fill="none" xmlns="http://www.w3.org/2000/svg" xmlns:bx="https://boxy-svg.com"><defs><linearGradient id="paint0_linear_1079_6373" x1="111" y1="47" x2="3" y2="47" gradientUnits="userSpaceOnUse" gradientTransform="matrix(1, 0, 0, 1, 5.062009, 2.926547)" spreadMethod="pad"><stop stop-color="#F9D58C" stop-opacity="0"/><stop offset="1" stop-color="#F9D58C"/></linearGradient><bx:export><bx:file format="svg" href="#object-0" excluded="true"/><bx:file format="svg" href="#object-1" path="Untitled 2.svg" excluded="true"/><bx:file format="svg" path="Untitled 3.svg"/></bx:export></defs><path d="M 112.177 6.799 L 325.291 6.799 C 333.921 6.799 340.919 13.338 340.919 21.406 L 340.919 97.185 C 340.919 105.255 333.921 111.794 325.291 111.794 L 21.549 111.794 C 12.919 111.794 5.923 105.255 5.923 97.185 L 5.923 56.432" stroke="#D9D9D9" style="" id="object-0"/><path d="M 5.06 49.926 C 5.06 51.583 6.404 52.926 8.06 52.926 C 9.717 52.926 11.06 51.583 11.06 49.926 L 5.06 49.926 Z M 21.792 7.104 L 20.757 4.288 L 21.792 7.104 Z M 8.06 49.926 L 11.06 49.926 L 11.06 22.426 L 8.06 22.426 L 5.06 22.426 L 5.06 49.926 L 8.06 49.926 Z M 8.06 22.426 L 11.06 22.426 C 11.06 20.094 13.062 13.506 22.826 9.92 L 21.792 7.104 L 20.757 4.288 C 8.779 8.688 5.06 17.426 5.06 22.426 L 8.06 22.426 Z M 29.767 5.926 L 29.767 8.926 L 116.06 8.926 L 116.06 5.926 L 116.06 2.926 L 29.767 2.926 L 29.767 5.926 Z M 21.792 7.104 L 22.826 9.92 C 24.889 9.163 27.214 8.926 29.767 8.926 L 29.767 5.926 L 29.767 2.926 C 26.908 2.926 23.776 3.18 20.757 4.288 L 21.792 7.104 Z" fill="url(#paint0_linear_1079_6373)" style="stroke-width: 1;" id="object-1"/></svg>