<svg width="12" height="12" viewBox="0 0 12 12" fill="none" xmlns="http://www.w3.org/2000/svg">
<g clip-path="url(#clip0_966_4124)">
<path fill-rule="evenodd" clip-rule="evenodd" d="M5.65154 5.952C5.62504 6.4695 5.62504 7.375 5.62504 7.375C5.62504 7.582 5.79304 7.75 6.00004 7.75C6.20704 7.75 6.37504 7.582 6.37504 7.375C6.37504 7.375 6.37504 6.4855 6.40104 5.9835C6.40104 5.9775 6.40104 5.971 6.40104 5.9645C6.40104 5.95 6.41104 5.938 6.42454 5.9345C6.43504 5.932 6.44504 5.929 6.45454 5.926C7.14054 5.696 7.62504 4.9405 7.62504 4.1795C7.62504 3.2525 6.87254 2.5 5.94554 2.5C5.25754 2.5 4.66554 2.9145 4.40654 3.5075C4.32354 3.697 4.41004 3.918 4.59954 4.001C4.78954 4.084 5.01054 3.9975 5.09354 3.808C5.23704 3.4795 5.56504 3.25 5.94554 3.25C6.45854 3.25 6.87504 3.6665 6.87504 4.1795C6.87504 4.6175 6.62404 5.068 6.23304 5.209C5.89254 5.301 5.65704 5.6035 5.65154 5.952Z" fill="black"/>
<path d="M6 9.125C6.27614 9.125 6.5 8.90114 6.5 8.625C6.5 8.34886 6.27614 8.125 6 8.125C5.72386 8.125 5.5 8.34886 5.5 8.625C5.5 8.90114 5.72386 9.125 6 9.125Z" fill="black"/>
<path fill-rule="evenodd" clip-rule="evenodd" d="M6 0.625C3.0335 0.625 0.625 3.0335 0.625 6C0.625 8.9665 3.0335 11.375 6 11.375C8.9665 11.375 11.375 8.9665 11.375 6C11.375 3.0335 8.9665 0.625 6 0.625ZM6 1.375C8.5525 1.375 10.625 3.4475 10.625 6C10.625 8.5525 8.5525 10.625 6 10.625C3.4475 10.625 1.375 8.5525 1.375 6C1.375 3.4475 3.4475 1.375 6 1.375Z" fill="black"/>
</g>
<defs>
<clipPath id="clip0_966_4124">
<rect width="12" height="12" fill="white"/>
</clipPath>
</defs>
</svg>
