<svg width="17" height="16" viewBox="0 0 17 16" fill="none" xmlns="http://www.w3.org/2000/svg">
<path d="M14 2H6C5.86739 2 5.74021 2.05268 5.64645 2.14645C5.55268 2.24021 5.5 2.36739 5.5 2.5V5H3C2.86739 5 2.74021 5.05268 2.64645 5.14645C2.55268 5.24021 2.5 5.36739 2.5 5.5V13.5C2.5 13.6326 2.55268 13.7598 2.64645 13.8536C2.74021 13.9473 2.86739 14 3 14H11C11.1326 14 11.2598 13.9473 11.3536 13.8536C11.4473 13.7598 11.5 13.6326 11.5 13.5V11H14C14.1326 11 14.2598 10.9473 14.3536 10.8536C14.4473 10.7598 14.5 10.6326 14.5 10.5V2.5C14.5 2.36739 14.4473 2.24021 14.3536 2.14645C14.2598 2.05268 14.1326 2 14 2ZM10.5 13H3.5V6H10.5V13ZM13.5 10H11.5V5.5C11.5 5.36739 11.4473 5.24021 11.3536 5.14645C11.2598 5.05268 11.1326 5 11 5H6.5V3H13.5V10Z" fill="#525252"/>
</svg>
