<svg xmlns="http://www.w3.org/2000/svg" width="24" height="24" viewBox="0 0 24 24" fill="none">
  <g clip-path="url(#clip0_6193_1959)">
    <path d="M23.0625 8.34375C22.5847 6.82233 21.1633 5.71875 19.4842 5.71875H8.53125C6.46017 5.71875 4.78125 7.39767 4.78125 9.46875V18.8906M13.0312 2.48438C12.1734 1.53445 10.8963 0.9375 9.51562 0.9375H5.625C3.03619 0.9375 0.9375 3.03619 0.9375 5.625V18.375C0.9375 20.9638 3.03619 23.0625 5.625 23.0625H8.4375M20.2969 22.875C21.5736 22.3916 22.5771 21.4219 23.0156 20.1094M18.6961 16.2656C19.5961 17.3417 19.5503 18.9278 18.2771 20.2011L16.4495 22.0287C15.1 23.3781 13.3903 23.3488 12.3177 22.2761C11.245 21.2035 11.2156 19.4938 12.5651 18.1443M22.0271 16.4495C23.3765 15.1 23.3472 13.3903 22.2745 12.3177C21.2019 11.245 19.4922 11.2156 18.1427 12.5651L16.3151 14.3927C15.0232 15.6847 14.995 17.3418 15.9364 18.4219" stroke="#EEAD1E" stroke-miterlimit="10" stroke-linecap="round" stroke-linejoin="round"/>
  </g>
  <defs>
    <clipPath id="clip0_6193_1959">
      <rect width="24" height="24" fill="white"/>
    </clipPath>
  </defs>
</svg>
