<svg width="69" height="69" viewBox="0 0 69 69" fill="none" xmlns="http://www.w3.org/2000/svg">
<rect x="1.5" y="1.2113" width="67" height="67" rx="33.5" stroke="#D9D9D9"/>
<g clip-path="url(#clip0_859_2391)">
<path d="M47.384 35.6258C46.4334 35.5308 45.4528 35.8621 44.6228 36.559L43.1121 37.7446V34.6533H44.2459C44.4878 34.6533 44.684 34.4571 44.684 34.2152V31.2958C44.684 31.054 44.4878 30.8577 44.2459 30.8577H40.4196C40.644 30.5327 40.7753 30.139 40.7753 29.7152C40.7753 28.6021 39.869 27.6971 38.7546 27.6971C38.114 27.6971 37.5428 27.9965 37.1728 28.4621C36.8028 27.9965 36.2321 27.6971 35.5921 27.6971C34.4778 27.6971 33.5715 28.6027 33.5715 29.7152C33.5715 30.139 33.7034 30.5321 33.9271 30.8577H30.1009C29.859 30.8577 29.6628 31.054 29.6628 31.2958V34.2152C29.6628 34.4571 29.859 34.6533 30.1009 34.6533H31.2328V37.379C29.2203 37.5002 26.8953 38.8533 24.3128 41.4065L22.8309 39.719C22.6715 39.5371 22.3953 39.519 22.2128 39.6783L20.0053 41.6115C19.9178 41.6883 19.8646 41.7965 19.8565 41.9121C19.8484 42.0277 19.8878 42.1421 19.9646 42.2296L26.7665 49.979C26.8528 50.0777 26.974 50.1283 27.0959 50.1283C27.1984 50.1283 27.3009 50.0927 27.384 50.0202L29.5934 48.0871C29.6809 48.0102 29.7346 47.9021 29.7421 47.7858C29.7496 47.6696 29.7109 47.5552 29.634 47.4683L28.5978 46.2877L39.6984 46.3565H39.7009C39.8115 46.3565 39.9178 46.3146 39.9984 46.2396C46.3509 40.3527 49.5259 37.4083 49.5259 37.4083C49.694 37.2527 49.7134 36.9933 49.5709 36.8146C49.0378 36.1452 48.2409 35.7121 47.3834 35.6265L47.384 35.6258ZM42.2353 38.4321L40.8384 39.5283L40.3109 39.9471C40.2234 39.664 40.0728 39.3571 39.8146 39.1033C39.6053 38.8971 39.2615 38.674 38.7396 38.6265V34.654H42.2359V38.4327L42.2353 38.4321ZM36.4803 31.734H37.8628V38.6296L36.4803 38.6221V31.7346V31.734ZM43.8071 33.7771H38.7396V31.734H43.8071V33.7771ZM38.754 28.5733C39.3846 28.5733 39.8984 29.0858 39.8984 29.7158C39.8984 30.3458 39.3853 30.8583 38.754 30.8583H37.6096V29.7158C37.6096 29.0858 38.1228 28.5733 38.754 28.5733ZM34.4471 29.7158C34.4471 29.0858 34.9603 28.5733 35.5915 28.5733C36.2228 28.5733 36.734 29.0858 36.734 29.7158V30.8583H35.5915C34.9609 30.8583 34.4471 30.3458 34.4471 29.7158ZM30.5384 31.734H35.604V33.7771H30.5384V31.734ZM35.604 34.6533V38.6171L34.6115 38.6115C33.8715 37.9277 33.0328 37.524 32.1084 37.4058V34.6533H35.6046H35.604ZM27.1359 49.0727L20.9121 41.9821L22.4603 40.6258L28.6853 47.7165L27.1353 49.0727H27.1359ZM39.5296 45.479L27.8234 45.4065L24.8909 42.0658C27.4278 39.5471 29.6478 38.2615 31.4915 38.2452H31.5271C31.5746 38.2452 31.6215 38.2471 31.669 38.2483H31.6703C32.5971 38.2821 33.4028 38.6465 34.1278 39.3602C34.209 39.4402 34.3184 39.4852 34.4328 39.4865L38.2759 39.5077C38.2934 39.5065 38.3121 39.5065 38.3296 39.5046H38.334C38.3403 39.5046 38.3465 39.504 38.3521 39.5033C38.7146 39.4646 38.9865 39.5315 39.1803 39.7096C39.549 40.0477 39.5565 40.6908 39.5565 40.7321V40.7402C39.5565 40.7458 39.5559 40.7515 39.5559 40.7571C39.5534 41.3808 38.979 41.7058 38.4115 41.7058C38.4096 41.7058 38.4071 41.7058 38.4053 41.7058L32.7971 41.674H32.7946C32.554 41.674 32.3578 41.8683 32.3565 42.1096C32.3553 42.3515 32.5503 42.549 32.7921 42.5502L38.4009 42.5821H38.4115C39.4765 42.5821 40.2996 41.9096 40.4171 40.9821L41.3815 40.2165L45.1696 37.244C45.1734 37.2408 45.1778 37.2377 45.1815 37.2346C45.8396 36.6802 46.5715 36.4258 47.2978 36.4983C47.7846 36.5471 48.2446 36.7496 48.6071 37.0671C47.659 37.9458 44.634 40.7508 39.5315 45.479H39.5296ZM33.639 22.6852L35.4084 24.0921L34.8059 26.269C34.7571 26.4452 34.8228 26.6327 34.9703 26.7402C35.0471 26.7958 35.1371 26.824 35.2278 26.824C35.3115 26.824 35.3959 26.8002 35.469 26.7515L37.3571 25.5058L39.2434 26.7515C39.3959 26.8521 39.5946 26.8477 39.7421 26.7402C39.8896 26.6327 39.9553 26.4452 39.9071 26.269L39.3059 24.0915L41.074 22.6846C41.2171 22.5708 41.274 22.3802 41.2178 22.2065C41.1615 22.0327 41.0028 21.9121 40.8203 21.904L38.5609 21.8033L37.7671 19.6871C37.7028 19.5158 37.5396 19.4027 37.3571 19.4027C37.1746 19.4027 37.0109 19.5158 36.9471 19.6865L36.1521 21.8033L33.8928 21.904C33.7103 21.9121 33.5521 22.0327 33.4953 22.2065C33.439 22.3802 33.4965 22.5708 33.639 22.6846V22.6852ZM36.4796 22.6665C36.6546 22.659 36.8084 22.5471 36.8703 22.3827L37.3565 21.0883L37.8415 22.3827C37.9034 22.5471 38.0571 22.659 38.2321 22.6665L39.6121 22.7277L38.5328 23.5865C38.3953 23.6958 38.3365 23.8765 38.3834 24.0458L38.7509 25.3765L37.5978 24.6152C37.5246 24.5671 37.4403 24.5427 37.3565 24.5427C37.2728 24.5427 37.1884 24.5671 37.1153 24.6152L35.9615 25.3765L36.3296 24.0458C36.3765 23.8765 36.3178 23.6952 36.1803 23.5858L35.1003 22.7271L36.4796 22.6658V22.6665ZM50.7821 28.4946C50.7259 28.3208 50.5678 28.2002 50.3853 28.1921L48.8146 28.1215L48.2628 26.6502C48.1984 26.479 48.0353 26.3658 47.8528 26.3658C47.6703 26.3658 47.5065 26.479 47.4428 26.6502L46.8909 28.1215L45.3203 28.1921C45.1378 28.2002 44.9796 28.3208 44.9234 28.4946C44.8671 28.6683 44.924 28.859 45.0671 28.9727L46.2953 29.9502L45.8771 31.4627C45.8284 31.639 45.894 31.8265 46.0415 31.934C46.1184 31.9896 46.2084 32.0177 46.299 32.0177C46.3828 32.0177 46.4671 31.994 46.5403 31.9452L47.8528 31.0796L49.1634 31.9452C49.3159 32.0458 49.5146 32.0415 49.6621 31.934C49.8096 31.8265 49.8753 31.639 49.8265 31.4627L49.4084 29.9502L50.6378 28.9727C50.7809 28.859 50.8384 28.6683 50.7815 28.4946H50.7821ZM48.6365 29.4452C48.499 29.5546 48.4403 29.7358 48.4871 29.9046L48.6709 30.5696L48.094 30.1883C47.9478 30.0915 47.7578 30.0915 47.6115 30.1883L47.0321 30.5702L47.2165 29.9046C47.2634 29.7352 47.2046 29.5546 47.0671 29.4452L46.5271 29.0152L47.219 28.984C47.394 28.9765 47.5478 28.8646 47.6096 28.7002L47.8528 28.0515L48.0959 28.7002C48.1578 28.8646 48.3109 28.9765 48.4865 28.984L49.1771 29.0152L48.6365 29.4452ZM23.0603 28.9727L24.2896 29.9502L23.8703 31.4621C23.8215 31.6383 23.8871 31.8258 24.0346 31.9333C24.1821 32.0408 24.3815 32.0452 24.534 31.9446L25.8465 31.0783L27.159 31.9446C27.2321 31.9927 27.3165 32.0171 27.4003 32.0171C27.4909 32.0171 27.5815 31.989 27.6578 31.9333C27.8053 31.8258 27.8709 31.6377 27.8221 31.4621L27.4028 29.9502L28.6321 28.9727C28.7753 28.859 28.8328 28.6683 28.7759 28.4946C28.719 28.3208 28.5615 28.2002 28.379 28.1921L26.8084 28.1215L26.2565 26.6502C26.1921 26.479 26.029 26.3658 25.8465 26.3658C25.664 26.3658 25.5003 26.479 25.4365 26.6502L24.8846 28.1215L23.314 28.1921C23.1315 28.2002 22.9734 28.3208 22.9171 28.4946C22.8609 28.6683 22.9184 28.859 23.0609 28.9727H23.0603ZM25.2121 28.984C25.3871 28.9765 25.5409 28.8646 25.6028 28.7002L25.8459 28.0515L26.089 28.7002C26.1509 28.8646 26.304 28.9765 26.4796 28.984L27.1703 29.0152L26.6296 29.4452C26.4921 29.5546 26.4334 29.7358 26.4803 29.9052L26.6646 30.5696L26.0871 30.1883C26.014 30.1402 25.9296 30.1158 25.8459 30.1158C25.7621 30.1158 25.6778 30.1402 25.6046 30.1883L25.0271 30.5696L25.2115 29.9052C25.2584 29.7358 25.1996 29.5546 25.0621 29.4452L24.5215 29.0152L25.2121 28.984Z" fill="black"/>
</g>
<path d="M3.21366 26.3721C2.26276 26.1173 1.28049 26.6809 1.07587 27.6439C0.273297 31.4209 0.1191 35.3115 0.624246 39.1485C1.20704 43.5752 2.65604 47.8438 4.88851 51.7106C7.12098 55.5774 10.0932 58.9665 13.6355 61.6846C16.7058 64.0406 20.1523 65.8523 23.8246 67.0458C24.7609 67.3501 25.7401 66.7812 25.9949 65.8303C26.2497 64.8794 25.6833 63.9071 24.7489 63.597C21.5281 62.5284 18.5046 60.9272 15.8057 58.8563C12.6349 56.4232 9.9743 53.3894 7.97591 49.9281C5.97752 46.4668 4.68045 42.6457 4.15877 38.6832C3.71474 35.3104 3.83983 31.8914 4.52476 28.5678C4.72346 27.6036 4.16458 26.6269 3.21366 26.3721Z" fill="url(#paint0_linear_859_2391)"/>
<defs>
<linearGradient id="paint0_linear_859_2391" x1="10.2917" y1="-6.93074" x2="75.9747" y2="10.669" gradientUnits="userSpaceOnUse">
<stop stop-color="white"/>
<stop offset="0.475962" stop-color="#F9D58C"/>
<stop offset="1" stop-color="#F9D58C"/>
</linearGradient>
<clipPath id="clip0_859_2391">
<rect width="32" height="32" fill="white" transform="translate(19.332 18.766)"/>
</clipPath>
</defs>
</svg>
