<svg width="36" height="36" viewBox="0 0 36 36" fill="none" xmlns="http://www.w3.org/2000/svg">
<rect width="36" height="36" rx="18" fill="#F4D287"/>
<g clip-path="url(#clip0_1282_3507)">
<path d="M15.458 16.8823H11.5933C11.202 16.8819 10.8268 16.7263 10.5501 16.4497C10.2734 16.173 10.1177 15.7979 10.1172 15.4066V11.5899C10.1177 11.1986 10.2734 10.8235 10.5501 10.5468C10.8268 10.2702 11.202 10.1146 11.5933 10.1143H15.458C15.8492 10.1147 16.2243 10.2704 16.5009 10.547C16.7775 10.8236 16.9332 11.1987 16.9336 11.5899V15.4066C16.9332 15.7978 16.7775 16.1729 16.5009 16.4495C16.2243 16.7261 15.8492 16.8818 15.458 16.8823ZM11.5933 11.2571C11.505 11.2572 11.4204 11.2923 11.3579 11.3547C11.2955 11.4171 11.2603 11.5016 11.26 11.5899V15.4066C11.2603 15.4949 11.2955 15.5794 11.3579 15.6418C11.4204 15.7042 11.505 15.7393 11.5933 15.7394H15.458C15.5462 15.7393 15.6308 15.7042 15.6932 15.6418C15.7556 15.5794 15.7907 15.4948 15.7908 15.4066V11.5899C15.7907 11.5017 15.7556 11.4171 15.6932 11.3547C15.6308 11.2923 15.5462 11.2572 15.458 11.2571H11.5933Z" fill="white"/>
<path d="M15.4736 25.8857H11.6089C11.2176 25.8852 10.8424 25.7296 10.5657 25.4528C10.289 25.1761 10.1333 24.8009 10.1328 24.4096V20.5934C10.1333 20.2021 10.289 19.8269 10.5657 19.5503C10.8425 19.2736 11.2176 19.1181 11.6089 19.1177H15.4736C15.8647 19.1184 16.2395 19.2742 16.5159 19.5508C16.7924 19.8274 16.9479 20.2023 16.9484 20.5934V24.4096C16.948 24.8007 16.7925 25.1758 16.5161 25.4525C16.2396 25.7292 15.8648 25.885 15.4736 25.8857ZM11.6089 20.2606C11.5207 20.2607 11.436 20.2958 11.3736 20.3582C11.3111 20.4205 11.2759 20.5051 11.2757 20.5934V24.4096C11.2758 24.4979 11.3109 24.5826 11.3734 24.6451C11.4359 24.7076 11.5206 24.7427 11.6089 24.7429H15.4736C15.5619 24.7426 15.6465 24.7074 15.7088 24.645C15.7712 24.5825 15.8063 24.4979 15.8064 24.4096V20.5934C15.8063 20.5051 15.7712 20.4206 15.7088 20.3582C15.6464 20.2958 15.5618 20.2607 15.4736 20.2606H11.6089Z" fill="white"/>
<path d="M24.4111 25.8857H20.5464C20.1551 25.8853 19.7799 25.7296 19.5032 25.4529C19.2265 25.1761 19.0708 24.801 19.0703 24.4096V20.5934C19.0708 20.2021 19.2265 19.827 19.5032 19.5503C19.78 19.2737 20.1551 19.1181 20.5464 19.1177H24.4111C24.8023 19.1182 25.1774 19.2738 25.454 19.5505C25.7307 19.8271 25.8863 20.2022 25.8868 20.5934V24.4096C25.8864 24.8009 25.7308 25.1761 25.4542 25.4528C25.1775 25.7296 24.8024 25.8853 24.4111 25.8857ZM20.5464 20.2629C20.4582 20.263 20.3735 20.2981 20.3111 20.3605C20.2486 20.4228 20.2134 20.5074 20.2132 20.5957V24.4119C20.2133 24.5003 20.2484 24.585 20.3109 24.6474C20.3734 24.7099 20.4581 24.745 20.5464 24.7452H24.4111C24.4994 24.7449 24.584 24.7097 24.6463 24.6473C24.7087 24.5848 24.7438 24.5002 24.7439 24.4119V20.5934C24.7438 20.5052 24.7087 20.4206 24.6463 20.3582C24.5839 20.2958 24.4993 20.2607 24.4111 20.2606L20.5464 20.2629Z" fill="white"/>
<path d="M22.4827 16.8823C21.8147 16.8773 21.1632 16.6747 20.6102 16.3C20.0572 15.9252 19.6275 15.3952 19.3753 14.7766C19.1232 14.1581 19.0597 13.4787 19.1931 12.8242C19.3265 12.1696 19.6506 11.5692 20.1247 11.0986C20.5988 10.628 21.2016 10.3083 21.8571 10.1798C22.5126 10.0513 23.1915 10.1198 23.8082 10.3765C24.4248 10.6333 24.9517 11.0669 25.3223 11.6226C25.6929 12.1784 25.8907 12.8314 25.8907 13.4994C25.8862 14.3996 25.5249 15.2612 24.8861 15.8954C24.2472 16.5295 23.3829 16.8845 22.4827 16.8823ZM22.4827 11.2594C22.0408 11.2644 21.6102 11.3999 21.2452 11.6491C20.8801 11.8982 20.5969 12.2498 20.4312 12.6595C20.2655 13.0692 20.2248 13.5188 20.314 13.9516C20.4033 14.3845 20.6186 14.7812 20.9328 15.092C21.2471 15.4028 21.6462 15.6136 22.08 15.698C22.5138 15.7824 22.9629 15.7366 23.3708 15.5664C23.7786 15.3961 24.127 15.109 24.372 14.7412C24.6171 14.3734 24.7478 13.9414 24.7479 13.4994C24.7442 12.9019 24.5037 12.3302 24.079 11.9098C23.6544 11.4894 23.0803 11.2547 22.4827 11.2571V11.2594Z" fill="white"/>
</g>
<defs>
<clipPath id="clip0_1282_3507">
<rect width="16" height="16" fill="white" transform="translate(10 10)"/>
</clipPath>
</defs>
</svg>
