<svg xmlns="http://www.w3.org/2000/svg" width="16" height="16" viewBox="0 0 16 16" fill="none">
  <path d="M8.99878 3C8.60404 3.00051 8.21031 3.03986 7.82328 3.1175C8.03058 3.77225 8.05409 4.47136 7.89125 5.13856C7.72841 5.80576 7.38547 6.41543 6.89984 6.90106C6.41421 7.38669 5.80454 7.72963 5.13734 7.89247C4.47014 8.05531 3.77103 8.0318 3.11628 7.8245C2.8739 9.03769 3.01247 10.2962 3.51302 11.4275C4.01356 12.5589 4.85161 13.5079 5.9124 14.1446C6.97318 14.7812 8.20484 15.0744 9.4387 14.9839C10.6726 14.8935 11.8483 14.4238 12.8049 13.6393C13.7615 12.8547 14.4522 11.7937 14.7824 10.6014C15.1126 9.40907 15.0661 8.14386 14.6494 6.97899C14.2327 5.81411 13.466 4.80654 12.4545 4.09424C11.443 3.38194 10.2359 2.99975 8.99878 3ZM11.9988 9.5H8.99878C8.86617 9.5 8.73899 9.44732 8.64523 9.35355C8.55146 9.25979 8.49878 9.13261 8.49878 9V6C8.49878 5.86739 8.55146 5.74022 8.64523 5.64645C8.73899 5.55268 8.86617 5.5 8.99878 5.5C9.13139 5.5 9.25857 5.55268 9.35233 5.64645C9.4461 5.74022 9.49878 5.86739 9.49878 6V8.5H11.9988C12.1314 8.5 12.2586 8.55268 12.3523 8.64645C12.4461 8.74021 12.4988 8.86739 12.4988 9C12.4988 9.13261 12.4461 9.25979 12.3523 9.35355C12.2586 9.44732 12.1314 9.5 11.9988 9.5Z" fill="#FF5757"/>
  <path d="M7.5 4.25C7.5 3.60721 7.30939 2.97886 6.95228 2.4444C6.59516 1.90994 6.08758 1.49338 5.49372 1.24739C4.89986 1.00141 4.2464 0.937047 3.61596 1.06245C2.98552 1.18785 2.40643 1.49738 1.9519 1.9519C1.49738 2.40643 1.18785 2.98552 1.06245 3.61596C0.937047 4.2464 1.00141 4.89986 1.24739 5.49372C1.49338 6.08758 1.90994 6.59516 2.4444 6.95228C2.97886 7.30939 3.60721 7.5 4.25 7.5C5.11163 7.49894 5.93767 7.15619 6.54693 6.54693C7.15619 5.93767 7.49894 5.11163 7.5 4.25ZM3.75 3C3.75 2.86739 3.80268 2.74022 3.89645 2.64645C3.99022 2.55268 4.11739 2.5 4.25 2.5C4.38261 2.5 4.50979 2.55268 4.60355 2.64645C4.69732 2.74022 4.75 2.86739 4.75 3V4C4.75 4.13261 4.69732 4.25979 4.60355 4.35355C4.50979 4.44732 4.38261 4.5 4.25 4.5C4.11739 4.5 3.99022 4.44732 3.89645 4.35355C3.80268 4.25979 3.75 4.13261 3.75 4V3ZM3.75 5.5C3.75 5.40111 3.77933 5.30444 3.83427 5.22222C3.88921 5.13999 3.9673 5.07591 4.05866 5.03806C4.15002 5.00022 4.25056 4.99032 4.34755 5.00961C4.44454 5.0289 4.53363 5.07652 4.60355 5.14645C4.67348 5.21637 4.7211 5.30547 4.74039 5.40246C4.75969 5.49945 4.74978 5.59998 4.71194 5.69134C4.6741 5.78271 4.61001 5.8608 4.52779 5.91574C4.44556 5.97068 4.34889 6 4.25 6C4.11739 6 3.99022 5.94732 3.89645 5.85355C3.80268 5.75979 3.75 5.63261 3.75 5.5Z" fill="#FF5757"/>
</svg>