<svg xmlns="http://www.w3.org/2000/svg" width="14" height="14" viewBox="0 0 14 14" fill="none">
  <path d="M12.6878 6.125C12.6868 7.05295 12.3178 7.9426 11.6616 8.59875C11.0054 9.25491 10.1158 9.62399 9.18784 9.625H4.81284V11.8125C4.81291 11.8991 4.78729 11.9837 4.73922 12.0557C4.69115 12.1278 4.6228 12.1839 4.54281 12.217C4.46283 12.2502 4.37481 12.2588 4.2899 12.2419C4.20499 12.225 4.127 12.1833 4.06581 12.122L1.44081 9.49703C1.40014 9.4564 1.36787 9.40815 1.34585 9.35504C1.32383 9.30192 1.3125 9.24499 1.3125 9.1875C1.3125 9.13001 1.32383 9.07307 1.34585 9.01996C1.36787 8.96685 1.40014 8.9186 1.44081 8.87797L4.06581 6.25297C4.127 6.19171 4.20499 6.14999 4.2899 6.13308C4.37481 6.11617 4.46283 6.12484 4.54281 6.15798C4.6228 6.19112 4.69115 6.24725 4.73922 6.31926C4.78729 6.39127 4.81291 6.47592 4.81284 6.5625V8.75H9.18784C9.88404 8.75 10.5517 8.47344 11.044 7.98116C11.5363 7.48887 11.8128 6.82119 11.8128 6.125C11.8128 5.42881 11.5363 4.76113 11.044 4.26884C10.5517 3.77656 9.88404 3.5 9.18784 3.5H4.37534C4.25931 3.5 4.14803 3.45391 4.06598 3.37186C3.98394 3.28981 3.93784 3.17853 3.93784 3.0625C3.93784 2.94647 3.98394 2.83519 4.06598 2.75314C4.14803 2.67109 4.25931 2.625 4.37534 2.625H9.18784C10.1158 2.62601 11.0054 2.99509 11.6616 3.65125C12.3178 4.3074 12.6868 5.19705 12.6878 6.125Z" fill="#2682FF"/>
</svg>