<svg width="25" height="24" viewBox="0 0 25 24" fill="none" xmlns="http://www.w3.org/2000/svg">
<path fill-rule="evenodd" clip-rule="evenodd" d="M16.3115 20.7835C16.3115 21.2428 16.4974 21.6832 16.8298 22.0078C17.1611 22.3334 17.6107 22.5155 18.0795 22.5155H19.2919C19.7607 22.5155 20.2102 22.3334 20.5416 22.0078C20.874 21.6832 21.0599 21.2428 21.0599 20.7835V20.1402H21.7166C22.1854 20.1402 22.635 19.9581 22.9664 19.6325C23.2988 19.3079 23.4847 18.8675 23.4847 18.4083C23.4847 18.0302 23.4847 17.5987 23.4847 17.2206C23.4847 16.7614 23.2988 16.321 22.9664 15.9964C22.635 15.6708 22.1854 15.4887 21.7166 15.4887H21.0599V14.8454C21.0599 14.3862 20.874 13.9458 20.5416 13.6211C20.2102 13.2955 19.7607 13.1134 19.2919 13.1134C18.9059 13.1134 18.4654 13.1134 18.0795 13.1134C17.6107 13.1134 17.1611 13.2955 16.8298 13.6211C16.4974 13.9458 16.3115 14.3862 16.3115 14.8454V15.4887H15.6548C15.186 15.4887 14.7364 15.6708 14.405 15.9964C14.0726 16.321 13.8867 16.7614 13.8867 17.2206V18.4083C13.8867 18.8675 14.0726 19.3079 14.405 19.6325C14.7364 19.9581 15.186 20.1402 15.6548 20.1402H16.3115V20.7835ZM17.8269 20.7835V19.398C17.8269 18.9882 17.4875 18.6557 17.0692 18.6557H15.6548C15.5881 18.6557 15.5234 18.63 15.4759 18.5835C15.4285 18.5369 15.4022 18.4736 15.4022 18.4083V17.2206C15.4022 17.1553 15.4285 17.092 15.4759 17.0455C15.5234 16.999 15.5881 16.9732 15.6548 16.9732H17.0692C17.4875 16.9732 17.8269 16.6407 17.8269 16.231V14.8454C17.8269 14.7801 17.8532 14.7167 17.9007 14.6702C17.9482 14.6237 18.0128 14.598 18.0795 14.598H19.2919C19.3586 14.598 19.4232 14.6237 19.4707 14.6702C19.5182 14.7167 19.5445 14.7801 19.5445 14.8454V16.231C19.5445 16.6407 19.8839 16.9732 20.3022 16.9732H21.7166C21.7833 16.9732 21.848 16.999 21.8954 17.0455C21.9429 17.092 21.9692 17.1553 21.9692 17.2206V18.4083C21.9692 18.4736 21.9429 18.5369 21.8954 18.5835C21.848 18.63 21.7833 18.6557 21.7166 18.6557H20.3022C19.8839 18.6557 19.5445 18.9882 19.5445 19.398V20.7835C19.5445 20.8489 19.5182 20.9122 19.4707 20.9587C19.4232 21.0052 19.3586 21.031 19.2919 21.031H18.0795C18.0128 21.031 17.9482 21.0052 17.9007 20.9587C17.8532 20.9122 17.8269 20.8489 17.8269 20.7835Z" fill="black"/>
<path fill-rule="evenodd" clip-rule="evenodd" d="M12.6305 6.18558C10.9575 6.18558 9.59961 7.51572 9.59961 9.15465C9.59961 10.7936 10.9575 12.1237 12.6305 12.1237C14.3036 12.1237 15.6615 10.7936 15.6615 9.15465C15.6615 7.51572 14.3036 6.18558 12.6305 6.18558ZM12.6305 7.67011C13.4671 7.67011 14.146 8.33519 14.146 9.15465C14.146 9.97411 13.4671 10.6392 12.6305 10.6392C11.794 10.6392 11.1151 9.97411 11.1151 9.15465C11.1151 8.33519 11.794 7.67011 12.6305 7.67011Z" fill="black"/>
<path fill-rule="evenodd" clip-rule="evenodd" d="M12.6307 16.0825H9.75737C9.67452 16.0825 9.59774 16.0429 9.55025 15.9766C9.50277 15.9103 9.49166 15.8252 9.51994 15.749L9.52095 15.748C9.9857 14.5039 11.2021 13.6083 12.6307 13.6083C13.2258 13.6083 13.7845 13.7636 14.2654 14.0358C14.6281 14.2397 15.0918 14.1179 15.3009 13.7626C15.5091 13.4083 15.3848 12.9541 15.0231 12.7492C14.3179 12.3513 13.5016 12.1237 12.6307 12.1237C10.5494 12.1237 8.77535 13.4242 8.09844 15.2363C7.8984 15.7678 7.97619 16.3616 8.30757 16.8257C8.63794 17.2909 9.18048 17.567 9.75838 17.567H12.6307C13.049 17.567 13.3884 17.2345 13.3884 16.8247C13.3884 16.415 13.049 16.0825 12.6307 16.0825Z" fill="black"/>
<path fill-rule="evenodd" clip-rule="evenodd" d="M13.5591 20.9854C13.2509 21.0161 12.9387 21.0309 12.6235 21.0309C7.46589 21.0309 3.27816 16.9286 3.27816 11.8763C3.27816 6.82389 7.46589 2.72163 12.6235 2.72163C17.7812 2.72163 21.9689 6.82389 21.9689 11.8763C21.9689 12.185 21.9537 12.4909 21.9224 12.7927C21.881 13.2005 22.1851 13.5637 22.6013 13.6043C23.0176 13.6448 23.3894 13.3469 23.4308 12.9392C23.4662 12.5898 23.4843 12.2355 23.4843 11.8763C23.4843 6.00443 18.6177 1.23709 12.6235 1.23709C6.62936 1.23709 1.7627 6.00443 1.7627 11.8763C1.7627 17.7481 6.62936 22.5154 12.6235 22.5154C12.9903 22.5154 13.352 22.4976 13.7086 22.463C14.1248 22.4224 14.4289 22.0582 14.3875 21.6504C14.3461 21.2427 13.9753 20.9448 13.5591 20.9854Z" fill="black"/>
</svg>
