<svg width="28" height="29" viewBox="0 0 28 29" fill="none" xmlns="http://www.w3.org/2000/svg">
<path d="M21.2367 13.1437H19.793C19.5523 13.1437 19.3555 13.3406 19.3555 13.5812C19.3555 13.8219 19.5523 14.0187 19.793 14.0187H21.2367C21.4336 14.0187 21.5955 14.1806 21.5955 14.3775V20.66C21.5955 20.8569 21.4336 21.0187 21.2367 21.0187H19.793C19.5523 21.0187 19.3555 21.2156 19.3555 21.4562C19.3555 21.6969 19.5523 21.8937 19.793 21.8937H21.2367C21.9148 21.8937 22.4705 21.3425 22.4705 20.66V14.3775C22.4705 13.6994 21.9192 13.1437 21.2367 13.1437Z" fill="#EEAD1E"/>
<path d="M4.58922 14.0188H6.03297C6.27359 14.0188 6.47047 13.8219 6.47047 13.5813C6.47047 13.3406 6.27359 13.1438 6.03297 13.1438H4.58922C3.91109 13.1438 3.35547 13.695 3.35547 14.3775V20.66C3.35547 21.3381 3.90672 21.8938 4.58922 21.8938H6.03297C6.27359 21.8938 6.47047 21.6969 6.47047 21.4563C6.47047 21.2156 6.27359 21.0188 6.03297 21.0188H4.58922C4.39234 21.0188 4.23047 20.8569 4.23047 20.66V14.3775C4.23047 14.1806 4.39234 14.0188 4.58922 14.0188Z" fill="#EEAD1E"/>
<path d="M13.3472 13.8962V13.5724C13.3472 13.3318 13.1503 13.1349 12.9097 13.1349C12.6691 13.1349 12.4722 13.3318 12.4722 13.5724V13.9181C11.3259 14.1149 10.4684 14.9331 10.4684 15.9087C10.4684 16.8843 11.3216 17.6937 12.4722 17.8906V20.2356C11.7328 20.1174 11.1641 19.6493 11.1641 19.1024C11.1641 18.8618 10.9672 18.6649 10.7266 18.6649C10.4859 18.6649 10.2891 18.8618 10.2891 19.1024C10.2891 20.1306 11.2428 20.9793 12.4722 21.1149V21.4387C12.4722 21.6793 12.6691 21.8762 12.9097 21.8762C13.1503 21.8762 13.3472 21.6793 13.3472 21.4387V21.0931C14.4934 20.8962 15.3553 20.0781 15.3553 19.1024C15.3553 18.1268 14.5109 17.3131 13.3472 17.1206V14.7756C14.0866 14.8893 14.6553 15.3618 14.6553 15.9087C14.6553 16.1493 14.8522 16.3462 15.0928 16.3462C15.3334 16.3462 15.5303 16.1493 15.5303 15.9087C15.5303 14.8806 14.5766 14.0318 13.3472 13.8962ZM11.3434 15.9087C11.3434 15.4099 11.8247 14.9724 12.4722 14.8149V17.0024C11.8203 16.8449 11.3434 16.4074 11.3434 15.9087ZM14.4803 19.1068C14.4803 19.6056 13.9991 20.0387 13.3472 20.2006V18.0131C14.0034 18.1706 14.4803 18.6081 14.4803 19.1112V19.1068Z" fill="#EEAD1E"/>
<path d="M26.1931 15.4231L23.2838 6.34501C23.0781 5.69751 22.3781 5.33876 21.735 5.54876L3.36438 11.5119H2.98375C2.30563 11.5119 1.75 12.0631 1.75 12.7456V22.2788C1.75 22.9569 2.30125 23.5125 2.98375 23.5125H22.8419C23.52 23.5125 24.0756 22.9613 24.0756 22.2788V17.3788C24.1062 17.3788 24.1369 17.3744 24.1675 17.3656L25.3925 16.9719C26.04 16.7663 26.3944 16.0706 26.1888 15.4231H26.1931ZM23.2006 22.2788C23.2006 22.4756 23.0387 22.6375 22.8419 22.6375H2.98375C2.78688 22.6375 2.625 22.4756 2.625 22.2788V12.7456C2.625 12.5488 2.78688 12.3869 2.98375 12.3869H12.0662C12.0662 12.3869 12.0706 12.3869 12.075 12.3869H12.0794H13.6369C13.6369 12.3869 13.6413 12.3869 13.6456 12.3869C13.65 12.3869 13.65 12.3869 13.6544 12.3869H22.8419C23.0387 12.3869 23.2006 12.5488 23.2006 12.7456V22.2788ZM25.13 16.1406L24.0756 16.4775V12.7456C24.0756 12.1988 23.7169 11.7394 23.2225 11.5775L22.2513 8.38376C22.1506 8.06876 21.9363 7.81501 21.6431 7.66188C21.35 7.51313 21.0175 7.48251 20.7025 7.58313L19.3288 8.02501C19.0969 8.09938 18.97 8.34438 19.0444 8.57626C19.1187 8.80813 19.3638 8.93063 19.5956 8.86063L20.9694 8.41876C21.0613 8.38813 21.1575 8.39688 21.2406 8.44063C21.3237 8.48438 21.3894 8.55876 21.4156 8.64188L22.2862 11.5075H15.8812C15.4437 10.8863 14.6037 10.5713 13.6981 10.6719L13.5975 10.3613C13.5231 10.1338 13.2781 10.0069 13.0462 10.0769C12.8144 10.1513 12.6875 10.3963 12.7619 10.6281L12.845 10.8863C12.4819 11.035 12.1581 11.245 11.8956 11.5075H6.195L21.9975 6.38001C22.0894 6.34938 22.1856 6.35813 22.2688 6.40188C22.3519 6.44563 22.4175 6.52001 22.4437 6.61188L25.3531 15.69C25.4144 15.8781 25.3094 16.0794 25.1212 16.1406H25.13Z" fill="#EEAD1E"/>
</svg>
