<svg width="14" height="12" viewBox="0 0 14 12" fill="none" xmlns="http://www.w3.org/2000/svg">
<path d="M1.23328 0.0536911C1.23328 0.0590338 1.27293 0.115131 1.32215 0.177907C1.54501 0.466409 1.69131 0.863099 1.77471 1.4027C1.81026 1.63778 1.81983 1.99173 1.8212 3.10834V4.2009H1.23054C0.762935 4.2009 0.618005 4.1969 0.544172 4.18087C0.403344 4.15148 0.239272 4.06734 0.127156 3.96583C0.0751997 3.91908 0.0259781 3.88035 0.0164072 3.88035C0.00273453 3.88035 0.00136727 3.94179 0.00683634 4.15015C0.0136727 4.44266 0.0314472 4.53348 0.124421 4.74986C0.237905 5.01165 0.482645 5.24539 0.757466 5.3509L0.870949 5.39364L1.34676 5.40032L1.8212 5.40566V5.99202V6.57837H1.18405H0.548274L0.442995 6.53563C0.289861 6.47419 0.229701 6.43412 0.0314472 6.26583L0 6.23778L0.00683634 6.51827C0.0123054 6.77204 0.0164072 6.81077 0.0492216 6.91896C0.149032 7.24753 0.336348 7.49997 0.589292 7.6469C0.757466 7.7444 0.851808 7.76844 1.11706 7.7818C1.24558 7.78714 1.45614 7.79248 1.58603 7.79248L1.82393 7.79382L1.8171 9.11211C1.81163 10.3877 1.81026 10.4371 1.78155 10.6121C1.68311 11.2144 1.53134 11.5898 1.26472 11.8916L1.21413 11.9504L3.74905 11.9437C6.43436 11.937 6.34686 11.9384 6.94162 11.8742C7.36137 11.8275 7.79889 11.742 8.23368 11.6205C8.63703 11.5069 8.91458 11.4014 9.26871 11.2291C9.82792 10.954 10.2012 10.6962 10.6059 10.2995C11.1077 9.80799 11.4098 9.3552 11.7243 8.62192C11.7763 8.50171 11.9376 8.00084 11.9677 7.86995C11.9814 7.80584 11.9896 7.79248 12.0183 7.78447C12.0771 7.77111 13.3883 7.79115 13.4772 7.80717C13.6016 7.82988 13.7397 7.90201 13.8641 8.00752C13.9256 8.05828 13.983 8.10102 13.9912 8.10102C14.0036 8.10102 14.0049 8.02889 13.9995 7.8232C13.9912 7.50264 13.9762 7.43319 13.8668 7.21147C13.7274 6.92831 13.5264 6.74533 13.231 6.6318L13.1217 6.58906L12.65 6.58238L12.1783 6.5757V5.99736L12.1769 5.42036L12.6431 5.40967C13.2242 5.39765 13.4293 5.40834 13.5565 5.45241C13.6836 5.49649 13.7875 5.55926 13.901 5.6581L13.9967 5.74225L14.0008 5.70218C14.0036 5.68081 14.0036 5.55526 13.9995 5.42303C13.9926 5.1412 13.9666 5.03302 13.8545 4.80863C13.7369 4.57622 13.577 4.41728 13.3404 4.30108C13.1818 4.22227 13.1422 4.21827 12.5064 4.20892C12.1331 4.20224 11.9964 4.19556 11.9855 4.18354C11.9773 4.17553 11.9568 4.11275 11.939 4.0473C11.7735 3.41153 11.4399 2.73035 11.0448 2.21745C10.4199 1.40537 9.51208 0.788302 8.42784 0.43836C7.8905 0.26606 7.38051 0.163215 6.66133 0.0844112C6.39881 0.0550268 6.36053 0.0550268 3.81468 0.0510198C2.39409 0.0483485 1.23328 0.0496842 1.23328 0.0536911ZM6.11442 0.673435C6.40975 0.701484 6.61347 0.730869 6.80899 0.769603C7.8782 0.985979 8.63976 1.46949 9.1853 2.27889C9.39176 2.58342 9.64607 3.16711 9.76502 3.6052C9.81014 3.77349 9.88808 4.13011 9.88808 4.17285V4.2009H6.77891H3.67111L3.66017 2.79312C3.65471 2.01844 3.65471 1.21838 3.66017 1.01536L3.67111 0.645387L4.81415 0.652065C5.51556 0.656072 6.01734 0.664086 6.11442 0.673435ZM10.0303 5.52587C10.0412 5.68215 10.0412 6.3246 10.0289 6.46751L10.0207 6.57837H6.84454H3.66701V5.99736V5.41635L4.08813 5.41234C4.3192 5.41101 5.74799 5.40834 7.26429 5.40566L10.0207 5.40299L10.0303 5.52587ZM9.88124 7.79382C9.90038 7.82454 9.76229 8.37883 9.65701 8.68871C9.32613 9.65706 8.74368 10.365 7.91921 10.799C7.49809 11.0221 7.09612 11.149 6.51229 11.2465C6.04742 11.324 6.05699 11.324 4.81962 11.3293L3.66701 11.3346V9.5649V7.79382L6.26892 7.78981C7.69908 7.78847 9.09506 7.7858 9.37125 7.78313C9.67752 7.7818 9.87577 7.7858 9.88124 7.79382Z" fill="#CE9214"/>
</svg>
