<svg width="26" height="27" viewBox="0 0 26 27" fill="none" xmlns="http://www.w3.org/2000/svg">
<g clip-path="url(#clip0_1736_6007)">
<path d="M24.76 15.729H24.3709V12.2243C24.3709 11.6695 24.0948 11.1782 23.6731 10.8797V10.4025C23.6731 9.71033 23.1099 9.14722 22.4177 9.14722H22.1272L23.2388 7.51613C23.6114 6.96942 23.4697 6.22146 22.923 5.84883L15.3804 0.708749C15.1155 0.528221 14.7963 0.461596 14.4813 0.521366C14.1664 0.581034 13.8935 0.759733 13.7131 1.02461L7.20286 10.5777H5.39124L5.82832 6.15316C5.83324 6.10329 5.86564 6.06008 5.91084 6.04306C6.47395 5.83075 6.96196 5.43425 7.28493 4.92664C7.31037 4.88667 7.35836 4.86382 7.40802 4.86885L10.2495 5.14957C10.4532 5.16932 10.6345 5.02094 10.6546 4.81731C10.6747 4.61367 10.5259 4.43233 10.3223 4.41223L7.48084 4.13151C7.15102 4.09921 6.83648 4.2512 6.65976 4.52887C6.4223 4.90211 6.06348 5.1936 5.64946 5.3497C5.33782 5.46721 5.12383 5.74711 5.09092 6.08029L4.64669 10.5777H4.17427L4.8655 3.57982C4.89039 3.32794 5.1152 3.1429 5.36737 3.16814L11.1094 3.73536C11.313 3.75501 11.4944 3.60673 11.5145 3.4031C11.5346 3.19947 11.3859 3.01813 11.1822 2.99802L5.4402 2.43079C4.78187 2.36584 4.19316 2.84852 4.12811 3.50695L3.57094 9.14722H2.62209C1.92994 9.14722 1.36678 9.71033 1.36678 10.4025V10.728C0.800516 10.9888 0.40625 11.5612 0.40625 12.2243V24.8534C0.40625 25.7613 1.14491 26.5 2.05293 26.5H22.7243C23.6323 26.5 24.3709 25.7613 24.3709 24.8534V21.3487H24.76C25.2193 21.3487 25.5929 20.9751 25.5929 20.5159V16.5618C25.5929 16.1026 25.2193 15.729 24.76 15.729ZM22.4177 9.88822C22.7014 9.88817 22.9321 10.1189 22.9321 10.4026V10.5913C22.864 10.5827 22.7947 10.5778 22.7243 10.5778H21.1524L21.6222 9.88822H22.4177ZM14.3253 1.44183C14.3944 1.34052 14.4988 1.27217 14.6192 1.24932C14.648 1.24388 14.6769 1.24114 14.7056 1.24114C14.7968 1.24114 14.886 1.26846 14.9631 1.32097L22.5057 6.46105C22.7148 6.60359 22.769 6.88969 22.6266 7.09881L20.2558 10.5776H19.6868L20.8492 8.87204C21.0377 8.59543 21.0532 8.24342 20.8896 7.9533C20.6721 7.56787 20.584 7.11404 20.6414 6.67534C20.684 6.34897 20.5404 6.03037 20.2666 5.8438L16.3565 3.17921C16.0827 2.99258 15.7336 2.97547 15.4455 3.13457C15.0583 3.34836 14.6036 3.4323 14.1654 3.37096C13.8404 3.32535 13.5108 3.47211 13.3251 3.74455L8.66846 10.5777H8.09951L14.3253 1.44183ZM14.4885 7.73317C12.8751 7.73317 11.5508 8.99117 11.4428 10.5777H9.565L13.9372 4.16182H13.9373C13.9621 4.12531 14.0033 4.10358 14.0456 4.10358C14.0512 4.10358 14.0569 4.10398 14.0625 4.10474C14.6586 4.18813 15.2768 4.07407 15.8035 3.78325C15.845 3.7603 15.8982 3.7636 15.9392 3.79153L19.8493 6.45617C19.8903 6.4841 19.9127 6.53244 19.9067 6.57937C19.8286 7.17599 19.9486 7.79319 20.2443 8.31735C20.268 8.35945 20.2651 8.41338 20.2369 8.45477L18.7903 10.5776H17.5343C17.4263 8.99117 16.102 7.73317 14.4885 7.73317ZM16.7913 10.5777H12.1857C12.2919 9.40016 13.2838 8.47417 14.4885 8.47417C15.6932 8.47412 16.6852 9.40016 16.7913 10.5777ZM2.10773 10.4025C2.10773 10.1189 2.33843 9.88812 2.62209 9.88812H3.49776L3.42966 10.5777H2.10773V10.4025ZM1.1472 12.2243C1.1472 11.7249 1.5535 11.3186 2.05293 11.3186H22.7243C23.2237 11.3186 23.63 11.7249 23.63 12.2243V13.2523H1.1472V12.2243ZM23.63 24.8534C23.63 25.3527 23.2237 25.759 22.7243 25.759H2.05293C1.5535 25.759 1.1472 25.3527 1.1472 24.8534V23.8253H3.14504C3.34968 23.8253 3.51548 23.6595 3.51548 23.4549C3.51548 23.2503 3.34963 23.0844 3.14504 23.0844H1.1472V13.9933H23.63V15.729H20.1075H20.1074C18.9976 15.729 18.0362 16.3759 17.5799 17.3124C17.5784 17.3155 17.5767 17.3186 17.5751 17.3217C17.5712 17.3297 17.5679 17.338 17.5641 17.346C17.5098 17.4614 17.4626 17.5809 17.4241 17.7042C17.424 17.7046 17.4239 17.7049 17.4238 17.7052C17.3418 17.9687 17.2976 18.2487 17.2976 18.5389C17.2976 20.0882 18.5581 21.3487 20.1074 21.3487H20.1074H23.6299V23.0844H5.51723C5.31258 23.0844 5.14678 23.2503 5.14678 23.4549C5.14678 23.6595 5.31263 23.8253 5.51723 23.8253H23.63V24.8534ZM24.852 20.5159C24.852 20.5666 24.8108 20.6078 24.76 20.6078H20.1075C19.3232 20.6078 18.6394 20.1691 18.2887 19.5242C18.2727 19.4949 18.2575 19.4652 18.2429 19.435C18.2138 19.3748 18.1876 19.3129 18.1644 19.2495C18.083 19.0278 18.0386 18.7884 18.0386 18.5389C18.0386 18.2893 18.0831 18.0499 18.1644 17.8282C18.1876 17.7649 18.2139 17.703 18.2429 17.6427C18.2575 17.6126 18.2727 17.5828 18.2887 17.5535C18.6394 16.9086 19.3232 16.4699 20.1075 16.4699H24.76C24.8107 16.4699 24.852 16.5112 24.852 16.5618V20.5159Z" fill="#EEAD1E"/>
<path d="M20.1945 17.0358C19.3657 17.0358 18.6914 17.7101 18.6914 18.5389C18.6914 19.3677 19.3657 20.0419 20.1945 20.0419C21.0234 20.0419 21.6977 19.3677 21.6977 18.5389C21.6977 17.7101 21.0234 17.0358 20.1945 17.0358ZM20.1945 19.301C19.7743 19.301 19.4324 18.9591 19.4324 18.5389C19.4324 18.1187 19.7743 17.7767 20.1945 17.7767C20.6148 17.7767 20.9567 18.1186 20.9567 18.5389C20.9567 18.9591 20.6148 19.301 20.1945 19.301Z" fill="#EEAD1E"/>
</g>
<defs>
<clipPath id="clip0_1736_6007">
<rect width="26" height="26" fill="white" transform="translate(0 0.5)"/>
</clipPath>
</defs>
</svg>
