<svg width="22" height="22" viewBox="0 0 22 22" fill="none" xmlns="http://www.w3.org/2000/svg">
<g clip-path="url(#clip0_6235_2145)">
<path d="M21.1264 20.8807L12.3081 14.1973C11.5262 13.6015 10.4729 13.6006 9.69191 14.1964L0.873561 20.8807C0.670963 21.0338 0.631561 21.3207 0.784658 21.5224C0.937756 21.725 1.22556 21.7625 1.42631 21.6113L10.2456 14.926C10.6975 14.5841 11.3016 14.5832 11.7544 14.9269L20.5737 21.6113C20.6562 21.6745 20.7543 21.7048 20.8505 21.7048C20.988 21.7048 21.1255 21.6415 21.2154 21.5224C21.3684 21.3207 21.329 21.0338 21.1264 20.8807Z" fill="#EEAD1E"/>
<path d="M21.411 7.67797C21.2598 7.47631 20.9701 7.43597 20.7694 7.58906L11.9006 14.3009C11.699 14.4531 11.6586 14.7409 11.8117 14.9426C11.9006 15.0617 12.0381 15.1241 12.1766 15.1241C12.2737 15.1241 12.3709 15.0938 12.4534 15.0315L21.3222 8.31962C21.5238 8.16747 21.5641 7.87966 21.411 7.67797Z" fill="#EEAD1E"/>
<path d="M10.1034 14.3011L1.23462 7.58921C1.03478 7.43706 0.745123 7.47461 0.592971 7.67811C0.439873 7.87977 0.480221 8.16761 0.681873 8.31977L9.55062 15.0316C9.63312 15.0949 9.73122 15.1251 9.82747 15.1251C9.96497 15.1251 10.1034 15.0628 10.1923 14.9427C10.3454 14.7411 10.305 14.4533 10.1034 14.3011Z" fill="#EEAD1E"/>
<path d="M21.0502 7.16528L19.5459 5.91219C19.3525 5.75084 19.0638 5.77559 18.9006 5.96994C18.7383 6.16428 18.764 6.45303 18.9583 6.61528L20.4617 7.86838C20.568 7.95638 20.6276 8.08563 20.6276 8.22128V20.6247C20.6276 20.8768 20.4213 21.083 20.1692 21.083H1.83594C1.58384 21.083 1.37759 20.8768 1.37759 20.6247V8.22128C1.37759 8.08469 1.43719 7.95638 1.54259 7.86838L3.04594 6.61528C3.24029 6.45303 3.26684 6.16428 3.10459 5.96994C2.94234 5.77469 2.65269 5.74903 2.45924 5.91128L0.95409 7.16528C0.64059 7.42838 0.460938 7.81338 0.460938 8.22128V20.6247C0.460938 21.3828 1.07784 21.9997 1.83594 21.9997H20.1693C20.9274 21.9997 21.5443 21.3828 21.5443 20.6247V8.22128C21.5442 7.81244 21.3646 7.42834 21.0502 7.16528Z" fill="#EEAD1E"/>
<path d="M19.2474 0H2.74741C2.49441 0 2.28906 0.205348 2.28906 0.458348V9.24735C2.28906 9.50035 2.49441 9.7057 2.74741 9.7057C3.00041 9.7057 3.20576 9.50035 3.20576 9.24735V0.916652H18.7891V9.2519C18.7891 9.5049 18.9945 9.71025 19.2475 9.71025C19.5005 9.71025 19.7058 9.5049 19.7058 9.2519V0.458348C19.7058 0.205348 19.5004 0 19.2474 0Z" fill="#EEAD1E"/>
<path d="M13.7474 6.41406H8.24741C7.99441 6.41406 7.78906 6.61941 7.78906 6.87241C7.78906 7.12541 7.99441 7.33076 8.24741 7.33076H13.7474C14.0004 7.33076 14.2058 7.12541 14.2058 6.87241C14.2058 6.61941 14.0004 6.41406 13.7474 6.41406Z" fill="#EEAD1E"/>
</g>
<defs>
<clipPath id="clip0_6235_2145">
<rect width="22" height="22" fill="white"/>
</clipPath>
</defs>
</svg>
