<svg width="24" height="25" viewBox="0 0 24 25" fill="none" xmlns="http://www.w3.org/2000/svg">
<g clip-path="url(#clip0_1741_6560)">
<path d="M10.3516 1.8875L10.9141 1.325C11.5141 0.725 12.4891 0.725 13.0891 1.325" stroke="#EEAD1E" stroke-width="0.75" stroke-miterlimit="10" stroke-linecap="round" stroke-linejoin="round"/>
<path d="M22.7266 10.9625L20.1016 8.3375" stroke="#EEAD1E" stroke-width="0.75" stroke-miterlimit="10" stroke-linecap="round" stroke-linejoin="round"/>
<path d="M2.69844 9.5L1.27344 10.9625" stroke="#EEAD1E" stroke-width="0.75" stroke-miterlimit="10" stroke-linecap="round" stroke-linejoin="round"/>
<path d="M4.7618 11.825L3.5993 6.125C3.4493 5.45 3.8993 4.8125 4.5368 4.6625L16.0118 2.2625C16.6868 2.1125 17.3243 2.5625 17.4743 3.2L19.2743 11.7875" stroke="#EEAD1E" stroke-width="0.75" stroke-miterlimit="10" stroke-linecap="round" stroke-linejoin="round"/>
<path d="M6.78906 13.475L5.28906 6.2L15.9391 3.9875L17.8141 12.9875" stroke="#EEAD1E" stroke-width="0.75" stroke-miterlimit="10" stroke-linecap="round" stroke-linejoin="round"/>
<path d="M7.875 8.0375L14.325 6.6875" stroke="#EEAD1E" stroke-width="0.75" stroke-miterlimit="10" stroke-linecap="round" stroke-linejoin="round"/>
<path d="M8.32422 10.2125L14.7742 8.8625" stroke="#EEAD1E" stroke-width="0.75" stroke-miterlimit="10" stroke-linecap="round" stroke-linejoin="round"/>
<path d="M8.77344 12.3875L15.2234 11.0375" stroke="#EEAD1E" stroke-width="0.75" stroke-miterlimit="10" stroke-linecap="round" stroke-linejoin="round"/>
<path d="M15.6766 13.2125L14.2891 13.5125" stroke="#EEAD1E" stroke-width="0.75" stroke-miterlimit="10" stroke-linecap="round" stroke-linejoin="round"/>
<path d="M15.5234 16.85L22.7234 10.9625V22.5875C22.7234 23 22.5359 23.4125 22.2734 23.675C22.0109 23.9375 21.5984 24.125 21.1859 24.125H2.81094C2.39844 24.125 1.98594 23.9375 1.72344 23.675C1.42344 23.375 1.27344 23 1.27344 22.5875V10.9625L8.43594 16.8125" stroke="#EEAD1E" stroke-width="0.75" stroke-miterlimit="10" stroke-linecap="round" stroke-linejoin="round"/>
<path d="M22.2766 23.675C22.0141 23.9375 21.6016 24.125 21.1891 24.125H2.81406C2.40156 24.125 1.98906 23.9375 1.72656 23.675L10.9141 14.4875C11.5141 13.8875 12.4891 13.8875 13.0891 14.4875L22.2766 23.675Z" stroke="#EEAD1E" stroke-width="0.75" stroke-miterlimit="10" stroke-linecap="round" stroke-linejoin="round"/>
</g>
<defs>
<clipPath id="clip0_1741_6560">
<rect width="24" height="24" fill="white" transform="translate(0 0.5)"/>
</clipPath>
</defs>
</svg>
