<svg width="22" height="23" viewBox="0 0 22 23" fill="none" xmlns="http://www.w3.org/2000/svg">
<g clip-path="url(#clip0_1741_6574)">
<path d="M21.1264 21.378L12.3081 14.6946C11.5262 14.0988 10.4729 14.0978 9.69191 14.6937L0.873561 21.378C0.670963 21.5311 0.631561 21.818 0.784658 22.0197C0.937756 22.2223 1.22556 22.2598 1.42631 22.1086L10.2456 15.4233C10.6975 15.0814 11.3016 15.0805 11.7544 15.4242L20.5737 22.1086C20.6562 22.1718 20.7543 22.2021 20.8505 22.2021C20.988 22.2021 21.1255 22.1388 21.2154 22.0197C21.3684 21.818 21.329 21.5311 21.1264 21.378Z" fill="#EEAD1E"/>
<path d="M21.4071 8.17891C21.2559 7.97726 20.9662 7.93691 20.7655 8.09001L11.8967 14.8019C11.6951 14.954 11.6547 15.2419 11.8078 15.4435C11.8967 15.5627 12.0342 15.625 12.1727 15.625C12.2698 15.625 12.367 15.5948 12.4495 15.5324L21.3183 8.82056C21.5199 8.66841 21.5602 8.3806 21.4071 8.17891Z" fill="#EEAD1E"/>
<path d="M10.0995 14.8009L1.23072 8.08906C1.03087 7.93691 0.741217 7.97446 0.589065 8.17796C0.435967 8.37961 0.476315 8.66746 0.677967 8.81961L9.54672 15.5315C9.62922 15.5947 9.72731 15.625 9.82356 15.625C9.96106 15.625 10.0995 15.5626 10.1884 15.4426C10.3415 15.2409 10.3011 14.9531 10.0995 14.8009Z" fill="#EEAD1E"/>
<path d="M21.0463 7.6656L19.542 6.4125C19.3486 6.25115 19.0599 6.2759 18.8967 6.47025C18.7344 6.6646 18.7601 6.95335 18.9544 7.1156L20.4578 8.3687C20.5641 8.4567 20.6237 8.58595 20.6237 8.7216V21.125C20.6237 21.3771 20.4174 21.5833 20.1653 21.5833H1.83203C1.57993 21.5833 1.37368 21.3771 1.37368 21.125V8.7216C1.37368 8.585 1.43328 8.4567 1.53868 8.3687L3.04203 7.1156C3.23638 6.95335 3.26293 6.6646 3.10068 6.47025C2.93843 6.275 2.64878 6.24935 2.45534 6.4116L0.950184 7.6656C0.636684 7.9287 0.457031 8.3137 0.457031 8.7216V21.125C0.457031 21.8831 1.07393 22.5 1.83203 22.5H20.1654C20.9235 22.5 21.5404 21.8831 21.5404 21.125V8.7216C21.5403 8.31275 21.3607 7.92865 21.0463 7.6656Z" fill="#EEAD1E"/>
<path d="M19.2513 0.5H2.75132C2.49832 0.5 2.29297 0.705348 2.29297 0.958348V9.74735C2.29297 10.0003 2.49832 10.2057 2.75132 10.2057C3.00432 10.2057 3.20966 10.0003 3.20966 9.74735V1.41665H18.793V9.7519C18.793 10.0049 18.9984 10.2102 19.2514 10.2102C19.5044 10.2102 19.7097 10.0049 19.7097 9.7519V0.958348C19.7097 0.705348 19.5043 0.5 19.2513 0.5Z" fill="#EEAD1E"/>
<path d="M11.0013 4.16665C10.7483 4.16665 10.543 4.372 10.543 4.625V10.125C10.543 10.378 10.7483 10.5833 11.0013 10.5833C11.2543 10.5833 11.4597 10.378 11.4597 10.125V4.625C11.4597 4.372 11.2543 4.16665 11.0013 4.16665Z" fill="#EEAD1E"/>
<path d="M13.7513 6.91665H8.25132C7.99832 6.91665 7.79297 7.122 7.79297 7.375C7.79297 7.628 7.99832 7.83335 8.25132 7.83335H13.7513C14.0043 7.83335 14.2097 7.628 14.2097 7.375C14.2097 7.122 14.0043 6.91665 13.7513 6.91665Z" fill="#EEAD1E"/>
</g>
<defs>
<clipPath id="clip0_1741_6574">
<rect width="22" height="22" fill="white" transform="translate(0 0.5)"/>
</clipPath>
</defs>
</svg>
