<svg width="30" height="30" viewBox="0 0 30 30" fill="none" xmlns="http://www.w3.org/2000/svg">
<path d="M5.15623 17.3438C5.00589 17.3438 4.85951 17.392 4.73856 17.4813C4.61762 17.5706 4.52849 17.6963 4.48423 17.84L2.60923 23.9337C2.57687 24.0389 2.56963 24.1502 2.58811 24.2587C2.60659 24.3671 2.65027 24.4698 2.71564 24.5583C2.781 24.6468 2.86623 24.7187 2.96446 24.7683C3.0627 24.8179 3.17119 24.8437 3.28123 24.8438H10.0781C10.1713 24.8451 10.2638 24.8279 10.3502 24.7931C10.4367 24.7584 10.5154 24.7068 10.5818 24.6414C10.6481 24.5759 10.7008 24.498 10.7368 24.412C10.7727 24.3261 10.7912 24.2338 10.7912 24.1406C10.7912 24.0474 10.7727 23.9552 10.7368 23.8692C10.7008 23.7833 10.6481 23.7053 10.5818 23.6399C10.5154 23.5745 10.4367 23.5229 10.3502 23.4881C10.2638 23.4534 10.1713 23.4362 10.0781 23.4375H4.23338L5.67533 18.75H12.6059L14.0478 23.4375H12.4219C12.3287 23.4362 12.2362 23.4534 12.1497 23.4881C12.0633 23.5229 11.9846 23.5745 11.9182 23.6399C11.8519 23.7053 11.7992 23.7833 11.7632 23.8692C11.7272 23.9552 11.7087 24.0474 11.7087 24.1406C11.7087 24.2338 11.7272 24.3261 11.7632 24.412C11.7992 24.498 11.8519 24.5759 11.9182 24.6414C11.9846 24.7068 12.0633 24.7584 12.1497 24.7931C12.2362 24.8279 12.3287 24.8451 12.4219 24.8438H15C15.11 24.8437 15.2185 24.8179 15.3167 24.7683C15.415 24.7187 15.5002 24.6468 15.5656 24.5583C15.6309 24.4698 15.6746 24.3671 15.6931 24.2587C15.7116 24.1502 15.7043 24.0389 15.672 23.9337L13.797 17.84C13.7527 17.6963 13.6636 17.5706 13.5426 17.4813C13.4217 17.392 13.2753 17.3438 13.125 17.3438H5.15623Z" fill="#EEAD1E"/>
<path d="M16.8732 17.3438C16.7229 17.3438 16.5765 17.392 16.4555 17.4813C16.3346 17.5706 16.2455 17.6963 16.2012 17.84L15.5301 20.0208C15.5015 20.1094 15.4908 20.2028 15.4986 20.2957C15.5064 20.3885 15.5325 20.4789 15.5755 20.5615C15.6185 20.6441 15.6775 20.7174 15.7491 20.777C15.8206 20.8367 15.9033 20.8815 15.9924 20.9089C16.0814 20.9363 16.175 20.9458 16.2677 20.9367C16.3604 20.9276 16.4504 20.9002 16.5324 20.8561C16.6145 20.812 16.6869 20.752 16.7456 20.6796C16.8042 20.6073 16.8479 20.524 16.8741 20.4346L17.3923 18.75H24.3228L25.7648 23.4375H17.1076C17.0144 23.4362 16.9219 23.4534 16.8354 23.4881C16.749 23.5229 16.6703 23.5745 16.6039 23.6399C16.5376 23.7053 16.4849 23.7833 16.4489 23.8692C16.413 23.9552 16.3944 24.0474 16.3944 24.1406C16.3944 24.2338 16.413 24.3261 16.4489 24.412C16.4849 24.498 16.5376 24.5759 16.6039 24.6414C16.6703 24.7068 16.749 24.7584 16.8354 24.7931C16.9219 24.8279 17.0144 24.8451 17.1076 24.8438H26.7169C26.827 24.8437 26.9355 24.8179 27.0337 24.7683C27.1319 24.7187 27.2172 24.6468 27.2825 24.5583C27.3479 24.4698 27.3916 24.3671 27.4101 24.2587C27.4285 24.1502 27.4213 24.0389 27.3889 23.9337L25.5139 17.84C25.4697 17.6963 25.3806 17.5706 25.2596 17.4813C25.1387 17.392 24.9923 17.3438 24.8419 17.3438H16.8732Z" fill="#EEAD1E"/>
<path d="M11.0158 11.25C10.8655 11.25 10.7191 11.2982 10.5982 11.3875C10.4772 11.4768 10.3881 11.6025 10.3438 11.7462L9.19027 15.4962C9.16165 15.5849 9.15092 15.6783 9.15872 15.7711C9.16651 15.864 9.19267 15.9543 9.23568 16.0369C9.27868 16.1196 9.33768 16.1928 9.40924 16.2525C9.48079 16.3121 9.56349 16.3569 9.65252 16.3844C9.74154 16.4118 9.83513 16.4212 9.92784 16.4122C10.0206 16.4031 10.1105 16.3757 10.1926 16.3316C10.2746 16.2874 10.3471 16.2275 10.4057 16.1551C10.4644 16.0827 10.5081 15.9994 10.5343 15.91L11.5349 12.6562H18.4655L19.4662 15.91C19.4923 15.9994 19.536 16.0827 19.5947 16.1551C19.6534 16.2275 19.7258 16.2874 19.8078 16.3316C19.8899 16.3757 19.9799 16.4031 20.0726 16.4122C20.1653 16.4212 20.2589 16.4118 20.3479 16.3844C20.4369 16.3569 20.5196 16.3121 20.5912 16.2525C20.6627 16.1928 20.7217 16.1196 20.7647 16.0369C20.8077 15.9543 20.8339 15.864 20.8417 15.7711C20.8495 15.6783 20.8388 15.5849 20.8101 15.4962L19.6566 11.7462C19.6123 11.6025 19.5232 11.4768 19.4023 11.3875C19.2813 11.2982 19.1349 11.25 18.9846 11.25H11.0158Z" fill="#EEAD1E"/>
<path d="M14.9891 4.20867C14.8028 4.21158 14.6252 4.28833 14.4954 4.42205C14.3657 4.55578 14.2943 4.73555 14.2969 4.92187V7.26562C14.2956 7.35879 14.3128 7.4513 14.3476 7.53776C14.3823 7.62422 14.4339 7.70292 14.4993 7.76927C14.5648 7.83562 14.6427 7.88831 14.7287 7.92428C14.8146 7.96024 14.9069 7.97876 15.0001 7.97876C15.0933 7.97876 15.1855 7.96024 15.2715 7.92428C15.3574 7.88831 15.4354 7.83562 15.5008 7.76927C15.5662 7.70292 15.6178 7.62422 15.6526 7.53776C15.6873 7.4513 15.7045 7.35879 15.7032 7.26562V4.92187C15.7045 4.82776 15.687 4.73434 15.6516 4.64714C15.6161 4.55994 15.5636 4.48074 15.497 4.41423C15.4304 4.34772 15.3511 4.29526 15.2639 4.25995C15.1766 4.22464 15.0832 4.2072 14.9891 4.20867Z" fill="#EEAD1E"/>
<path d="M21.6297 6.94972C21.4959 6.82003 21.3161 6.74875 21.1297 6.75154C20.9434 6.75434 20.7658 6.83097 20.6359 6.96461L18.9787 8.62189C18.9119 8.68684 18.8586 8.76442 18.822 8.85013C18.7855 8.93584 18.7663 9.02795 18.7656 9.12113C18.765 9.21431 18.7829 9.30669 18.8182 9.39291C18.8536 9.47912 18.9057 9.55745 18.9716 9.62334C19.0375 9.68923 19.1158 9.74137 19.202 9.77672C19.2882 9.81207 19.3806 9.82994 19.4738 9.82928C19.567 9.82862 19.6591 9.80945 19.7448 9.77288C19.8305 9.73631 19.9081 9.68307 19.973 9.61626L21.6303 7.95898C21.6978 7.89339 21.7515 7.81491 21.7881 7.72821C21.8247 7.6415 21.8435 7.54833 21.8435 7.45421C21.8434 7.36009 21.8244 7.26694 21.7877 7.18029C21.751 7.09363 21.6973 7.01522 21.6297 6.94972Z" fill="#EEAD1E"/>
<path d="M8.37004 6.94972C8.50385 6.82003 8.68366 6.74875 8.86998 6.75154C9.05631 6.75434 9.2339 6.83097 9.36376 6.96461L11.021 8.62189C11.0879 8.68684 11.1411 8.76442 11.1777 8.85013C11.2142 8.93584 11.2334 9.02795 11.2341 9.12113C11.2347 9.21431 11.2169 9.30669 11.1815 9.39291C11.1462 9.47912 11.094 9.55745 11.0281 9.62334C10.9622 9.68923 10.8839 9.74137 10.7977 9.77672C10.7115 9.81207 10.6191 9.82994 10.5259 9.82928C10.4327 9.82862 10.3406 9.80945 10.2549 9.77288C10.1692 9.73631 10.0916 9.68307 10.0267 9.61626L8.36939 7.95898C8.30189 7.89339 8.24825 7.81491 8.21164 7.72821C8.17502 7.6415 8.15619 7.54833 8.15625 7.45421C8.15631 7.36009 8.17526 7.26694 8.21199 7.18029C8.24871 7.09363 8.30246 7.01522 8.37004 6.94972Z" fill="#EEAD1E"/>
</svg>
