<svg width="26" height="27" viewBox="0 0 26 27" fill="none" xmlns="http://www.w3.org/2000/svg">
<path d="M7.39404 14.7187C7.34529 14.7187 7.28842 14.7106 7.23967 14.6862C7.03654 14.5969 6.93092 14.3612 7.02029 14.1581L11.7328 2.78312C11.8222 2.57187 12.0578 2.47437 12.2609 2.56375C12.464 2.65312 12.5697 2.88875 12.4803 3.09187L7.76779 14.4669C7.70279 14.6212 7.55654 14.7187 7.39404 14.7187Z" fill="#EEAD1E"/>
<path d="M4.06201 11.3875C3.89951 11.3875 3.75326 11.29 3.68826 11.1356C3.59889 10.9325 3.70451 10.6888 3.90764 10.6075L15.2826 5.89502C15.4858 5.80564 15.7295 5.91127 15.8108 6.11439C15.892 6.31752 15.7945 6.56127 15.5914 6.64252L4.21639 11.355C4.16764 11.3794 4.11076 11.3875 4.06201 11.3875Z" fill="#EEAD1E"/>
<path d="M15.437 11.3875C15.3883 11.3875 15.3314 11.3794 15.2826 11.355L3.90764 6.64248C3.70451 6.55311 3.59889 6.31748 3.68826 6.11436C3.77764 5.90311 4.01326 5.80561 4.21639 5.89498L15.5914 10.6075C15.7945 10.6969 15.9001 10.9325 15.8108 11.1356C15.7458 11.29 15.5995 11.3875 15.437 11.3875Z" fill="#EEAD1E"/>
<path d="M12.1038 14.7187C11.9413 14.7187 11.795 14.6212 11.73 14.4668L7.01751 3.09184C6.92814 2.88872 7.02564 2.64497 7.23689 2.56372C7.44001 2.47434 7.68376 2.57997 7.76501 2.78309L12.4775 14.1581C12.5669 14.3612 12.4613 14.605 12.2581 14.6862C12.2094 14.7106 12.1525 14.7187 12.1038 14.7187Z" fill="#EEAD1E"/>
<path d="M9.74937 14.4993C9.60313 14.4993 9.47312 14.4262 9.4 14.2962L8.22187 12.3056L5.97938 12.8825C5.84125 12.9231 5.695 12.8743 5.58938 12.7768C5.48375 12.6712 5.45125 12.525 5.48375 12.3868L6.06063 10.1443L4.07 8.96622C3.94813 8.90122 3.875 8.77122 3.875 8.62497C3.875 8.47872 3.94813 8.34872 4.07812 8.27559L6.06875 7.09747L5.48375 4.85497C5.45125 4.71684 5.49187 4.57059 5.5975 4.47309C5.695 4.36747 5.84937 4.32684 5.9875 4.36747L8.23 4.94434L9.40812 2.95372C9.55438 2.70997 9.96062 2.70997 10.1069 2.95372L11.285 4.94434L13.5275 4.36747C13.6656 4.33497 13.8119 4.37559 13.9175 4.47309C14.0231 4.57872 14.0556 4.72497 14.0231 4.86309L13.4462 7.10559L15.4369 8.28372C15.5587 8.35684 15.64 8.48684 15.64 8.63309C15.64 8.77934 15.5669 8.90934 15.4369 8.98247L13.4462 10.1606L14.0231 12.4031C14.0556 12.5412 14.015 12.6875 13.9175 12.7931C13.82 12.8906 13.6656 12.9312 13.5275 12.8987L11.285 12.3218L10.1069 14.3125C10.0256 14.4262 9.89563 14.4993 9.74937 14.4993ZM8.41687 11.4362C8.555 11.4362 8.69312 11.5093 8.76625 11.6393L9.74937 13.2968L10.7325 11.6312C10.8219 11.4768 11.0087 11.3956 11.1794 11.4443L13.0481 11.9237L12.5688 10.055C12.52 9.88434 12.6013 9.69747 12.7556 9.60809L14.4212 8.62497L12.7556 7.64184C12.6013 7.55247 12.52 7.36559 12.5688 7.19497L13.0481 5.32622L11.1794 5.80559C11.0006 5.85434 10.8219 5.77309 10.7325 5.61872L9.74937 3.95309L8.76625 5.61872C8.67688 5.77309 8.49 5.85434 8.31938 5.80559L6.45062 5.32622L6.93 7.19497C6.97875 7.36559 6.8975 7.55247 6.74313 7.64184L5.0775 8.62497L6.74313 9.60809C6.8975 9.69747 6.97875 9.88434 6.93 10.055L6.45062 11.9237L8.31938 11.4443C8.35187 11.4362 8.38437 11.4362 8.41687 11.4362Z" fill="#EEAD1E"/>
<path d="M23.9688 19.1875H19.5C17.7044 19.1875 16.25 17.7331 16.25 15.9375C16.25 14.1419 17.7044 12.6875 19.5 12.6875H23.9688C24.6431 12.6875 25.1875 13.2319 25.1875 13.9062V17.9688C25.1875 18.6431 24.6431 19.1875 23.9688 19.1875ZM19.5 13.5C18.1594 13.5 17.0625 14.5969 17.0625 15.9375C17.0625 17.2781 18.1594 18.375 19.5 18.375H23.9688C24.1962 18.375 24.375 18.1962 24.375 17.9688V13.9062C24.375 13.6787 24.1962 13.5 23.9688 13.5H19.5Z" fill="#EEAD1E"/>
<path d="M19.5 17.5625C18.6062 17.5625 17.875 16.8312 17.875 15.9375C17.875 15.0437 18.6062 14.3125 19.5 14.3125C20.3937 14.3125 21.125 15.0437 21.125 15.9375C21.125 16.8312 20.3937 17.5625 19.5 17.5625ZM19.5 15.125C19.0531 15.125 18.6875 15.4906 18.6875 15.9375C18.6875 16.3844 19.0531 16.75 19.5 16.75C19.9469 16.75 20.3125 16.3844 20.3125 15.9375C20.3125 15.4906 19.9469 15.125 19.5 15.125Z" fill="#EEAD1E"/>
<path d="M23.5625 25.6875H2.03125C1.35688 25.6875 0.8125 25.1431 0.8125 24.4688C0.8125 23.7944 1.35688 23.25 2.03125 23.25H22.75C23.1969 23.25 23.5625 22.8844 23.5625 22.4375V18.7812C23.5625 18.5537 23.7412 18.375 23.9688 18.375C24.1963 18.375 24.375 18.5537 24.375 18.7812V22.4375C24.375 23.3313 23.6437 24.0625 22.75 24.0625H2.03125C1.80375 24.0625 1.625 24.2413 1.625 24.4688C1.625 24.6962 1.80375 24.875 2.03125 24.875H23.5625C23.79 24.875 23.9688 25.0538 23.9688 25.2812C23.9688 25.5087 23.79 25.6875 23.5625 25.6875Z" fill="#EEAD1E"/>
<path d="M1.21875 24.875C0.99125 24.875 0.8125 24.6963 0.8125 24.4688V8.625C0.8125 7.73125 1.54375 7 2.4375 7H3.25C3.4775 7 3.65625 7.17875 3.65625 7.40625C3.65625 7.63375 3.4775 7.8125 3.25 7.8125H2.4375C1.99063 7.8125 1.625 8.17813 1.625 8.625V24.4688C1.625 24.6963 1.44625 24.875 1.21875 24.875Z" fill="#EEAD1E"/>
<path d="M23.9688 11.875C23.7413 11.875 23.5625 11.6962 23.5625 11.4688V8.625C23.5625 8.17813 23.1969 7.8125 22.75 7.8125H16.6562C16.4287 7.8125 16.25 7.63375 16.25 7.40625C16.25 7.17875 16.4287 7 16.6562 7H22.75C23.6438 7 24.375 7.73125 24.375 8.625V11.4688C24.375 11.6962 24.1962 11.875 23.9688 11.875Z" fill="#EEAD1E"/>
</svg>
