<svg width="20" height="21" viewBox="0 0 20 21" fill="none" xmlns="http://www.w3.org/2000/svg">
<path d="M7.05732 4.69221C6.99925 4.63414 6.95319 4.5652 6.92176 4.48933C6.89034 4.41346 6.87416 4.33214 6.87416 4.25002C6.87416 4.1679 6.89034 4.08658 6.92176 4.01071C6.95319 3.93484 6.99925 3.8659 7.05732 3.80783C7.11539 3.74976 7.18433 3.7037 7.2602 3.67227C7.33607 3.64085 7.41739 3.62467 7.49951 3.62467C7.58163 3.62467 7.66295 3.64085 7.73882 3.67227C7.81469 3.7037 7.88363 3.74976 7.94169 3.80783L14.1917 10.0578C14.2498 10.1159 14.2959 10.1848 14.3274 10.2607C14.3588 10.3366 14.375 10.4179 14.375 10.5C14.375 10.5822 14.3588 10.6635 14.3274 10.7394C14.2959 10.8152 14.2498 10.8842 14.1917 10.9422L7.9417 17.1922C7.82442 17.3095 7.66536 17.3754 7.49951 17.3754C7.33366 17.3754 7.1746 17.3095 7.05732 17.1922C6.94005 17.0749 6.87416 16.9159 6.87416 16.75C6.87416 16.5842 6.94004 16.4251 7.05732 16.3078L12.8659 10.5L7.05732 4.69221Z" fill="#A9A9A9"/>
</svg>
