<svg width="28" height="29" viewBox="0 0 28 29" fill="none" xmlns="http://www.w3.org/2000/svg">
<path d="M2.47543 9.88234H11.2795C11.3665 9.88234 11.4499 9.84777 11.5115 9.78623C11.573 9.7247 11.6076 9.64124 11.6076 9.55422V6.36905C11.6076 6.28203 11.573 6.19857 11.5115 6.13703C11.4499 6.0755 11.3665 6.04093 11.2795 6.04093H2.47543C2.38841 6.04093 2.30495 6.0755 2.24341 6.13703C2.18187 6.19857 2.1473 6.28203 2.1473 6.36905V9.55422C2.1473 9.64124 2.18187 9.7247 2.24341 9.78623C2.30495 9.84777 2.38841 9.88234 2.47543 9.88234ZM2.80355 6.69718H10.9513V9.22609H2.80355V6.69718ZM7.80795 17.6365H5.94694C5.85991 17.6365 5.77645 17.6711 5.71492 17.7326C5.65338 17.7941 5.61881 17.8776 5.61881 17.9646V19.8256C5.61881 19.9126 5.65338 19.9961 5.71492 20.0576C5.77645 20.1192 5.85991 20.1537 5.94694 20.1537H7.80795C7.89498 20.1537 7.97844 20.1192 8.03997 20.0576C8.10151 19.9961 8.13608 19.9126 8.13608 19.8256V17.9646C8.13608 17.8776 8.10151 17.7941 8.03997 17.7326C7.97844 17.6711 7.89498 17.6365 7.80795 17.6365ZM7.47983 19.4975H6.27506V18.2927H7.47983V19.4975ZM4.33672 17.6365H2.47543C2.38841 17.6365 2.30495 17.6711 2.24341 17.7326C2.18187 17.7941 2.1473 17.8776 2.1473 17.9646V19.8256C2.1473 19.9126 2.18187 19.9961 2.24341 20.0576C2.30495 20.1192 2.38841 20.1537 2.47543 20.1537H4.33672C4.42374 20.1537 4.5072 20.1192 4.56874 20.0576C4.63027 19.9961 4.66484 19.9126 4.66484 19.8256V17.9646C4.66484 17.8776 4.63027 17.7941 4.56874 17.7326C4.5072 17.6711 4.42374 17.6365 4.33672 17.6365ZM4.00859 19.4975H2.80355V18.2927H4.00859V19.4975ZM4.33672 10.6934H2.47543C2.38841 10.6934 2.30495 10.728 2.24341 10.7895C2.18187 10.8511 2.1473 10.9345 2.1473 11.0215V12.8826C2.1473 12.9696 2.18187 13.053 2.24341 13.1146C2.30495 13.1761 2.38841 13.2107 2.47543 13.2107H4.33672C4.42374 13.2107 4.5072 13.1761 4.56874 13.1146C4.63027 13.053 4.66484 12.9696 4.66484 12.8826V11.0215C4.66484 10.9345 4.63027 10.8511 4.56874 10.7895C4.5072 10.728 4.42374 10.6934 4.33672 10.6934ZM4.00859 12.5544H2.80355V11.3497H4.00859V12.5544ZM4.33672 14.1649H2.47543C2.38841 14.1649 2.30495 14.1995 2.24341 14.261C2.18187 14.3226 2.1473 14.406 2.1473 14.493V16.3539C2.1473 16.4409 2.18187 16.5244 2.24341 16.5859C2.30495 16.6474 2.38841 16.682 2.47543 16.682H4.33672C4.42374 16.682 4.5072 16.6474 4.56874 16.5859C4.63027 16.5244 4.66484 16.4409 4.66484 16.3539V14.4929C4.6648 14.4059 4.63021 14.3225 4.56868 14.261C4.50715 14.1995 4.42371 14.1649 4.33672 14.1649ZM4.00859 16.0259H2.80355V14.8212H4.00859V16.0259ZM7.80823 10.6934H5.94721C5.86019 10.6934 5.77673 10.728 5.71519 10.7895C5.65366 10.8511 5.61909 10.9345 5.61909 11.0215V12.8826C5.61909 12.9696 5.65366 13.053 5.71519 13.1146C5.77673 13.1761 5.86019 13.2107 5.94721 13.2107H7.80823C7.89525 13.2107 7.97871 13.1761 8.04025 13.1146C8.10178 13.053 8.13635 12.9696 8.13635 12.8826V11.0215C8.13635 10.9784 8.12786 10.9357 8.11135 10.8959C8.09484 10.8561 8.07065 10.8199 8.04015 10.7894C8.00965 10.7589 7.97345 10.7348 7.93361 10.7183C7.89376 10.7018 7.85107 10.6934 7.80795 10.6934H7.80823ZM7.4801 12.5544H6.27534V11.3497H7.4801V12.5544ZM11.2797 10.6934H9.4185C9.33148 10.6934 9.24802 10.728 9.18648 10.7895C9.12494 10.8511 9.09037 10.9345 9.09037 11.0215V12.8826C9.09037 12.9696 9.12494 13.053 9.18648 13.1146C9.24802 13.1761 9.33148 13.2107 9.4185 13.2107H11.2795C11.3665 13.2107 11.4499 13.1761 11.5115 13.1146C11.573 13.053 11.6076 12.9696 11.6076 12.8826V11.0215C11.6076 10.9345 11.573 10.8511 11.5115 10.7895C11.4499 10.728 11.3665 10.6934 11.2795 10.6934H11.2797ZM10.9516 12.5544H9.74662V11.3497H10.9513L10.9516 12.5544ZM7.80823 14.1649H5.94721C5.86019 14.1649 5.77673 14.1995 5.71519 14.261C5.65366 14.3226 5.61909 14.406 5.61909 14.493V16.3539C5.61909 16.4409 5.65366 16.5244 5.71519 16.5859C5.77673 16.6474 5.86019 16.682 5.94721 16.682H7.80823C7.89525 16.682 7.97871 16.6474 8.04025 16.5859C8.10178 16.5244 8.13635 16.4409 8.13635 16.3539V14.4929C8.13633 14.4498 8.12782 14.4071 8.1113 14.3673C8.09478 14.3275 8.07059 14.2913 8.04009 14.2609C8.00959 14.2304 7.9734 14.2063 7.93357 14.1898C7.89374 14.1733 7.85105 14.1649 7.80795 14.1649H7.80823ZM7.4801 16.0259H6.27534V14.8212H7.4801V16.0259ZM27.0513 13.74H13.7549V4.93755C13.7546 4.66079 13.6445 4.39545 13.4488 4.19975C13.2531 4.00406 12.9877 3.89398 12.711 3.89368H1.04387C0.767115 3.89398 0.501778 4.00406 0.30608 4.19976C0.110381 4.39546 0.000303981 4.66079 0 4.93755L0 21.2571C0.000318453 21.5339 0.110402 21.7992 0.306099 21.9949C0.501796 22.1906 0.767125 22.3006 1.04387 22.3009H9.09037V24.1574C9.09065 24.4089 9.19071 24.6501 9.3686 24.828C9.54648 25.0059 9.78768 25.106 10.0393 25.1063H27.051C27.3026 25.106 27.5438 25.006 27.7217 24.8281C27.8996 24.6502 27.9997 24.409 28 24.1574V14.6892C27.9997 14.4375 27.8997 14.1963 27.7217 14.0184C27.5438 13.8405 27.3026 13.7404 27.051 13.7401L27.0513 13.74ZM1.04387 21.6447C0.941133 21.6445 0.842648 21.6036 0.769994 21.531C0.697339 21.4583 0.656438 21.3599 0.65625 21.2571V4.93755C0.656424 4.8348 0.697318 4.73631 0.769974 4.66365C0.842631 4.59099 0.941124 4.5501 1.04387 4.54993H12.711C12.8137 4.55009 12.9122 4.59097 12.9849 4.66363C13.0576 4.73629 13.0985 4.83479 13.0986 4.93755V13.7401H10.0393C9.78767 13.7404 9.54648 13.8405 9.36859 14.0184C9.1907 14.1964 9.09065 14.4376 9.09037 14.6892V21.6447H1.04387ZM27.3438 24.1574C27.3437 24.235 27.3128 24.3094 27.2579 24.3642C27.203 24.4191 27.1286 24.45 27.051 24.4501H10.0393C9.96166 24.45 9.88727 24.4191 9.83241 24.3642C9.77755 24.3094 9.7467 24.235 9.74662 24.1574V14.6892C9.74668 14.6115 9.77753 14.5371 9.83239 14.4822C9.88725 14.4273 9.96165 14.3965 10.0393 14.3964H27.051C27.1286 14.3964 27.203 14.4273 27.2579 14.4822C27.3128 14.5371 27.3437 14.6115 27.3438 14.6892V24.1574ZM26.4408 16.3413C25.9756 16.1315 25.602 15.7606 25.3888 15.297C25.3626 15.24 25.3206 15.1917 25.2677 15.1579C25.2149 15.124 25.1535 15.106 25.0907 15.106H11.9996C11.9368 15.106 11.8754 15.124 11.8226 15.1579C11.7697 15.1917 11.7277 15.24 11.7015 15.2971C11.4883 15.7607 11.1147 16.1316 10.6495 16.3413C10.5919 16.3672 10.543 16.4093 10.5087 16.4623C10.4744 16.5154 10.4562 16.5772 10.4562 16.6404V22.2061C10.4562 22.2692 10.4744 22.3311 10.5087 22.3841C10.543 22.4372 10.5919 22.4792 10.6495 22.5052C11.1147 22.715 11.4884 23.086 11.7015 23.5497C11.7277 23.6067 11.7697 23.655 11.8226 23.6889C11.8754 23.7227 11.9368 23.7407 11.9996 23.7407H25.0906C25.1534 23.7407 25.2148 23.7227 25.2676 23.6889C25.3205 23.655 25.3625 23.6067 25.3887 23.5497C25.6018 23.086 25.9755 22.715 26.4407 22.5052C26.4983 22.4792 26.5472 22.4372 26.5814 22.3841C26.6157 22.3311 26.634 22.2692 26.634 22.2061V16.6404C26.634 16.5772 26.6158 16.5154 26.5815 16.4624C26.5472 16.4093 26.4984 16.3672 26.4408 16.3413ZM25.9778 22.0031C25.5206 22.2539 25.1434 22.6285 24.8895 23.084H12.2008C11.947 22.6285 11.5698 22.2538 11.1125 22.0031V16.8432C11.5698 16.5925 11.947 16.2178 12.2008 15.7623H24.8896C25.1434 16.2178 25.5206 16.5924 25.9779 16.8432L25.9778 22.0031ZM13.4798 18.5214C13.3014 18.5214 13.1271 18.5743 12.9788 18.6734C12.8305 18.7725 12.7149 18.9133 12.6466 19.0781C12.5783 19.2429 12.5605 19.4243 12.5953 19.5992C12.6301 19.7741 12.716 19.9348 12.8421 20.061C12.9683 20.1871 13.129 20.273 13.3039 20.3078C13.4788 20.3426 13.6602 20.3247 13.825 20.2564C13.9898 20.1881 14.1306 20.0725 14.2297 19.9242C14.3288 19.7759 14.3817 19.6015 14.3817 19.4232C14.3814 19.1841 14.2863 18.9549 14.1172 18.7858C13.9481 18.6167 13.7189 18.5216 13.4798 18.5214ZM13.4798 19.6688C13.4312 19.6688 13.3838 19.6544 13.3434 19.6274C13.303 19.6004 13.2715 19.562 13.2529 19.5172C13.2343 19.4723 13.2295 19.4229 13.2389 19.3753C13.2484 19.3276 13.2718 19.2839 13.3061 19.2495C13.3405 19.2152 13.3843 19.1918 13.4319 19.1823C13.4795 19.1728 13.5289 19.1777 13.5738 19.1963C13.6187 19.2149 13.657 19.2463 13.684 19.2867C13.711 19.3271 13.7254 19.3746 13.7254 19.4232C13.7253 19.4883 13.6994 19.5507 13.6533 19.5967C13.6073 19.6427 13.5449 19.6686 13.4798 19.6688ZM23.6105 18.5214C23.4321 18.5214 23.2578 18.5743 23.1095 18.6734C22.9612 18.7725 22.8456 18.9133 22.7773 19.0781C22.709 19.2429 22.6912 19.4243 22.726 19.5992C22.7608 19.7741 22.8467 19.9348 22.9728 20.061C23.099 20.1871 23.2597 20.273 23.4346 20.3078C23.6095 20.3426 23.7909 20.3247 23.9557 20.2564C24.1205 20.1881 24.2613 20.0725 24.3604 19.9242C24.4595 19.7759 24.5124 19.6015 24.5124 19.4232C24.5121 19.1841 24.417 18.9549 24.2479 18.7858C24.0788 18.6168 23.8496 18.5217 23.6105 18.5214ZM23.6105 19.6688C23.5619 19.6688 23.5144 19.6544 23.4741 19.6274C23.4337 19.6004 23.4022 19.562 23.3836 19.5172C23.365 19.4723 23.3601 19.4229 23.3696 19.3753C23.3791 19.3276 23.4025 19.2839 23.4368 19.2495C23.4712 19.2152 23.515 19.1918 23.5626 19.1823C23.6102 19.1728 23.6596 19.1777 23.7045 19.1963C23.7494 19.2149 23.7877 19.2463 23.8147 19.2867C23.8417 19.3271 23.8561 19.3746 23.8561 19.4232C23.856 19.4883 23.8301 19.5507 23.784 19.5967C23.738 19.6427 23.6756 19.6686 23.6105 19.6688ZM19.0775 18.5832C19.1046 18.6659 19.1634 18.7345 19.241 18.7739C19.3186 18.8133 19.4087 18.8202 19.4914 18.7931C19.5741 18.7661 19.6427 18.7073 19.6821 18.6297C19.7214 18.552 19.7283 18.462 19.7013 18.3792C19.643 18.1899 19.5358 18.0193 19.3904 17.8848C19.245 17.7502 19.0666 17.6565 18.8733 17.6131V17.3984C18.8733 17.3114 18.8387 17.2279 18.7772 17.1664C18.7156 17.1049 18.6322 17.0703 18.5451 17.0703C18.4581 17.0703 18.3746 17.1049 18.3131 17.1664C18.2516 17.2279 18.217 17.3114 18.217 17.3984V17.6369C18.0173 17.6962 17.8421 17.8185 17.7174 17.9854C17.5926 18.1523 17.5251 18.3549 17.5247 18.5633C17.5169 19.2464 17.8728 19.514 18.217 19.6467V20.4458C18.1238 20.366 18.048 20.2679 17.9942 20.1577C17.9751 20.1187 17.9486 20.0838 17.916 20.0551C17.8834 20.0265 17.8454 20.0045 17.8043 19.9906C17.7632 19.9767 17.7197 19.9711 17.6764 19.9742C17.6331 19.9772 17.5908 19.9888 17.552 20.0082C17.5132 20.0277 17.4787 20.0547 17.4504 20.0876C17.4221 20.1205 17.4006 20.1587 17.3872 20.2C17.3738 20.2413 17.3687 20.2848 17.3722 20.3281C17.3757 20.3714 17.3878 20.4135 17.4077 20.4521C17.5702 20.7948 17.8609 21.0599 18.2171 21.1903V21.448C18.2171 21.5351 18.2516 21.6185 18.3132 21.6801C18.3747 21.7416 18.4582 21.7762 18.5452 21.7762C18.6322 21.7762 18.7157 21.7416 18.7772 21.6801C18.8387 21.6185 18.8733 21.5351 18.8733 21.448V21.2446C18.8843 21.2425 18.8952 21.2406 18.9061 21.2381C19.3877 21.1275 19.7033 20.726 19.71 20.2154C19.72 19.4717 19.2438 19.2577 18.8733 19.1528V18.3148C18.9716 18.3766 19.0442 18.472 19.0775 18.5832ZM18.181 18.5708C18.1806 18.518 18.193 18.4659 18.217 18.4189V18.8367C18.188 18.7512 18.1757 18.6609 18.181 18.5708ZM19.0538 20.2066C19.0511 20.402 18.9632 20.5025 18.8733 20.5542V19.845C19.013 19.9091 19.0566 19.9981 19.0538 20.2066ZM18.5452 16.0831C16.8757 16.0831 15.5175 17.5816 15.5175 19.4232C15.5175 21.2648 16.8757 22.7633 18.5452 22.7633C20.2146 22.7633 21.5729 21.2648 21.5729 19.4232C21.5729 17.5815 20.2147 16.0831 18.5452 16.0831ZM18.5452 22.107C17.2376 22.107 16.1738 20.9031 16.1738 19.4232C16.1738 17.9433 17.2376 16.7394 18.5452 16.7394C19.8528 16.7394 20.9166 17.9433 20.9166 19.4232C20.9166 20.903 19.8528 22.107 18.5452 22.107Z" fill="#EEAD1E"/>
</svg>
