<svg width="29" height="28" viewBox="0 0 29 28" fill="none" xmlns="http://www.w3.org/2000/svg">
<rect x="0.5" width="28" height="28" rx="14" fill="#F4D287"/>
<path d="M11.332 11.3333C11.332 11.0572 11.5559 10.8333 11.832 10.8333H14.4987C14.7748 10.8333 14.9987 11.0572 14.9987 11.3333C14.9987 11.6095 14.7748 11.8333 14.4987 11.8333H11.832C11.5559 11.8333 11.332 11.6095 11.332 11.3333Z" fill="white"/>
<path d="M11.332 14C11.332 13.7239 11.5559 13.5 11.832 13.5H17.1654C17.4415 13.5 17.6654 13.7239 17.6654 14C17.6654 14.2761 17.4415 14.5 17.1654 14.5H11.832C11.5559 14.5 11.332 14.2761 11.332 14Z" fill="white"/>
<path fill-rule="evenodd" clip-rule="evenodd" d="M13.143 6.83331H15.8544C16.7689 6.83331 17.4858 6.83331 18.0621 6.88039C18.6488 6.92833 19.1336 7.02757 19.5723 7.25112C20.2936 7.61863 20.88 8.20506 21.2476 8.92635C21.4711 9.36511 21.5704 9.84984 21.6183 10.4366C21.6654 11.0128 21.6654 11.7298 21.6654 12.6443V13.4561V13.554C21.6655 14.5864 21.6656 15.2162 21.5105 15.7452C21.1432 16.998 20.1634 17.9778 18.9106 18.3451C18.3816 18.5002 17.7518 18.5001 16.7194 18.5C16.6872 18.5 16.6546 18.5 16.6215 18.5H16.2556L16.2154 18.5C15.6373 18.5037 15.0742 18.6842 14.6016 19.0172L14.5688 19.0406L12.8283 20.2838C11.8253 21.0002 10.5073 19.9656 10.9651 18.8211C11.0266 18.6673 10.9133 18.5 10.7476 18.5H10.3465C8.68164 18.5 7.33203 17.1504 7.33203 15.4855V12.6443C7.33203 11.7298 7.33202 11.0128 7.3791 10.4366C7.42704 9.84984 7.52628 9.36511 7.74984 8.92635C8.11735 8.20506 8.70378 7.61863 9.42506 7.25112C9.86382 7.02757 10.3486 6.92833 10.9353 6.88039C11.5116 6.83331 12.2285 6.83331 13.143 6.83331ZM11.0168 7.87707C10.4918 7.91995 10.1533 8.00237 9.87906 8.14213C9.34593 8.41377 8.91248 8.84721 8.64084 9.38034C8.50109 9.65463 8.41867 9.99311 8.37578 10.518C8.33242 11.0488 8.33203 11.725 8.33203 12.6666V15.4855C8.33203 16.5981 9.23392 17.5 10.3465 17.5H10.7476C11.6208 17.5 12.2178 18.3818 11.8935 19.1925C11.8067 19.4096 12.0568 19.606 12.2471 19.47L14.0255 18.1998C14.6649 17.7492 15.4268 17.505 16.209 17.5L16.2556 17.5H16.6215C17.7828 17.5 18.2562 17.4949 18.6292 17.3855C19.5552 17.114 20.2794 16.3898 20.5509 15.4638C20.6603 15.0908 20.6654 14.6174 20.6654 13.4561V12.6666C20.6654 11.725 20.665 11.0488 20.6216 10.518C20.5787 9.99311 20.4963 9.65463 20.3566 9.38034C20.0849 8.84721 19.6514 8.41377 19.1184 8.14213C18.844 8.00237 18.5056 7.91995 17.9806 7.87707C17.4499 7.8337 16.7737 7.83331 15.832 7.83331H13.1654C12.2237 7.83331 11.5475 7.8337 11.0168 7.87707Z" fill="white"/>
</svg>
