<svg width="15" height="14" viewBox="0 0 15 14" fill="none" xmlns="http://www.w3.org/2000/svg">
<g clip-path="url(#clip0_1738_6549)">
<path d="M12.8957 14H2.10408C1.21915 14 0.5 13.2807 0.5 12.3959V3.93758C0.5 3.05265 1.21915 2.3335 2.10408 2.3335H4.14576C4.38726 2.3335 4.58326 2.52949 4.58326 2.77099C4.58326 3.01249 4.38726 3.20849 4.14576 3.20849H2.10408C1.70215 3.20849 1.37499 3.53565 1.37499 3.93758V12.3959C1.37499 12.7977 1.70215 13.125 2.10408 13.125H12.8957C13.2976 13.125 13.6249 12.7977 13.6249 12.3959V7.43754C13.6249 7.19604 13.8209 7.00005 14.0624 7.00005C14.3039 7.00005 14.4999 7.19604 14.4999 7.43754V12.3959C14.4999 13.2807 13.7806 14 12.8957 14Z" fill="#525252"/>
<path d="M4.43685 9.32584C4.40481 9.32584 4.37266 9.32231 4.34062 9.31409C4.14291 9.26805 4 9.09886 4 8.89592V8.02093C4 4.88498 6.55149 2.33349 9.68744 2.33349H9.83324V0.437603C9.83324 0.259123 9.94176 0.0986936 10.1074 0.0316166C10.2724 -0.0348195 10.462 0.00534123 10.5857 0.134261L14.3774 4.07172C14.5407 4.24091 14.5407 4.50922 14.3774 4.67841L10.5857 8.61587C10.462 8.74479 10.2713 8.78452 10.1074 8.71851C9.94176 8.65144 9.83324 8.49101 9.83324 8.31253V6.41675H9.14025C7.30514 6.41675 5.65599 7.43636 4.8359 9.07729C4.7606 9.22896 4.60252 9.32584 4.43685 9.32584ZM9.68744 3.20848C7.23743 3.20848 5.20867 5.04882 4.91173 7.42002C5.97215 6.23709 7.49292 5.54176 9.14025 5.54176H10.2707C10.5122 5.54176 10.7082 5.73775 10.7082 5.97925V7.22754L13.4551 4.37506L10.7082 1.52258V2.77098C10.7082 3.01248 10.5122 3.20848 10.2707 3.20848H9.68744Z" fill="#525252"/>
</g>
<defs>
<clipPath id="clip0_1738_6549">
<rect width="14" height="14" fill="white" transform="translate(0.5)"/>
</clipPath>
</defs>
</svg>
