<svg width="24" height="24" viewBox="0 0 24 24" fill="none" xmlns="http://www.w3.org/2000/svg">
<g clip-path="url(#clip0_2522_105)">
<path d="M15.4629 20.293H20.4848C20.8731 20.293 21.1879 19.9782 21.1879 19.5898C21.1879 19.2015 20.8731 18.8867 20.4848 18.8867H15.4629C15.0746 18.8867 14.7598 19.2015 14.7598 19.5898C14.7598 19.9782 15.0746 20.293 15.4629 20.293Z" fill="#FFD78F"/>
<path d="M16.7852 6.40659C17.1735 6.40659 17.4883 6.09178 17.4883 5.70347V3.49219H20.4851C20.8735 3.49219 21.1883 3.17738 21.1883 2.78906C21.1883 2.40075 20.8735 2.08594 20.4851 2.08594H16.7852C16.3968 2.08594 16.082 2.40075 16.082 2.78906V5.70347C16.082 6.09178 16.3968 6.40659 16.7852 6.40659Z" fill="#FFD78F"/>
<path d="M19.7754 11.8517H23.2976C23.6859 11.8517 24.0007 11.5369 24.0007 11.1486C24.0007 10.7602 23.6859 10.4454 23.2976 10.4454H19.7754C19.3871 10.4454 19.0723 10.7602 19.0723 11.1486C19.0723 11.5369 19.3871 11.8517 19.7754 11.8517Z" fill="#FFD78F"/>
<path d="M18.7402 15.1836H21.6986C22.0869 15.1836 22.4017 14.8688 22.4017 14.4805C22.4017 14.0922 22.0869 13.7773 21.6986 13.7773H18.7402C18.3519 13.7773 18.0371 14.0922 18.0371 14.4805C18.0371 14.8688 18.3519 15.1836 18.7402 15.1836Z" fill="#FFD78F"/>
<path d="M21.8912 4.06753C22.597 4.06753 23.1691 3.49539 23.1691 2.78963C23.1691 2.08386 22.597 1.51172 21.8912 1.51172C21.1854 1.51172 20.6133 2.08386 20.6133 2.78963C20.6133 3.49539 21.1854 4.06753 21.8912 4.06753Z" fill="#FFE370"/>
<path d="M21.8912 20.8683C22.597 20.8683 23.1691 20.2962 23.1691 19.5904C23.1691 18.8846 22.597 18.3125 21.8912 18.3125C21.1854 18.3125 20.6133 18.8846 20.6133 19.5904C20.6133 20.2962 21.1854 20.8683 21.8912 20.8683Z" fill="#FFE370"/>
<path d="M19.7812 2.78906C19.7812 1.62595 20.7275 0.679688 21.8906 0.679688C23.0537 0.679688 24 1.62595 24 2.78906C24 3.95217 23.0537 4.89844 21.8906 4.89844C20.7275 4.89844 19.7812 3.95222 19.7812 2.78906ZM21.1875 2.78906C21.1875 3.17677 21.5029 3.49219 21.8906 3.49219C22.2783 3.49219 22.5938 3.17677 22.5938 2.78906C22.5938 2.40136 22.2783 2.08594 21.8906 2.08594C21.5029 2.08594 21.1875 2.40136 21.1875 2.78906Z" fill="#FFB938"/>
<path d="M19.7812 19.5898C19.7812 18.4267 20.7275 17.4805 21.8906 17.4805C23.0537 17.4805 24 18.4267 24 19.5898C24 20.753 23.0537 21.6992 21.8906 21.6992C20.7275 21.6992 19.7812 20.753 19.7812 19.5898ZM21.1875 19.5898C21.1875 19.9775 21.5029 20.293 21.8906 20.293C22.2783 20.293 22.5938 19.9775 22.5938 19.5898C22.5938 19.2021 22.2783 18.8867 21.8906 18.8867C21.5029 18.8867 21.1875 19.2021 21.1875 19.5898Z" fill="#FFB938"/>
<path d="M8.53753 20.293H3.51562C3.12731 20.293 2.8125 19.9782 2.8125 19.5898C2.8125 19.2015 3.12731 18.8867 3.51562 18.8867H8.53753C8.92584 18.8867 9.24066 19.2015 9.24066 19.5898C9.24066 19.9782 8.92584 20.293 8.53753 20.293Z" fill="#FFEECF"/>
<path d="M7.21561 6.40659C6.8273 6.40659 6.51248 6.09178 6.51248 5.70347V3.49219H3.51562C3.12731 3.49219 2.8125 3.17738 2.8125 2.78906C2.8125 2.40075 3.12731 2.08594 3.51562 2.08594H7.21561C7.60392 2.08594 7.91873 2.40075 7.91873 2.78906V5.70347C7.91873 6.09178 7.60392 6.40659 7.21561 6.40659Z" fill="#FFEECF"/>
<path d="M4.22531 11.8517H0.703125C0.314812 11.8517 0 11.5369 0 11.1486C0 10.7602 0.314812 10.4454 0.703125 10.4454H4.22531C4.61362 10.4454 4.92844 10.7602 4.92844 11.1486C4.92844 11.5369 4.61362 11.8517 4.22531 11.8517Z" fill="#FFEECF"/>
<path d="M5.26106 15.1836H2.30273C1.91442 15.1836 1.59961 14.8688 1.59961 14.4805C1.59961 14.0922 1.91442 13.7773 2.30273 13.7773H5.26106C5.64938 13.7773 5.96419 14.0922 5.96419 14.4805C5.96419 14.8688 5.64938 15.1836 5.26106 15.1836Z" fill="#FFEECF"/>
<path d="M2.10994 4.06753C2.81571 4.06753 3.38784 3.49539 3.38784 2.78963C3.38784 2.08386 2.81571 1.51172 2.10994 1.51172C1.40417 1.51172 0.832031 2.08386 0.832031 2.78963C0.832031 3.49539 1.40417 4.06753 2.10994 4.06753Z" fill="#FFEFB2"/>
<path d="M2.10994 20.8683C2.81571 20.8683 3.38784 20.2962 3.38784 19.5904C3.38784 18.8846 2.81571 18.3125 2.10994 18.3125C1.40417 18.3125 0.832031 18.8846 0.832031 19.5904C0.832031 20.2962 1.40417 20.8683 2.10994 20.8683Z" fill="#FFEFB2"/>
<path d="M2.10938 4.89844C0.946266 4.89844 0 3.95217 0 2.78906C0 1.62595 0.946266 0.679688 2.10938 0.679688C3.27248 0.679688 4.21875 1.62595 4.21875 2.78906C4.21875 3.95217 3.27248 4.89844 2.10938 4.89844ZM2.10938 2.08594C1.72167 2.08594 1.40625 2.40136 1.40625 2.78906C1.40625 3.17677 1.72167 3.49219 2.10938 3.49219C2.49708 3.49219 2.8125 3.17677 2.8125 2.78906C2.8125 2.40136 2.49708 2.08594 2.10938 2.08594Z" fill="#FFDB9A"/>
<path d="M2.10938 21.6992C0.946266 21.6992 0 20.753 0 19.5898C0 18.4267 0.946266 17.4805 2.10938 17.4805C3.27248 17.4805 4.21875 18.4267 4.21875 19.5898C4.21875 20.753 3.27248 21.6992 2.10938 21.6992ZM2.10938 18.8867C1.72167 18.8867 1.40625 19.2021 1.40625 19.5898C1.40625 19.9775 1.72167 20.293 2.10938 20.293C2.49708 20.293 2.8125 19.9775 2.8125 19.5898C2.8125 19.2021 2.49708 18.8867 2.10938 18.8867Z" fill="#FFDB9A"/>
<path d="M19.5184 12.1047C18.6934 15.0499 16.719 19.2391 11.9996 22.6975C8.22054 19.9333 5.69914 16.3947 4.4996 12.1703C3.8096 9.73987 3.77257 7.74159 3.80164 6.85471C8.64289 5.31206 11.0016 3.6644 11.9996 2.78925C12.9976 3.6644 15.3563 5.31253 20.1985 6.85471C20.2285 7.73034 20.1943 9.69065 19.5184 12.1047Z" fill="#FFBA3B"/>
<path d="M19.5187 12.1047C18.6937 15.0499 16.7194 19.2391 12 22.6975V2.78925C12.998 3.6644 15.3567 5.31253 20.1989 6.85471C20.2289 7.73034 20.1947 9.69065 19.5187 12.1047Z" fill="#E19710"/>
<path d="M12.4344 22.278L11.9996 21.7533C8.57963 19.2516 6.29729 16.0486 5.21166 12.2255C4.58729 10.0256 4.554 8.21719 4.58025 7.41469C8.96166 6.01828 11.0963 4.52719 11.9996 3.735L12.4344 3.30277V2.68336L11.9996 2.02734C11.7746 2.02734 11.5726 2.13516 11.4404 2.31703C11.3668 2.40609 9.6676 4.39078 3.70275 6.21562C3.43557 6.29719 3.24197 6.52969 3.2101 6.80766C3.19838 6.90844 2.93635 9.31594 3.84057 12.5452C4.37025 14.4361 5.19291 16.222 6.28557 17.8538C7.64822 19.8891 9.4351 21.6858 11.5974 23.1937C11.7184 23.2781 11.859 23.3203 11.9996 23.3203L12.4344 22.7547V22.278Z" fill="#E19710"/>
<path d="M12.4062 7.32698L12.0005 6.75C10.3407 6.75 8.99023 8.10047 8.99023 9.76031V10.8492C8.99023 11.2373 9.30523 11.5523 9.69336 11.5523C10.082 11.5523 10.3965 11.2373 10.3965 10.8492V9.76031C10.3965 8.87578 11.116 8.15625 12.0005 8.15625L12.4062 7.70695V7.32698Z" fill="#714900"/>
<path d="M20.1591 12.5452C19.6294 14.4361 18.8067 16.222 17.7141 17.8538C16.3514 19.8891 14.5645 21.6858 12.4022 23.1937C12.2812 23.2781 12.1406 23.3203 12 23.3203V21.7533C16.2712 18.623 18.0581 14.8317 18.8048 12.1659C19.4166 9.98109 19.4475 8.20687 19.4203 7.41469C15.038 6.01875 12.9033 4.52719 12 3.735V2.02734C12.225 2.02734 12.427 2.13516 12.5592 2.31703C12.6328 2.40609 14.332 4.39078 20.2969 6.21562C20.5641 6.29719 20.7577 6.52969 20.7895 6.80766C20.8012 6.90844 21.0633 9.31594 20.1591 12.5452Z" fill="#B37400"/>
<path d="M15.0103 9.76031V10.8492C15.0103 11.2373 14.6953 11.5523 14.3072 11.5523C13.9186 11.5523 13.6041 11.2373 13.6041 10.8492V9.76031C13.6041 8.87578 12.8845 8.15625 12 8.15625V6.75C13.6598 6.75 15.0103 8.10047 15.0103 9.76031Z" fill="#4E3300"/>
<path d="M12.6291 11.5506L11.9999 10.1445H9.41242C8.70555 10.1445 8.13086 10.7192 8.13086 11.4261V15.4527C8.13086 16.1595 8.70555 16.7342 9.41242 16.7342H11.9999L12.6291 15.0561V11.5506Z" fill="#FFDB9A"/>
<path d="M15.8691 11.4261V15.4527C15.8691 16.1595 15.2944 16.7342 14.5875 16.7342H12V10.1445H14.5875C15.2944 10.1445 15.8691 10.7192 15.8691 11.4261Z" fill="#FFB938"/>
<path d="M12.7031 13.0977V13.7811C12.7031 14.1697 12.3881 14.4842 12 14.4842C11.6119 14.4842 11.2969 14.1697 11.2969 13.7811V13.0977C11.2969 12.7091 11.6119 12.3945 12 12.3945C12.3881 12.3945 12.7031 12.709 12.7031 13.0977Z" fill="#4E3300"/>
<path d="M12.7031 13.0977V13.7811C12.7031 14.1697 12.3881 14.4842 12 14.4842V12.3945C12.3881 12.3945 12.7031 12.709 12.7031 13.0977Z" fill="#4E3300"/>
</g>
<defs>
<clipPath id="clip0_2522_105">
<rect width="24" height="24" fill="white"/>
</clipPath>
</defs>
</svg>
