<svg xmlns="http://www.w3.org/2000/svg" width="29" height="29" viewBox="0 0 29 29" fill="none">
  <g clip-path="url(#clip0_1325_286)">
    <path d="M27.1771 16.5027C26.5903 15.6184 25.3938 15.375 24.51 15.9596L19.6921 19.1495C19.4569 18.5622 18.9379 18.1088 18.2888 17.9776L10.3487 16.3621C9.63996 16.2177 8.96183 16.3282 8.33293 16.6908L5.89551 18.0984L5.39457 17.2305C5.10582 16.7307 4.46433 16.5584 3.96504 16.8472L2.0291 17.965C1.78793 18.1045 1.61511 18.3303 1.54238 18.6005C1.46965 18.8712 1.50629 19.1534 1.64574 19.3945L6.60043 27.9766C6.73988 28.2178 6.96574 28.3906 7.2359 28.4634C7.32668 28.488 7.41855 28.5 7.51043 28.5C7.69144 28.5 7.86972 28.4524 8.02996 28.36L9.96754 27.2411C10.4646 26.9513 10.6364 26.3103 10.3493 25.811L9.84886 24.9448L10.4171 24.6166C10.9661 24.3 11.5666 24.2552 12.155 24.4865L14.9359 25.578C15.2903 25.7175 15.6507 25.7864 16.0067 25.7864C16.5639 25.7864 17.1103 25.6169 17.6057 25.2822L26.6346 19.1692C27.0623 18.8865 27.3543 18.4523 27.4571 17.947C27.5589 17.4416 27.4599 16.9292 27.1771 16.5027ZM9.5284 26.4853L7.59191 27.6031C7.53941 27.6338 7.48801 27.6261 7.46176 27.6195C7.43551 27.6124 7.38738 27.5927 7.35676 27.5402L2.40207 18.9581C2.35558 18.8772 2.38457 18.7695 2.46551 18.723L4.40144 17.6052C4.45394 17.5745 4.5059 17.5822 4.5316 17.5888C4.55785 17.5959 4.60597 17.6155 4.6366 17.668L5.35301 18.9084C5.3541 18.91 5.35465 18.9122 5.35574 18.9144C5.35683 18.916 5.35793 18.9182 5.35902 18.9198L8.86722 24.9956C8.86887 24.9984 8.86996 25.0011 8.8716 25.0038C8.87324 25.0066 8.87488 25.0087 8.87652 25.0115L9.59019 26.248C9.63887 26.3305 9.60988 26.4377 9.5284 26.4853ZM26.5996 17.7725C26.5433 18.0492 26.3842 18.286 26.1479 18.4424L17.1152 24.5581C16.5415 24.9459 15.8984 25.017 15.2547 24.7643L12.4744 23.6733C11.63 23.3408 10.7676 23.4053 9.97957 23.8598L9.41137 24.1879L6.33246 18.8559L8.76988 17.4488C9.21449 17.1928 9.67386 17.1179 10.1743 17.2196L18.1149 18.8351C18.6049 18.9341 18.9582 19.3694 18.9549 19.8703C18.9549 19.8752 18.9554 19.8802 18.956 19.8851C18.9554 19.8927 18.9543 19.9004 18.9538 19.9086C18.9516 19.9633 18.945 20.0185 18.9341 20.0732C18.8789 20.3466 18.7186 20.5823 18.484 20.7377C18.2494 20.893 17.9694 20.9482 17.6965 20.893L12.3311 19.8014C12.0949 19.7533 11.8636 19.9059 11.8154 20.1427C11.7673 20.3795 11.9199 20.6102 12.1567 20.6584L17.5221 21.7499C17.65 21.7756 17.7786 21.7887 17.9065 21.7887C18.28 21.7887 18.6464 21.6788 18.9669 21.4672C19.3962 21.1828 19.6893 20.7497 19.7916 20.2449C19.7998 20.2028 19.8064 20.1612 19.8118 20.1202L24.9924 16.6902C25.4747 16.3709 26.1282 16.5043 26.4487 16.9872C26.6018 17.2174 26.656 17.4969 26.5996 17.7725ZM10.3356 10.3673L11.7668 10.8327C11.7881 10.8868 11.8105 10.9404 11.834 10.9945L11.1521 12.3333C10.9251 12.7752 11.0088 13.31 11.3621 13.6655L12.4285 14.7319C12.7796 15.083 13.3139 15.1677 13.7596 14.9424L15.0989 14.2583C15.1525 14.2818 15.2061 14.3042 15.2602 14.3255L15.7245 15.7573C15.882 16.2374 16.3096 16.548 16.8144 16.548H18.3227C18.8269 16.548 19.2546 16.2374 19.4126 15.7556L19.8764 14.3255C19.9311 14.3037 19.9846 14.2818 20.0377 14.2588L21.3792 14.9424C21.8232 15.1672 22.3575 15.0819 22.7086 14.7313L23.7761 13.6638C24.1261 13.3111 24.2109 12.7768 23.9856 12.3344L23.3025 10.9945C23.3255 10.9409 23.3479 10.8868 23.3698 10.8327L24.801 10.3673C25.274 10.2136 25.5918 9.77664 25.5918 9.27844V7.77016C25.5918 7.27141 25.274 6.83336 24.8015 6.68023L23.3703 6.21484C23.349 6.1607 23.3266 6.10711 23.3036 6.05406L23.9867 4.71258C24.212 4.26906 24.1272 3.73531 23.7761 3.38367L22.7108 2.31836C22.3592 1.96398 21.8238 1.87922 21.3792 2.10672L20.0393 2.78922C19.9852 2.7657 19.9311 2.74328 19.8775 2.72195L19.4132 1.28969C19.2546 0.810078 18.8269 0.5 18.3227 0.5H16.8144C16.3102 0.5 15.8825 0.810625 15.7245 1.29242L15.2607 2.72305C15.2071 2.74437 15.153 2.7668 15.0989 2.79031L13.7596 2.10781C13.3144 1.88031 12.779 1.96508 12.4285 2.31836L11.3621 3.38477C11.0088 3.73805 10.9246 4.27234 11.1515 4.71367L11.834 6.05461C11.8111 6.10766 11.7886 6.16125 11.7673 6.21539L10.3361 6.68078C9.86308 6.83445 9.5459 7.2725 9.5459 7.7707V9.27898C9.54535 9.77609 9.86308 10.2136 10.3356 10.3673ZM10.4198 7.77016C10.4198 7.64602 10.4893 7.54922 10.6063 7.51148L12.2371 6.98156C12.3661 6.93945 12.4684 6.84047 12.5138 6.7125C12.5718 6.54898 12.639 6.38711 12.7134 6.2318C12.7719 6.1093 12.7703 5.96602 12.7085 5.84516L11.9297 4.315C11.875 4.20836 11.8942 4.08859 11.98 4.00219L13.0475 2.93469C13.1339 2.84773 13.251 2.82914 13.362 2.88602L14.8889 3.66422C15.0097 3.72547 15.1519 3.72766 15.2739 3.67023C15.4401 3.59148 15.5982 3.52641 15.7568 3.47008C15.8853 3.42469 15.9848 3.32188 16.0269 3.19281L16.5552 1.56367C16.594 1.44555 16.6908 1.37445 16.8144 1.37445H18.3227C18.4463 1.37445 18.5431 1.445 18.5814 1.56203L19.1102 3.19281C19.1523 3.32242 19.2518 3.42469 19.3804 3.47008C19.5389 3.52586 19.697 3.59148 19.8632 3.67023C19.9857 3.7282 20.1279 3.72602 20.2482 3.66422L21.7757 2.88602C21.8861 2.82969 22.0032 2.84828 22.0907 2.93633L23.1571 4.00273C23.2429 4.08859 23.2615 4.20891 23.2068 4.31719L22.4286 5.8457C22.3668 5.96656 22.3652 6.10984 22.4237 6.23234C22.4981 6.3882 22.5653 6.55008 22.6233 6.71305C22.6687 6.84047 22.771 6.94 22.9 6.98211L24.5308 7.51258C24.6473 7.55031 24.7168 7.64711 24.7168 7.77125V9.27953C24.7168 9.40258 24.6473 9.49883 24.5303 9.53656L22.8995 10.067C22.7704 10.1091 22.6682 10.2081 22.6228 10.3361C22.5653 10.498 22.4975 10.6604 22.4221 10.8201C22.3641 10.9426 22.3663 11.0848 22.4275 11.2056L23.2057 12.732C23.2615 12.8419 23.2429 12.9605 23.156 13.048L22.0896 14.1145C22.0026 14.2014 21.8839 14.22 21.774 14.1642L20.2482 13.3844C20.1274 13.3231 19.9852 13.3209 19.8627 13.3789C19.709 13.4516 19.5504 13.5173 19.3771 13.5802C19.2502 13.6261 19.1518 13.7278 19.1102 13.8563L18.5814 15.4844C18.5425 15.6025 18.4457 15.6736 18.3221 15.6736H16.8139C16.6908 15.6736 16.594 15.603 16.5552 15.486L16.0264 13.8569C15.9848 13.7284 15.8864 13.6266 15.7595 13.5807C15.5954 13.5211 15.4363 13.4549 15.2739 13.3778C15.2148 13.3499 15.1508 13.3357 15.0868 13.3357C15.0185 13.3357 14.9501 13.3516 14.8878 13.3838L13.3625 14.1626C13.251 14.2189 13.1328 14.2003 13.0459 14.1134L11.9806 13.048C11.8925 12.9595 11.8734 12.8413 11.9297 12.7314L12.7079 11.2045C12.7692 11.0837 12.7714 10.9415 12.7134 10.819C12.6379 10.6593 12.5707 10.4969 12.5127 10.335C12.4673 10.2076 12.365 10.108 12.236 10.0659L10.6046 9.53547C10.4882 9.49773 10.4187 9.40148 10.4187 9.27844V7.77016H10.4198ZM17.5675 12.4673C19.7429 12.4673 21.5126 10.6981 21.5126 8.52375C21.5126 6.34938 19.7429 4.58023 17.5675 4.58023C15.3931 4.58023 13.6239 6.34938 13.6239 8.52375C13.6239 10.6981 15.3931 12.4673 17.5675 12.4673ZM17.5675 5.45414C19.2606 5.45414 20.6382 6.83117 20.6382 8.52375C20.6382 10.2163 19.2606 11.5928 17.5675 11.5928C15.8749 11.5928 14.4978 10.2158 14.4978 8.52375C14.4984 6.83117 15.8749 5.45414 17.5675 5.45414ZM16.7515 10.0774L15.2771 8.60305C15.1065 8.43242 15.1065 8.1557 15.2771 7.98508C15.4478 7.81445 15.7245 7.81445 15.8951 7.98508L17.0605 9.14992L19.2409 6.96953C19.4115 6.79891 19.6882 6.79891 19.8589 6.96953C20.0295 7.14016 20.0295 7.41688 19.8589 7.5875L17.3695 10.0769C17.2842 10.1622 17.1721 10.2048 17.0605 10.2048C16.9489 10.2048 16.8368 10.1627 16.7515 10.0774Z" fill="#EEAD1E"/>
  </g>
  <defs>
    <clipPath id="clip0_1325_286">
      <rect width="28" height="28" fill="white" transform="translate(0.5 0.5)"/>
    </clipPath>
  </defs>
</svg>