<svg xmlns="http://www.w3.org/2000/svg" width="32" height="33" viewBox="0 0 32 33" fill="none">
  <path d="M27.9992 21.0619C25.6092 19.9069 21.3642 22.3269 17.9542 24.2719C16.5892 25.0519 15.2992 25.7869 14.7292 25.9019C14.2292 26.0019 13.8192 25.9419 13.4842 25.7069C13.0592 25.4119 12.8242 24.9119 12.7092 24.5669C12.9642 24.4819 13.2742 24.4219 13.6542 24.4069C16.9642 24.2819 19.0392 23.0769 19.0742 21.2619C19.0842 20.5869 18.8842 20.0669 18.4792 19.7119C17.8342 19.1519 16.9542 19.2719 16.8642 19.2869C16.8342 19.2869 13.9592 19.6969 12.2142 19.4769L12.0592 19.4569C10.3542 19.2369 8.74422 19.0269 7.16922 21.2519C5.92422 23.0069 3.85922 22.7419 3.77422 22.7319C3.62922 22.7119 3.48422 22.7519 3.37422 22.8469C3.26422 22.9419 3.19922 23.0819 3.19922 23.2269V30.1969C3.19922 30.4519 3.38922 30.6669 3.64422 30.6919L12.3542 31.6569C12.6492 31.6919 12.9442 31.7069 13.2392 31.7069C14.7992 31.7069 16.3392 31.2569 17.6492 30.4019L28.1392 23.5769C28.5792 23.2919 28.8342 22.7869 28.7992 22.2569C28.7642 21.7319 28.4692 21.2869 27.9992 21.0569V21.0619ZM27.5942 22.7419L17.1042 29.5669C15.7342 30.4569 14.0842 30.8519 12.4642 30.6669L4.19922 29.7519V23.7519C5.08422 23.7419 6.80922 23.4819 7.97922 21.8319C9.20922 20.1019 10.2342 20.2319 11.9292 20.4519L12.0892 20.4719C13.9692 20.7119 16.8842 20.3019 17.0142 20.2819C17.0142 20.2819 17.5292 20.2119 17.8292 20.4719C18.0042 20.6219 18.0892 20.8869 18.0842 21.2469C18.0592 22.7219 15.6692 23.3319 13.6292 23.4069C12.9042 23.4319 12.3492 23.6019 11.9342 23.8169C11.9042 23.8269 11.8792 23.8419 11.8542 23.8569C11.1092 24.2619 10.8392 24.7969 10.8242 24.8319C10.7042 25.0769 10.8042 25.3669 11.0492 25.4919C11.2942 25.6169 11.5892 25.5219 11.7192 25.2769C11.7192 25.2669 11.7642 25.1969 11.8542 25.0969C12.0392 25.5619 12.3642 26.1369 12.9242 26.5219C13.4892 26.9119 14.1692 27.0319 14.9442 26.8769C15.6692 26.7269 16.9042 26.0269 18.4642 25.1319C21.3292 23.4969 25.6592 21.0219 27.5792 21.9519C27.7792 22.0469 27.8142 22.2369 27.8192 22.3119C27.8292 22.4819 27.7542 22.6369 27.6142 22.7319L27.5942 22.7419Z" fill="white"/>
  <path d="M12.8104 11.6708C13.0604 11.9958 13.4404 12.1858 13.8504 12.1858H20.0804C20.4904 12.1858 20.8704 11.9958 21.1204 11.6708C21.3704 11.3458 21.4504 10.9308 21.3454 10.5308L20.5704 7.69584C20.4154 7.12584 19.8954 6.73083 19.3054 6.73083H14.6204C14.0304 6.73083 13.5104 7.12584 13.3554 7.69584L12.5804 10.5308C12.4704 10.9258 12.5554 11.3408 12.8054 11.6708H12.8104ZM13.5504 10.7958L14.3254 7.96083C14.3604 7.82583 14.4854 7.73083 14.6254 7.73083H19.3104C19.4504 7.73083 19.5704 7.82583 19.6104 7.96083L20.3854 10.7958C20.4204 10.9258 20.3654 11.0208 20.3304 11.0658C20.2954 11.1108 20.2154 11.1858 20.0854 11.1858H13.8554C13.7204 11.1858 13.6454 11.1108 13.6104 11.0658C13.5754 11.0208 13.5204 10.9258 13.5554 10.7958H13.5504Z" fill="white"/>
  <path d="M24.1658 12.8051H19.4808C18.8908 12.8051 18.3708 13.2001 18.2158 13.7701L17.4458 16.6051C17.3358 17.0001 17.4208 17.4151 17.6658 17.7451C17.9158 18.0701 18.2958 18.2601 18.7058 18.2601H24.9358C25.3458 18.2601 25.7258 18.0701 25.9758 17.7451C26.2258 17.4201 26.3058 17.0051 26.2008 16.6051L25.4308 13.7701C25.2758 13.2001 24.7558 12.8051 24.1658 12.8051ZM25.1858 17.1351C25.1508 17.1801 25.0708 17.2551 24.9408 17.2551H18.7108C18.5758 17.2551 18.5008 17.1801 18.4658 17.1351C18.4308 17.0901 18.3808 16.9951 18.4158 16.8651L19.1858 14.0301C19.2208 13.8951 19.3458 13.8001 19.4858 13.8001H24.1708C24.3108 13.8001 24.4308 13.8951 24.4708 14.0301L25.2408 16.8651C25.2758 16.9951 25.2208 17.0901 25.1858 17.1351Z" fill="white"/>
  <path d="M8.99973 18.2601H15.2297C15.6397 18.2601 16.0197 18.0701 16.2697 17.7451C16.5197 17.4201 16.5997 17.0051 16.4897 16.6051L15.7197 13.7701C15.5647 13.2001 15.0447 12.8051 14.4547 12.8051H9.76973C9.17973 12.8051 8.65973 13.2001 8.50473 13.7701L7.73473 16.6051C7.62473 17.0001 7.70973 17.4151 7.95973 17.7451C8.20973 18.0701 8.58973 18.2601 8.99973 18.2601ZM8.69973 16.8701L9.46973 14.0351C9.50473 13.9001 9.62973 13.8051 9.76973 13.8051H14.4547C14.5947 13.8051 14.7147 13.9001 14.7547 14.0351L15.5247 16.8701C15.5597 17.0001 15.5047 17.0951 15.4747 17.1401C15.4397 17.1851 15.3597 17.2601 15.2297 17.2601H8.99973C8.86473 17.2601 8.78973 17.1851 8.75473 17.1401C8.71973 17.0951 8.66473 17.0001 8.69973 16.8701Z" fill="white"/>
  <path d="M11.8354 5.66099C11.9354 5.76099 12.0604 5.80599 12.1904 5.80599C12.3204 5.80599 12.4454 5.75599 12.5454 5.66099C12.7404 5.46599 12.7404 5.15099 12.5454 4.95599L11.2204 3.63099C11.0254 3.43599 10.7104 3.43599 10.5154 3.63099C10.3204 3.82599 10.3204 4.14099 10.5154 4.33599L11.8404 5.66099H11.8354Z" fill="white"/>
  <path d="M8.24023 9.9613H9.78523C10.0602 9.9613 10.2852 9.7363 10.2852 9.4613C10.2852 9.1863 10.0602 8.9613 9.78523 8.9613H8.24023C7.96523 8.9613 7.74023 9.1863 7.74023 9.4613C7.74023 9.7363 7.96523 9.9613 8.24023 9.9613Z" fill="white"/>
  <path d="M21.7443 5.80599C21.8743 5.80599 21.9993 5.75599 22.0993 5.66099L23.4243 4.33599C23.6193 4.14099 23.6193 3.82599 23.4243 3.63099C23.2293 3.43599 22.9143 3.43599 22.7193 3.63099L21.3943 4.95599C21.1993 5.15099 21.1993 5.46599 21.3943 5.66099C21.4943 5.76099 21.6193 5.80599 21.7493 5.80599H21.7443Z" fill="white"/>
  <path d="M24.1504 9.9613H25.6954C25.9704 9.9613 26.1954 9.7363 26.1954 9.4613C26.1954 9.1863 25.9704 8.9613 25.6954 8.9613H24.1504C23.8754 8.9613 23.6504 9.1863 23.6504 9.4613C23.6504 9.7363 23.8754 9.9613 24.1504 9.9613Z" fill="white"/>
  <path d="M16.9648 4.2563C17.2398 4.2563 17.4648 4.0313 17.4648 3.7563V2.2113C17.4648 1.9363 17.2398 1.7113 16.9648 1.7113C16.6898 1.7113 16.4648 1.9363 16.4648 2.2113V3.7563C16.4648 4.0313 16.6898 4.2563 16.9648 4.2563Z" fill="white"/>
</svg>