<svg width="17" height="16" viewBox="0 0 17 16" fill="none" xmlns="http://www.w3.org/2000/svg">
<path d="M13.8762 6.07335L5.28288 1.72001C4.95365 1.53301 4.58151 1.43469 4.20288 1.43469C3.82425 1.43469 3.45211 1.53301 3.12288 1.72001C2.80102 1.93942 2.54277 2.23989 2.37421 2.59105C2.20565 2.94222 2.13275 3.33165 2.16288 3.72001V12.3733C2.13412 12.7615 2.20763 13.1505 2.37607 13.5014C2.54451 13.8523 2.80201 14.153 3.12288 14.3733C3.42042 14.5526 3.76221 14.645 4.10955 14.64C4.51872 14.633 4.92057 14.5303 5.28288 14.34L13.8762 10C15.1495 9.33335 15.3362 8.50668 15.3362 8.05335C15.3362 7.60001 15.1495 6.72001 13.8762 6.07335ZM13.2695 8.78001L4.68288 13.1333C4.55625 13.2172 4.41083 13.2684 4.25961 13.2823C4.10838 13.2963 3.95605 13.2726 3.81621 13.2133C3.69791 13.1104 3.60682 12.98 3.551 12.8334C3.49518 12.6869 3.47636 12.5289 3.49621 12.3733V3.66668C3.47636 3.51115 3.49518 3.35312 3.551 3.2066C3.60682 3.06008 3.69791 2.92958 3.81621 2.82668C3.89789 2.78109 3.98938 2.75593 4.08288 2.75335C4.28383 2.76138 4.48014 2.81616 4.65621 2.91335L13.2695 7.26668C13.7229 7.49335 14.0029 7.78668 14.0029 8.02001C14.0029 8.25335 13.7229 8.54668 13.2695 8.78001Z" fill="black"/>
</svg>
