<svg width="17" height="16" viewBox="0 0 17 16" fill="none" xmlns="http://www.w3.org/2000/svg">
<g clip-path="url(#clip0_1136_2246)">
<path d="M10.3657 4.64861H6.13441C5.80676 4.64895 5.49263 4.77926 5.26095 5.01094C5.02927 5.24262 4.89897 5.55675 4.89863 5.88439V10.1156C4.89897 10.4433 5.02927 10.7574 5.26095 10.9891C5.49263 11.2208 5.80676 11.3511 6.13441 11.3514H10.3657C10.6933 11.3511 11.0074 11.2208 11.2391 10.9891C11.4708 10.7574 11.6011 10.4433 11.6014 10.1156V5.88439C11.6011 5.55675 11.4708 5.24262 11.2391 5.01094C11.0074 4.77926 10.6933 4.64895 10.3657 4.64861ZM10.4764 10.1156C10.4761 10.1449 10.4643 10.1728 10.4436 10.1935C10.4229 10.2142 10.395 10.226 10.3658 10.2263H6.13441C6.10517 10.226 6.07724 10.2142 6.05656 10.1935C6.03589 10.1728 6.0241 10.1449 6.02372 10.1156V5.88439C6.02411 5.85516 6.0359 5.82724 6.05657 5.80657C6.07725 5.7859 6.10518 5.77412 6.13441 5.77374H10.3657C10.3949 5.77412 10.4228 5.7859 10.4435 5.80657C10.4642 5.82724 10.476 5.85516 10.4763 5.88439L10.4764 10.1156ZM13.9069 2.34314C12.4066 0.842851 10.3717 -2.93025e-06 8.25001 0C6.12827 2.93026e-06 4.09344 0.842862 2.59314 2.34316C1.09285 3.84346 0.249997 5.87829 0.25 8.00003C0.250003 10.1218 1.09286 12.1566 2.59316 13.6569C4.09346 15.1572 6.12829 16 8.25003 16C10.3718 16 12.4066 15.1572 13.9069 13.6569C15.4072 12.1566 16.25 10.1217 16.25 8.00001C16.25 5.87827 15.4072 3.84344 13.9069 2.34314ZM13.1114 12.8614C11.8211 14.1488 10.0727 14.8718 8.25002 14.8718C6.42729 14.8718 4.67898 14.1488 3.38866 12.8614C0.708096 10.1808 0.708096 5.81921 3.38866 3.13867C4.67797 1.84936 6.42665 1.12503 8.25002 1.12503C10.0734 1.12503 11.8221 1.84936 13.1114 3.13867C14.4007 4.42799 15.125 6.17667 15.125 8.00003C15.125 9.8234 14.4007 11.5721 13.1114 12.8614Z" fill="black"/>
</g>
<defs>
<clipPath id="clip0_1136_2246">
<rect width="16" height="16" fill="white" transform="translate(0.25)"/>
</clipPath>
</defs>
</svg>
