<svg width="21" height="20" viewBox="0 0 21 20" fill="none" xmlns="http://www.w3.org/2000/svg">
<path d="M7.74969 4.16003C8.20969 4.16003 8.58969 4.54003 8.58969 5.00003V15C8.58969 15.46 8.20969 15.84 7.74969 15.84H6.08969C5.62969 15.84 5.24969 15.46 5.24969 15V5.00003C5.24969 4.54003 5.62969 4.16003 6.08969 4.16003H7.74969ZM7.74969 3.34003H6.08969C5.16969 3.34003 4.42969 4.08003 4.42969 5.00003V15C4.42969 15.92 5.16969 16.66 6.08969 16.66H7.74969C8.66969 16.66 9.40969 15.92 9.40969 15V5.00003C9.40969 4.08003 8.66969 3.34003 7.74969 3.34003Z" fill="black"/>
<path d="M14.4098 4.16003C14.8698 4.16003 15.2498 4.54003 15.2498 5.00003V15C15.2498 15.46 14.8698 15.84 14.4098 15.84H12.7498C12.2898 15.84 11.9098 15.46 11.9098 15V5.00003C11.9098 4.54003 12.2898 4.16003 12.7498 4.16003H14.4098ZM14.4098 3.34003H12.7498C11.8298 3.34003 11.0898 4.08003 11.0898 5.00003V15C11.0898 15.92 11.8298 16.66 12.7498 16.66H14.4098C15.3298 16.66 16.0698 15.92 16.0698 15V5.00003C16.0898 4.08003 15.3298 3.34003 14.4098 3.34003Z" fill="black"/>
</svg>
