<svg width="21" height="22" viewBox="0 0 21 22" fill="none" xmlns="http://www.w3.org/2000/svg">
<path d="M0.322266 17.2515C0.500242 17.2515 0.644531 17.1073 0.644531 16.9293V1.19023C0.644531 0.889324 0.889539 0.644531 1.19066 0.644531H15.4275C15.7284 0.644531 15.9732 0.889324 15.9732 1.19023V2.69543C15.9732 2.87345 16.1175 3.0177 16.2955 3.0177C16.4734 3.0177 16.6177 2.87345 16.6177 2.69543V1.19023C16.6177 0.53393 16.0838 0 15.4275 0H1.19066C0.534145 0 0 0.53393 0 1.19023V16.9293C0 17.1073 0.144289 17.2515 0.322266 17.2515Z" fill="#EEAD1E"/>
<path d="M13.1697 3.77135C13.5389 3.77135 13.8392 3.47104 13.8392 3.10186V2.06012C13.8392 1.69093 13.5389 1.39062 13.1697 1.39062H3.44688C3.0777 1.39062 2.77734 1.69093 2.77734 2.06012V3.10186C2.77734 3.47104 3.0777 3.77135 3.44688 3.77135H13.1697ZM3.42192 3.10186V2.06012C3.42192 2.04637 3.43313 2.03516 3.44693 2.03516H13.1697C13.1835 2.03516 13.1947 2.04637 13.1947 2.06012V3.10186C13.1947 3.11561 13.1835 3.12682 13.1697 3.12682H3.44688C3.43313 3.12682 3.42192 3.11565 3.42192 3.10186Z" fill="#EEAD1E"/>
<path d="M8.74525 12.5H4.75195C4.57398 12.5 4.42969 12.6442 4.42969 12.8223C4.42969 13.0003 4.57398 13.1445 4.75195 13.1445H8.74525C8.92323 13.1445 9.06752 13.0003 9.06752 12.8223C9.06752 12.6442 8.92323 12.5 8.74525 12.5Z" fill="#EEAD1E"/>
<path d="M3.44818 13.1445C3.62615 13.1445 3.77044 13.0003 3.77044 12.8223C3.77044 12.6442 3.62615 12.5 3.44818 12.5H2.58008C2.4021 12.5 2.25781 12.6442 2.25781 12.8223C2.25781 13.0003 2.4021 13.1445 2.58008 13.1445H3.44818Z" fill="#EEAD1E"/>
<path d="M1.39062 14.2129C1.39062 14.3909 1.53491 14.5352 1.71289 14.5352H6.22706C6.40503 14.5352 6.54932 14.3909 6.54932 14.2129C6.54932 14.0349 6.40503 13.8906 6.22706 13.8906H1.71289C1.53487 13.8906 1.39062 14.0349 1.39062 14.2129Z" fill="#EEAD1E"/>
<path d="M8.74377 13.8906H7.61523C7.43726 13.8906 7.29297 14.0349 7.29297 14.2129C7.29297 14.3909 7.43726 14.5352 7.61523 14.5352H8.74377C8.92174 14.5352 9.06603 14.3909 9.06603 14.2129C9.06603 14.0349 8.92174 13.8906 8.74377 13.8906Z" fill="#EEAD1E"/>
<path d="M8.74268 15.2812H4.22852C4.05054 15.2812 3.90625 15.4255 3.90625 15.6035C3.90625 15.7815 4.05054 15.9258 4.22852 15.9258H8.74268C8.92066 15.9258 9.06495 15.7815 9.06495 15.6035C9.06495 15.4255 8.92066 15.2812 8.74268 15.2812Z" fill="#EEAD1E"/>
<path d="M1.71289 15.9258H2.84142C3.0194 15.9258 3.16369 15.7815 3.16369 15.6035C3.16369 15.4255 3.0194 15.2812 2.84142 15.2812H1.71289C1.53491 15.2812 1.39062 15.4255 1.39062 15.6035C1.39062 15.7815 1.53487 15.9258 1.71289 15.9258Z" fill="#EEAD1E"/>
<path d="M1.71289 17.3125H6.22706C6.40503 17.3125 6.54932 17.1683 6.54932 16.9902C6.54932 16.8122 6.40503 16.668 6.22706 16.668H1.71289C1.53491 16.668 1.39062 16.8122 1.39062 16.9902C1.39062 17.1683 1.53487 17.3125 1.71289 17.3125Z" fill="#EEAD1E"/>
<path d="M8.74377 16.668H7.61523C7.43726 16.668 7.29297 16.8122 7.29297 16.9902C7.29297 17.1683 7.43726 17.3125 7.61523 17.3125H8.74377C8.92174 17.3125 9.06603 17.1683 9.06603 16.9902C9.06603 16.8122 8.92174 16.668 8.74377 16.668Z" fill="#EEAD1E"/>
<path d="M14.9081 11.0637C15.0861 11.0637 15.2304 10.9194 15.2304 10.7414C15.2304 10.5634 15.0861 10.4191 14.9081 10.4191H13.4942V5.18555C13.4942 5.00753 13.3499 4.86328 13.1719 4.86328H11.783C11.605 4.86328 11.4607 5.00753 11.4607 5.18555V10.4192H10.7163V6.57451C10.7163 6.39649 10.572 6.25225 10.394 6.25225H9.00503C8.82705 6.25225 8.68276 6.39649 8.68276 6.57451V10.4192H7.93833V8.22391C7.93833 8.04589 7.79404 7.90164 7.61607 7.90164H6.2271C6.04912 7.90164 5.90484 8.04589 5.90484 8.22391V10.4192H5.1604V9.35249C5.1604 9.17447 5.01611 9.03022 4.83814 9.03022H3.44917C3.2712 9.03022 3.12691 9.17447 3.12691 9.35249V10.4192H1.71289C1.53491 10.4192 1.39062 10.5634 1.39062 10.7414C1.39062 10.9195 1.53491 11.0637 1.71289 11.0637H14.9081V11.0637ZM12.1052 5.50781H12.8496V10.4192H12.1052V5.50781ZM3.77135 10.4191V9.67471H4.51578V10.4191H3.77135ZM6.54932 10.4191V8.54613H7.29376V10.4191H6.54932ZM9.32725 10.4191V6.89673H10.0717V10.4191H9.32725Z" fill="#EEAD1E"/>
<path d="M16.6177 12.6538V4.20117C16.6177 4.02315 16.4734 3.87891 16.2955 3.87891C16.1175 3.87891 15.9732 4.02315 15.9732 4.20117V12.5342C15.7941 12.5136 15.6121 12.5027 15.4275 12.5027C12.8085 12.5027 10.6777 14.6333 10.6777 17.252C10.6777 19.0017 11.6288 20.5331 13.0409 21.3573H1.19066C0.889539 21.3573 0.644531 21.1125 0.644531 20.8116V18.435C0.644531 18.2569 0.500242 18.1127 0.322266 18.1127C0.144289 18.1127 0 18.2569 0 18.435V20.8116C0 21.4679 0.534144 22.0018 1.19066 22.0018H15.4275C16.4785 22.0018 17.4751 21.664 18.3094 21.0249C18.4507 20.9166 18.4775 20.7143 18.3693 20.573C18.261 20.4317 18.0587 20.4049 17.9175 20.5131C17.1966 21.0654 16.3356 21.3573 15.4275 21.3573C13.1639 21.3573 11.3223 19.5157 11.3223 17.2521C11.3223 14.9886 13.1639 13.1473 15.4275 13.1473C17.6911 13.1473 19.5327 14.9886 19.5327 17.2521C19.5327 18.0525 19.3011 18.8286 18.8629 19.4965C18.7652 19.6453 18.8067 19.8451 18.9555 19.9428C19.1042 20.0404 19.3041 19.999 19.4017 19.8501C19.9091 19.077 20.1773 18.1786 20.1773 17.2521C20.1773 15.0441 18.6626 13.1833 16.6177 12.6538Z" fill="#EEAD1E"/>
<path d="M16.1905 15.327L14.8417 16.6759L14.6659 16.5001C14.2149 16.0492 13.4812 16.0491 13.0302 16.5001C12.8117 16.7186 12.6914 17.0091 12.6914 17.318C12.6914 17.627 12.8117 17.9174 13.0302 18.1359L14.0976 19.2033C14.2963 19.402 14.5605 19.5115 14.8416 19.5115C15.1227 19.5115 15.387 19.402 15.5857 19.2033L17.8262 16.9628C18.0446 16.7443 18.1649 16.4539 18.1649 16.1449C18.1649 15.836 18.0446 15.5455 17.8262 15.3271C17.6077 15.1086 17.3173 14.9883 17.0083 14.9883C16.6994 14.9883 16.4089 15.1086 16.1905 15.327ZM17.5204 16.1449C17.5204 16.2817 17.4672 16.4103 17.3704 16.5071L15.13 18.7475C14.971 18.9066 14.7124 18.9066 14.5533 18.7475L13.4859 17.6801C13.3892 17.5834 13.3359 17.4548 13.3359 17.318C13.3359 17.1812 13.3892 17.0526 13.4859 16.9559C13.5858 16.856 13.7169 16.8061 13.8481 16.8061C13.9792 16.8061 14.1104 16.856 14.2102 16.9558L14.6138 17.3595C14.6742 17.4199 14.7562 17.4539 14.8417 17.4539C14.9272 17.4539 15.0091 17.4199 15.0696 17.3595L16.6462 15.7829C16.7429 15.6861 16.8715 15.6329 17.0083 15.6329C17.1452 15.6329 17.2737 15.6861 17.3705 15.7829C17.4672 15.8795 17.5204 16.0081 17.5204 16.1449Z" fill="#EEAD1E"/>
</svg>
