<svg width="20" height="20" viewBox="0 0 20 20" fill="none" xmlns="http://www.w3.org/2000/svg">
<path d="M5.03125 10.8438H7V11.625H5.03125V10.8438Z" fill="white"/>
<path d="M8.0625 10.8438H14.9688V11.625H8.0625V10.8438Z" fill="white"/>
<path d="M5.03125 13.2812H11.4062V14.0625H5.03125V13.2812Z" fill="white"/>
<path d="M12.5 13.2812H14.9688V14.0625H12.5V13.2812Z" fill="white"/>
<path d="M5.03125 15.75H8.5625V16.5H5.03125V15.75Z" fill="white"/>
<path d="M9.65625 15.75H14.9688V16.5H9.65625V15.75Z" fill="white"/>
<path d="M17.625 4.28125C16.4688 3.1875 15.3438 2.0625 14.1875 0.9375C13.75 0.5 13.2188 0.28125 12.5938 0.28125H4.5C2.96875 0.28125 1.78125 1.4375 1.78125 3V7.3125V16.9688C1.78125 17.75 2.0625 18.4375 2.5625 18.9375C3.0625 19.4375 3.75 19.7188 4.53125 19.7188H15.4063C17 19.7188 18.1562 18.5625 18.1562 16.9688V14.5C18.1562 11.75 18.1562 8.40625 18.1562 5.65625C18.1875 5.125 18 4.65625 17.625 4.28125ZM16.5 5.4375C16.5625 5.5 16.5938 5.53125 16.5938 5.59375H13.1562C12.7812 5.59375 12.7188 5.53125 12.7188 5.15625V1.90625C12.875 1.90625 12.9688 1.96875 13.0938 2.09375C14.2188 3.1875 15.3438 4.3125 16.5 5.4375ZM16.5625 16.9688C16.5625 17.6875 16.125 18.125 15.4063 18.125H4.53125C4.1875 18.125 3.90625 18.0313 3.6875 17.8125C3.5 17.625 3.375 17.3125 3.375 16.9688V7.3125C3.375 5.875 3.375 4.4375 3.375 3C3.375 2.34375 3.8125 1.90625 4.46875 1.90625H11V5.1875C11 6.46875 11.7813 7.25 13.0625 7.25H16.5V14.5313V16.9688H16.5625Z" fill="white"/>
<path d="M8.376 6.46875C8.21975 6.375 8.09475 6.3125 7.9385 6.25C7.876 6.21875 7.8135 6.1875 7.78225 6.15625L7.751 6.125C7.6885 6.09375 7.59475 6.0625 7.53225 6.03125C7.376 5.96875 7.21975 5.90625 7.126 5.8125C6.90725 5.6875 6.84475 5.40625 6.9385 5.125C7.03225 4.90625 7.1885 4.8125 7.46975 4.8125H7.53225C7.8135 4.8125 8.001 4.9375 8.0635 5.1875C8.0635 5.21875 8.09475 5.25 8.09475 5.28125C8.126 5.46875 8.376 5.59375 8.5635 5.5625C8.65725 5.53125 8.751 5.46875 8.8135 5.40625C8.876 5.3125 8.876 5.25 8.84475 5.15625C8.84475 5.09375 8.8135 5.0625 8.8135 5C8.6885 4.625 8.376 4.34375 7.96975 4.21875L7.90725 4.1875V3.90625C7.90725 3.71875 7.71975 3.53125 7.501 3.53125C7.28225 3.53125 7.09475 3.6875 7.09475 3.90625V4.15625H7.03225C6.4385 4.28125 6.21975 4.6875 6.126 4.9375C5.90725 5.53125 6.126 6.125 6.626 6.4375C6.8135 6.53125 6.96975 6.625 7.126 6.6875L7.3135 6.78125H7.34475C7.40725 6.8125 7.501 6.84375 7.59475 6.90625C7.71975 6.96875 7.8135 7 7.9385 7.0625C8.15725 7.1875 8.251 7.46875 8.15725 7.75C8.09475 7.96875 7.90725 8.09375 7.59475 8.09375C7.5635 8.09375 7.5635 8.09375 7.53225 8.09375H7.501C7.46975 8.09375 7.4385 8.09375 7.376 8.09375C7.0635 8.0625 6.84475 7.90625 6.78225 7.625C6.751 7.46875 6.5635 7.34375 6.40725 7.34375C6.376 7.34375 6.34475 7.34375 6.3135 7.34375C6.21975 7.375 6.126 7.4375 6.0635 7.53125C6.001 7.625 6.001 7.6875 6.03225 7.78125C6.15725 8.25 6.53225 8.625 7.0635 8.75H7.126V9C7.126 9.1875 7.3135 9.375 7.53225 9.375C7.751 9.375 7.9385 9.21875 7.9385 9V8.75H8.001C8.46975 8.65625 8.8135 8.34375 8.96975 7.9375C9.09475 7.375 8.876 6.78125 8.376 6.46875Z" fill="white"/>
</svg>
