<svg width="20" height="20" viewBox="0 0 20 20" fill="none" xmlns="http://www.w3.org/2000/svg">
<path fill-rule="evenodd" clip-rule="evenodd" d="M3.71016 13.2C4.15198 13.2 4.51016 13.5582 4.51016 14V15.6C4.51016 15.8122 4.59443 16.0156 4.74448 16.1657C4.8945 16.3157 5.09797 16.4 5.31016 16.4H14.9101C15.1223 16.4 15.3257 16.3158 15.4758 16.1657C15.6259 16.0156 15.7101 15.8122 15.7101 15.6V14C15.7101 13.5582 16.0683 13.2 16.5101 13.2C16.952 13.2 17.3101 13.5582 17.3101 14V15.6C17.3101 16.2365 17.0573 16.847 16.6072 17.2971C16.1571 17.7472 15.5466 18 14.9101 18H5.31016C4.67365 18 4.06318 17.7472 3.61308 17.2971C3.16302 16.847 2.91016 16.2365 2.91016 15.6V14C2.91016 13.5582 3.26832 13.2 3.71016 13.2Z" fill="white"/>
<path fill-rule="evenodd" clip-rule="evenodd" d="M5.54681 8.63433C5.85924 8.32191 6.36576 8.32191 6.67819 8.63433L10.1125 12.0687L13.5468 8.63433C13.8592 8.32191 14.3658 8.32191 14.6782 8.63433C14.9906 8.94673 14.9906 9.45329 14.6782 9.76569L10.6782 13.7657C10.3658 14.0781 9.8592 14.0781 9.5468 13.7657L5.54681 9.76569C5.2344 9.45329 5.2344 8.94673 5.54681 8.63433Z" fill="white"/>
<path fill-rule="evenodd" clip-rule="evenodd" d="M10.1125 2.80004C10.5543 2.80004 10.9125 3.15821 10.9125 3.60004V13.2C10.9125 13.6419 10.5543 14 10.1125 14C9.67066 14 9.3125 13.6419 9.3125 13.2V3.60004C9.3125 3.15821 9.67066 2.80004 10.1125 2.80004Z" fill="white"/>
</svg>
