<svg width="24" height="24" viewBox="0 0 24 24" fill="none" xmlns="http://www.w3.org/2000/svg">
<path fill-rule="evenodd" clip-rule="evenodd" d="M4.00586 17.5976L5.40517 22.8199C5.74333 22.5386 6.04563 22.3119 6.32744 22.1351C6.65791 21.9148 6.99353 21.7627 7.35217 21.6892C7.73242 21.6064 8.11103 21.6218 8.53919 21.7198C8.53966 21.7199 8.54008 21.72 8.54055 21.7201L11.3808 22.3713C12.0275 22.5195 12.6354 22.4623 13.2101 22.1304L20.3129 18.0298C20.9467 17.6638 21.1658 16.8459 20.7999 16.212C20.4341 15.5782 19.616 15.359 18.9823 15.7249L14.0358 18.5806C14.0396 18.5682 14.0432 18.5557 14.0466 18.5431C14.2589 17.763 13.793 16.9485 13.0128 16.7361L8.05417 15.3865C7.39605 15.2994 6.79853 15.4588 6.27142 15.8625L4.00586 17.5976Z" fill="#FFDC9C"/>
<path fill-rule="evenodd" clip-rule="evenodd" d="M12.4138 18.9235C13.0849 19.1058 13.7795 18.7883 14.0967 18.2003C14.0935 18.3134 14.077 18.4278 14.0461 18.5415C13.8334 19.3227 13.0202 19.7884 12.2392 19.5752C11.274 19.3117 10.3074 19.0576 9.3408 18.7986C9.16089 18.7504 9.05313 18.5637 9.10136 18.3839C9.14959 18.204 9.33616 18.0962 9.51611 18.1445C10.4807 18.4029 11.4444 18.66 12.4138 18.9235Z" fill="#FFC762"/>
<path fill-rule="evenodd" clip-rule="evenodd" d="M5.19531 22.0373L5.40503 22.8199C5.74319 22.5387 6.04548 22.312 6.3273 22.1352C6.65777 21.9148 6.99339 21.7628 7.35203 21.6893C7.73228 21.6065 8.11089 21.6219 8.53905 21.7199C8.53952 21.72 8.53994 21.7201 8.54041 21.7202L11.3807 22.3713C12.0274 22.5196 12.6352 22.4623 13.21 22.1305L20.3128 18.0298C20.9466 17.6639 21.1657 16.846 20.7998 16.2122C20.7888 16.1932 20.7774 16.1746 20.7657 16.1564C20.7443 16.594 20.5086 17.0131 20.1031 17.2472L13.0003 21.3479C12.4255 21.6797 11.8177 21.737 11.171 21.5887L8.33073 20.9376C8.33027 20.9375 8.3298 20.9373 8.32938 20.9372C7.90122 20.8392 7.52261 20.8239 7.14236 20.9066C6.78367 20.9801 6.44805 21.1322 6.11762 21.3526C5.83577 21.5293 5.53347 21.7561 5.19531 22.0373Z" fill="#FFC762"/>
<path fill-rule="evenodd" clip-rule="evenodd" d="M4.36333 16.4907L6.07385 22.8745C6.11556 23.0301 6.02228 23.1917 5.86666 23.2334L4.68681 23.5496C4.53114 23.5913 4.36961 23.498 4.32789 23.3423L2.61738 16.9586C2.57566 16.8029 2.66894 16.6414 2.82456 16.5996L4.00441 16.2835C4.16008 16.2418 4.32161 16.3351 4.36333 16.4907Z" fill="#E69C15"/>
<path fill-rule="evenodd" clip-rule="evenodd" d="M4.36333 16.4908L4.38325 16.5652L3.27836 16.8612C3.12269 16.903 3.02941 17.0644 3.07117 17.2202L4.76177 23.5296L4.68686 23.5496C4.53124 23.5913 4.36966 23.4981 4.32794 23.3424L2.61738 16.9586C2.57566 16.8029 2.66894 16.6414 2.82456 16.5997L4.00441 16.2835C4.16008 16.2418 4.32161 16.335 4.36333 16.4908Z" fill="#DB910A"/>
<path fill-rule="evenodd" clip-rule="evenodd" d="M12.6959 0.4375H15.1827V1.68527C16.0061 1.84942 16.7717 2.17338 17.4461 2.62338L18.3288 1.74063L20.0872 3.49909L19.2045 4.3818C19.6546 5.05614 19.9784 5.82184 20.1426 6.64516H21.3904V9.13192H20.1426C19.9785 9.95528 19.6545 10.7209 19.2045 11.3953L20.0872 12.278L18.3288 14.0365L17.4461 13.1538C16.7718 13.6039 16.006 13.9277 15.1827 14.0919V15.3396H12.6959V14.0919C11.8726 13.9278 11.1069 13.6038 10.4325 13.1538L9.54987 14.0365L7.79145 12.278L8.67406 11.3954C8.22397 10.7211 7.90016 9.95533 7.73595 9.13197H6.48828V6.6452H7.73595C7.90006 5.82184 8.22402 5.05619 8.67406 4.3818L7.79136 3.49909L9.54983 1.74067L10.4325 2.62338C11.1068 2.17328 11.8726 1.84952 12.6959 1.68531V0.4375H12.6959Z" fill="#DB910A"/>
<path fill-rule="evenodd" clip-rule="evenodd" d="M14.3379 1.68452C15.3664 1.8895 16.3048 2.34386 17.0878 2.98173L17.4461 2.62338C16.7717 2.17333 16.0061 1.84938 15.1828 1.68527V0.4375H14.3379V1.68452ZM18.3602 4.38123C18.8104 5.05572 19.1343 5.82161 19.2985 6.64516H20.1427C19.9785 5.82189 19.6547 5.05614 19.2046 4.3818L20.0873 3.49909L18.3289 1.74063L17.8875 2.182L19.2424 3.49909L18.3602 4.38123ZM19.2985 9.13192C19.1343 9.95547 18.8103 10.7213 18.3602 11.3958L19.2423 12.278L17.9063 13.614L18.3288 14.0364L20.0872 12.278L19.2045 11.3953C19.6545 10.7209 19.9785 9.95533 20.1426 9.13192H19.2985ZM17.0877 12.7953C16.3048 13.4334 15.3663 13.8875 14.3379 14.0926V15.3396H15.1828V14.0919C16.0061 13.9277 16.7718 13.6039 17.4462 13.1538L17.0877 12.7953ZM20.5455 9.13192H21.3904V6.64516H20.5455V9.13192Z" fill="#C88100"/>
<path d="M13.9397 12.3833C16.4219 12.3833 18.4341 10.3711 18.4341 7.88891C18.4341 5.40673 16.4219 3.39453 13.9397 3.39453C11.4575 3.39453 9.44531 5.40673 9.44531 7.88891C9.44531 10.3711 11.4575 12.3833 13.9397 12.3833Z" fill="#FFF2DB"/>
<path fill-rule="evenodd" clip-rule="evenodd" d="M13.9397 3.39453C15.0527 3.39453 16.0711 3.79939 16.8561 4.46952C16.2235 4.12958 15.5002 3.93659 14.7318 3.93659C12.2497 3.93659 10.2375 5.9488 10.2375 8.43097C10.2375 9.80009 10.8498 11.026 11.8154 11.8504C10.4046 11.0923 9.44531 9.6027 9.44531 7.88891C9.44536 5.40673 11.4575 3.39453 13.9397 3.39453Z" fill="#FFE2AC"/>
<path fill-rule="evenodd" clip-rule="evenodd" d="M18.0084 8.73248L16.3935 9.51989H10.8516L11.6781 6.74897L16.6673 4.31653C17.1382 4.67681 17.5358 5.12789 17.8338 5.64384L18.0084 8.73248Z" fill="#FFCD72"/>
<path fill-rule="evenodd" clip-rule="evenodd" d="M15.5667 6.74889L17.8335 5.64372C17.5355 5.12772 17.1378 4.67669 16.667 4.31641L11.6777 6.74884L15.5667 6.74889Z" fill="#FFBB3F"/>
<path fill-rule="evenodd" clip-rule="evenodd" d="M17.8332 5.64453L15.5664 6.7497L16.3929 9.52062L18.3843 8.54975C18.4161 8.33394 18.4328 8.11325 18.4328 7.88863C18.4328 7.07127 18.2145 6.30491 17.8332 5.64453Z" fill="#FBB12A"/>
</svg>
