<svg width="36" height="36" viewBox="0 0 36 36" fill="none" xmlns="http://www.w3.org/2000/svg">
<path d="M12.7207 10.4229L13.9389 11.6411C16.1827 9.39801 19.8187 9.39801 22.0615 11.6411L23.2808 10.4229C20.3639 7.50676 15.6375 7.50607 12.7207 10.4229Z" fill="black"/>
<path d="M29.4885 15.7025C29.4885 9.35705 24.3475 4.21539 18.0014 4.21539C11.657 4.21539 6.51435 9.35705 6.51435 15.7025C5.24547 15.7025 4.2168 16.7311 4.2168 18V24.8923C4.2168 26.1612 5.24547 27.1899 6.51435 27.1899H9.9605C10.5949 27.1899 11.1091 26.676 11.1091 26.0409V20.2976C11.1091 19.6659 10.8224 18.7178 10.4719 18.193L8.8119 15.7028C8.8119 10.6266 12.9259 6.51294 18.0018 6.51294C23.079 6.51294 27.1916 10.6266 27.1916 15.7028L25.5313 18.193C25.1808 18.7178 24.8937 19.6659 24.8937 20.2976V26.3621C23.2099 28.2747 20.7501 29.4871 18.0014 29.4871H15.7039V31.7846H18.0014C21.757 31.7846 25.0798 29.975 27.1754 27.1899H29.4885C30.7573 27.1899 31.786 26.1612 31.786 24.8923V18C31.786 16.7311 30.7573 15.7025 29.4885 15.7025ZM8.81155 24.8923H6.514V18H7.58197L8.55998 19.4674C8.66337 19.63 8.80673 20.1059 8.81121 20.2996L8.81155 24.8923ZM29.4885 24.8923H27.1913V20.2996C27.1957 20.1056 27.3395 19.63 27.4425 19.4674L28.4205 18H29.4885V24.8923Z" fill="black"/>
</svg>
