<?xml version="1.0" encoding="utf-8"?>
<svg xmlns="http://www.w3.org/2000/svg" viewBox="13.603 124.127 350.33 70.866" xmlns:bx="https://boxy-svg.com" width="350.33px" height="70.866px"><defs><linearGradient id="paint0_linear_1135_2044" x1="2.99999" y1="70" x2="2.99999" y2="3" gradientUnits="userSpaceOnUse" gradientTransform="matrix(0.873012, 0, 0, 0.97558, 318.598219, 122.913908)"><stop stop-color="#F9D58C" stop-opacity="0.1"/><stop offset="1" stop-color="#F9D58C"/></linearGradient><bx:export><bx:file format="svg"/></bx:export></defs><path d="M 358.21 192.982 L 31.86 192.982 C 23.024 192.982 15.86 185.819 15.86 176.982 L 15.86 141.982 C 15.86 133.146 23.024 125.982 31.86 125.982 L 342.86 125.982 C 351.697 125.982 358.86 133.146 358.86 141.982 L 358.86 161.309" stroke="#D9D9D9" style="stroke-width: 1; fill: rgba(0, 0, 0, 0);"/><path d="M 321.217 122.914 C 319.77 122.914 318.598 124.224 318.598 125.841 C 318.598 127.457 319.77 128.767 321.217 128.767 L 321.217 125.841 L 321.217 122.914 Z M 321.217 125.841 L 321.217 128.767 L 345.225 128.767 L 345.225 125.841 L 345.225 122.914 L 321.217 122.914 L 321.217 125.841 Z M 345.225 125.841 L 345.225 128.767 C 347.414 128.767 351.739 129.81 354.747 133.294 L 356.632 131.263 L 358.516 129.231 C 354.243 124.28 348.376 122.914 345.225 122.914 L 345.225 125.841 Z M 359.63 142.781 L 357.011 142.781 L 357.011 191.205 L 359.63 191.205 L 362.249 191.205 L 362.249 142.781 L 359.63 142.781 Z M 356.632 131.263 L 354.747 133.294 C 356.535 135.365 357.011 138.663 357.011 142.781 L 359.63 142.781 L 362.249 142.781 C 362.249 138.614 361.876 133.121 358.516 129.231 L 356.632 131.263 Z" fill="url(#paint0_linear_1135_2044)" style="stroke-width: 1;"/></svg>