<svg width="28" height="28" viewBox="0 0 28 28" fill="none" xmlns="http://www.w3.org/2000/svg">
<path d="M15.6934 22.0808H9.02214C7.9085 22.0808 7.00261 21.1749 7.00261 20.0612V7.94402C7.00261 6.83038 7.9085 5.92448 9.02214 5.92448H18.4466C19.5603 5.92448 20.4662 6.83038 20.4662 7.94402V17.5703C20.4662 17.7503 20.539 17.9118 20.6538 18.0325C20.7764 18.1613 20.9472 18.2435 21.1393 18.2435C21.5114 18.2435 21.8125 17.9424 21.8125 17.5703V7.94402C21.8125 6.08817 20.3025 4.57812 18.4466 4.57812H9.02214C7.1663 4.57812 5.65625 6.08817 5.65625 7.94402V20.0612C5.65625 21.9171 7.1663 23.4271 9.02214 23.4271H15.6934C16.0655 23.4271 16.3666 23.126 16.3666 22.7539C16.3666 22.5739 16.2938 22.4124 16.1789 22.2917C16.0563 22.1629 15.8855 22.0808 15.6934 22.0808Z" fill="#EEAD1E"/>
<path d="M17.7748 13.3281H9.69662C9.32453 13.3281 9.02344 13.6295 9.02344 14.0013C9.02344 14.3731 9.32453 14.6745 9.69662 14.6745H17.7748C18.1468 14.6745 18.4479 14.3731 18.4479 14.0013C18.4479 13.6295 18.1468 13.3281 17.7748 13.3281Z" fill="#EEAD1E"/>
<path d="M17.7748 9.96094H9.69662C9.32453 9.96094 9.02344 10.2624 9.02344 10.6341C9.02344 11.0059 9.32453 11.3073 9.69662 11.3073H17.7748C18.1468 11.3073 18.4479 11.0059 18.4479 10.6341C18.4479 10.2624 18.1468 9.96094 17.7748 9.96094Z" fill="#EEAD1E"/>
<path d="M17.7748 16.6953H9.69662C9.32453 16.6953 9.02344 16.9964 9.02344 17.3685C9.02344 17.7406 9.32453 18.0417 9.69662 18.0417H17.7748C18.1468 18.0417 18.4479 17.7406 18.4479 17.3685C18.4479 16.9964 18.1468 16.6953 17.7748 16.6953Z" fill="#EEAD1E"/>
<path d="M17.4338 20.7658C17.2935 20.9061 17.2338 21.092 17.2431 21.2756C17.2514 21.4362 17.3111 21.595 17.4338 21.7177L18.7979 23.0812C18.9294 23.2127 19.1016 23.2784 19.2738 23.2784C19.4461 23.2784 19.6183 23.2127 19.7498 23.0812L22.1467 20.6843C22.4096 20.4213 22.4096 19.9953 22.1467 19.7324C21.8837 19.4694 21.4577 19.4694 21.1948 19.7324L19.2738 21.6533L18.3857 20.7658C18.2707 20.6508 18.1232 20.5953 17.973 20.5809C17.78 20.5624 17.5817 20.6179 17.4338 20.7658Z" fill="#EEAD1E"/>
</svg>
