<svg width="24" height="24" viewBox="0 0 24 24" fill="none" xmlns="http://www.w3.org/2000/svg">
<g clip-path="url(#clip0_2522_149)">
<path d="M5.94728 3.48555L4.49575 2.77408C4.24571 2.65151 3.94482 2.7754 3.85356 3.03851L3.51409 4.01721C3.42282 4.28027 3.58239 4.56387 3.85459 4.62246L5.43493 4.96263C5.66396 5.01194 5.89379 4.88262 5.97062 4.66127L6.18132 4.05391C6.25806 3.83257 6.1577 3.58868 5.94728 3.48555Z" fill="#FFC762"/>
<path d="M4.49631 2.77404L5.94808 3.48575C6.15813 3.58906 6.25872 3.83253 6.18184 4.0542L5.97123 4.66137C5.95694 4.70253 5.9373 4.74087 5.91311 4.77519C5.92338 4.59275 5.82508 4.41631 5.65436 4.33254L4.20255 3.62089C3.95256 3.49836 3.65191 3.62225 3.56055 3.88554L3.85427 3.03875C3.94563 2.77545 4.24628 2.65151 4.49631 2.77404Z" fill="#F5AB24"/>
<path d="M8.10949 1.54719L7.20818 0.20525C7.05293 -0.0258905 6.73038 -0.0690623 6.51982 0.113141L5.73644 0.791C5.52588 0.973203 5.52227 1.29856 5.72871 1.48545L6.92726 2.57023C7.10097 2.72745 7.36465 2.73041 7.54183 2.57708L8.02797 2.15642C8.20511 2.00305 8.24008 1.74167 8.10949 1.54719Z" fill="#FFC762"/>
<path d="M7.20792 0.20504L8.10938 1.54726C8.23964 1.74174 8.205 2.00288 8.02758 2.1564L7.54158 2.57691C7.50862 2.60541 7.47239 2.62881 7.43433 2.64643C7.53445 2.49357 7.53755 2.29163 7.43156 2.13371L6.53011 0.791493C6.37486 0.560353 6.05255 0.517368 5.8418 0.699712L6.51961 0.113212C6.73036 -0.0690849 7.05267 -0.0260537 7.20792 0.20504Z" fill="#F5AB24"/>
<path d="M5.63896 6.28641L4.02613 6.39601C3.7483 6.4149 3.54969 6.67262 3.60219 6.94609L3.79752 7.96341C3.85002 8.23688 4.13 8.40268 4.39503 8.31732L5.93375 7.82176C6.15678 7.74995 6.29117 7.52302 6.24697 7.29296L6.12575 6.6616C6.08155 6.43154 5.87267 6.27057 5.63896 6.28641Z" fill="#FFC762"/>
<path d="M4.02589 6.39574L5.639 6.2862C5.87257 6.27063 6.0814 6.43118 6.12565 6.66162L6.24682 7.29279C6.25503 7.33559 6.25718 7.37862 6.25339 7.42043C6.17107 7.25731 5.99773 7.15367 5.80798 7.16646L4.19487 7.27601C3.91709 7.2949 3.71867 7.55252 3.77122 7.82623L3.60218 6.94601C3.54973 6.67231 3.74811 6.41463 4.02589 6.39574Z" fill="#F5AB24"/>
<path d="M18.565 4.96274L20.1454 4.62252C20.4176 4.56393 20.5772 4.28033 20.4859 4.01722L20.1464 3.03852C20.0551 2.77546 19.7542 2.65157 19.5042 2.77415L18.0527 3.48571C17.8423 3.58883 17.7419 3.83268 17.8187 4.05402L18.0294 4.66138C18.1062 4.88277 18.336 5.01205 18.565 4.96274Z" fill="#F5AB24"/>
<path d="M20.1446 4.62417L18.564 4.96439C18.3351 5.01337 18.1053 4.88447 18.0284 4.6628L17.8178 4.05562C17.8035 4.01447 17.7952 3.97219 17.793 3.93023C17.8979 4.07986 18.0843 4.15748 18.2702 4.11755L19.8508 3.77733C20.123 3.71873 20.2824 3.43523 20.191 3.17194L20.4848 4.01873C20.5761 4.28208 20.4168 4.56558 20.1446 4.62417Z" fill="#FFC762"/>
<path d="M18.0657 7.82164L19.6045 8.3172C19.8695 8.40256 20.1495 8.23672 20.202 7.96325L20.3973 6.94592C20.4498 6.67245 20.2512 6.41474 19.9734 6.39584L18.3605 6.2863C18.1268 6.27041 17.9179 6.43142 17.8737 6.66149L17.7525 7.29284C17.7083 7.52291 17.8427 7.74978 18.0657 7.82164Z" fill="#F5AB24"/>
<path d="M19.6045 8.31592L18.0655 7.82022C17.8428 7.74817 17.7083 7.52167 17.7525 7.29128L17.8737 6.66011C17.8819 6.61731 17.8959 6.57653 17.9149 6.53912C17.9309 6.72114 18.0536 6.88164 18.2345 6.94L19.7735 7.4357C20.0385 7.52106 20.3182 7.35522 20.3708 7.08151L20.2018 7.96173C20.1493 8.23539 19.8696 8.40128 19.6045 8.31592Z" fill="#FFC762"/>
<path d="M17.0717 2.57019L18.2702 1.48541C18.4766 1.29856 18.473 0.973156 18.2624 0.790953L17.479 0.113141C17.2684 -0.0690623 16.9459 -0.0258905 16.7906 0.20525L15.8893 1.54723C15.7587 1.74172 15.7937 2.00309 15.9708 2.15642L16.457 2.57708C16.6343 2.73036 16.898 2.72741 17.0717 2.57019Z" fill="#F5AB24"/>
<path d="M18.2703 1.484L17.0715 2.56897C16.8977 2.72581 16.6343 2.72909 16.4569 2.57558L15.9709 2.15506C15.938 2.12656 15.9096 2.09408 15.8867 2.05892C16.0524 2.13603 16.2527 2.11006 16.3937 1.98251L17.5925 0.897545C17.7989 0.710702 17.7952 0.38553 17.5844 0.203186L18.2623 0.789686C18.4729 0.971983 18.4767 1.29715 18.2703 1.484Z" fill="#FFC762"/>
<path d="M11.8378 9.13679L9.51359 9.96329C9.34235 10.0242 9.16343 9.89415 9.1684 9.71251L9.23623 7.2466C9.23927 7.13555 9.20398 7.0269 9.13624 6.93887L7.63193 4.98376C7.52112 4.83976 7.58946 4.62934 7.76379 4.57796L10.1299 3.88046C10.2365 3.84905 10.3289 3.78188 10.3917 3.69024L11.7863 1.6554C11.8891 1.50549 12.1103 1.50549 12.213 1.6554L13.6076 3.69024C13.6704 3.78188 13.7628 3.84905 13.8694 3.88046L16.2355 4.57796C16.4098 4.62934 16.4782 4.83971 16.3674 4.98376L14.8631 6.93887C14.7953 7.0269 14.76 7.1356 14.7631 7.2466L14.8309 9.71251C14.8359 9.89415 14.6569 10.0242 14.4857 9.96329L12.1615 9.13679C12.0568 9.09957 11.9425 9.09957 11.8378 9.13679Z" fill="#FFB734"/>
<path d="M16.3671 4.98371L14.8628 6.93901C14.7951 7.02704 14.7598 7.13575 14.7628 7.24675L14.8307 9.71242C14.8355 9.89439 14.6567 10.0241 14.4854 9.96325L12.1609 9.13703C12.0562 9.09985 11.942 9.09985 11.8374 9.13703L9.51337 9.96325C9.34209 10.0241 9.16274 9.89439 9.16809 9.71242L9.20971 8.19259C9.57219 8.30795 9.95859 8.37029 10.3592 8.37189C12.472 8.38018 14.2161 6.65692 14.2324 4.54412C14.2339 4.35128 14.221 4.16195 14.1951 3.97675L16.2353 4.57815C16.4092 4.62939 16.4775 4.83962 16.3671 4.98371Z" fill="#EDA31C"/>
<path d="M19.9329 16.0239H19.779C20.6449 16.0239 21.3488 15.3302 21.3653 14.4681C21.3824 13.5786 20.6373 12.8505 19.7476 12.8505H15.1608C14.9872 12.8505 14.8703 12.6728 14.9391 12.5134L15.6103 10.9578C15.6479 10.8706 15.677 10.7801 15.6973 10.6873L15.8605 9.94213C16.1793 8.48657 15.0709 7.10919 13.5809 7.10919C13.1231 7.10919 12.7216 7.41486 12.5999 7.85615L11.9919 10.0596L9.73856 14.0904C9.6532 14.2431 9.49195 14.3377 9.31706 14.3377H6.01758V23.0105H11.2318C11.351 23.0105 11.4661 23.0546 11.5547 23.1344L11.8541 23.4038C12.2803 23.7884 12.832 24 13.406 24H19.1173C19.8233 24 20.4202 23.4464 20.4396 22.7406C20.4596 22.0083 19.872 21.4083 19.1442 21.4083H19.6275C20.3391 21.4083 20.916 20.8313 20.916 20.1197C20.916 19.408 20.3391 18.8311 19.6275 18.8311H19.962C20.7503 18.8311 21.3868 18.1813 21.3651 17.388C21.3442 16.6236 20.6977 16.0239 19.9329 16.0239Z" fill="#FFB838"/>
<path d="M21.3661 17.4281C21.3661 18.2035 20.7373 18.8318 19.9624 18.8318H19.6275C19.9837 18.8318 20.3055 18.9757 20.5386 19.2094C20.7717 19.4425 20.9163 19.7649 20.9163 20.1206C20.9163 20.832 20.3395 21.4088 19.6275 21.4088H19.1443C19.8601 21.4088 20.4402 21.9895 20.4402 22.7047C20.4402 23.4206 19.8601 24.0006 19.1443 24.0006H17.5156C18.2315 24.0006 18.8115 23.4206 18.8115 22.7047C18.8115 21.9895 18.2315 21.4088 17.5156 21.4088H17.9989C18.7108 21.4088 19.2876 20.832 19.2876 20.1206C19.2876 19.7649 19.1432 19.4426 18.91 19.2094C18.6769 18.9757 18.3551 18.8318 17.9988 18.8318H18.3337C19.1086 18.8318 19.7369 18.2035 19.7369 17.4281C19.7369 16.6531 19.1086 16.0249 18.3337 16.0249H18.1504C19.0265 16.0249 19.7369 15.3146 19.7369 14.4379C19.7369 13.5617 19.0265 12.8514 18.1504 12.8514H19.779C20.6552 12.8514 21.3661 13.5617 21.3661 14.4379C21.3661 15.3146 20.6552 16.0249 19.779 16.0249H19.9624C20.7373 16.0249 21.3661 16.6532 21.3661 17.4281Z" fill="#F2A821"/>
<path d="M15.8603 9.94194L15.6972 10.6873C15.677 10.7803 15.648 10.8706 15.6102 10.9576L14.7937 12.8506H13.1651L13.9816 10.9576C14.0188 10.8706 14.0484 10.7803 14.0686 10.6873L14.2317 9.94194C14.4736 8.83705 13.8929 7.77753 12.9473 7.331C12.9527 7.32608 12.9582 7.32167 12.9642 7.31731C13.1372 7.18597 13.3517 7.10938 13.5805 7.10938C15.0706 7.10933 16.1793 8.4868 15.8603 9.94194Z" fill="#F2A821"/>
<path d="M13.1649 12.8491C12.965 12.8491 12.8027 12.6869 12.8027 12.487C12.8027 12.2866 12.965 12.1248 13.1649 12.1248H15.1061L14.939 12.5116C14.87 12.671 14.9868 12.8487 15.1607 12.8487L13.1649 12.8491Z" fill="#F2A821"/>
<path d="M20.8907 16.3843H18.2391C18.0392 16.3843 17.877 16.2221 17.877 16.0221C17.877 15.8222 18.0392 15.66 18.2391 15.66H20.7869C20.5131 15.8865 20.1615 16.0221 19.7781 16.0221H19.9321C20.2967 16.0221 20.6347 16.1588 20.8907 16.3843Z" fill="#F2A821"/>
<path d="M19.6286 18.8307C19.9763 18.8307 20.2911 18.9683 20.5229 19.1929H17.95C17.7497 19.1929 17.5879 19.0306 17.5879 18.8307C17.5879 18.6308 17.7497 18.4686 17.95 18.4686H20.9039C20.6547 18.6936 20.3249 18.8307 19.9628 18.8307H19.6286Z" fill="#F2A821"/>
<path d="M19.1451 21.4088C19.4937 21.4088 19.8101 21.5465 20.0428 21.771H17.368C17.1681 21.771 17.0059 21.6088 17.0059 21.4088C17.0059 21.2089 17.1681 21.0467 17.368 21.0467H20.5228C20.291 21.2712 19.9761 21.4088 19.6285 21.4088H19.1451Z" fill="#F2A821"/>
<path d="M3.11767 13.3869H6.70886C6.99377 13.3869 7.22467 13.6179 7.22467 13.9027V23.4841C7.22467 23.769 6.99372 23.9999 6.70886 23.9999H3.11767C2.85095 23.9999 2.63477 23.7837 2.63477 23.517V13.8698C2.63481 13.6031 2.851 13.3869 3.11767 13.3869Z" fill="#EAA019"/>
<path d="M7.22513 13.9025V23.484C7.22513 23.7689 6.99384 23.9997 6.70936 23.9997H5.05664C5.34159 23.9997 5.57241 23.7689 5.57241 23.484V13.9025C5.57241 13.618 5.34159 13.3867 5.05664 13.3867H6.70936C6.99384 13.3868 7.22513 13.618 7.22513 13.9025Z" fill="#CF8600"/>
<path d="M4.61797 22.9468H4.06723C3.86717 22.9468 3.70508 22.7846 3.70508 22.5846C3.70508 22.3846 3.86722 22.2225 4.06723 22.2225H4.61797C4.81803 22.2225 4.98012 22.3846 4.98012 22.5846C4.98012 22.7846 4.81803 22.9468 4.61797 22.9468Z" fill="#FFD890"/>
</g>
<defs>
<clipPath id="clip0_2522_149">
<rect width="24" height="24" fill="white"/>
</clipPath>
</defs>
</svg>
