<svg width="16" height="16" viewBox="0 0 16 16" fill="none" xmlns="http://www.w3.org/2000/svg">
<g clip-path="url(#clip0_1261_2079)">
<path d="M2.59991 2.64762C-0.348721 5.6283 -0.332696 10.4519 2.64798 13.4005C5.62867 16.3491 10.4522 16.3331 13.4009 13.3524C16.3495 10.3717 16.3335 5.54817 13.3528 2.59954C10.3721 -0.349087 5.54854 -0.333062 2.59991 2.64762ZM11.7022 6.54173L7.56771 10.7243C7.21516 11.0769 6.63825 11.0769 6.2857 10.7243L6.12545 10.564L5.64469 10.0833L4.29858 8.75321C3.94602 8.40065 3.94602 7.82375 4.29858 7.47119C4.65113 7.11864 5.22804 7.11864 5.58059 7.47119L6.9267 8.80128L10.4202 5.27575C10.7727 4.92319 11.3497 4.92319 11.7022 5.27575C12.0548 5.61227 12.0548 6.18918 11.7022 6.54173Z" fill="black"/>
</g>
<defs>
<clipPath id="clip0_1261_2079">
<rect width="16" height="16" fill="white"/>
</clipPath>
</defs>
</svg>
