<svg xmlns="http://www.w3.org/2000/svg" width="31" height="30" viewBox="0 0 31 30" fill="none">
  <path d="M5.65623 17.3438C5.50589 17.3438 5.35951 17.392 5.23856 17.4813C5.11762 17.5706 5.02849 17.6963 4.98423 17.84L3.10923 23.9337C3.07687 24.0389 3.06963 24.1502 3.08811 24.2587C3.10659 24.3671 3.15027 24.4698 3.21564 24.5583C3.281 24.6468 3.36623 24.7187 3.46446 24.7683C3.5627 24.8179 3.67119 24.8437 3.78123 24.8438H10.5781C10.6713 24.8451 10.7638 24.8279 10.8502 24.7931C10.9367 24.7584 11.0154 24.7068 11.0818 24.6414C11.1481 24.5759 11.2008 24.498 11.2368 24.412C11.2727 24.3261 11.2912 24.2338 11.2912 24.1406C11.2912 24.0474 11.2727 23.9552 11.2368 23.8692C11.2008 23.7833 11.1481 23.7053 11.0818 23.6399C11.0154 23.5745 10.9367 23.5229 10.8502 23.4881C10.7638 23.4534 10.6713 23.4362 10.5781 23.4375H4.73338L6.17533 18.75H13.1059L14.5478 23.4375H12.9219C12.8287 23.4362 12.7362 23.4534 12.6497 23.4881C12.5633 23.5229 12.4846 23.5745 12.4182 23.6399C12.3519 23.7053 12.2992 23.7833 12.2632 23.8692C12.2272 23.9552 12.2087 24.0474 12.2087 24.1406C12.2087 24.2338 12.2272 24.3261 12.2632 24.412C12.2992 24.498 12.3519 24.5759 12.4182 24.6414C12.4846 24.7068 12.5633 24.7584 12.6497 24.7931C12.7362 24.8279 12.8287 24.8451 12.9219 24.8438H15.5C15.61 24.8437 15.7185 24.8179 15.8167 24.7683C15.915 24.7187 16.0002 24.6468 16.0656 24.5583C16.1309 24.4698 16.1746 24.3671 16.1931 24.2587C16.2116 24.1502 16.2043 24.0389 16.172 23.9337L14.297 17.84C14.2527 17.6963 14.1636 17.5706 14.0426 17.4813C13.9217 17.392 13.7753 17.3438 13.625 17.3438H5.65623Z" fill="#EEAD1E"/>
  <path d="M17.3751 17.3438C17.2248 17.3438 17.0784 17.392 16.9575 17.4813C16.8365 17.5706 16.7474 17.6963 16.7032 17.84L16.0321 20.0208C16.0034 20.1094 15.9927 20.2028 16.0005 20.2957C16.0083 20.3885 16.0345 20.4789 16.0775 20.5615C16.1205 20.6441 16.1795 20.7174 16.251 20.777C16.3226 20.8367 16.4053 20.8815 16.4943 20.9089C16.5833 20.9363 16.6769 20.9458 16.7696 20.9367C16.8624 20.9276 16.9523 20.9002 17.0344 20.8561C17.1164 20.812 17.1889 20.752 17.2475 20.6796C17.3062 20.6073 17.3499 20.524 17.3761 20.4346L17.8943 18.75H24.8248L26.2668 23.4375H17.6095C17.5164 23.4362 17.4238 23.4534 17.3374 23.4881C17.2509 23.5229 17.1722 23.5745 17.1059 23.6399C17.0395 23.7053 16.9868 23.7833 16.9509 23.8692C16.9149 23.9552 16.8964 24.0474 16.8964 24.1406C16.8964 24.2338 16.9149 24.3261 16.9509 24.412C16.9868 24.498 17.0395 24.5759 17.1059 24.6414C17.1722 24.7068 17.2509 24.7584 17.3374 24.7931C17.4238 24.8279 17.5164 24.8451 17.6095 24.8438H27.2189C27.3289 24.8437 27.4374 24.8179 27.5357 24.7683C27.6339 24.7187 27.7191 24.6468 27.7845 24.5583C27.8499 24.4698 27.8935 24.3671 27.912 24.2587C27.9305 24.1502 27.9233 24.0389 27.8909 23.9337L26.0159 17.84C25.9716 17.6963 25.8825 17.5706 25.7616 17.4813C25.6406 17.392 25.4942 17.3438 25.3439 17.3438H17.3751Z" fill="#EEAD1E"/>
  <path d="M11.5158 11.25C11.3655 11.25 11.2191 11.2982 11.0982 11.3875C10.9772 11.4768 10.8881 11.6025 10.8438 11.7462L9.69027 15.4962C9.66165 15.5849 9.65092 15.6783 9.65872 15.7711C9.66651 15.864 9.69267 15.9543 9.73568 16.0369C9.77868 16.1196 9.83768 16.1928 9.90924 16.2525C9.98079 16.3121 10.0635 16.3569 10.1525 16.3844C10.2415 16.4118 10.3351 16.4212 10.4278 16.4122C10.5206 16.4031 10.6105 16.3757 10.6926 16.3316C10.7746 16.2874 10.8471 16.2275 10.9057 16.1551C10.9644 16.0827 11.0081 15.9994 11.0343 15.91L12.0349 12.6562H18.9655L19.9662 15.91C19.9923 15.9994 20.036 16.0827 20.0947 16.1551C20.1534 16.2275 20.2258 16.2874 20.3078 16.3316C20.3899 16.3757 20.4799 16.4031 20.5726 16.4122C20.6653 16.4212 20.7589 16.4118 20.8479 16.3844C20.9369 16.3569 21.0196 16.3121 21.0912 16.2525C21.1627 16.1928 21.2217 16.1196 21.2647 16.0369C21.3077 15.9543 21.3339 15.864 21.3417 15.7711C21.3495 15.6783 21.3388 15.5849 21.3101 15.4962L20.1566 11.7462C20.1123 11.6025 20.0232 11.4768 19.9023 11.3875C19.7813 11.2982 19.6349 11.25 19.4846 11.25H11.5158Z" fill="#EEAD1E"/>
  <path d="M15.4891 4.2087C15.3028 4.21161 15.1252 4.28836 14.9954 4.42208C14.8657 4.55581 14.7943 4.73558 14.7969 4.9219V7.26565C14.7956 7.35882 14.8128 7.45133 14.8476 7.53779C14.8823 7.62425 14.9339 7.70295 14.9993 7.7693C15.0648 7.83565 15.1427 7.88834 15.2287 7.92431C15.3146 7.96027 15.4069 7.97879 15.5001 7.97879C15.5933 7.97879 15.6855 7.96027 15.7715 7.92431C15.8574 7.88834 15.9354 7.83565 16.0008 7.7693C16.0662 7.70295 16.1178 7.62425 16.1526 7.53779C16.1873 7.45133 16.2045 7.35882 16.2032 7.26565V4.9219C16.2045 4.82779 16.187 4.73437 16.1516 4.64717C16.1161 4.55997 16.0636 4.48077 15.997 4.41426C15.9304 4.34775 15.8511 4.29529 15.7639 4.25998C15.6766 4.22467 15.5832 4.20723 15.4891 4.2087Z" fill="#EEAD1E"/>
  <path d="M22.1277 6.94972C21.9939 6.82003 21.8141 6.74875 21.6278 6.75154C21.4415 6.75434 21.2639 6.83097 21.134 6.96461L19.4767 8.62189C19.4099 8.68684 19.3567 8.76442 19.3201 8.85013C19.2835 8.93584 19.2643 9.02795 19.2637 9.12113C19.263 9.21431 19.2809 9.30669 19.3163 9.39291C19.3516 9.47912 19.4037 9.55745 19.4696 9.62334C19.5355 9.68923 19.6138 9.74137 19.7001 9.77672C19.7863 9.81207 19.8787 9.82994 19.9718 9.82928C20.065 9.82862 20.1571 9.80945 20.2428 9.77288C20.3285 9.73631 20.4061 9.68307 20.4711 9.61626L22.1284 7.95898C22.1959 7.89339 22.2495 7.81491 22.2861 7.72821C22.3227 7.6415 22.3416 7.54833 22.3415 7.45421C22.3414 7.36009 22.3225 7.26694 22.2858 7.18029C22.249 7.09363 22.1953 7.01522 22.1277 6.94972Z" fill="#EEAD1E"/>
  <path d="M8.872 6.94972C9.0058 6.82003 9.18561 6.74875 9.37194 6.75154C9.55826 6.75434 9.73586 6.83097 9.86572 6.96461L11.523 8.62189C11.5898 8.68684 11.6431 8.76442 11.6796 8.85013C11.7162 8.93584 11.7354 9.02795 11.736 9.12113C11.7367 9.21431 11.7188 9.30669 11.6835 9.39291C11.6481 9.47912 11.596 9.55745 11.5301 9.62334C11.4642 9.68923 11.3859 9.74137 11.2996 9.77672C11.2134 9.81207 11.1211 9.82994 11.0279 9.82928C10.9347 9.82862 10.8426 9.80945 10.7569 9.77288C10.6712 9.73631 10.5936 9.68307 10.5286 9.61626L8.87135 7.95898C8.80385 7.89339 8.7502 7.81491 8.71359 7.72821C8.67698 7.6415 8.65814 7.54833 8.6582 7.45421C8.65826 7.36009 8.67722 7.26694 8.71394 7.18029C8.75067 7.09363 8.80441 7.01522 8.872 6.94972Z" fill="#EEAD1E"/>
</svg>  