<svg xmlns="http://www.w3.org/2000/svg" width="27" height="27" viewBox="0 0 27 27" fill="none">
  <g clip-path="url(#clip0_1100_7258)">
    <path d="M25.26 15.729H24.8709V12.2243C24.8709 11.6695 24.5948 11.1782 24.173 10.8797V10.4025C24.173 9.71033 23.6099 9.14722 22.9177 9.14722H22.6272L23.7388 7.51613C24.1114 6.96942 23.9697 6.22146 23.423 5.84883L15.8804 0.708749C15.6155 0.528221 15.2963 0.461596 14.9813 0.521366C14.6664 0.581034 14.3935 0.759733 14.2131 1.02461L7.70286 10.5777H5.89124L6.32832 6.15316C6.33324 6.10329 6.36564 6.06008 6.41084 6.04307C6.97395 5.83075 7.46196 5.43425 7.78493 4.92664C7.81037 4.88667 7.85836 4.86382 7.90802 4.86885L10.7495 5.14957C10.9532 5.16932 11.1345 5.02094 11.1546 4.81731C11.1747 4.61367 11.0259 4.43233 10.8223 4.41223L7.98084 4.13151C7.65102 4.09921 7.33648 4.2512 7.15976 4.52887C6.92231 4.90211 6.56348 5.1936 6.14946 5.3497C5.83782 5.46721 5.62383 5.74711 5.59092 6.08029L5.14669 10.5777H4.67427L5.3655 3.57982C5.39039 3.32794 5.6152 3.1429 5.86737 3.16814L11.6094 3.73536C11.813 3.75501 11.9944 3.60673 12.0145 3.4031C12.0346 3.19947 11.8859 3.01813 11.6822 2.99802L5.9402 2.43079C5.28187 2.36584 4.69316 2.84852 4.62811 3.50695L4.07094 9.14722H3.12209C2.42994 9.14722 1.86678 9.71033 1.86678 10.4025V10.728C1.30052 10.9888 0.90625 11.5612 0.90625 12.2243V24.8534C0.90625 25.7613 1.64491 26.5 2.55293 26.5H23.2243C24.1323 26.5 24.8709 25.7613 24.8709 24.8534V21.3487H25.26C25.7193 21.3487 26.0929 20.9751 26.0929 20.5159V16.5618C26.0929 16.1026 25.7193 15.729 25.26 15.729ZM22.9177 9.88822C23.2014 9.88817 23.4321 10.1189 23.4321 10.4026V10.5913C23.364 10.5827 23.2947 10.5778 23.2243 10.5778H21.6524L22.1222 9.88822H22.9177ZM14.8253 1.44183C14.8944 1.34052 14.9988 1.27217 15.1192 1.24932C15.148 1.24388 15.1769 1.24114 15.2056 1.24114C15.2968 1.24114 15.386 1.26846 15.4631 1.32097L23.0057 6.46105C23.2148 6.60359 23.269 6.88969 23.1266 7.09881L20.7558 10.5776H20.1868L21.3492 8.87204C21.5377 8.59543 21.5532 8.24342 21.3896 7.9533C21.1721 7.56787 21.084 7.11404 21.1414 6.67534C21.184 6.34897 21.0404 6.03037 20.7666 5.8438L16.8565 3.17921C16.5827 2.99258 16.2336 2.97547 15.9455 3.13457C15.5583 3.34836 15.1036 3.4323 14.6654 3.37096C14.3404 3.32535 14.0108 3.47211 13.8251 3.74455L9.16846 10.5777H8.59951L14.8253 1.44183ZM14.9885 7.73317C13.3751 7.73317 12.0508 8.99117 11.9428 10.5777H10.065L14.4372 4.16182H14.4373C14.4621 4.12531 14.5033 4.10358 14.5456 4.10358C14.5512 4.10358 14.5569 4.10398 14.5625 4.10474C15.1586 4.18813 15.7768 4.07407 16.3035 3.78325C16.345 3.7603 16.3982 3.7636 16.4392 3.79153L20.3493 6.45617C20.3903 6.4841 20.4128 6.53244 20.4067 6.57937C20.3286 7.17599 20.4486 7.79319 20.7443 8.31735C20.768 8.35945 20.7651 8.41338 20.7369 8.45477L19.2903 10.5776H18.0343C17.9263 8.99117 16.602 7.73317 14.9885 7.73317ZM17.2913 10.5777H12.6857C12.7919 9.40016 13.7838 8.47417 14.9885 8.47417C16.1932 8.47411 17.1852 9.40016 17.2913 10.5777ZM2.60773 10.4025C2.60773 10.1189 2.83843 9.88812 3.12209 9.88812H3.99776L3.92966 10.5777H2.60773V10.4025ZM1.6472 12.2243C1.6472 11.7249 2.0535 11.3186 2.55293 11.3186H23.2243C23.7237 11.3186 24.13 11.7249 24.13 12.2243V13.2523H1.6472V12.2243ZM24.13 24.8534C24.13 25.3527 23.7237 25.759 23.2243 25.759H2.55293C2.0535 25.759 1.6472 25.3527 1.6472 24.8534V23.8253H3.64504C3.84968 23.8253 4.01548 23.6595 4.01548 23.4549C4.01548 23.2503 3.84963 23.0844 3.64504 23.0844H1.6472V13.9933H24.13V15.729H20.6075H20.6074C19.4976 15.729 18.5362 16.3759 18.0799 17.3124C18.0784 17.3155 18.0767 17.3186 18.0751 17.3217C18.0712 17.3297 18.0679 17.338 18.0641 17.346C18.0098 17.4614 17.9626 17.5809 17.9241 17.7042C17.924 17.7046 17.9239 17.7049 17.9238 17.7052C17.8418 17.9687 17.7976 18.2487 17.7976 18.5389C17.7976 20.0882 19.0581 21.3487 20.6074 21.3487H20.6074H24.1299V23.0844H6.01723C5.81258 23.0844 5.64678 23.2503 5.64678 23.4549C5.64678 23.6595 5.81263 23.8253 6.01723 23.8253H24.13V24.8534ZM25.352 20.5159C25.352 20.5666 25.3108 20.6078 25.26 20.6078H20.6075C19.8232 20.6078 19.1394 20.1691 18.7887 19.5242C18.7727 19.4949 18.7575 19.4652 18.7429 19.435C18.7138 19.3748 18.6876 19.3129 18.6644 19.2495C18.583 19.0278 18.5386 18.7884 18.5386 18.5389C18.5386 18.2893 18.583 18.0499 18.6644 17.8282C18.6876 17.7649 18.7139 17.703 18.7429 17.6427C18.7575 17.6126 18.7727 17.5828 18.7887 17.5535C19.1394 16.9086 19.8232 16.4699 20.6075 16.4699H25.26C25.3107 16.4699 25.352 16.5112 25.352 16.5618V20.5159Z" fill="#EEAD1E"/>
    <path d="M20.6945 17.0358C19.8657 17.0358 19.1914 17.7101 19.1914 18.5389C19.1914 19.3677 19.8657 20.042 20.6945 20.042C21.5234 20.042 22.1977 19.3677 22.1977 18.5389C22.1977 17.7101 21.5234 17.0358 20.6945 17.0358ZM20.6945 19.301C20.2743 19.301 19.9324 18.9591 19.9324 18.5389C19.9324 18.1187 20.2743 17.7767 20.6945 17.7767C21.1148 17.7767 21.4567 18.1186 21.4567 18.5389C21.4567 18.9592 21.1148 19.301 20.6945 19.301Z" fill="#EEAD1E"/>
  </g>
  <defs>
    <clipPath id="clip0_1100_7258">
      <rect width="26" height="26" fill="white" transform="translate(0.5 0.5)"/>
    </clipPath>
  </defs>
</svg>