<svg width="16" height="16" viewBox="0 0 16 16" fill="none" xmlns="http://www.w3.org/2000/svg">
<path d="M7.9974 0.666626C6.547 0.666626 5.12918 1.09672 3.92322 1.90252C2.71726 2.70831 1.77733 3.85362 1.22228 5.19361C0.66724 6.53361 0.522015 8.00809 0.804974 9.43062C1.08793 10.8531 1.78636 12.1598 2.81195 13.1854C3.83753 14.211 5.14421 14.9094 6.56674 15.1924C7.98926 15.4753 9.46375 15.3301 10.8037 14.7751C12.1437 14.22 13.289 13.2801 14.0948 12.0741C14.9006 10.8682 15.3307 9.45036 15.3307 7.99996C15.3284 6.05574 14.5551 4.19181 13.1803 2.81704C11.8055 1.44227 9.94162 0.66892 7.9974 0.666626ZM10.8254 9.88596C10.8891 9.94746 10.9399 10.021 10.9748 10.1024C11.0097 10.1837 11.0281 10.2712 11.0289 10.3597C11.0297 10.4482 11.0128 10.536 10.9793 10.6179C10.9458 10.6999 10.8963 10.7743 10.8337 10.8369C10.7711 10.8995 10.6966 10.949 10.6147 10.9825C10.5328 11.016 10.445 11.0329 10.3565 11.0321C10.2679 11.0314 10.1805 11.013 10.0991 10.978C10.0178 10.9431 9.94423 10.8923 9.88273 10.8286L7.9974 8.94263L6.11207 10.8286C5.98633 10.9501 5.81793 11.0173 5.64313 11.0157C5.46833 11.0142 5.30113 10.9441 5.17752 10.8205C5.05392 10.6969 4.9838 10.5297 4.98228 10.3549C4.98076 10.1801 5.04796 10.0117 5.1694 9.88596L7.05473 7.99996L5.1694 6.11396C5.10573 6.05246 5.05494 5.9789 5.02 5.89756C4.98506 5.81623 4.96667 5.72875 4.9659 5.64023C4.96513 5.55171 4.982 5.46392 5.01552 5.38199C5.04904 5.30006 5.09854 5.22562 5.16114 5.16303C5.22373 5.10043 5.29817 5.05093 5.3801 5.01741C5.46203 4.98389 5.54981 4.96702 5.63833 4.96779C5.72685 4.96856 5.81433 4.98695 5.89567 5.02189C5.97701 5.05683 6.05057 5.10762 6.11207 5.17129L7.9974 7.05729L9.88273 5.17129C9.94423 5.10762 10.0178 5.05683 10.0991 5.02189C10.1805 4.98695 10.2679 4.96856 10.3565 4.96779C10.445 4.96702 10.5328 4.98389 10.6147 5.01741C10.6966 5.05093 10.7711 5.10043 10.8337 5.16303C10.8963 5.22562 10.9458 5.30006 10.9793 5.38199C11.0128 5.46392 11.0297 5.55171 11.0289 5.64023C11.0281 5.72875 11.0097 5.81623 10.9748 5.89756C10.9399 5.9789 10.8891 6.05246 10.8254 6.11396L8.94007 7.99996L10.8254 9.88596Z" fill="#FF1414"/>
</svg>
