<svg width="24" height="24" viewBox="0 0 24 24" fill="none" xmlns="http://www.w3.org/2000/svg">
<g clip-path="url(#clip0_2522_67)">
<path d="M6.53775 17.9333C2.71584 16.7832 0 13.1865 0 9.1875C0 4.1475 4.1475 0 9.1875 0C13.1865 0 16.7832 2.71584 17.9333 6.53775C18.0963 7.07897 17.5832 7.57838 17.0523 7.41183C16.3348 7.19072 15.5809 7.07812 14.8125 7.07812C10.5478 7.07812 7.07812 10.5478 7.07812 14.8125C7.07812 15.5809 7.19072 16.3348 7.41183 17.0523C7.57772 17.5871 7.07812 18.0949 6.53775 17.9333Z" fill="#AB6E00"/>
<path d="M14.8127 24.0011C10.8136 24.0011 7.21702 21.2853 6.0669 17.4634C5.99204 17.2148 6.06071 16.9449 6.24544 16.7616C6.42807 16.5783 6.69863 16.5117 6.94787 16.5893C7.66538 16.8104 8.41932 16.923 9.1877 16.923C13.4524 16.923 16.9221 13.4534 16.9221 9.18863C16.9221 8.42026 16.8095 7.66632 16.5884 6.9488C16.5114 6.70093 16.5781 6.43036 16.7607 6.24638C16.9441 6.06235 17.216 5.99508 17.4625 6.06783C21.2844 7.21796 24.0002 10.8146 24.0002 14.8136C24.0002 19.8536 19.8527 24.0011 14.8127 24.0011Z" fill="#FFD68B"/>
<path d="M18.3281 9.1875C18.3281 8.14945 18.1649 7.14769 17.8178 6.1822C16.8523 5.83514 15.8505 5.67188 14.8125 5.67188C14.1375 5.67188 13.4766 5.74219 12.8437 5.88286L13.1142 6.97959L11.3391 6.36094C10.875 6.54375 10.4391 6.78281 10.0172 7.03589L10.6169 8.61047L8.87817 7.87969C8.51255 8.17505 8.17505 8.5125 7.8938 8.87817L8.65364 10.6861L7.03589 10.0172C6.78277 10.425 6.55781 10.875 6.36094 11.325L7.00383 13.164L5.88286 12.8437C5.74219 13.4766 5.67188 14.1375 5.67188 14.8125C5.67188 15.8505 5.83514 16.8523 6.1822 17.8178C7.14769 18.1649 8.14945 18.3281 9.1875 18.3281C9.86245 18.3281 10.5234 18.2578 11.1563 18.1171L10.7448 16.8393L12.675 17.6391C13.125 17.4422 13.575 17.2172 13.9828 16.9641L13.2368 15.2429L15.1218 16.1063C15.4875 15.825 15.825 15.4875 16.1203 15.1219L15.2296 13.1834L16.9641 13.9828C17.2172 13.5609 17.4562 13.125 17.6391 12.6609L16.8283 10.7002L18.1171 11.1563C18.2578 10.5234 18.3281 9.86245 18.3281 9.1875Z" fill="#FFB93A"/>
<path d="M9.18694 18.3295C9.86189 18.3295 10.5229 18.2592 11.1557 18.1185L10.7443 16.8407L12.6744 17.6405C13.1244 17.4436 13.5744 17.2186 13.9822 16.9655L13.2362 15.2443L15.1213 16.1076C15.4869 15.8264 15.8244 15.4889 16.1198 15.1233L15.2291 13.1848L16.9635 13.9842C17.2167 13.5623 17.4557 13.1264 17.6385 12.6623L16.8278 10.7016L18.1166 11.1577C18.2572 10.5248 18.3276 9.86384 18.3276 9.18889C18.3276 8.15084 18.1643 7.14903 17.8172 6.18359L6.18164 17.8192C7.14708 18.1663 8.14889 18.3295 9.18694 18.3295Z" fill="#E29811"/>
<path d="M12.675 17.6383C12.1828 17.8352 11.6766 18.0039 11.1563 18.1164L5.88281 12.8429C5.99527 12.3226 6.16402 11.8164 6.36089 11.3242L12.675 17.6383Z" fill="#AB6E00"/>
<path d="M15.1211 16.107C14.7695 16.4305 14.3899 16.7117 13.982 16.9648L7.03516 10.018C7.28837 9.61011 7.56953 9.23047 7.89302 8.87891L15.1211 16.107Z" fill="#AB6E00"/>
<path d="M16.9648 13.982C16.7116 14.3899 16.4305 14.7695 16.121 15.1211L8.87891 7.87895C9.23047 7.56953 9.61011 7.28837 10.018 7.03516L16.9648 13.982Z" fill="#AB6E00"/>
<path d="M18.1179 11.1563C18.0054 11.6766 17.8367 12.1828 17.6398 12.6608L11.3398 6.36089C11.8179 6.16402 12.3242 5.99527 12.8444 5.88281L18.1179 11.1563Z" fill="#AB6E00"/>
<path d="M11.1562 18.1156C11.6766 18.0031 12.1828 17.8344 12.675 17.6375L9.51792 14.4805L8.51953 15.4789L11.1562 18.1156Z" fill="#AB6E00"/>
<path d="M13.9832 16.9641C14.391 16.7109 14.7707 16.4297 15.1222 16.1063L11.5083 12.4922L10.5098 13.4906L13.9832 16.9641Z" fill="#AB6E00"/>
<path d="M16.121 15.1204C16.4305 14.7688 16.7116 14.3892 16.9648 13.9813L13.4915 10.5078L12.5 11.4993L16.121 15.1204Z" fill="#AB6E00"/>
<path d="M14.4883 9.51084L17.6383 12.6608C17.8352 12.1828 18.0039 11.6765 18.1164 11.1562L15.4796 8.51953L14.4883 9.51084Z" fill="#AB6E00"/>
</g>
<defs>
<clipPath id="clip0_2522_67">
<rect width="24" height="24" fill="white"/>
</clipPath>
</defs>
</svg>
