<svg width="68" height="68" viewBox="0 0 68 68" fill="none" xmlns="http://www.w3.org/2000/svg">
<rect x="0.5" y="0.5" width="67" height="67" rx="33.5" stroke="#D9D9D9"/>
<path d="M39.9435 18H28.0582C27.2894 18.0008 26.5523 18.3065 26.0086 18.8501C25.4649 19.3937 25.1591 20.1308 25.1582 20.8996V47.1004C25.1591 47.8692 25.4649 48.6063 26.0086 49.1499C26.5523 49.6935 27.2894 49.9992 28.0582 50H39.9435C40.7122 49.9991 41.4493 49.6934 41.9929 49.1498C42.5365 48.6062 42.8423 47.8691 42.8431 47.1004V20.8996C42.8423 20.1309 42.5365 19.3938 41.9929 18.8502C41.4493 18.3066 40.7122 18.0009 39.9435 18ZM41.8411 47.1004C41.8405 47.6035 41.6404 48.0858 41.2846 48.4416C40.9289 48.7973 40.4466 48.9974 39.9435 48.9981H28.0582C27.5551 48.9974 27.0728 48.7973 26.717 48.4416C26.3613 48.0858 26.1611 47.6035 26.1605 47.1004V20.8996C26.1611 20.3965 26.3613 19.9142 26.717 19.5584C27.0728 19.2027 27.5551 19.0025 28.0582 19.0019H39.9435C40.4466 19.0025 40.9289 19.2027 41.2846 19.5584C41.6404 19.9142 41.8405 20.3965 41.8411 20.8996V47.1004Z" fill="black"/>
<path d="M34.7469 46.8908H33.2513C33.1194 46.8923 32.9934 46.9457 32.9006 47.0395C32.8079 47.1333 32.7559 47.2599 32.7559 47.3918C32.7559 47.5237 32.8079 47.6503 32.9006 47.7441C32.9934 47.8378 33.1194 47.8913 33.2513 47.8927H34.7469C34.8788 47.8913 35.0048 47.8378 35.0975 47.7441C35.1903 47.6503 35.2423 47.5237 35.2423 47.3918C35.2423 47.2599 35.1903 47.1333 35.0975 47.0395C35.0048 46.9457 34.8788 46.8923 34.7469 46.8908Z" fill="black"/>
<path d="M30.9192 21.3784H37.0794C37.2113 21.3769 37.3372 21.3235 37.43 21.2297C37.5227 21.1359 37.5748 21.0093 37.5748 20.8774C37.5748 20.7455 37.5227 20.6189 37.43 20.5252C37.3372 20.4314 37.2113 20.3779 37.0794 20.3765H30.9192C30.7873 20.3779 30.6613 20.4314 30.5686 20.5252C30.4758 20.6189 30.4238 20.7455 30.4238 20.8774C30.4238 21.0093 30.4758 21.1359 30.5686 21.2297C30.6613 21.3235 30.7873 21.3769 30.9192 21.3784Z" fill="black"/>
<path d="M33.569 30.8861C33.5688 30.7185 33.5022 30.5578 33.3837 30.4393C33.2651 30.3208 33.1045 30.2541 32.9369 30.2539H30.8216C30.654 30.2541 30.4933 30.3208 30.3748 30.4393C30.2563 30.5578 30.1896 30.7185 30.1895 30.8861V33.0014C30.1897 33.169 30.2563 33.3297 30.3748 33.4482C30.4933 33.5667 30.654 33.6333 30.8216 33.6335H32.9369C33.1045 33.6333 33.2651 33.5666 33.3836 33.4482C33.5021 33.3297 33.5688 33.169 33.569 33.0014V30.8861ZM32.567 32.6312H31.1915V31.2562H32.567V32.6312Z" fill="black"/>
<path d="M37.8112 30.8861C37.811 30.7185 37.7444 30.5578 37.6259 30.4393C37.5073 30.3208 37.3467 30.2541 37.1791 30.254H35.0638C34.8962 30.2542 34.7355 30.3208 34.617 30.4393C34.4985 30.5578 34.4318 30.7185 34.4316 30.8861V33.0015C34.4319 33.169 34.4985 33.3297 34.617 33.4482C34.7355 33.5667 34.8962 33.6333 35.0638 33.6335H37.1791C37.3467 33.6333 37.5073 33.5667 37.6258 33.4482C37.7443 33.3297 37.811 33.169 37.8112 33.0015V30.8861ZM36.8092 32.6313H35.4336V31.2563H36.8092V32.6313Z" fill="black"/>
<path d="M36.025 36.7437H35.4336V36.5175C35.4336 36.3846 35.3809 36.2572 35.2869 36.1632C35.1929 36.0693 35.0655 36.0165 34.9326 36.0165C34.7998 36.0165 34.6723 36.0693 34.5784 36.1632C34.4844 36.2572 34.4316 36.3846 34.4316 36.5175V37.0796C34.4318 37.2562 34.5021 37.4255 34.627 37.5504C34.7518 37.6753 34.9212 37.7455 35.0978 37.7457H36.025C36.1579 37.7457 36.2853 37.6929 36.3793 37.599C36.4732 37.505 36.526 37.3776 36.526 37.2447C36.526 37.1119 36.4732 36.9844 36.3793 36.8905C36.2853 36.7965 36.1579 36.7437 36.025 36.7437Z" fill="black"/>
<path d="M32.9369 34.3665H30.8216C30.654 34.3667 30.4933 34.4334 30.3748 34.5519C30.2563 34.6704 30.1896 34.831 30.1895 34.9986V37.114C30.1897 37.2816 30.2563 37.4423 30.3748 37.5608C30.4933 37.6792 30.654 37.7459 30.8216 37.7461H32.9369C33.1045 37.7459 33.2651 37.6792 33.3836 37.5607C33.5021 37.4422 33.5688 37.2816 33.569 37.114V34.9986C33.5688 34.8311 33.5022 34.6704 33.3837 34.5519C33.2651 34.4334 33.1045 34.3667 32.9369 34.3665ZM32.567 36.7438H31.1915V35.3688H32.567V36.7438Z" fill="black"/>
<path d="M37.31 36.5572C37.4429 36.5572 37.5703 36.5045 37.6643 36.4105C37.7582 36.3165 37.811 36.1891 37.811 36.0562V35.0326C37.8108 34.856 37.7406 34.6867 37.6157 34.5618C37.4908 34.4369 37.3215 34.3667 37.1449 34.3665H34.9324C34.8661 34.3657 34.8004 34.3782 34.7389 34.403C34.6775 34.4278 34.6216 34.4646 34.5745 34.5112C34.5274 34.5578 34.49 34.6133 34.4645 34.6744C34.4389 34.7356 34.4258 34.8012 34.4258 34.8675C34.4258 34.9337 34.4389 34.9993 34.4645 35.0605C34.49 35.1216 34.5274 35.1771 34.5745 35.2237C34.6216 35.2703 34.6775 35.3071 34.7389 35.3319C34.8004 35.3568 34.8661 35.3692 34.9324 35.3684H36.8089V36.0559C36.8089 36.1217 36.8218 36.1869 36.847 36.2477C36.8722 36.3086 36.9091 36.3638 36.9556 36.4104C37.0021 36.4569 37.0574 36.4939 37.1182 36.5191C37.179 36.5443 37.2442 36.5572 37.31 36.5572Z" fill="black"/>
<path d="M30.6915 38.704H29.2969V37.2451C29.2969 37.1122 29.2441 36.9848 29.1502 36.8908C29.0562 36.7969 28.9288 36.7441 28.7959 36.7441C28.663 36.7441 28.5356 36.7969 28.4417 36.8908C28.3477 36.9848 28.2949 37.1122 28.2949 37.2451V39.0398C28.295 39.2165 28.3652 39.3859 28.4901 39.5108C28.615 39.6358 28.7844 39.7061 28.961 39.7063H30.6915C30.8244 39.7063 30.9519 39.6535 31.0458 39.5595C31.1398 39.4656 31.1925 39.3381 31.1925 39.2053C31.1925 39.0724 31.1398 38.945 31.0458 38.851C30.9519 38.7571 30.8244 38.7043 30.6915 38.7043V38.704Z" fill="black"/>
<path d="M39.2052 36.7438C39.0723 36.7438 38.9449 36.7966 38.851 36.8905C38.757 36.9845 38.7042 37.1119 38.7042 37.2448V38.7036H37.3096C37.1767 38.7036 37.0493 38.7564 36.9553 38.8504C36.8614 38.9443 36.8086 39.0718 36.8086 39.2046C36.8086 39.3375 36.8614 39.465 36.9553 39.5589C37.0493 39.6529 37.1767 39.7057 37.3096 39.7057H39.0401C39.2167 39.7055 39.386 39.6354 39.511 39.5105C39.6359 39.3857 39.7062 39.2164 39.7065 39.0398V37.2451C39.7066 37.1792 39.6936 37.114 39.6684 37.0532C39.6433 36.9924 39.6063 36.9371 39.5598 36.8905C39.5132 36.844 39.4579 36.807 39.3971 36.7819C39.3363 36.7567 39.2711 36.7437 39.2052 36.7438Z" fill="black"/>
<path d="M39.0398 28.2941H37.3093C37.2431 28.2933 37.1773 28.3057 37.1159 28.3306C37.0545 28.3554 36.9986 28.3922 36.9515 28.4388C36.9043 28.4854 36.8669 28.5409 36.8414 28.602C36.8159 28.6632 36.8027 28.7288 36.8027 28.795C36.8027 28.8613 36.8159 28.9269 36.8414 28.9881C36.8669 29.0492 36.9043 29.1047 36.9515 29.1513C36.9986 29.1979 37.0545 29.2346 37.1159 29.2595C37.1773 29.2843 37.2431 29.2967 37.3093 29.296H38.704V30.7549C38.704 30.8878 38.7567 31.0152 38.8507 31.1092C38.9447 31.2032 39.0721 31.2559 39.205 31.2559C39.3378 31.2559 39.4653 31.2032 39.5592 31.1092C39.6532 31.0152 39.706 30.8878 39.706 30.7549V28.9602C39.7058 28.7836 39.6355 28.6143 39.5106 28.4894C39.3858 28.3645 39.2164 28.2943 39.0398 28.2941Z" fill="black"/>
<path d="M28.7959 31.2562C28.9288 31.2562 29.0562 31.2034 29.1502 31.1095C29.2441 31.0155 29.2969 30.8881 29.2969 30.7552V29.296H30.6915C30.7578 29.2967 30.8236 29.2843 30.885 29.2595C30.9464 29.2346 31.0023 29.1978 31.0494 29.1512C31.0965 29.1046 31.1339 29.0492 31.1595 28.988C31.185 28.9269 31.1981 28.8613 31.1981 28.795C31.1981 28.7287 31.185 28.6631 31.1595 28.602C31.1339 28.5408 31.0965 28.4854 31.0494 28.4388C31.0023 28.3922 30.9464 28.3554 30.885 28.3306C30.8236 28.3057 30.7578 28.2933 30.6915 28.294H28.961C28.7844 28.2942 28.6151 28.3645 28.4902 28.4894C28.3654 28.6142 28.2951 28.7836 28.2949 28.9602V30.7549C28.2949 30.8207 28.3078 30.8859 28.333 30.9467C28.3581 31.0075 28.395 31.0628 28.4416 31.1094C28.4881 31.1559 28.5433 31.1928 28.6041 31.218C28.6649 31.2432 28.7301 31.2562 28.7959 31.2562Z" fill="black"/>
<path d="M11.2195 56.7812C10.5234 57.4773 10.5204 58.6098 11.252 59.2685C14.1217 61.852 17.414 63.9309 20.9895 65.4119C25.1146 67.1206 29.5358 68 34.0007 68C38.4657 68 42.8869 67.1206 47.012 65.4119C50.5874 63.9309 53.8797 61.852 56.7495 59.2685C57.4811 58.6098 57.478 57.4773 56.7819 56.7812C56.0858 56.0851 54.9605 56.0894 54.2249 56.7436C51.689 58.9986 48.7906 60.8164 45.6477 62.1183C41.9551 63.6478 37.9975 64.435 34.0007 64.435C30.0039 64.435 26.0463 63.6478 22.3538 62.1183C19.2109 60.8164 16.3125 58.9986 13.7766 56.7436C13.0409 56.0894 11.9156 56.0851 11.2195 56.7812Z" fill="url(#paint0_linear_1091_6793)"/>
<defs>
<linearGradient id="paint0_linear_1091_6793" x1="-14.0825" y1="34" x2="34.0007" y2="-14.0833" gradientUnits="userSpaceOnUse">
<stop stop-color="white"/>
<stop offset="0.475962" stop-color="#F9D58C"/>
<stop offset="1" stop-color="#F9D58C"/>
</linearGradient>
</defs>
</svg>
