<svg width="25" height="24" viewBox="0 0 25 24" fill="none" xmlns="http://www.w3.org/2000/svg">
<g clip-path="url(#clip0_2117_110)">
<path d="M11.4921 14.805C12.4973 14.1358 13.2605 13.1609 13.6687 12.0244C14.077 10.888 14.1087 9.65027 13.7591 8.4944C13.4095 7.33853 12.6973 6.32584 11.7276 5.60608C10.758 4.88632 9.5825 4.49771 8.37492 4.49771C7.16735 4.49771 5.99184 4.88632 5.02221 5.60608C4.05258 6.32584 3.34032 7.33853 2.99076 8.4944C2.6412 9.65027 2.67288 10.888 3.08114 12.0244C3.4894 13.1609 4.25255 14.1358 5.25774 14.805C3.43945 15.4752 1.88659 16.7153 0.830862 18.3403C0.775377 18.4228 0.736837 18.5154 0.717482 18.6129C0.698127 18.7104 0.698344 18.8108 0.718119 18.9082C0.737895 19.0056 0.776835 19.0981 0.832676 19.1803C0.888516 19.2626 0.960144 19.3329 1.0434 19.3872C1.12665 19.4415 1.21986 19.4787 1.31762 19.4966C1.41538 19.5146 1.51573 19.5129 1.61285 19.4918C1.70996 19.4706 1.8019 19.4304 1.88332 19.3733C1.96473 19.3163 2.03401 19.2437 2.08711 19.1597C2.7681 18.1123 3.69995 17.2516 4.79802 16.6558C5.8961 16.06 7.12562 15.7479 8.37492 15.7479C9.62423 15.7479 10.8538 16.06 11.9518 16.6558C13.0499 17.2516 13.9817 18.1123 14.6627 19.1597C14.7727 19.3232 14.9427 19.4368 15.1358 19.476C15.3289 19.5152 15.5297 19.4768 15.6947 19.3692C15.8598 19.2615 15.9758 19.0933 16.0178 18.9007C16.0598 18.7082 16.0243 18.5069 15.919 18.3403C14.8633 16.7153 13.3104 15.4752 11.4921 14.805ZM4.24992 10.125C4.24992 9.30915 4.49185 8.51162 4.94511 7.83327C5.39837 7.15491 6.04261 6.6262 6.79636 6.31399C7.5501 6.00178 8.3795 5.92009 9.17967 6.07925C9.97984 6.23842 10.7148 6.63129 11.2917 7.20818C11.8686 7.78507 12.2615 8.52007 12.4207 9.32025C12.5798 10.1204 12.4981 10.9498 12.1859 11.7036C11.8737 12.4573 11.345 13.1015 10.6667 13.5548C9.9883 14.0081 9.19077 14.25 8.37492 14.25C7.28129 14.2488 6.2328 13.8138 5.45948 13.0404C4.68616 12.2671 4.25117 11.2186 4.24992 10.125ZM23.9506 19.3781C23.784 19.4868 23.581 19.5248 23.3864 19.4838C23.1918 19.4428 23.0214 19.3263 22.9127 19.1597C22.2326 18.1117 21.3008 17.2506 20.2025 16.655C19.1042 16.0595 17.8743 15.7483 16.6249 15.75C16.426 15.75 16.2352 15.671 16.0946 15.5303C15.9539 15.3897 15.8749 15.1989 15.8749 15C15.8749 14.8011 15.9539 14.6103 16.0946 14.4697C16.2352 14.329 16.426 14.25 16.6249 14.25C17.2324 14.2494 17.8322 14.1147 18.3816 13.8554C18.931 13.5961 19.4163 13.2187 19.8029 12.7502C20.1895 12.2816 20.4678 11.7334 20.618 11.1448C20.7682 10.5562 20.7865 9.94165 20.6716 9.34513C20.5568 8.74862 20.3116 8.18483 19.9536 7.69405C19.5956 7.20328 19.1337 6.79763 18.6007 6.50609C18.0678 6.21455 17.477 6.04432 16.8707 6.00756C16.2643 5.97079 15.6573 6.06841 15.0931 6.29343C15.001 6.3332 14.902 6.35413 14.8018 6.35498C14.7016 6.35582 14.6022 6.33657 14.5095 6.29836C14.4169 6.26015 14.3328 6.20376 14.2623 6.13251C14.1918 6.06126 14.1363 5.97661 14.0991 5.88355C14.0619 5.79049 14.0437 5.69091 14.0456 5.5907C14.0475 5.49049 14.0695 5.39168 14.1102 5.3001C14.151 5.20853 14.2097 5.12606 14.2828 5.05755C14.356 4.98904 14.4421 4.93589 14.5362 4.90124C15.8275 4.38623 17.2639 4.3677 18.5681 4.84922C19.8723 5.33074 20.952 6.2782 21.5989 7.50882C22.2458 8.73944 22.414 10.166 22.0711 11.5134C21.7283 12.8607 20.8986 14.0333 19.7421 14.805C21.5604 15.4752 23.1133 16.7153 24.169 18.3403C24.2776 18.5069 24.3156 18.7098 24.2747 18.9044C24.2337 19.0991 24.1171 19.2694 23.9506 19.3781Z" fill="black"/>
</g>
<defs>
<clipPath id="clip0_2117_110">
<rect width="24" height="24" fill="white" transform="translate(0.5)"/>
</clipPath>
</defs>
</svg>
