<svg width="14" height="15" viewBox="0 0 14 15" fill="none" xmlns="http://www.w3.org/2000/svg">
<path d="M12.5 0H9.375C9.04348 0 8.72554 0.131696 8.49112 0.366116C8.2567 0.600537 8.125 0.918479 8.125 1.25V13.75C8.125 14.0815 8.2567 14.3995 8.49112 14.6339C8.72554 14.8683 9.04348 15 9.375 15H12.5C12.8315 15 13.1495 14.8683 13.3839 14.6339C13.6183 14.3995 13.75 14.0815 13.75 13.75V1.25C13.75 0.918479 13.6183 0.600537 13.3839 0.366116C13.1495 0.131696 12.8315 0 12.5 0ZM12.5 13.75H9.375V1.25H12.5V13.75ZM4.375 0H1.25C0.918479 0 0.600537 0.131696 0.366116 0.366116C0.131696 0.600537 0 0.918479 0 1.25V13.75C0 14.0815 0.131696 14.3995 0.366116 14.6339C0.600537 14.8683 0.918479 15 1.25 15H4.375C4.70652 15 5.02446 14.8683 5.25888 14.6339C5.4933 14.3995 5.625 14.0815 5.625 13.75V1.25C5.625 0.918479 5.4933 0.600537 5.25888 0.366116C5.02446 0.131696 4.70652 0 4.375 0ZM4.375 13.75H1.25V1.25H4.375V13.75Z" fill="black"/>
</svg>
