<svg width="15" height="14" viewBox="0 0 15 14" fill="none" xmlns="http://www.w3.org/2000/svg">
<path fill-rule="evenodd" clip-rule="evenodd" d="M7.75399 0.0039978C11.6194 0.0039978 14.7541 3.13872 14.7541 7.00408C14.7541 10.8694 11.6194 14.0042 7.75399 14.0042C3.88863 14.0042 0.753906 10.8694 0.753906 7.00408C0.753906 3.13872 3.88863 0.0039978 7.75399 0.0039978ZM6.30034 9.27776L4.58654 7.56255C4.29457 7.27041 4.29451 6.794 4.58654 6.50192C4.87864 6.20989 5.35716 6.21172 5.64712 6.50192L6.85534 7.71108L9.86097 4.70545C10.1531 4.41336 10.6295 4.41336 10.9215 4.70545C11.2136 4.99748 11.2132 5.47435 10.9215 5.76603L7.38477 9.30281C7.0931 9.59448 6.61622 9.5949 6.32419 9.30281C6.31599 9.2946 6.30807 9.28627 6.30034 9.27776Z" fill="#00BA00"/>
</svg>
