<svg width="87" height="89" viewBox="0 0 87 89" fill="none" xmlns="http://www.w3.org/2000/svg">
<g opacity="0.15">
<path d="M43.6705 88.5307C38.9833 88.5307 34.5812 86.6528 31.269 83.2384C24.4289 76.1874 24.4289 64.7216 31.269 57.6706L35.8983 52.9024L35.3437 52.3307L30.7144 57.0989C27.4022 60.5132 22.9961 62.3911 18.3128 62.3911C13.6295 62.3911 9.22353 60.5132 5.91132 57.0989C-0.928773 50.0478 -0.928773 38.582 5.91132 31.531C9.22353 28.1167 13.6295 26.2388 18.3128 26.2388C22.9961 26.2388 27.4022 28.1127 30.7144 31.531L35.3437 36.2992L35.8983 35.7275L31.269 30.9553C24.4289 23.9043 24.4289 12.4385 31.269 5.38748C34.585 1.97314 38.991 0.0952759 43.6705 0.0952759C48.3499 0.0952759 52.7598 1.97314 56.072 5.38748C62.9121 12.4385 62.9121 23.9043 56.072 30.9553L51.4426 35.7235L51.9972 36.2952L56.6266 31.527C59.9388 28.1127 64.3448 26.2348 69.0281 26.2348C73.7114 26.2348 78.1174 28.1127 81.4297 31.527C84.7419 34.9414 86.5636 39.4793 86.5636 44.311C86.5636 49.1427 84.7419 53.6805 81.4297 57.0949C78.1174 60.5092 73.7114 62.3871 69.0281 62.3871C64.3448 62.3871 59.9388 60.5092 56.6266 57.0949L51.9972 52.3267L51.4426 52.8984L56.072 57.6666C62.9121 64.7176 62.9121 76.1834 56.072 83.2344C52.7598 86.6488 48.3538 88.5267 43.6705 88.5267V88.5307ZM50.3296 34.5801L54.9589 29.8119C61.1867 23.3922 61.1867 12.9506 54.9589 6.53089C51.9433 3.42226 47.934 1.71111 43.6705 1.71111C39.407 1.71111 35.4015 3.42623 32.3859 6.53487C26.1582 12.9507 26.1582 23.3962 32.3859 29.8159L37.0153 34.5841L38.1283 33.4367L33.4989 28.6685C27.8874 22.884 27.8874 13.4668 33.4989 7.68225C36.3066 4.788 39.9924 3.33889 43.682 3.33889C47.3717 3.33889 51.0575 4.788 53.8651 7.68225C59.4766 13.4668 59.4766 22.884 53.8651 28.6685L49.2319 33.4367L50.345 34.5841H50.3373L50.3296 34.5801ZM48.1111 32.2853L52.7405 27.5172C55.1631 25.0199 56.4995 21.7009 56.4995 18.1674C56.4995 14.634 55.1631 11.3149 52.7405 8.81771C50.241 6.24108 46.9557 4.95078 43.6705 4.95078C40.3852 4.95078 37.1 6.24108 34.6004 8.81771C29.6013 13.971 29.6013 22.3639 34.6004 27.5172L39.2337 32.2893L40.3467 31.1419L35.7173 26.3738C31.3267 21.8478 31.3267 14.4911 35.7173 9.96509C37.8433 7.77356 40.6664 6.56664 43.6782 6.56664C46.69 6.56664 49.5131 7.77356 51.639 9.96509C56.0296 14.4911 56.0296 21.8478 51.639 26.3738L47.0096 31.1419L48.1227 32.2893H48.1189L48.1111 32.2853ZM45.8927 29.9985L50.526 25.2343C52.3515 23.3525 53.3568 20.8433 53.3568 18.1754C53.3568 15.5074 52.3515 12.9983 50.526 11.1164C48.7004 9.23854 46.2625 8.19042 43.6743 8.19042C41.0862 8.19042 38.656 9.2306 36.8265 11.1164C33.0483 15.0112 33.0483 21.3436 36.8265 25.2383L41.4559 30.0065L42.569 28.8591L37.9396 24.087C36.4067 22.5068 35.5671 20.4106 35.5671 18.1714C35.5671 15.9322 36.4106 13.832 37.9396 12.2559C39.4724 10.6797 41.5098 9.80628 43.6782 9.80628C45.8465 9.80628 47.8839 10.6758 49.4168 12.2559C50.9535 13.84 51.7892 15.9322 51.7892 18.1714C51.7892 20.4106 50.9458 22.5108 49.4168 24.087L44.7835 28.8551L45.8966 30.0025L45.8927 29.9985ZM43.6705 27.7117L48.2999 22.9436C49.5323 21.6691 50.2102 19.9778 50.2102 18.1754C50.2102 16.3729 49.5285 14.6777 48.2999 13.4072C47.0674 12.1328 45.419 11.4341 43.6705 11.4341C41.9219 11.4341 40.2774 12.1368 39.0411 13.4072C37.8048 14.6777 37.1308 16.3729 37.1308 18.1754C37.1308 19.9778 37.8125 21.6731 39.0411 22.9436L43.6705 27.7117ZM69.0281 60.7713C73.2955 60.7713 77.301 59.0601 80.3166 55.9515C83.3322 52.8429 84.996 48.706 84.996 44.315C84.996 39.924 83.3399 35.7831 80.3204 32.6744C77.3048 29.5658 73.2916 27.8586 69.032 27.8586C64.7723 27.8586 60.7592 29.5697 57.7435 32.6784L53.1103 37.4426L54.2233 38.59L58.8527 33.8218C61.6604 30.9275 65.3462 29.4824 69.0358 29.4824C72.7255 29.4824 76.4113 30.9315 79.2189 33.8218C84.8304 39.6063 84.8304 49.0236 79.2189 54.8081C76.4113 57.7023 72.7255 59.1475 69.0358 59.1475C65.3462 59.1475 61.6604 57.6984 58.8527 54.8081L54.2233 50.0399L53.1103 51.1873L57.7397 55.9554C60.7553 59.0641 64.7646 60.7752 69.0281 60.7752V60.7713ZM18.3128 60.7713C22.5802 60.7713 26.5857 59.0601 29.6013 55.9515L34.2307 51.1833L33.1176 50.0359L28.4883 54.8041C25.7692 57.607 22.1527 59.1514 18.309 59.1514C14.4653 59.1514 10.845 57.607 8.12588 54.8041C2.51438 49.0196 2.51438 39.6024 8.12588 33.8178C10.845 31.0149 14.4614 29.4705 18.309 29.4705C22.1565 29.4705 25.773 31.0149 28.4883 33.8178L33.1215 38.586L34.2345 37.4386L29.6013 32.6705C26.5857 29.5618 22.5725 27.8507 18.3128 27.8507C14.0532 27.8507 10.04 29.5618 7.02437 32.6705C0.796654 39.0862 0.800506 49.5317 7.02437 55.9475C10.04 59.0562 14.0493 60.7673 18.3128 60.7673V60.7713ZM43.6705 32.2893L44.7835 31.1419L43.6705 29.9946L42.5574 31.1419L43.6705 32.2893ZM18.3128 57.5316C21.7406 57.5316 24.9604 56.154 27.3829 53.6567L32.0123 48.8886L30.8992 47.7412L26.2698 52.5093C24.1439 54.7009 21.3169 55.9078 18.309 55.9078C15.301 55.9078 12.478 54.7009 10.3481 52.5093C8.22216 50.3178 7.05519 47.4077 7.05519 44.307C7.05519 41.2063 8.22601 38.2922 10.3481 36.1046C12.4703 33.9171 15.2972 32.7062 18.309 32.7062C21.3208 32.7062 24.14 33.9131 26.2698 36.1046L30.8992 40.8728L32.0123 39.7254L27.3829 34.9612C24.9604 32.464 21.7406 31.0864 18.3128 31.0864C14.8851 31.0864 11.6653 32.464 9.24279 34.9612C4.24367 40.1145 4.24367 48.5074 9.24279 53.6607C11.6653 56.1579 14.8851 57.5356 18.3128 57.5356V57.5316ZM69.0281 57.5237C72.3134 57.5237 75.5986 56.2334 78.0982 53.6567C83.0973 48.5035 83.0973 40.1105 78.0982 34.9573C75.5986 32.3806 72.3134 31.0903 69.0281 31.0903C65.7429 31.0903 62.4576 32.3806 59.9581 34.9573L55.3325 39.7294L56.4456 40.8768L61.075 36.1086C63.2009 33.9171 66.0279 32.7101 69.0358 32.7101C72.0438 32.7101 74.8668 33.9171 76.9967 36.1086C79.1226 38.3001 80.2935 41.2142 80.2935 44.311C80.2935 47.4077 79.1226 50.3218 76.9967 52.5133C74.8707 54.7049 72.0438 55.9118 69.0358 55.9118C66.0279 55.9118 63.2009 54.7049 61.075 52.5133L56.4456 47.7451L55.3325 48.8925L59.9619 53.6607C62.4615 56.2373 65.7467 57.5276 69.032 57.5276L69.0281 57.5237ZM45.8927 34.5801L47.0058 33.4327L45.8927 32.2853L44.7797 33.4327L45.8927 34.5801ZM41.4482 34.5801L42.5613 33.4327L41.4482 32.2853L40.3352 33.4327L41.4482 34.5801ZM69.0281 54.2919C71.6163 54.2919 74.0465 53.2518 75.8759 51.3659C77.7015 49.4801 78.7106 46.971 78.7106 44.307C78.7106 41.643 77.7015 39.1339 75.8721 37.248C74.0427 35.3662 71.6086 34.322 69.0243 34.322C66.44 34.322 64.0059 35.3622 62.1765 37.248L57.5471 42.0162L58.6601 43.1636L63.2934 38.3954C64.8301 36.8153 66.8636 35.9458 69.032 35.9458C71.2003 35.9458 73.2377 36.8153 74.7706 38.3954C76.3073 39.9795 77.1469 42.0758 77.1469 44.311C77.1469 46.5462 76.2996 48.6464 74.7706 50.2265C73.2377 51.8106 71.2003 52.6761 69.032 52.6761C66.8636 52.6761 64.8262 51.8066 63.2934 50.2265L58.664 45.4544L57.5509 46.6017L62.1803 51.3699C64.0097 53.2557 66.4438 54.2959 69.032 54.2959L69.0281 54.2919ZM18.3128 54.2919C20.8971 54.2919 23.3312 53.2518 25.1606 51.3699L29.79 46.6017L28.677 45.4544L24.0476 50.2225C22.5147 51.7987 20.4773 52.6721 18.309 52.6721C16.1407 52.6721 14.1033 51.8027 12.5704 50.2225C11.0337 48.6384 10.1979 46.5462 10.1979 44.307C10.1979 42.0678 11.0414 39.9676 12.5704 38.3914C14.1033 36.8153 16.1407 35.9419 18.309 35.9419C20.4773 35.9419 22.5186 36.8153 24.0514 38.3954L28.6808 43.1636L29.7939 42.0162L25.1645 37.248C23.3351 35.3662 20.901 34.322 18.3167 34.322C15.7324 34.322 13.2983 35.3622 11.4689 37.248C9.64333 39.1339 8.63811 41.6391 8.63811 44.311C8.63811 46.9829 9.64333 49.4881 11.4689 51.3699C13.2945 53.2478 15.7324 54.2959 18.3167 54.2959L18.3128 54.2919ZM48.1111 36.8748L49.2242 35.7275L48.1111 34.5801L46.9981 35.7275L48.1111 36.8748ZM43.6666 36.8748L44.7797 35.7275L43.6666 34.5801L42.5536 35.7275L43.6666 36.8748ZM39.226 36.8748L40.339 35.7275L39.226 34.5801L38.1129 35.7275L39.226 36.8748ZM37.5583 38.59L38.1129 38.0183L36.9999 36.8709L36.4453 37.4426L37.5583 38.59ZM49.775 38.59L50.888 37.4426L50.3334 36.8709L49.2203 38.0183L49.775 38.59ZM45.8927 39.1617L47.0058 38.0143L45.8927 36.8669L44.7797 38.0143L45.8927 39.1617ZM41.4482 39.1617L42.5613 38.0143L41.4482 36.8669L40.3352 38.0143L41.4482 39.1617ZM69.0281 51.0603C70.7728 51.0603 72.4212 50.3575 73.6575 49.0871C74.8938 47.8126 75.5717 46.1174 75.5717 44.3189C75.5717 42.5204 74.89 40.8212 73.6575 39.5508C72.4212 38.2763 70.7767 37.5776 69.0281 37.5776C67.2796 37.5776 65.635 38.2803 64.3987 39.5508L59.7694 44.3189L64.3987 49.0871C65.635 50.3615 67.2796 51.0603 69.0281 51.0603ZM18.3128 51.0603C20.0575 51.0603 21.7059 50.3575 22.9422 49.0871L27.5716 44.3189L22.9422 39.5508C21.7059 38.2763 20.0652 37.5776 18.3128 37.5776C16.5604 37.5776 14.9198 38.2803 13.6835 39.5508C12.4472 40.8212 11.7732 42.5164 11.7732 44.3189C11.7732 46.1214 12.451 47.8166 13.6835 49.0871C14.9198 50.3615 16.5604 51.0603 18.3128 51.0603ZM52.0088 40.8887L53.1218 39.7413L52.0088 38.5939L50.8957 39.7413L52.0088 40.8887ZM35.3476 40.8887L36.4606 39.7413L35.3476 38.5939L34.2345 39.7413L35.3476 40.8887ZM47.5643 40.8887L48.6773 39.7413L48.1227 39.1696L47.0096 40.317L47.5643 40.8887ZM43.6782 41.4604L44.7912 40.313L43.6782 39.1656L42.5651 40.313L43.6782 41.4604ZM39.796 40.8887L40.3506 40.317L39.2375 39.1696L38.6829 39.7413L39.796 40.8887ZM54.231 43.1755L55.3441 42.0281L54.231 40.8807L53.118 42.0281L54.231 43.1755ZM49.7865 43.1755L50.8996 42.0281L49.7865 40.8807L48.6735 42.0281L49.7865 43.1755ZM37.5699 43.1755L38.6829 42.0281L37.5699 40.8807L36.4568 42.0281L37.5699 43.1755ZM33.1292 43.1755L34.2422 42.0281L33.1292 40.8807L32.0161 42.0281L33.1292 43.1755ZM45.3458 43.1755L46.4589 42.0281L45.9043 41.4564L44.7912 42.6038L45.3458 43.1755ZM42.0144 43.1755L42.569 42.6038L41.4559 41.4564L40.9013 42.0281L42.0144 43.1755ZM56.4494 45.4623L57.5625 44.315L56.4494 43.1676L55.3364 44.315L56.4494 45.4623ZM52.0088 45.4623L53.1218 44.315L52.0088 43.1676L50.8957 44.315L52.0088 45.4623ZM47.5643 45.4623L48.6773 44.315L47.5643 43.1676L46.4512 44.315L47.5643 45.4623ZM39.7921 45.4623L40.9052 44.315L39.7921 43.1676L38.6791 44.315L39.7921 45.4623ZM35.3476 45.4623L36.4606 44.315L35.3476 43.1676L34.2345 44.315L35.3476 45.4623ZM30.9031 45.4623L32.0161 44.315L30.9031 43.1676L29.79 44.315L30.9031 45.4623ZM43.6743 44.8866L44.2289 44.315L43.6743 43.7432L43.1197 44.315L43.6743 44.8866ZM54.2272 47.7531L55.3402 46.6057L54.2272 45.4583L53.1141 46.6057L54.2272 47.7531ZM49.7827 47.7531L50.8957 46.6057L49.7827 45.4583L48.6696 46.6057L49.7827 47.7531ZM45.8966 47.1774L46.4512 46.6057L45.3381 45.4583L44.7835 46.03L45.8966 47.1774ZM41.4521 47.1774L42.5651 46.03L42.0105 45.4583L40.8975 46.6057L41.4521 47.1774ZM37.566 47.7531L38.6791 46.6057L37.566 45.4583L36.4529 46.6057L37.566 47.7531ZM33.1253 47.7531L34.2384 46.6057L33.1253 45.4583L32.0123 46.6057L33.1253 47.7531ZM43.6743 49.4682L44.7874 48.3208L43.6743 47.1734L42.5613 48.3208L43.6743 49.4682ZM52.0049 50.0399L53.118 48.8925L52.0049 47.7451L50.8919 48.8925L52.0049 50.0399ZM48.1189 49.4682L48.6735 48.8965L47.5604 47.7491L47.0058 48.3208L48.1189 49.4682ZM35.3476 50.0399L36.4606 48.8925L35.3476 47.7451L34.2345 48.8925L35.3476 50.0399ZM39.2337 49.4682L40.3467 48.3208L39.7921 47.7491L38.6791 48.8965L39.2337 49.4682ZM45.8966 51.755L47.0096 50.6076L45.8966 49.4603L44.7835 50.6076L45.8966 51.755ZM41.4521 51.755L42.5651 50.6076L41.4521 49.4603L40.339 50.6076L41.4521 51.755ZM50.3373 51.755L50.8919 51.1833L49.7788 50.0359L49.2242 50.6076L50.3373 51.755ZM37.0114 51.755L38.1245 50.6076L37.5699 50.0359L36.4568 51.1833L37.0114 51.755ZM48.1189 54.0458L49.2319 52.8984L48.1189 51.7511L47.0058 52.8984L48.1189 54.0458ZM43.6743 54.0458L44.7874 52.8984L43.6743 51.7511L42.5613 52.8984L43.6743 54.0458ZM39.2337 54.0458L40.3467 52.8984L39.2337 51.7511L38.1206 52.8984L39.2337 54.0458ZM43.6743 86.9108C47.9417 86.9108 51.9471 85.1997 54.9628 82.091C61.1867 75.6713 61.1867 65.2298 54.9628 58.814L50.3334 54.0458L49.2203 55.1932L53.8497 59.9613C56.5688 62.7643 58.067 66.4923 58.067 70.4585C58.067 74.4247 56.5688 78.1526 53.8497 80.9516C51.0421 83.8458 47.3563 85.291 43.6666 85.291C39.977 85.291 36.295 83.8419 33.4874 80.9476C27.8759 75.1631 27.8759 65.7459 33.4874 59.9613L38.1168 55.1932L37.0037 54.0458L32.3743 58.814C26.1504 65.2337 26.1504 75.6752 32.3743 82.091C35.39 85.1997 39.3993 86.9108 43.6628 86.9108H43.6743ZM45.8966 56.3326L47.0096 55.1852L45.8966 54.0379L44.7835 55.1852L45.8966 56.3326ZM41.4521 56.3326L42.5651 55.1852L41.4521 54.0379L40.339 55.1852L41.4521 56.3326ZM43.6705 83.6672C46.9557 83.6672 50.241 82.3769 52.7405 79.8002C55.1631 77.303 56.4995 73.984 56.4995 70.4505C56.4995 66.9171 55.1631 63.598 52.7405 61.1008L48.1111 56.3326L46.9981 57.48L51.6275 62.2482C53.7496 64.4357 54.9204 67.3498 54.9204 70.4505C54.9204 73.5512 53.7496 76.4653 51.6275 78.6529C49.5054 80.8404 46.6784 82.0513 43.6666 82.0513C40.6548 82.0513 37.8356 80.8444 35.7058 78.6529C33.5798 76.4613 32.4128 73.5512 32.4128 70.4505C32.4128 67.3498 33.5837 64.4357 35.7058 62.2482L40.3352 57.48L39.2221 56.3326L34.5927 61.1008C29.5936 66.2541 29.5936 74.647 34.5927 79.8002C37.0923 82.3769 40.3775 83.6672 43.6628 83.6672H43.6705ZM43.6705 58.6234L44.7835 57.476L43.6705 56.3286L42.5574 57.476L43.6705 58.6234ZM43.6705 80.4355C46.2586 80.4355 48.6889 79.3953 50.5221 77.5134C52.3515 75.6316 53.3529 73.1224 53.3529 70.4545C53.3529 67.7865 52.3477 65.2774 50.5221 63.3955L45.8927 58.6194L44.7797 59.7668L49.4091 64.535C50.9419 66.1151 51.7815 68.2113 51.7815 70.4505C51.7815 72.6897 50.9381 74.7899 49.4091 76.3661C47.8762 77.9462 45.8388 78.8156 43.6705 78.8156C41.5021 78.8156 39.4647 77.9462 37.9319 76.3661C36.399 74.7899 35.5594 72.6897 35.5594 70.4505C35.5594 68.2113 36.4029 66.1111 37.9319 64.535L42.5613 59.7668L41.4482 58.6194L36.8188 63.3876C34.9933 65.2695 33.9881 67.7786 33.9881 70.4465C33.9881 73.1145 34.9971 75.6236 36.8188 77.5055C38.6406 79.3834 41.0823 80.4275 43.6666 80.4275V80.4355H43.6705ZM43.6705 77.1958C45.419 77.1958 47.0636 76.4931 48.2999 75.2227C49.5362 73.9482 50.2102 72.2569 50.2102 70.4545C50.2102 68.652 49.5285 66.9568 48.2999 65.6863L43.6705 60.9181L39.0411 65.6863C37.8086 66.9607 37.1308 68.652 37.1308 70.4545C37.1308 72.2569 37.8125 73.9522 39.0411 75.2227C40.2735 76.4971 41.9181 77.1958 43.6705 77.1958Z" fill="url(#paint0_linear_1458_22133)"/>
</g>
<defs>
<linearGradient id="paint0_linear_1458_22133" x1="-8.23485" y1="-4.04184" x2="156.173" y2="133.966" gradientUnits="userSpaceOnUse">
<stop stop-color="#F8E78B"/>
<stop offset="0.14" stop-color="#F8E78B"/>
<stop offset="0.3" stop-color="#AB7C34"/>
<stop offset="0.5" stop-color="#E7BA65"/>
<stop offset="0.73" stop-color="#AB7C34"/>
<stop offset="0.8" stop-color="#BB9A51"/>
<stop offset="0.83" stop-color="#F7E68A"/>
<stop offset="0.88" stop-color="#AB7C34"/>
<stop offset="0.91" stop-color="#8A530F"/>
<stop offset="0.94" stop-color="#814210"/>
<stop offset="1" stop-color="#140600"/>
</linearGradient>
</defs>
</svg>
