<svg width="21" height="22" viewBox="0 0 21 22" fill="none" xmlns="http://www.w3.org/2000/svg">
<path d="M10.6735 21.83C9.56213 21.83 8.51832 21.3793 7.73295 20.5598C6.11107 18.8676 6.11107 16.1158 7.73295 14.4235L8.83064 13.2792L8.69914 13.142L7.60145 14.2863C6.81608 15.1058 5.77135 15.5565 4.66088 15.5565C3.55041 15.5565 2.50568 15.1058 1.72031 14.2863C0.0984369 12.5941 0.0984369 9.84229 1.72031 8.15005C2.50568 7.33061 3.55041 6.87991 4.66088 6.87991C5.77135 6.87991 6.81608 7.32965 7.60145 8.15005L8.69914 9.29441L8.83064 9.1572L7.73295 8.01189C6.11107 6.31964 6.11107 3.56784 7.73295 1.8756C8.51923 1.05616 9.56396 0.605469 10.6735 0.605469C11.7831 0.605469 12.8287 1.05616 13.6141 1.8756C15.236 3.56784 15.236 6.31964 13.6141 8.01189L12.5164 9.15625L12.6479 9.29345L13.7456 8.14909C14.531 7.32965 15.5757 6.87896 16.6862 6.87896C17.7966 6.87896 18.8414 7.32965 19.6267 8.14909C20.4121 8.96854 20.844 10.0576 20.844 11.2172C20.844 12.3768 20.4121 13.4659 19.6267 14.2854C18.8414 15.1048 17.7966 15.5555 16.6862 15.5555C15.5757 15.5555 14.531 15.1048 13.7456 14.2854L12.6479 13.141L12.5164 13.2782L13.6141 14.4226C15.236 16.1148 15.236 18.8666 13.6141 20.5589C12.8287 21.3783 11.784 21.829 10.6735 21.829V21.83ZM12.2525 8.88183L13.3502 7.73747C14.8268 6.19673 14.8268 3.69076 13.3502 2.15002C12.6351 1.40394 11.6845 0.993269 10.6735 0.993269C9.66258 0.993269 8.71284 1.4049 7.99779 2.15097C6.52111 3.69076 6.52111 6.19768 7.99779 7.73842L9.09547 8.88278L9.3594 8.60741L8.2617 7.46305C6.93114 6.07476 6.93114 3.81463 8.2617 2.42634C8.92744 1.73172 9.80139 1.38394 10.6763 1.38394C11.5511 1.38394 12.4251 1.73172 13.0908 2.42634C14.4214 3.81463 14.4214 6.07476 13.0908 7.46305L11.9922 8.60741L12.2561 8.88278H12.2543L12.2525 8.88183ZM11.7265 8.33108L12.8242 7.18672C13.3986 6.58739 13.7155 5.79081 13.7155 4.94279C13.7155 4.09476 13.3986 3.29819 12.8242 2.69885C12.2315 2.08046 11.4525 1.77079 10.6735 1.77079C9.89454 1.77079 9.11557 2.08046 8.52289 2.69885C7.33753 3.93564 7.33753 5.94994 8.52289 7.18672L9.62149 8.33204L9.88541 8.05667L8.78772 6.91231C7.74665 5.82607 7.74665 4.06046 8.78772 2.97423C9.29182 2.44826 9.96121 2.1586 10.6753 2.1586C11.3895 2.1586 12.0589 2.44826 12.563 2.97423C13.604 4.06046 13.604 5.82607 12.563 6.91231L11.4653 8.05667L11.7292 8.33204H11.7283L11.7265 8.33108ZM11.2004 7.78225L12.299 6.63884C12.7319 6.1872 12.9703 5.585 12.9703 4.9447C12.9703 4.30439 12.7319 3.70219 12.299 3.25055C11.8662 2.79985 11.2881 2.5483 10.6744 2.5483C10.0607 2.5483 9.48451 2.79795 9.05073 3.25055C8.15486 4.18528 8.15486 5.70506 9.05073 6.63979L10.1484 7.78416L10.4123 7.50878L9.31465 6.36347C8.95118 5.98424 8.75211 5.48114 8.75211 4.94374C8.75211 4.40634 8.9521 3.90229 9.31465 3.52402C9.67811 3.14574 10.1612 2.93611 10.6753 2.93611C11.1895 2.93611 11.6726 3.14479 12.036 3.52402C12.4004 3.9042 12.5986 4.40634 12.5986 4.94374C12.5986 5.48114 12.3986 5.9852 12.036 6.36347L10.9374 7.50784L11.2014 7.7832L11.2004 7.78225ZM10.6735 7.23342L11.7712 6.08906C12.0634 5.7832 12.2242 5.37728 12.2242 4.9447C12.2242 4.51211 12.0625 4.10524 11.7712 3.80034C11.479 3.49447 11.0881 3.32678 10.6735 3.32678C10.2589 3.32678 9.86897 3.49543 9.57583 3.80034C9.28268 4.10524 9.12287 4.51211 9.12287 4.9447C9.12287 5.37728 9.28451 5.78415 9.57583 6.08906L10.6735 7.23342ZM16.6862 15.1677C17.698 15.1677 18.6478 14.757 19.3628 14.011C20.0779 13.2649 20.4724 12.272 20.4724 11.2182C20.4724 10.1644 20.0797 9.17054 19.3637 8.42447C18.6487 7.67839 17.6971 7.26867 16.6871 7.26867C15.677 7.26867 14.7255 7.67934 14.0104 8.42541L12.9118 9.56882L13.1757 9.84419L14.2734 8.69983C14.9392 8.00521 15.8131 7.65838 16.688 7.65838C17.5628 7.65838 18.4368 8.00616 19.1025 8.69983C20.4331 10.0881 20.4331 12.3483 19.1025 13.7365C18.4368 14.4312 17.5628 14.778 16.688 14.778C15.8131 14.778 14.9392 14.4302 14.2734 13.7365L13.1757 12.5922L12.9118 12.8676L14.0095 14.0119C14.7246 14.758 15.6752 15.1687 16.6862 15.1687V15.1677ZM4.66088 15.1677C5.67273 15.1677 6.62248 14.757 7.33753 14.011L8.43522 12.8666L8.1713 12.5912L7.07361 13.7356C6.42887 14.4083 5.57136 14.7789 4.65997 14.7789C3.74858 14.7789 2.89015 14.4083 2.24542 13.7356C0.914855 12.3473 0.914855 10.0872 2.24542 8.69888C2.89015 8.02618 3.74766 7.65552 4.65997 7.65552C5.57228 7.65552 6.42979 8.02618 7.07361 8.69888L8.17221 9.84324L8.43613 9.56787L7.33753 8.42351C6.62248 7.67744 5.6709 7.26676 4.66088 7.26676C3.65086 7.26676 2.69929 7.67744 1.98423 8.42351C0.507559 9.9633 0.508472 12.4702 1.98423 14.01C2.69929 14.7561 3.64995 15.1667 4.66088 15.1667V15.1677ZM10.6735 8.33204L10.9374 8.05667L10.6735 7.7813L10.4096 8.05667L10.6735 8.33204ZM4.66088 14.3902C5.47365 14.3902 6.2371 14.0596 6.81151 13.4602L7.9092 12.3159L7.64528 12.0405L6.54759 13.1848C6.04349 13.7108 5.37319 14.0005 4.65997 14.0005C3.94674 14.0005 3.27735 13.7108 2.77234 13.1848C2.26825 12.6589 1.99154 11.9605 1.99154 11.2163C1.99154 10.4721 2.26916 9.77273 2.77234 9.24771C3.27553 8.7227 3.94583 8.43208 4.65997 8.43208C5.37411 8.43208 6.04258 8.72175 6.54759 9.24771L7.64528 10.3921L7.9092 10.1167L6.81151 8.9733C6.2371 8.37396 5.47365 8.04333 4.66088 8.04333C3.84811 8.04333 3.08467 8.37396 2.51025 8.9733C1.32489 10.2101 1.32489 12.2244 2.51025 13.4612C3.08467 14.0605 3.84811 14.3911 4.66088 14.3911V14.3902ZM16.6862 14.3883C17.4651 14.3883 18.2441 14.0786 18.8368 13.4602C20.0221 12.2234 20.0221 10.2091 18.8368 8.97235C18.2441 8.35396 17.4651 8.04428 16.6862 8.04428C15.9072 8.04428 15.1282 8.35396 14.5355 8.97235L13.4387 10.1177L13.7027 10.393L14.8004 9.24867C15.3045 8.7227 15.9748 8.43304 16.688 8.43304C17.4012 8.43304 18.0706 8.7227 18.5756 9.24867C19.0797 9.77463 19.3573 10.474 19.3573 11.2172C19.3573 11.9605 19.0797 12.6598 18.5756 13.1858C18.0715 13.7118 17.4012 14.0014 16.688 14.0014C15.9748 14.0014 15.3045 13.7118 14.8004 13.1858L13.7027 12.0414L13.4387 12.3168L14.5364 13.4612C15.1291 14.0796 15.9081 14.3892 16.6871 14.3892L16.6862 14.3883ZM11.2004 8.88183L11.4644 8.60646L11.2004 8.33108L10.9365 8.60646L11.2004 8.88183ZM10.1466 8.88183L10.4105 8.60646L10.1466 8.33108L9.88267 8.60646L10.1466 8.88183ZM16.6862 13.6127C17.2998 13.6127 17.8761 13.363 18.3099 12.9104C18.7427 12.4578 18.982 11.8556 18.982 11.2163C18.982 10.5769 18.7427 9.97473 18.3089 9.52213C17.8752 9.07049 17.298 8.81989 16.6852 8.81989C16.0725 8.81989 15.4953 9.06953 15.0615 9.52213L13.9638 10.6665L14.2278 10.9419L15.3264 9.7975C15.6907 9.41827 16.1729 9.2096 16.6871 9.2096C17.2012 9.2096 17.6843 9.41827 18.0478 9.7975C18.4121 10.1777 18.6112 10.6808 18.6112 11.2172C18.6112 11.7537 18.4103 12.2577 18.0478 12.637C17.6843 13.0171 17.2012 13.2249 16.6871 13.2249C16.1729 13.2249 15.6898 13.0162 15.3264 12.637L14.2287 11.4917L13.9648 11.767L15.0625 12.9114C15.4962 13.364 16.0734 13.6136 16.6871 13.6136L16.6862 13.6127ZM4.66088 13.6127C5.27365 13.6127 5.85081 13.363 6.28458 12.9114L7.38228 11.767L7.11835 11.4917L6.02067 12.636C5.6572 13.0143 5.17411 13.2239 4.65997 13.2239C4.14583 13.2239 3.66273 13.0152 3.29927 12.636C2.9349 12.2558 2.73673 11.7537 2.73673 11.2163C2.73673 10.6789 2.93672 10.1748 3.29927 9.79655C3.66273 9.41827 4.14583 9.20865 4.65997 9.20865C5.17411 9.20865 5.65812 9.41827 6.02158 9.7975L7.11927 10.9419L7.38319 10.6665L6.2855 9.52213C5.85172 9.07049 5.27456 8.81989 4.66179 8.81989C4.04902 8.81989 3.47187 9.06953 3.03809 9.52213C2.60522 9.97473 2.36687 10.576 2.36687 11.2172C2.36687 11.8585 2.60522 12.4597 3.03809 12.9114C3.47096 13.3621 4.04902 13.6136 4.66179 13.6136L4.66088 13.6127ZM11.7265 9.43257L11.9904 9.1572L11.7265 8.88183L11.4625 9.1572L11.7265 9.43257ZM10.6726 9.43257L10.9365 9.1572L10.6726 8.88183L10.4087 9.1572L10.6726 9.43257ZM9.61966 9.43257L9.88358 9.1572L9.61966 8.88183L9.35574 9.1572L9.61966 9.43257ZM9.22424 9.84419L9.35574 9.70698L9.09182 9.43162L8.96032 9.56882L9.22424 9.84419ZM12.121 9.84419L12.3849 9.56882L12.2534 9.43162L11.9895 9.70698L12.121 9.84419ZM11.2004 9.9814L11.4644 9.70603L11.2004 9.43066L10.9365 9.70603L11.2004 9.9814ZM10.1466 9.9814L10.4105 9.70603L10.1466 9.43066L9.88267 9.70603L10.1466 9.9814ZM16.6862 12.8371C17.0998 12.8371 17.4907 12.6684 17.7838 12.3635C18.077 12.0576 18.2377 11.6508 18.2377 11.2191C18.2377 10.7875 18.0761 10.3797 17.7838 10.0748C17.4907 9.76892 17.1008 9.60122 16.6862 9.60122C16.2716 9.60122 15.8816 9.76988 15.5885 10.0748L14.4908 11.2191L15.5885 12.3635C15.8816 12.6694 16.2716 12.8371 16.6862 12.8371ZM4.66088 12.8371C5.07457 12.8371 5.46543 12.6684 5.75857 12.3635L6.85626 11.2191L5.75857 10.0748C5.46543 9.76892 5.0764 9.60122 4.66088 9.60122C4.24537 9.60122 3.85634 9.76988 3.56319 10.0748C3.27005 10.3797 3.11023 10.7865 3.11023 11.2191C3.11023 11.6517 3.27096 12.0586 3.56319 12.3635C3.85634 12.6694 4.24537 12.8371 4.66088 12.8371ZM12.6506 10.3959L12.9146 10.1205L12.6506 9.84515L12.3867 10.1205L12.6506 10.3959ZM8.70005 10.3959L8.96397 10.1205L8.70005 9.84515L8.43613 10.1205L8.70005 10.3959ZM11.5968 10.3959L11.8607 10.1205L11.7292 9.98331L11.4653 10.2587L11.5968 10.3959ZM10.6753 10.5331L10.9393 10.2577L10.6753 9.98236L10.4114 10.2577L10.6753 10.5331ZM9.75482 10.3959L9.88632 10.2587L9.6224 9.98331L9.4909 10.1205L9.75482 10.3959ZM13.1776 10.9447L13.4415 10.6694L13.1776 10.394L12.9136 10.6694L13.1776 10.9447ZM12.1237 10.9447L12.3876 10.6694L12.1237 10.394L11.8598 10.6694L12.1237 10.9447ZM9.22698 10.9447L9.4909 10.6694L9.22698 10.394L8.96306 10.6694L9.22698 10.9447ZM8.17404 10.9447L8.43796 10.6694L8.17404 10.394L7.91012 10.6694L8.17404 10.9447ZM11.0708 10.9447L11.3347 10.6694L11.2032 10.5321L10.9393 10.8075L11.0708 10.9447ZM10.2808 10.9447L10.4123 10.8075L10.1484 10.5321L10.0169 10.6694L10.2808 10.9447ZM13.7036 11.4936L13.9675 11.2182L13.7036 10.9428L13.4397 11.2182L13.7036 11.4936ZM12.6506 11.4936L12.9146 11.2182L12.6506 10.9428L12.3867 11.2182L12.6506 11.4936ZM11.5968 11.4936L11.8607 11.2182L11.5968 10.9428L11.3329 11.2182L11.5968 11.4936ZM9.75391 11.4936L10.0178 11.2182L9.75391 10.9428L9.48999 11.2182L9.75391 11.4936ZM8.70005 11.4936L8.96397 11.2182L8.70005 10.9428L8.43613 11.2182L8.70005 11.4936ZM7.6462 11.4936L7.91012 11.2182L7.6462 10.9428L7.38228 11.2182L7.6462 11.4936ZM10.6744 11.3554L10.8059 11.2182L10.6744 11.081L10.5429 11.2182L10.6744 11.3554ZM13.1767 12.0433L13.4406 11.768L13.1767 11.4926L12.9127 11.768L13.1767 12.0433ZM12.1228 12.0433L12.3867 11.768L12.1228 11.4926L11.8589 11.768L12.1228 12.0433ZM11.2014 11.9052L11.3329 11.768L11.0689 11.4926L10.9374 11.6298L11.2014 11.9052ZM10.1475 11.9052L10.4114 11.6298L10.2799 11.4926L10.016 11.768L10.1475 11.9052ZM9.22607 12.0433L9.48999 11.768L9.22607 11.4926L8.96214 11.768L9.22607 12.0433ZM8.17312 12.0433L8.43704 11.768L8.17312 11.4926L7.9092 11.768L8.17312 12.0433ZM10.6744 12.455L10.9384 12.1796L10.6744 11.9042L10.4105 12.1796L10.6744 12.455ZM12.6497 12.5922L12.9136 12.3168L12.6497 12.0414L12.3858 12.3168L12.6497 12.5922ZM11.7283 12.455L11.8598 12.3178L11.5959 12.0424L11.4644 12.1796L11.7283 12.455ZM8.70005 12.5922L8.96397 12.3168L8.70005 12.0414L8.43613 12.3168L8.70005 12.5922ZM9.62149 12.455L9.88541 12.1796L9.75391 12.0424L9.48999 12.3178L9.62149 12.455ZM11.2014 13.0038L11.4653 12.7284L11.2014 12.4531L10.9374 12.7284L11.2014 13.0038ZM10.1475 13.0038L10.4114 12.7284L10.1475 12.4531L9.88358 12.7284L10.1475 13.0038ZM12.2543 13.0038L12.3858 12.8666L12.1219 12.5912L11.9904 12.7284L12.2543 13.0038ZM9.09456 13.0038L9.35848 12.7284L9.22698 12.5912L8.96306 12.8666L9.09456 13.0038ZM11.7283 13.5536L11.9922 13.2782L11.7283 13.0029L11.4644 13.2782L11.7283 13.5536ZM10.6744 13.5536L10.9384 13.2782L10.6744 13.0029L10.4105 13.2782L10.6744 13.5536ZM9.62149 13.5536L9.88541 13.2782L9.62149 13.0029L9.35757 13.2782L9.62149 13.5536ZM10.6744 21.4412C11.6863 21.4412 12.636 21.0305 13.3511 20.2845C14.8268 18.7437 14.8268 16.2377 13.3511 14.698L12.2534 13.5536L11.9895 13.829L13.0872 14.9733C13.7319 15.646 14.0871 16.5407 14.0871 17.4926C14.0871 18.4445 13.7319 19.3392 13.0872 20.011C12.4214 20.7056 11.5475 21.0524 10.6726 21.0524C9.79774 21.0524 8.9247 20.7047 8.25896 20.01C6.9284 18.6217 6.9284 16.3616 8.25896 14.9733L9.35666 13.829L9.09273 13.5536L7.99505 14.698C6.51928 16.2387 6.51928 18.7447 7.99505 20.2845C8.7101 21.0305 9.66076 21.4412 10.6717 21.4412H10.6744ZM11.2014 14.1024L11.4653 13.8271L11.2014 13.5517L10.9374 13.8271L11.2014 14.1024ZM10.1475 14.1024L10.4114 13.8271L10.1475 13.5517L9.88358 13.8271L10.1475 14.1024ZM10.6735 20.6627C11.4525 20.6627 12.2315 20.3531 12.8242 19.7347C13.3986 19.1353 13.7155 18.3388 13.7155 17.4907C13.7155 16.6427 13.3986 15.8461 12.8242 15.2468L11.7265 14.1024L11.4625 14.3778L12.5602 15.5222C13.0634 16.0472 13.341 16.7466 13.341 17.4907C13.341 18.2349 13.0634 18.9343 12.5602 19.4593C12.057 19.9843 11.3867 20.2749 10.6726 20.2749C9.95847 20.2749 9.28999 19.9853 8.78498 19.4593C8.28088 18.9333 8.00418 18.2349 8.00418 17.4907C8.00418 16.7466 8.2818 16.0472 8.78498 15.5222L9.88267 14.3778L9.61875 14.1024L8.52106 15.2468C7.3357 16.4836 7.3357 18.4979 8.52106 19.7347C9.11374 20.3531 9.89272 20.6627 10.6717 20.6627H10.6735ZM10.6735 14.6522L10.9374 14.3768L10.6735 14.1015L10.4096 14.3768L10.6735 14.6522ZM10.6735 19.8871C11.2872 19.8871 11.8634 19.6375 12.2981 19.1858C12.7319 18.7342 12.9694 18.132 12.9694 17.4917C12.9694 16.8514 12.731 16.2492 12.2981 15.7975L11.2004 14.6513L10.9365 14.9266L12.0342 16.071C12.3977 16.4502 12.5968 16.9533 12.5968 17.4907C12.5968 18.0281 12.3968 18.5322 12.0342 18.9105C11.6708 19.2897 11.1877 19.4984 10.6735 19.4984C10.1594 19.4984 9.67628 19.2897 9.31282 18.9105C8.94936 18.5322 8.75028 18.0281 8.75028 17.4907C8.75028 16.9533 8.95027 16.4493 9.31282 16.071L10.4105 14.9266L10.1466 14.6513L9.0489 15.7956C8.61604 16.2473 8.37769 16.8495 8.37769 17.4898C8.37769 18.1301 8.61695 18.7323 9.0489 19.1839C9.48085 19.6346 10.0598 19.8852 10.6726 19.8852V19.8871H10.6735ZM10.6735 19.1096C11.0881 19.1096 11.4781 18.9409 11.7712 18.636C12.0644 18.3302 12.2242 17.9243 12.2242 17.4917C12.2242 17.0591 12.0625 16.6522 11.7712 16.3473L10.6735 15.203L9.57583 16.3473C9.2836 16.6532 9.12287 17.0591 9.12287 17.4917C9.12287 17.9243 9.28451 18.3311 9.57583 18.636C9.86806 18.9419 10.258 19.1096 10.6735 19.1096Z" fill="url(#paint0_linear_1458_22154)"/>
<defs>
<linearGradient id="paint0_linear_1458_22154" x1="-1.63393" y1="-0.38744" x2="37.7384" y2="32.2653" gradientUnits="userSpaceOnUse">
<stop stop-color="#F8E78B"/>
<stop offset="0.14" stop-color="#F8E78B"/>
<stop offset="0.3" stop-color="#AB7C34"/>
<stop offset="0.5" stop-color="#E7BA65"/>
<stop offset="0.73" stop-color="#AB7C34"/>
<stop offset="0.8" stop-color="#BB9A51"/>
<stop offset="0.83" stop-color="#F7E68A"/>
<stop offset="0.88" stop-color="#AB7C34"/>
<stop offset="0.91" stop-color="#8A530F"/>
<stop offset="0.94" stop-color="#814210"/>
<stop offset="1" stop-color="#140600"/>
</linearGradient>
</defs>
</svg>
