<svg width="17" height="16" viewBox="0 0 17 16" fill="none" xmlns="http://www.w3.org/2000/svg">
<path d="M9.74878 3C9.35404 3.00051 8.96031 3.03986 8.57328 3.1175C8.78058 3.77225 8.80409 4.47136 8.64125 5.13856C8.47841 5.80576 8.13547 6.41543 7.64984 6.90106C7.16421 7.38669 6.55454 7.72963 5.88734 7.89247C5.22014 8.05531 4.52103 8.0318 3.86628 7.8245C3.6239 9.03769 3.76247 10.2962 4.26302 11.4275C4.76356 12.5589 5.60161 13.5079 6.6624 14.1446C7.72318 14.7812 8.95484 15.0744 10.1887 14.9839C11.4226 14.8935 12.5983 14.4238 13.5549 13.6393C14.5115 12.8547 15.2022 11.7937 15.5324 10.6014C15.8626 9.40907 15.8161 8.14386 15.3994 6.97899C14.9827 5.81411 14.216 4.80654 13.2045 4.09424C12.193 3.38194 10.9859 2.99975 9.74878 3ZM12.7488 9.5H9.74878C9.61617 9.5 9.48899 9.44732 9.39523 9.35355C9.30146 9.25979 9.24878 9.13261 9.24878 9V6C9.24878 5.86739 9.30146 5.74022 9.39523 5.64645C9.48899 5.55268 9.61617 5.5 9.74878 5.5C9.88139 5.5 10.0086 5.55268 10.1023 5.64645C10.1961 5.74022 10.2488 5.86739 10.2488 6V8.5H12.7488C12.8814 8.5 13.0086 8.55268 13.1023 8.64645C13.1961 8.74021 13.2488 8.86739 13.2488 9C13.2488 9.13261 13.1961 9.25979 13.1023 9.35355C13.0086 9.44732 12.8814 9.5 12.7488 9.5Z" fill="#EEAD1E"/>
<path d="M8.25 4.25C8.25 3.60721 8.05939 2.97886 7.70228 2.4444C7.34516 1.90994 6.83758 1.49338 6.24372 1.24739C5.64986 1.00141 4.9964 0.937047 4.36596 1.06245C3.73552 1.18785 3.15643 1.49738 2.7019 1.9519C2.24738 2.40643 1.93785 2.98552 1.81245 3.61596C1.68705 4.2464 1.75141 4.89986 1.99739 5.49372C2.24338 6.08758 2.65994 6.59516 3.1944 6.95228C3.72886 7.30939 4.35721 7.5 5 7.5C5.86163 7.49894 6.68767 7.15619 7.29693 6.54693C7.90619 5.93767 8.24894 5.11163 8.25 4.25ZM4.5 3C4.5 2.86739 4.55268 2.74022 4.64645 2.64645C4.74022 2.55268 4.86739 2.5 5 2.5C5.13261 2.5 5.25979 2.55268 5.35355 2.64645C5.44732 2.74022 5.5 2.86739 5.5 3V4C5.5 4.13261 5.44732 4.25979 5.35355 4.35355C5.25979 4.44732 5.13261 4.5 5 4.5C4.86739 4.5 4.74022 4.44732 4.64645 4.35355C4.55268 4.25979 4.5 4.13261 4.5 4V3ZM4.5 5.5C4.5 5.40111 4.52933 5.30444 4.58427 5.22222C4.63921 5.13999 4.7173 5.07591 4.80866 5.03806C4.90002 5.00022 5.00056 4.99032 5.09755 5.00961C5.19454 5.0289 5.28363 5.07652 5.35355 5.14645C5.42348 5.21637 5.4711 5.30547 5.49039 5.40246C5.50969 5.49945 5.49979 5.59998 5.46194 5.69134C5.4241 5.78271 5.36001 5.8608 5.27779 5.91574C5.19556 5.97068 5.09889 6 5 6C4.86739 6 4.74022 5.94732 4.64645 5.85355C4.55268 5.75979 4.5 5.63261 4.5 5.5Z" fill="#EEAD1E"/>
</svg>
