<svg width="20" height="20" viewBox="0 0 20 20" fill="none" xmlns="http://www.w3.org/2000/svg">
<g clip-path="url(#clip0_6192_5152)">
<path d="M19.0826 18.1777H0.908917C0.4068 18.1777 0 18.5845 0 19.0871C0 19.5888 0.4068 19.9956 0.908917 19.9956H19.0821C19.5843 19.9956 19.9911 19.5888 19.9911 19.0871C19.9906 18.5845 19.5838 18.1777 19.0826 18.1777Z" fill="white"/>
<path d="M2.04173 15.8151C1.53961 15.8151 1.13281 16.2219 1.13281 16.724C1.13281 17.2262 1.53961 17.6334 2.04173 17.6334H17.9435C18.4456 17.6334 18.8524 17.2262 18.8524 16.724C18.8524 16.2219 18.4456 15.8151 17.9435 15.8151H17.7167V7.63658H17.9435C18.195 7.63658 18.3976 7.43318 18.3976 7.18255C18.3976 6.93192 18.1942 6.72852 17.9435 6.72852H2.04173C1.79067 6.72852 1.5877 6.93192 1.5877 7.18255C1.5877 7.43318 1.7911 7.63658 2.04173 7.63658H2.26896V15.8147L2.04173 15.8151ZM15.8989 7.63658V15.8147H13.173V7.63658H15.8989ZM11.3551 7.63658V15.8147H8.62925V7.63658H11.3551ZM4.08594 7.63658H6.81184V15.8147H4.08594V7.63658Z" fill="white"/>
<path d="M0.908934 5.9119H19.0822C19.0851 5.9119 19.0885 5.9119 19.0911 5.9119C19.5936 5.9119 20 5.5051 20 5.00299C20 4.60385 19.743 4.26556 19.386 4.14301L10.3692 0.0856449C10.1321 -0.0207358 9.86108 -0.0207358 9.62364 0.0856449L0.536176 4.17449C0.145121 4.35066 -0.0697685 4.77533 0.0204424 5.19405C0.110228 5.61276 0.480432 5.9119 0.908934 5.9119Z" fill="white"/>
</g>
<defs>
<clipPath id="clip0_6192_5152">
<rect width="20" height="20" fill="white"/>
</clipPath>
</defs>
</svg>
