<svg width="24" height="24" viewBox="0 0 24 24" fill="none" xmlns="http://www.w3.org/2000/svg">
<g clip-path="url(#clip0_2522_91)">
<path fill-rule="evenodd" clip-rule="evenodd" d="M7.8 7.96094C12.1078 7.96094 15.6 11.4531 15.6 15.7609C15.6 20.0688 12.1078 23.5609 7.8 23.5609C3.49219 23.5562 0 20.0688 0 15.7609C0 11.4531 3.49219 7.96094 7.8 7.96094Z" fill="#704900"/>
<path fill-rule="evenodd" clip-rule="evenodd" d="M7.80078 9.19922C11.4242 9.19922 14.3586 12.1383 14.3586 15.757C14.3586 19.3805 11.4242 22.3195 7.80078 22.3195C4.17734 22.3195 1.23828 19.3805 1.23828 15.757C1.23828 12.1383 4.17734 9.19922 7.80078 9.19922Z" fill="#FFF2DB"/>
<path d="M3.03789 13.4484C2.85508 13.3453 2.79414 13.1109 2.89727 12.9328C3.00039 12.75 3.23477 12.6891 3.41758 12.7922L4.14883 13.2141C4.33164 13.3172 4.39258 13.5516 4.28945 13.7344C4.18633 13.9172 3.95195 13.9781 3.76914 13.875L3.03789 13.4484ZM4.82852 11.3766C4.72539 11.1937 4.78633 10.9641 4.96914 10.8563C5.15195 10.7531 5.38164 10.8141 5.48945 10.9969L5.91133 11.7281C6.01445 11.9109 5.95352 12.1406 5.7707 12.2438C5.58789 12.3469 5.3582 12.2859 5.25508 12.1031L4.82852 11.3766ZM7.41602 10.4813C7.41602 10.2703 7.58477 10.1016 7.7957 10.1016C8.00664 10.1016 8.17539 10.2703 8.17539 10.4813V11.3297C8.17539 11.5406 8.00664 11.7094 7.7957 11.7094C7.58477 11.7094 7.41602 11.5359 7.41602 11.3297V10.4813ZM10.1066 10.9969C10.2098 10.8141 10.4441 10.7531 10.627 10.8609C10.8098 10.9641 10.8707 11.1984 10.7629 11.3813L10.341 12.1125C10.2379 12.2953 10.0035 12.3562 9.8207 12.2484C9.63789 12.1453 9.57695 11.9109 9.68008 11.7281L10.1066 10.9969ZM12.1785 12.7922C12.3613 12.6891 12.591 12.75 12.6988 12.9281C12.802 13.1109 12.741 13.3406 12.5629 13.4484L11.8316 13.8703C11.6488 13.9734 11.4191 13.9125 11.3113 13.7297C11.2082 13.5469 11.2691 13.3172 11.4473 13.2094L12.1785 12.7922ZM13.0738 15.375C13.2848 15.375 13.4535 15.5484 13.4535 15.7547C13.4535 15.9656 13.2801 16.1344 13.0738 16.1344H12.2254C12.0145 16.1344 11.8457 15.9609 11.8457 15.7547C11.8457 15.5437 12.0145 15.375 12.2254 15.375H13.0738ZM12.5582 18.0703C12.741 18.1734 12.802 18.4078 12.6941 18.5906C12.591 18.7734 12.3566 18.8344 12.1738 18.7312L11.4426 18.3094C11.2598 18.2062 11.1988 17.9719 11.3066 17.7891C11.4098 17.6062 11.6441 17.5453 11.827 17.6484L12.5582 18.0703ZM10.7676 20.1375C10.8707 20.3203 10.8098 20.55 10.6316 20.6578C10.4488 20.7609 10.2191 20.7 10.1113 20.5172L9.68945 19.7859C9.58633 19.6031 9.64727 19.3734 9.83008 19.2656C10.0129 19.1625 10.2426 19.2234 10.3504 19.4062L10.7676 20.1375ZM8.18008 21.0375C8.18008 21.2484 8.01133 21.4172 7.80039 21.4172C7.58945 21.4172 7.4207 21.2484 7.4207 21.0375V20.1891C7.4207 19.9781 7.58945 19.8094 7.80039 19.8094C8.01133 19.8094 8.18008 19.9828 8.18008 20.1891V21.0375ZM5.48945 20.5172C5.38633 20.7 5.15195 20.7609 4.96914 20.6578C4.78633 20.5547 4.72539 20.3203 4.82852 20.1375L5.25039 19.4062C5.35352 19.2234 5.58789 19.1625 5.76602 19.2656C5.94883 19.3687 6.00977 19.6031 5.90664 19.7859L5.48945 20.5172ZM3.41758 18.7266C3.23477 18.8297 3.00508 18.7687 2.89727 18.5859C2.79414 18.4031 2.85508 18.1734 3.03789 18.0703L3.76914 17.6484C3.95195 17.5453 4.18164 17.6062 4.28945 17.7891C4.39258 17.9719 4.33164 18.2016 4.14883 18.3047L3.41758 18.7266ZM2.52227 16.1391C2.31133 16.1391 2.14258 15.9656 2.14258 15.7594C2.14258 15.5484 2.31133 15.3797 2.52227 15.3797H3.3707C3.58164 15.3797 3.75039 15.5531 3.75039 15.7594C3.75039 15.9703 3.58164 16.1391 3.3707 16.1391H2.52227Z" fill="#704900"/>
<path d="M10.157 15.4234C10.368 15.4234 10.5367 15.5922 10.5367 15.8031C10.5367 16.0141 10.368 16.1828 10.157 16.1828H8.91486C8.85392 16.3422 8.76017 16.4875 8.64298 16.6047C8.42736 16.8203 8.12736 16.9563 7.79454 16.9563C7.46173 16.9563 7.16642 16.8203 6.94611 16.6047C6.73048 16.3891 6.59454 16.0891 6.59454 15.7563C6.59454 15.4609 6.70236 15.1891 6.88048 14.9781L5.85861 13.2063C5.75548 13.0234 5.81642 12.7938 5.99923 12.6906C6.18204 12.5875 6.41173 12.6484 6.51486 12.8313L7.53204 14.5938C7.61642 14.575 7.70548 14.5656 7.79454 14.5656C8.12736 14.5656 8.42267 14.7016 8.64298 14.9172C8.78361 15.0578 8.89142 15.2313 8.94767 15.4281H10.157V15.4234ZM8.23048 15.7844C8.23048 15.7703 8.23048 15.7656 8.23048 15.7563C8.23048 15.6344 8.18361 15.5266 8.10392 15.4469C8.02423 15.3672 7.91642 15.3203 7.79454 15.3203C7.67267 15.3203 7.56486 15.3672 7.48517 15.4469C7.40548 15.5266 7.35861 15.6344 7.35861 15.7563C7.35861 15.8781 7.40548 15.9859 7.48517 16.0656C7.56486 16.1453 7.67267 16.1922 7.79454 16.1922C7.91642 16.1922 8.02423 16.1406 8.10392 16.0656C8.17892 15.9953 8.22579 15.8969 8.23048 15.7844Z" fill="#FFBA57"/>
<path d="M23.9008 12.4478C24.0414 12.6025 24.032 12.8416 23.8773 12.9869C23.7226 13.1275 23.4836 13.1181 23.3383 12.9634L22.1383 11.6603L21.6086 13.3525C21.5476 13.5541 21.332 13.6666 21.1305 13.6056C20.9289 13.54 20.8164 13.3291 20.882 13.1275L21.6086 10.8025C21.6273 10.7416 21.6648 10.6853 21.7164 10.6384C21.8711 10.4978 22.1101 10.5072 22.2555 10.6619L23.9008 12.4478Z" fill="#A96D00"/>
<path d="M15.5298 20.7849C15.3188 20.7896 15.1454 20.6255 15.1407 20.4146C15.136 20.2036 15.3048 20.0302 15.511 20.0255C17.147 19.988 18.6657 19.3458 19.8282 18.3005C20.972 17.2646 21.7642 15.8349 21.9704 14.1849C22.0313 13.7208 22.036 13.2568 21.9985 12.7974C21.961 12.3333 21.8767 11.8786 21.7454 11.4427C21.6845 11.2411 21.8017 11.0302 22.0032 10.9693C22.2048 10.9083 22.4157 11.0255 22.4767 11.2271C22.622 11.7146 22.7204 12.2208 22.7626 12.7411C22.8048 13.2427 22.7907 13.7583 22.7251 14.2833C22.4907 16.1208 21.6095 17.7146 20.3392 18.8677C19.0407 20.0302 17.3485 20.7427 15.5298 20.7849Z" fill="#A96D00"/>
<path fill-rule="evenodd" clip-rule="evenodd" d="M21.4645 1.74922L21.1598 2.78516C21.3379 2.98672 21.4926 3.20234 21.6238 3.42734L22.702 3.46953C22.9457 4.03203 23.091 4.63672 23.1191 5.24609L22.1723 5.76641C22.1535 6.02891 22.1113 6.29141 22.0457 6.54922L22.777 7.34141C22.6645 7.62266 22.5285 7.89453 22.3645 8.16172C22.2004 8.42891 22.0176 8.67266 21.816 8.89297L20.7801 8.58828C20.5785 8.76641 20.3629 8.92109 20.1379 9.05235L20.0957 10.1305C19.5332 10.3742 18.9285 10.5195 18.3191 10.5477L17.7988 9.60078C17.5363 9.58672 17.2738 9.53985 17.016 9.47422L16.2238 10.2055C15.9426 10.093 15.6707 9.95703 15.4035 9.79297C15.1363 9.62891 14.8926 9.44141 14.6723 9.24453L14.977 8.20859C14.7988 8.00703 14.6441 7.79141 14.5129 7.56172L13.4348 7.51953C13.191 6.95703 13.0457 6.35234 13.0176 5.74297L13.9645 5.22266C13.9785 4.96016 14.0254 4.69766 14.091 4.43984L13.3598 3.64766C13.4723 3.36641 13.6082 3.09453 13.7723 2.82734C13.9363 2.56484 14.1191 2.31641 14.3207 2.09609L15.3566 2.40078C15.5582 2.22734 15.7738 2.06797 15.9988 1.93672L16.041 0.858594C16.6035 0.614844 17.2082 0.469531 17.8176 0.441406L18.3379 1.38828C18.6004 1.40703 18.8629 1.44922 19.1207 1.51484L19.9129 0.783594C20.1941 0.891406 20.466 1.02734 20.7332 1.19609C20.9957 1.36016 21.2395 1.54297 21.4645 1.74922Z" fill="#FFBD45"/>
<path fill-rule="evenodd" clip-rule="evenodd" d="M19.4665 3.23515C20.7133 4.00859 21.0977 5.64921 20.3243 6.89609C19.5508 8.14297 17.9102 8.52734 16.6633 7.7539C15.4165 6.98046 15.0321 5.34453 15.8055 4.09296C16.579 2.84609 18.2196 2.46171 19.4665 3.23515Z" fill="#FFF2DB"/>
<path d="M4.97428 5.01373C4.90865 4.81217 5.01647 4.60123 5.21803 4.53092C5.41959 4.4653 5.63053 4.57311 5.70084 4.77467L6.10397 5.99811L6.96178 5.03717C7.1024 4.88248 7.34147 4.86842 7.50084 5.00436C7.65553 5.14498 7.66959 5.38405 7.53365 5.54342L6.2399 6.98248C6.19303 7.03873 6.13678 7.07623 6.06647 7.09967C5.8649 7.1653 5.65397 7.05748 5.58365 6.85592L4.97428 5.01373Z" fill="#A96D00"/>
<path d="M12.559 1.20831C12.7653 1.24112 12.9059 1.438 12.8731 1.64425C12.8403 1.8505 12.6434 1.99112 12.4372 1.95831C11.3965 1.78487 10.3325 1.93487 9.38561 2.36612C8.46686 2.788 7.66061 3.47237 7.09342 4.39581C6.9153 4.69112 6.7653 4.99581 6.64811 5.30519C6.52624 5.62394 6.44186 5.94737 6.38561 6.2755C6.3528 6.48175 6.15592 6.62237 5.94967 6.58956C5.74342 6.55675 5.6028 6.35987 5.63561 6.15362C5.70124 5.77862 5.79967 5.40362 5.93561 5.04269C6.06686 4.68644 6.2403 4.33956 6.44186 4.00675C7.09342 2.94737 8.01686 2.15987 9.06686 1.68175C10.1544 1.18487 11.3731 1.01144 12.559 1.20831Z" fill="#A96D00"/>
</g>
<defs>
<clipPath id="clip0_2522_91">
<rect width="24" height="24" fill="white"/>
</clipPath>
</defs>
</svg>
